v 0 91.4448001113213 -25
v 0 92.4285681128965 -25
v 0 93.4123361144716 -25
v 0 94.3961041160468 -25
v 0 95.3798721176219 -25
v 0 96.3636401191971 -25
v 0 97.3474081207722 -25
v 0 98.3311761223474 -25
v 0 99.3149441239225 -25
v 0 100.298712125498 -25
v 0 101.282480127073 -25
v 0 102.266248128648 -25
v 0 103.250016130223 -25
v 0 104.233784131798 -25
v 0 105.217552133373 -25
v 0 106.201320134949 -25
v 0 107.185088136524 -25
v 0 108.168856138099 -25
v 0 109.152624139674 -25
v 0 110.136392141249 -25
v 0 111.120160142824 -25
v 0 112.1039281444 -25
v 0 113.087696145975 -25
v 0 114.07146414755 -25
v 0 115.055232149125 -25
v 0 116.0390001507 -25
v 0 117.022768152275 -25
v 0 118.00653615385 -25
v 0 118.990304155426 -25
v 0 119.974072157001 -25
v 0 120.957840158576 -25
v 0 121.941608160151 -25
v 0 122.925376161726 -25
v 0 123.909144163301 -25
v 0 124.892912164877 -25
v 0 125.876680166452 -25
v 0 126.860448168027 -25
v 0 127.844216169602 -25
v 0 128.827984171177 -25
v 0 129.811752172752 -25
v 0 130.795520174328 -25
v 0 131.779288175903 -25
v 0 132.763056177478 -25
v 0 133.746824179053 -25
v 0 134.730592180628 -25
v 0 135.714360182203 -25
v 10.8188 141.363353496348 -25
v 11.7344571428571 140.999381962751 -25
v 12.6501142857143 140.635410429155 -25
v 13.5657714285714 140.271438895558 -25
v 14.4814285714286 139.907467361962 -25
v 15.3970857142857 139.543495828365 -25
v 16.3127428571429 139.179524294769 -25
v 17.2284 138.815552761172 -25
v 17.2463100977758 137.841613845817 -25
v 17.2625834824804 136.867646002575 -25
v 17.2788204521681 135.893677549482 -25
v 17.2968894720184 134.919741683769 -25
v 17.318992591211 133.945889853272 -25
v 17.347751707593 132.972213497484 -25
v 17.3863232457028 131.998879407072 -25
v 17.4385515466986 131.026187546458 -25
v 17.50917447917 130.054666423891 -25
v 17.604097447363 129.08523192169 -25
v 17.7307506039843 128.119453951485 -25
v 17.8985285705988 127.160004920969 -25
v 18.119256245873 126.211403947432 -25
v 18.4074703953617 125.28119522325 -25
v 18.7799645335738 124.381595260611 -25
v 19.2535324899596 123.531110243649 -25
v 19.8398465655983 122.754341029006 -25
v 20.5386916865078 122.077213451943 -25
v 21.335026448553 121.517873577086 -25
v 22.2042990282037 121.079955062127 -25
v 23.1217062455877 120.754051272042 -25
v 24.0679697601298 120.524300860751 -25
v 25.030191260846 120.374072761172 -25
v 25.030191260846 119.376511635315 -25
v 25.030191260846 118.378950509458 -25
v 25.030191260846 117.381389383601 -25
v 25.030191260846 116.383828257744 -25
v 25.030191260846 115.386267131887 -25
v 25.030191260846 114.38870600603 -25
v 25.030191260846 113.391144880174 -25
v 25.030191260846 112.393583754317 -25
v 25.030191260846 111.39602262846 -25
v 25.030191260846 110.398461502603 -25
v 25.030191260846 109.400900376746 -25
v 25.030191260846 108.403339250889 -25
v 25.030191260846 107.405778125032 -25
v 25.030191260846 106.408216999175 -25
v 25.030191260846 105.410655873318 -25
v 25.030191260846 104.413094747461 -25
v 25.030191260846 103.415533621604 -25
v 25.030191260846 102.417972495747 -25
v 25.030191260846 101.420411369891 -25
v 25.030191260846 100.422850244034 -25
v 25.030191260846 99.4252891181767 -25
v 25.030191260846 98.4277279923197 -25
v 25.030191260846 97.4301668664628 -25
v 25.030191260846 96.4326057406059 -25
v 25.030191260846 95.435044614749 -25
v 25.030191260846 94.4374834888921 -25
v 25.030191260846 93.4399223630351 -25
v 25.030191260846 92.4423612371782 -25
v 25.030191260846 91.4448001113213 -25
v 0.975176746334342 135.750473749048 -25
v 1.94501126703428 135.858616611781 -25
v 2.90419060231376 136.0381963408 -25
v 3.84746016375874 136.288229160151 -25
v 4.76965252008026 136.60734533687 -25
v 5.66571570540207 136.993796684665 -25
v 6.53074089500431 137.445466140855 -25
v 7.35998929690934 137.95987936409 -25
v 8.14891811199221 138.534218289319 -25
v 8.89320542040046 139.165336565749 -25
v 9.58877385795033 139.849776793224 -25
v 10.231812952795 140.583789462599 -25
v 24.0674915969673 91.4448001113213 -25
v 23.1047919330886 91.4448001113213 -25
v 22.1420922692099 91.4448001113213 -25
v 21.1793926053313 91.4448001113213 -25
v 20.2166929414526 91.4448001113213 -25
v 19.2539932775739 91.4448001113213 -25
v 18.2912936136952 91.4448001113213 -25
v 17.3285939498165 91.4448001113213 -25
v 16.3658942859378 91.4448001113213 -25
v 15.4031946220591 91.4448001113213 -25
v 14.4404949581804 91.4448001113213 -25
v 13.4777952943017 91.4448001113213 -25
v 12.515095630423 91.4448001113213 -25
v 11.5523959665443 91.4448001113213 -25
v 10.5896963026656 91.4448001113213 -25
v 9.62699663878693 91.4448001113213 -25
v 8.66429697490824 91.4448001113213 -25
v 7.70159731102955 91.4448001113213 -25
v 6.73889764715085 91.4448001113213 -25
v 5.77619798327216 91.4448001113213 -25
v 4.81349831939347 91.4448001113213 -25
v 3.85079865551477 91.4448001113213 -25
v 2.88809899163608 91.4448001113213 -25
v 1.92539932775739 91.4448001113213 -25
v 0.962699663878691 91.4448001113213 -25
v 12.5122141552549 104.725668132586 -25
v 10.889927398225 116.530884151488 -25
v 9.03053957681856 125.384796165664 -25
v 17.0140643077248 111.3583940011 -25
v 16.8472441178771 98.7840132637388 -25
v 7.55861349208997 99.0082805342202 -25
v 7.2132932660843 109.644508140462 -25
v 10.596673421613 131.991355491309 -25
v 18.7567980825425 105.331402878081 -25
v 5.83377462265724 119.482188156213 -25
v 17.6329726813393 117.09378521399 -25
v 13.5795504219571 121.71792381639 -25
v 5.54551018107019 129.699859688618 -25
v 5.6097401046641 104.268727052279 -25
v 12.2448654484856 109.751266672041 -25
v 5.14866379718135 114.370552794422 -25
v 12.2287747234904 99.9666249481342 -25
v 4.55545839533126 124.401028164089 -25
v 13.3472050529604 126.858513281628 -25
v 12.8567987274965 135.793479808384 -25
v 10.6393423644695 95.8537929315654 -25
v 20.5686586199346 101.250814949259 -25
v 20.4789373458407 96.0082643328883 -25
v 4.41528020799941 95.8692316452204 -25
v 20.643514123542 113.867827543304 -25
v 20.7258128270595 109.166208592915 -25
v 9.50084353721953 121.313122267851 -25
v 13.6197316587113 113.551244143364 -25
v 15.4045243648996 107.399441871977 -25
v 9.6640936120794 112.760691502497 -25
v 14.9218447901197 95.3511803605685 -25
v 3.80548405915013 99.8068281247101 -25
v 9.18640090376211 102.602567450145 -25
v 21.3413345513427 117.491760810583 -25
v 3.65695996316178 110.628276142037 -25
v 15.2547374058164 102.174366593048 -25
v 9.11550525879957 106.380099475645 -25
v 6.71508922647861 133.328543798055 -25
v 13.8668975265592 130.440384014921 -25
v 8.95783977025326 128.890941673083 -25
v 14.1514062977194 118.130559119115 -25
v 3.38801456148055 132.683973461914 -25
v 3.52256359376157 107.1074205439 -25
v 9.53025808056534 135.198086555973 -25
v 21.8866928706606 105.909436436247 -25
v 16.8914166195385 121.138495999757 -25
v 3.35526014709524 117.212652373994 -25
v 7.52454424400138 94.7459891150811 -25
v 8.04967623227157 115.369979362793 -25
v 2.97909828600986 120.465956157788 -25
v 15.348549517996 124.373424912196 -25
v 2.99689910526497 102.729537818914 -25
v 8.6309719548117 118.467592218446 -25
v 3.23535117279995 127.389589599119 -25
v 11.334516566895 123.587921525611 -25
v 6.70096842477713 122.333081372316 -25
v 16.5173946447066 114.313078756551 -25
v 19.2523155757892 119.481008780169 -25
v 11.7318830933011 119.584128573573 -25
v 6.55602701347042 101.628074951044 -25
v 6.3261040928985 106.982095500035 -25
v 18.1345693479669 108.073798530483 -25
v 17.6536089728664 96.075368022852 -25
v 6.72908222600095 127.090901994317 -25
v 14.4341206137954 133.319263645091 -25
v 17.8436832397178 101.321248123034 -25
v 14.1904020761687 98.0178034453942 -25
v 2.61159281464872 113.579580146762 -25
v 2.88602770337076 130.049055283496 -25
v 22.0177745326862 98.603971651497 -25
v 16.0933569739546 104.765010536771 -25
v 11.6519951401558 138.167427731388 -25
v 19.440130103875 98.9128500151064 -25
v 5.92135409690238 111.894110409436 -25
v 11.6431810441314 128.93438595109 -25
v 5.93494213272774 116.883569301845 -25
v 22.2238059535304 111.543959730508 -25
v 14.8378316014959 109.936495795473 -25
v 9.71850933874197 110.19605659687 -25
v 12.8482088214148 107.263452566568 -25
v 7.66072294463986 131.020923491734 -25
v 22.5162747386767 102.916753058676 -25
v 18.7726434456345 93.8702801067554 -25
v 22.3715958907892 94.1132433130747 -25
v 15.3077315308631 128.292890337394 -25
v 12.602555208065 94.0855135497264 -25
v 2.51335562102342 122.935804126834 -25
v 11.6637924569558 102.388236347189 -25
v 9.75138317029673 100.18095605109 -25
v 19.5997674734031 111.498027687275 -25
v 3.36944882357542 93.7544369387317 -25
v 2.29040076030209 96.8555241199847 -25
v 22.5781405775402 115.374450478971 -25
v 13.2130919995478 115.918978583091 -25
v 10.6506035379037 108.093143045751 -25
v 6.84981236685208 124.634472684465 -25
v 22.7355422113833 96.4244555940874 -25
v 11.2707820622745 125.881732845244 -25
v 14.8534885777569 137.17632025274 -25
v 10.1083464707263 93.6549961200266 -25
v 5.08601554725317 108.874351382332 -25
v 2.40800680299402 125.23829551237 -25
v 15.5106942473314 116.331081849578 -25
v 20.6066776169843 104.077589472733 -25
v 6.53980618777824 96.88514217061 -25
v 12.180685717763 133.622572954973 -25
v 10.8233167568592 98.1462343246808 -25
v 18.6848268314799 115.057667107521 -25
v 3.48299373875298 104.891671448763 -25
v 8.77770591230088 97.1172767502317 -25
v 22.7480905121097 108.051767147137 -25
v 22.808899056036 100.697728874586 -25
v 20.0719023636965 107.09783691654 -25
v 15.0544576366294 100.011101343944 -25
v 5.50305559891702 94.0152977391937 -25
v 12.9323117975124 96.2390876775134 -25
v 4.52096265168786 122.035544520067 -25
v 15.8845444539984 93.4869591710938 -25
v 7.04525233208921 135.405916468096 -25
v 4.79390130476357 134.336172061828 -25
v 17.7653424684018 103.448122166525 -25
v 16.2868023570073 118.937312476473 -25
v 8.83744869077268 133.187002579174 -25
v 7.61777461659105 120.496864839285 -25
v 8.63000860070208 123.275533834613 -25
v 7.41076106384479 105.244483328002 -25
v 13.2020946673747 124.693222956742 -25
v 1.99811092344116 100.790596126285 -25
v 7.57409593609758 113.271648823643 -25
v 2.2200209976461 108.92013341483 -25
v 18.1562284988086 113.069473219856 -25
v 15.0325913257626 112.014738215299 -25
v 11.4183284690433 114.274701717839 -25
v 11.838741651011 112.014289696685 -25
v 11.494868197137 121.582220730032 -25
v 5.52667642607386 98.6773128947761 -25
v 1.92708091328865 98.8069287729731 -25
v 10.3073826460552 104.513037003539 -25
v 1.92772219615313 111.612044143612 -25
v 14.208247693622 105.792253168635 -25
v 15.9364091075168 97.0385070860193 -25
v 15.9969275924248 126.340122488361 -25
v 17.0914920406232 106.433267110794 -25
v 14.646792120313 120.048789402642 -25
v 15.2729601209426 135.179385467382 -25
v 15.5413942264678 131.412068560997 -25
v 22.5246095642294 113.447768287818 -25
v 5.8200450729046 131.614201441316 -25
v 1.88793402221955 118.498420154638 -25
v 10.3226135462788 127.546443117568 -25
v 23.1990353643083 117.88016994653 -25
v 16.7239982662856 109.426019072858 -25
v 8.68132233063588 108.313521382381 -25
v 14.2500295504277 103.844044576351 -25
v 17.0670425111156 123.207651017456 -25
v 15.3170345180369 122.477446809487 -25
v 8.14376662377554 111.38346654606 -25
v 13.4139138206027 101.519841099775 -25
v 11.2590292069842 106.182720407532 -25
v 1.8394957791178 94.8879881168344 -25
v 19.4540398129239 117.60132953438 -25
v 4.59703327680108 101.599019661954 -25
v 18.551795322023 109.920858533721 -25
v 1.92246117617553 106.027768024758 -25
v 7.26114147832631 103.370633844704 -25
v 4.12239924176164 112.453926371426 -25
v 3.81118712620517 97.9393563298015 -25
v 2.04024345407261 115.589179971111 -25
v 21.1912930950449 119.425714994202 -25
v 20.4651628393225 115.781323045453 -25
v 9.78603579969765 137.258033243127 -25
v 12.404923355976 117.56670392204 -25
v 13.5341454114963 128.660026538722 -25
v 12.0209495937243 130.771322197829 -25
v 20.5584012506882 94.1949691545244 -25
v 10.2771163131883 130.176930005701 -25
v 13.435790288984 111.13294408281 -25
v 19.2359309107029 102.437409656123 -25
v 1.91860466875609 133.931340588031 -25
v 1.82340795826462 104.12907326864 -25
v 9.82123252796239 115.090626972753 -25
v 1.71873608282987 128.33610017039 -25
v 22.3836569655536 109.782506401481 -25
v 4.93258416972063 105.89875373676 -25
v 13.2056924856842 132.065980199419 -25
v 8.06235175371698 100.70279990495 -25
v 8.54002850972041 127.128451903255 -25
v 7.25623819592447 129.314650111851 -25
v 1.86005347988064 131.609793646065 -25
v 4.90537498634403 126.341432873884 -25
v 8.39341278955804 93.198623223682 -25
v 23.2025512848944 104.623693014867 -25
v 1.74634474459625 93.1629985067974 -25
v 5.28587485723982 128.009127547237 -25
v 11.0943820993148 136.049726666246 -25
v 10.4708339354459 133.698248679685 -25
v 12.4991443155643 97.8797513050836 -25
v 18.740577747972 121.262254839808 -25
v 14.8551339174317 114.743946556054 -25
v 4.78439762200832 118.140055869247 -25
v 4.50519630187285 115.951396904765 -25
v 19.0926053726025 97.1505055697009 -25
v 13.4716485682987 138.378990433524 -25
v 14.2503918794868 93.8237526333693 -25
v 13.6182563208502 108.767272394552 -25
v 4.17298650330129 131.169149230251 -25
v 1.61137285290081 121.449724159364 -25
v 8.26715525526355 136.551710286328 -25
v 9.02070090017478 95.4720855240305 -25
v 10.4440265191568 118.296554856495 -25
v 20.6680192201345 97.6501643790427 -25
v 8.69733066689611 104.173639750875 -25
v 23.4680994688603 97.8736517374323 -25
v 9.29338107761779 98.6399517731475 -25
v 16.8345526593297 124.973748470166 -25
v 14.5043353212906 125.741971225382 -25
v 23.3969235633301 106.546538925658 -25
v 1.6371542680443 126.692363256408 -25
v 10.1638208299379 119.864678707139 -25
v 7.65167521154484 117.048017127165 -25
v 9.24599084730575 116.634089209506 -25
v 4.10820868642286 129.055275858949 -25
v 16.4829950913622 94.9766879040238 -25
v 5.76900431349009 110.310837092882 -25
v 15.8934079467076 129.817357505348 -25
v 5.59589236578375 100.308088983218 -25
v 11.8774072391568 127.38932706159 -25
v 9.19594198684729 131.302699706256 -25
v 16.5996893189733 100.345515975753 -25
v 6.70178229781855 114.572415772579 -25
v 20.3847881845323 105.595769259173 -25
v 14.1132791385843 123.445706637329 -25
v 6.14307268146611 95.4062760413986 -25
v 7.0611876146767 118.502938651794 -25
v 3.4020271555866 114.890328633244 -25
v 1.53593807261835 102.255389601995 -25
v 4.50189750953375 103.162037763034 -25
v 23.5473556652785 110.776091343071 -25
v 4.56911610802002 120.446132395888 -25
v 20.8392483890123 99.678850999195 -25
v 17.6721588389553 119.740415601879 -25
v 6.88032794566977 93.3666281212266 -25
v 17.2795361064842 115.621448826981 -25
v 16.3826496977727 112.771342333364 -25
v 5.47170223731764 123.20467327359 -25
v 6.19024287958814 120.931096001528 -25
v 23.6202906583377 94.9362640518205 -25
v 12.8681804017824 103.273769996613 -25
v 1.50257113519265 119.950918537329 -25
v 8.13587646875876 121.881833403935 -25
v 15.9232947841587 133.41740274469 -25
v 13.1204488732445 120.248611600849 -25
v 3.41285354571399 118.939063170345 -25
v 13.4354865460698 134.422513089064 -25
v 23.522343380545 112.314457460042 -25
v 5.08929037365004 97.1891218088765 -25
v 21.6607424372706 92.8302903641767 -25
v 10.3557857504509 122.500413732751 -25
v 12.4708487580736 122.669508645653 -25
v 9.90199416565832 124.126654473162 -25
v 11.0678288961813 100.972479793746 -25
v 17.4137944202844 93.0366839397418 -25
v 1.90771414199849 117.040848645264 -25
v 20.252826342614 120.541205186484 -25
v 19.1563345135531 103.896807373851 -25
v 5.30441961083683 132.974224089401 -25
v 2.11392038675699 107.469559972731 -25
v 3.29460555988063 134.571604295251 -25
v 23.5270859744146 99.3763948117667 -25
v 1.4562722239863 129.769158350252 -25
v 8.85606297469188 113.985454618047 -25
v 18.0985478932694 99.7568746380918 -25
v 19.4175031175779 100.365123089058 -25
v 22.696834582318 119.30463798306 -25
v 3.65736682067086 109.16946525154 -25
v 7.65881408108564 125.939734655844 -25
v 7.71189102985637 106.639795330489 -25
v 7.84008476151003 134.214668107946 -25
v 11.5070424450373 92.992006751954 -25
v 21.5054260931918 107.307080447702 -25
v 11.3142344408269 139.594440482568 -25
v 20.6319321235267 102.66360687767 -25
v 17.6696325003402 97.5544884366668 -25
v 19.050982465011 95.3980180113018 -25
v 13.650320751651 99.4358426334002 -25
v 19.7353431095132 92.8008298874394 -25
v 16.7462315301008 102.345704662864 -25
v 16.7539533259381 107.799748575747 -25
v 18.4706253816981 106.708259778871 -25
v 19.5185902087893 108.41031705803 -25
v 21.1516412271073 110.558681451392 -25
v 21.3603663015386 112.656051949213 -25
v 23.6397103060115 101.919191932819 -25
v 4.94142641524429 107.427121483557 -25
v 7.21054986784758 108.16639807011 -25
v 7.87928424897521 102.093537676281 -25
v 5.89077342570286 102.879557664 -25
v 11.1123804344328 110.715983219866 -25
v 10.2853664967637 138.599416882073 -25
v 6.07728507012408 113.301530571635 -25
v 18.2478735900596 118.408286246894 -25
v 12.9964454623624 92.7506629957964 -25
v 12.9302702285771 118.862946785456 -25
v 23.5013559740477 92.9887122925347 -25
v 14.2916085904027 96.6119366717767 -25
v 15.5303993105677 98.3607676906213 -25
v 3.21585171515468 95.1463907936996 -25
v 1.49697000921742 124.042955914724 -25
v 11.4904632334573 96.9390911737414 -25
v 14.9770489812946 113.381500214852 -25
v 3.54869864976056 126.034345438974 -25
v 4.55774739909787 92.8911459537926 -25
v 15.7740373140576 106.088788298807 -25
v 17.4773605498371 104.802347540867 -25
v 15.8687643318024 103.406656512258 -25
v 3.24085124839289 101.377154254603 -25
v 16.2815362643596 117.52020692798 -25
v 2.32177129940993 110.293006754308 -25
v 7.74758045165194 96.1448954023293 -25
v 21.5096629999548 95.145044989783 -25
v 23.7880324945125 113.889925443102 -25
v 14.8526056691099 127.03425752326 -25
v 23.6423410310714 109.143803380546 -25
v 10.8024574995495 109.418477934141 -25
v 12.6866207850117 137.199811929093 -25
v 11.3725474524733 134.71755174048 -25
v 1.38697877701804 112.902611129778 -25
v 1.4019352917077 114.321682481072 -25
v 18.8049558135226 116.409477303549 -25
v 21.8594471676756 104.565341483277 -25
v 23.5652000770088 116.459651807741 -25
v 11.9123921670985 95.2932250666284 -25
v 13.5961312734073 95.0226620103319 -25
v 10.3293912314983 128.862197252275 -25
v 8.80126609141601 119.820194942036 -25
v 19.2824732564889 113.834405892907 -25
v 11.8999592937583 132.071449278787 -25
v 15.9829381957868 136.3591935434 -25
v 6.92467575969414 110.917355953279 -25
v 6.82789003609152 115.897053741189 -25
v 16.0082959414797 110.52141029074 -25
v 14.925603922289 108.624284147326 -25
v 12.7853344981709 129.721255419449 -25
v 4.82289401482419 111.200842697133 -25
v 19.8621427979945 110.186934255593 -25
v 19.9902587407423 112.740793085361 -25
v 18.3185599177498 111.212589536891 -25
v 5.63234484686002 125.208584229735 -25
v 14.6080932828467 129.380578421172 -25
v 5.62984101707469 135.480813281004 -25
v 18.2802082979499 122.558751034721 -25
v 9.44645815563831 111.473179030644 -25
v 8.42287686562088 110.115705833851 -25
v 6.20541322720645 105.699417680908 -25
v 23.7222037083658 103.423337361496 -25
v 21.8685773128219 101.702534350851 -25
v 12.3605169779599 108.462246108329 -25
v 14.1139758051943 107.564368210892 -25
v 12.5360809204756 106.013642782814 -25
v 4.36610323618536 94.5942905016574 -25
v 17.5706901822752 94.3052585928656 -25
v 3.88159331069586 113.707424670497 -25
v 7.88580070133951 128.214308965887 -25
v 1.17369657954112 109.644508140462 -25
v 11.4913700619272 103.773513250758 -25
v 10.3226698496652 103.219960302971 -25
v 15.5155924804604 121.115837390527 -25
v 20.4469549065119 118.39516979611 -25
v 9.62909790994628 126.493998896511 -25
v 2.84278010181875 121.71908730371 -25
v 1.25771273913337 122.681150906444 -25
v 3.85017938253176 123.228319869859 -25
v 14.9218447901197 92.6360654498981 -25
v 6.88930357839726 100.129383728572 -25
v 2.88300640664785 128.796911708517 -25
v 6.99060318876988 132.093881404435 -25
v 6.59566425619478 130.372323802783 -25
v 8.32129688436955 129.963249800802 -25
v 14.1942165490142 135.995311073659 -25
v 1.15822125741397 125.384796165664 -25
v 9.86411321191374 101.483970168226 -25
v 10.9411314828489 99.5080208455488 -25
v 16.6518169002492 127.436387705963 -25
v 16.0234034428052 137.604263243793 -25
v 12.5894795419135 139.335568904306 -25
v 3.30129200317608 124.356861699219 -25
v 14.0676327985659 102.597165422697 -25
v 8.22325407589491 132.117996168331 -25
v 10.6199622566875 111.843816790094 -25
v 11.0737776428462 113.041316583813 -25
v 12.3650909867356 113.204731147839 -25
v 21.651681059232 116.253157464123 -25
v 21.3916223576307 114.902616060301 -25
v 23.8053275259254 115.13931604975 -25
v 7.16427873414122 112.117978769638 -25
v 1.1757389428394 99.8269377678683 -25
v 10.8631509094285 94.6362300202898 -25
v 11.8797239614025 115.572728535764 -25
v 12.7254511700276 114.54109004144 -25
v 16.4410169276311 128.732237271126 -25
v 14.7452767491735 138.447173457493 -25
v 14.3276387713834 131.575058162027 -25
v 13.8223142603594 112.31968972421 -25
v 1.26831897055495 97.6747535471232 -25
v 6.2856030598004 134.461726574466 -25
v 12.2238373267164 101.319171243242 -25
v 21.88937184748 97.3537383115868 -25
v 14.2432016254401 116.786771762139 -25
v 8.66676618403718 99.6647516429053 -25
v 10.239898822294 113.939082161131 -25
v 9.67599722561333 108.99249087713 -25
v 8.31965889304257 135.334573318965 -25
v 13.4206480536267 109.941903435754 -25
v 23.864119798498 107.640380044788 -25
v 5.78203443183774 92.8211677200968 -25
v 23.9108223215215 118.877731072387 -25
v 6.22587520891997 128.73007885117 -25
v 3.40754591088973 92.5573994182732 -25
v 9.0330359466365 94.2454110240947 -25
v 1.26424713270787 96.0552547331927 -25
v 6.65802667846167 98.1344241595796 -25
v 2.9866728895324 131.232804643965 -25
v 7.6159858093902 97.4135371279443 -25
v 3.14047862738333 111.732105840059 -25
v 11.6261103015202 107.351723402775 -25
v 1.20451150669656 108.265244720226 -25
v 3.52465554913258 96.7325381643911 -25
v 18.5527854658499 92.7043404604473 -25
v 5.66221715535879 115.739326173277 -25
v 3.34765130657886 116.050866379073 -25
v 2.19092244140827 132.762960701739 -25
v 4.52960211202932 119.279356644827 -25
v 16.2197729788281 120.139352444919 -25
v 21.6568295863924 108.463597458055 -25
v 6.60121113036003 123.495042182804 -25
v 8.00473899065441 124.821989581975 -25
v 5.96368942398803 118.064903555048 -25
v 9.58742677327852 107.50154006745 -25
v 10.092493946563 97.0512818499821 -25
v 12.2658624139902 110.922987955016 -25
v 12.3265758905629 126.332746843563 -25
v 10.2282441883293 125.28351057089 -25
v 11.9066708857356 124.751610176813 -25
v 23.8817077952998 96.7548269410677 -25
v 17.7538285820903 114.240824517945 -25
v 15.3330646659032 118.232294093284 -25
v 19.9404944493678 114.767360698731 -25
v 13.2816629719943 133.279681667935 -25
v 21.5213380049784 100.605533327585 -25
v 16.1007144943192 101.387535455903 -25
v 21.874964765873 118.505958707616 -25
v 4.63762147848997 109.968153099943 -25
v 6.27717953815533 108.907188002899 -25
v 10.4515907650455 92.5722362942048 -25
v 16.1623462784074 115.396062109194 -25
v 11.7783624343032 98.7495983333945 -25
v 1.01548056838603 133.254940178265 -25
v 9.32217943907351 105.198073302728 -25
v 22.3932929074891 117.097159099283 -25
v 1.01346970481259 106.693204135736 -25
v 18.292062691408 98.576228768054 -25
v 21.5755562316951 96.2707025139433 -25
v 22.4393496075462 99.6410213419972 -25
v 23.9509660953559 100.814201920909 -25
v 21.5569141166563 103.489666591677 -25
v 3.09024984966761 108.171111075323 -25
v 14.0206291044511 100.533258212432 -25
v 4.4659979909523 104.305817889387 -25
v 3.79151931522668 105.99438953451 -25
v 2.94419880117767 103.877095127011 -25
v 11.3718982493643 105.012349812369 -25
v 4.46410086868179 117.068777300191 -25
v 15.235313416329 132.509391422249 -25
v 16.3016434529481 132.215477650846 -25
v 19.4441503837152 106.192433776615 -25
v 5.64660983818328 121.923152760208 -25
v 13.4014504939262 97.2544316014042 -25
v 10.9604961631244 137.217243478232 -25
v 7.86332751021686 119.251260948249 -25
v 6.00885491759642 126.249876986736 -25
v 4.93840320345186 113.250065843494 -25
v 10.5682890256537 120.925760471515 -25
v 10.3348080728926 105.603445883308 -25
v 15.9851853366836 99.4477202511479 -25
v 14.6525454221091 99.0013978873489 -25
v 15.0468990010351 101.102704930113 -25
v 13.4109738136183 125.766732151956 -25
v 14.2954561750471 124.668462030168 -25
v 4.16736004092195 135.237864152252 -25
v 4.26558497022963 133.361479344287 -25
v 4.41802092708862 132.256920216581 -25
v 20.5662326910056 108.079107542443 -25
v 13.7680992567053 137.007698087612 -25
v 11.2957241242308 132.981770481446 -25
v 4.20835541817866 108.231198499001 -25
v 2.48751304266944 119.501251619083 -25
v 17.2057948112374 118.094682188662 -25
v 12.4245917002678 123.774461735578 -25
v 1.11323735368883 116.236433380236 -25
v 7.75262016002634 114.33424653641 -25
v 8.49787262802551 112.520328351896 -25
v 9.40780283015037 92.8371320568902 -25
v 6.51498035075175 94.377377719494 -25
v 9.26630229244145 122.383468390743 -25
v 7.64850134732031 122.83907744691 -25
v 14.9078050930123 104.832703754051 -25
v 16.594393799381 116.472990205697 -25
v 3.78322560841877 121.187410841523 -25
v 4.18360934287971 127.954222466491 -25
v 13.7936504416078 114.607265513337 -25
v 1.07268499119431 117.758436767487 -25
v 1.07423732630627 94.0643028551024 -25
v 18.9784156938118 112.375994741902 -25
v 15.8840936464064 95.9212790543922 -25
v 14.2887926544973 115.687363282792 -25
v 10.2999888870099 106.685924813075 -25
v 16.8077892796441 103.952227305503 -25
v 18.1251946246311 102.396497060643 -25
v 3.09834692720461 98.8709239947938 -25
v 2.69191085429048 99.9131095559284 -25
v 2.56314973671828 97.9158300020503 -25
v 9.55229586036337 132.346750470637 -25
v 7.76893517592219 133.147805765324 -25
v 8.9340762594929 134.278591664744 -25
v 11.6067725582069 118.421409988015 -25
v 17.0682865664823 126.443853937316 -25
v 1.17525932121434 105.114817744206 -25
v 22.5768432944641 95.1606160946478 -25
v 14.979438554156 130.451816478641 -25
v 3.95707628184283 130.117836396137 -25
v 10.8821848657613 115.196295891012 -25
v 20.7562814444066 111.657097817684 -25
v 1.3267102544392 110.714120103427 -25
v 9.3112476767495 138.198403211642 -25
v 17.4676312586604 110.302351549913 -25
v 6.37864119417924 136.219975330521 -25
v 12.0805546924338 120.638591712026 -25
v 16.4364078513577 92.5392287383318 -25
v 15.5407843440183 94.4901222674501 -25
v 21.3499749914353 120.465829994621 -25
v 19.6761934648806 104.814522086041 -25
v 14.0119274476234 127.699991915112 -25
v 7.2202474790902 92.3754948742532 -25
v 12.5387170510853 121.626910220905 -25
v 12.5130372363533 128.275970053793 -25
v 14.5443161379754 111.012249240931 -25
v 15.9853162175176 111.571810839183 -25
v 13.9638616913494 119.202074996893 -25
v 12.4382196553643 134.809180729814 -25
v 2.37653543126259 112.55866381695 -25
v 20.3609826052218 116.914317722162 -25
v 18.9495615790034 101.368220294031 -25
v 2.40414815271282 114.598383845172 -25
v 1.0959048807277 134.65888100548 -25
v 8.40746925155548 98.0913203771931 -25
v 16.452735931552 122.217761273926 -25
v 16.3585263658108 124.012732897866 -25
v 17.6568858536265 124.183649516552 -25
v 8.78464488063293 101.505295568326 -25
v 9.32191814801381 136.26980847202 -25
v 9.50860641498874 119.044118565881 -25
v 8.25433655260009 103.063216745778 -25
v 5.66572462739388 96.3269822445551 -25
v 15.5023387880532 125.412950854434 -25
v 11.9382203500092 116.623475635807 -25
v 4.85035556248687 99.5228752882671 -25
v 1.0642190864641 101.301243118512 -25
v 17.7572448079 112.099056033239 -25
v 24.0538495797595 93.9323796409283 -25
v 6.69832335054376 120.037791195943 -25
v 8.59251594420213 120.828386814603 -25
v 7.20833972019012 121.439422481842 -25
v 10.1113339938342 117.273397933398 -25
v 8.27994802373578 105.787049563595 -25
v 6.72720091616615 104.35616493206 -25
v 20.9968738436915 106.417525857026 -25
v 16.3235555877385 135.350691494736 -25
v 14.5193688423441 134.400022362152 -25
v 22.4003397540287 106.800380804735 -25
v 20.9764008289837 98.6457052717991 -25
v 1.10119358707446 130.811658675939 -25
v 14.6300140272536 121.68197924674 -25
v 10.8534763972428 124.482754471472 -25
v 1.10926612050752 103.279746103763 -25
v 9.85706268379919 94.867096442036 -25
v 11.1147586981631 117.526801898515 -25
v 2.65420747616293 126.541375947025 -25
v 8.91708858340762 124.375335779925 -25
v 2.38082474313825 95.7993659435514 -25
v 7.792706932235 123.836626155324 -25
v 10.7654776124551 101.933068629828 -25
v 11.4666531393568 122.589225282901 -25
v 5.17536163634669 130.729798864519 -25
v 5.54186351156313 124.207443225885 -25
v 17.0894095347012 113.486329257428 -25
v 6.53788327331871 99.1592382807503 -25
v 12.8106418351688 112.296150026124 -25
v 16.0145412373737 108.599540115209 -25
v 14.659945583966 106.704847345948 -25
v 13.4446731683553 106.450611013511 -25
v 13.6453182859002 104.805628089154 -25
v 15.0402016324813 97.4867844632808 -25
v 1.01477228032856 127.547146255768 -25
v 22.6256986954786 92.390744510889 -25
v 19.1322199329494 107.4745599655 -25
v 13.4211828920762 117.405647909575 -25
v 17.8353650584155 105.748157051923 -25
v 12.799003173688 98.8617780184905 -25
v 5.86806548746648 107.933622785487 -25
v 0.905626054810851 98.8412467517305 -25
v 23.8978554969126 105.524654769533 -25
v 22.8813781954488 105.66009485285 -25
v 0.994938169106068 111.97977900476 -25
v 17.4406826773994 121.990538192885 -25
v 8.26457150468184 137.546336034988 -25
v 8.10244994608972 109.150130800421 -25
v 8.55423360001101 107.269518884817 -25
v 13.9676142971521 120.790287728519 -25
v 15.4678005347145 119.494531326384 -25
v 20.6980427733919 92.3791120934287 -25
v 7.71105099911547 104.251790185306 -25
v 16.3748901718383 134.331984758453 -25
v 19.7484331840116 121.429682643038 -25
v 4.39833463391565 125.431115459849 -25
v 4.0727825974547 126.869366244425 -25
v 6.74646249496587 117.454838185504 -25
v 16.6619714707569 97.7702939624814 -25
v 16.730260024477 96.4414952415666 -25
v 9.32500216439571 129.833982546304 -25
v 2.07537372125478 103.081117420873 -25
v 11.8186676126381 136.7242198393 -25
v 16.621619278309 130.478474701975 -25
v 4.03540802085709 100.776174406598 -25
v 3.80618550487464 102.177327747233 -25
v 5.57216824706063 101.907639407348 -25
v 17.3079741945454 108.623364479887 -25
v 15.7450227307882 109.548638895418 -25
v 13.0155754652136 100.595030225099 -25
v 12.6805803333574 102.23966878857 -25
v 5.16241624641481 95.2019941501794 -25
v 7.3913236261936 136.983775216774 -25
v 3.74307951391859 119.857929241739 -25
v 1.02261085085538 119.046210518581 -25
v 2.55412862895721 117.778540846369 -25
v 14.9189204788426 103.109417143162 -25
v 17.6495472527783 107.230314982175 -25
v 16.2572123692577 106.932425218944 -25
v 16.7661639853343 105.495188707114 -25
v 2.04538512044394 130.551532482795 -25
v 20.2186891479084 119.344122151798 -25
v 0.988787908597418 115.238529657275 -25
v 8.60398251002501 117.438638477873 -25
v 2.86320501561096 106.359080327814 -25
v 2.40492945820456 105.050666946061 -25
v 13.9703602083739 92.8817933155479 -25
v 20.0311556690563 95.0802524688185 -25
v 2.30958528040576 134.889802478994 -25
v 2.84273884064423 133.530806386641 -25
v 22.5536698547503 112.467508822811 -25
v 21.6451780554747 113.931486509421 -25
v 22.8999424596516 114.40142477344 -25
v 19.8284345281073 103.201594622408 -25
v 19.4824892981166 115.647076901384 -25
v 2.44819625289285 101.932364412046 -25
v 10.6056016745697 126.605245417791 -25
v 11.1609566419464 128.070998777198 -25
v 9.30457415367775 127.877978205459 -25
v 15.3563201537423 117.27556278916 -25
v 9.39917321210927 96.3685267515376 -25
v 18.3716613321409 104.451208447516 -25
v 0.885741943575385 95.0067582758968 -25
v 2.64744906675365 94.379218230874 -25
v 10.5238219104894 135.235461922397 -25
v 6.1591912669662 132.556424035439 -25
v 5.7727041246844 127.181011569503 -25
v 9.50487668601991 118.036263334062 -25
v 24.0349136532591 117.338181051648 -25
v 15.5779351342608 123.421361085248 -25
v 13.7159182334655 139.315406311224 -25
v 1.01489179154083 92.4587997576179 -25
v 4.11300520070428 98.8740226569463 -25
v 18.660359468734 108.9256824901 -25
v 19.5035302018509 118.557304753251 -25
v 18.551070930697 117.320415317721 -25
v 8.16617607834741 92.2749005304595 -25
v 9.41535618092881 103.535499783246 -25
v 5.06298613743362 112.306122657288 -25
v 3.27248036265364 112.889898201077 -25
v 7.0070594749531 102.459507074097 -25
v 12.9509528269209 130.645061820118 -25
v 11.3252710928886 129.957077027244 -25
v 11.2896415092059 131.358959642152 -25
v 7.83455989895497 117.973651260816 -25
v 16.7950300740791 93.7572016220708 -25
v 24.2200544584443 109.899680939674 -25
v 0.975641652055982 132.195124476108 -25
v 4.76116258142139 98.0939304493761 -25
v 10.0175260568891 99.2632921159409 -25
v 17.8458419428057 120.754445510447 -25
v 18.5446725228965 120.112860586042 -25
v 15.443267977276 134.260691930452 -25
v 9.55809747922129 123.264561421727 -25
v 2.40674915969673 92.347089768422 -25
v 19.1014804173584 110.716510823498 -25
v 24.2480170287527 112.892364317245 -25
v 19.1250335273415 122.138186211627 -25
v 12.1618624932186 92.3166500518036 -25
v 15.7535703251816 127.229241994354 -25
v 22.4006333402569 120.178443218784 -25
v 10.1480325333496 131.13501726109 -25
v 18.4029489439261 94.7268591433347 -25
v 24.1289477155954 104.627536324561 -25
v 22.8686833844601 103.766495876177 -25
v 14.4025056343473 122.57288399259 -25
v 13.4425761664308 122.739124674131 -25
v 23.5132526653538 95.8797213975297 -25
v 4.35538500362609 106.719654599193 -25
v 12.5162034239169 132.76088494238 -25
v 23.5335778642523 119.744518926131 -25
v 12.5458828769951 138.410300423551 -25
v 5.79663035102584 97.7896018154725 -25
v 24.2616186147697 99.9240696811051 -25
v 2.45146512339265 123.899093710993 -25
v 10.2392380722291 111.006177579818 -25
v 0.839192789207828 126.243144112346 -25
v 11.8411410684971 135.510525310637 -25
v 5.26574703777446 121.069465364593 -25
v 11.419492761633 108.676412397601 -25
v 0.911119712367879 104.171254429509 -25
v 15.0671614624354 136.282525590222 -25
v 11.6127707363282 93.9815991121 -25
v 4.25005915822945 114.545469450221 -25
v 18.4276839278744 100.613444600661 -25
v 20.5183481780982 93.2785911981898 -25
v 19.7127519409405 93.7728665189503 -25
v 6.5052265730849 125.481683660396 -25
v 10.9479348677188 119.080392413437 -25
v 18.6275083392321 103.155763017369 -25
v 21.4686383009753 94.2348584076453 -25
v 12.5445313328687 125.428538309836 -25
v 3.60151035619288 122.303472925928 -25
v 21.5490610427166 102.567555024609 -25
v 0.804166063523321 113.618368265374 -25
v 8.75680501897859 126.248612546702 -25
v 7.6301883458651 127.320288438334 -25
v 13.7177478807552 129.546985628513 -25
v 19.4912820000186 109.337123537333 -25
v 0.945829195348761 120.744685597643 -25
v 0.789719819054971 96.8555241199847 -25
v 10.4513408710471 123.398587401492 -25
v 15.5809499341766 114.122216564879 -25
v 21.0035715931944 104.910902485144 -25
v 17.857400764929 109.341597083306 -25
v 18.6180951847797 96.2850374792589 -25
v 19.5554630359113 96.1933564618229 -25
v 20.1724506996617 96.8753968548797 -25
v 19.7076758056586 97.9446542437788 -25
v 10.2796348044977 115.867108137626 -25
v 8.88831001821789 114.931329920698 -25
v 2.53966341911953 127.963181979031 -25
v 0.816579364896042 128.432530411605 -25
v 14.3299566387446 101.700987594341 -25
v 10.1971747209654 136.071375411652 -25
v 20.0258965264361 101.982936023207 -25
v 22.7785092775415 101.611680246418 -25
v 17.4397296391196 125.631164181854 -25
v 14.4191590080253 128.501566130736 -25
v 5.5854332401514 133.85621682081 -25
v 9.91824896193949 97.9589501582026 -25
v 24.2940681442808 98.9265085552482 -25
v 11.0230633146781 120.14477800628 -25
v 6.88838634676398 106.282171750699 -25
v 7.69712274568039 93.8252703298007 -25
v 17.3728670148203 95.2015222310907 -25
v 9.83744913190734 134.345886573931 -25
v 22.0643264066405 110.64150717672 -25
v 21.599043248689 109.355167811201 -25
v 22.7562730396674 108.957228250995 -25
v 7.8040942261821 99.8574393302794 -25
v 7.19800685400899 100.984435037731 -25
v 8.92859085381508 100.512189223362 -25
v 7.0546307750839 95.5381434597613 -25
v 6.64593953249131 131.266870115205 -25
v 16.6127422876026 131.374812537892 -25
v 24.3003653566133 111.894803191388 -25
v 5.66271535318828 106.397498679303 -25
v 4.30420875502818 105.256426296697 -25
v 5.46989912616195 105.166300964143 -25
v 4.0148388170686 111.571462295878 -25
v 19.3928440372294 120.350582439389 -25
v 0.794211259862977 123.464504288945 -25
v 17.7929443365507 92.2181692028882 -25
v 12.5503444742945 131.476281119528 -25
v 14.0497073002865 132.467378616913 -25
v 19.3192054521369 94.5599260998894 -25
v 7.46810589832697 130.165505046452 -25
v 8.10942918196706 129.1123948662 -25
v 2.50212378173614 116.363231020865 -25
v 13.9922036381605 135.123356050927 -25
v 24.2923031374223 115.885047694816 -25
v 3.13046463116166 109.898723802255 -25
v 10.4174884956332 139.492244465406 -25
v 16.9774848868192 101.493383160841 -25
v 22.6630104926336 93.2762407503121 -25
v 8.31321714896272 116.318704929778 -25
v 17.9258958271279 123.354838957766 -25
v 9.22879559750128 115.748754456519 -25
v 14.1409627416659 137.805995033094 -25
v 2.09884511033679 122.170621916657 -25
v 7.05490206466364 128.469181890016 -25
v 11.3262521762462 133.85001002896 -25
v 15.0631863068442 96.2097369290206 -25
v 13.7562722154637 95.8993933677636 -25
v 0.71437213117101 129.319868171965 -25
v 22.6963725624575 116.25840828518 -25
v 18.3924508589975 119.261238934015 -25
v 15.5873701415977 138.688438999747 -25
v 15.7441000168487 100.561704625403 -25
v 2.53547334945583 93.5202550971514 -25
v 3.36501719821405 118.076492938522 -25
v 2.07325459847318 129.141594201199 -25
v 2.74702185681475 132.080166418047 -25
v 15.1701939666482 103.97271703762 -25
v 0.814594675550779 124.584368497105 -25
v 20.2644453303185 110.949242747214 -25
v 13.2632628970301 123.580946638885 -25
v 13.1252880902106 104.106391591617 -25
v 15.1386060241888 115.555815481456 -25
v 18.1610682406234 115.785453803059 -25
v 10.0321349706208 102.400360978172 -25
v 6.3192940622911 127.861929690482 -25
v 3.81176536616149 103.712830218872 -25
v 4.65967390667374 93.7649696348998 -25
v 10.2985366205053 132.827460875208 -25
v 9.63246678464407 133.511873795714 -25
v 4.88142031802231 127.2241529601 -25
v 5.37974519306657 128.86001382744 -25
v 17.5345375491276 118.890469124152 -25
v 16.5052140142082 138.329968706037 -25
v 4.96885370622768 115.218743518436 -25
v 5.14388503833497 116.534332746777 -25
v 3.64933542697368 131.85859245217 -25
v 12.7215847727201 94.9545918496391 -25
v 4.95151681764169 131.570141703952 -25
v 14.4091505496078 114.017361061595 -25
v 5.41397663198243 118.729110955041 -25
v 5.25488737120186 117.41586493245 -25
v 8.83351308487749 110.870716334264 -25
v 16.754849401021 129.571350036302 -25
v 7.61381660716398 110.404472409565 -25
v 11.4910685206367 96.0622311184901 -25
v 6.42239358009808 103.553621983846 -25
v 12.5722085919722 97.021527528539 -25
v 13.331079156993 98.1165411597525 -25
v 11.6440131153016 97.9047178917943 -25
v 24.2435584553039 106.831622123283 -25
v 3.26995649749024 125.218469744105 -25
v 22.829798744254 98.8780854543158 -25
v 12.0627886705626 140.011472874282 -25
v 23.2287178760518 94.1715858785115 -25
v 12.9286422580163 109.25519591692 -25
v 14.1273993437369 109.456862910403 -25
v 13.3526431538378 107.954216977018 -25
v 5.39745985103755 120.221323894161 -25
v 2.34806702084483 121.031291337734 -25
v 0.769657524213266 121.577638342443 -25
v 6.37608464361519 129.559011468808 -25
v 5.29484815133281 92.135037440933 -25
v 9.1042230507377 109.615220634933 -25
v 14.6909454311896 118.777163893371 -25
v 12.8294900409404 116.73056983972 -25
v 6.25754781521151 92.1309551397829 -25
v 7.71312591706064 135.918110214174 -25
v 8.96309280703399 137.041428343665 -25
v 13.4608193142751 94.1708465008084 -25
v 15.0923253666789 93.7759653018218 -25
v 14.6988508568262 94.5379095989977 -25
v 12.313285010813 103.915626443401 -25
v 8.56623345319693 96.309467332087 -25
v 8.26033610536927 104.921283525352 -25
v 8.39716280969893 94.8524161558008 -25
v 22.5796553165077 97.9145544836858 -25
v 13.5279300302998 131.274916218742 -25
v 12.0247506380673 103.136532996297 -25
v 24.2684865624703 98.0961617637737 -25
v 13.2954973814439 105.597687244616 -25
v 2.87071991168062 110.933140356864 -25
v 21.152108920938 96.9803815200241 -25
v 24.1641388642334 102.644765005179 -25
v 5.11019315876232 102.597259989824 -25
v 9.46368224319989 120.420163129642 -25
v 2.05120915391 125.980506423526 -25
v 9.49218276783229 104.391601848456 -25
v 12.7298451516406 127.449380022055 -25
v 24.1332361966599 92.3446618782176 -25
v 4.69113147688679 129.680215755754 -25
v 21.0195781678241 101.938432853532 -25
v 23.0562143919432 107.292130043524 -25
v 19.5449236691924 116.779162053574 -25
v 18.4946410466543 97.7523626816607 -25
v 23.3746197640783 109.947131919252 -25
v 15.7791841273733 130.628350913187 -25
v 15.67514399066 129.026473661484 -25
v 4.89148725692078 100.794954245243 -25
v 6.32145936870188 100.789509805289 -25
v 5.67341788168698 99.4879415948759 -25
v 4.23693197393924 97.2008485887775 -25
v 11.4283845580136 126.694160724085 -25
v 6.85633977632371 126.25302015232 -25
v 23.1551499135427 97.1220962383968 -25
v 19.7460255387363 101.12907291016 -25
v 15.4233891424957 120.307197884439 -25
v 4.66560521093556 123.53634949081 -25
v 11.9644376461364 106.603349068441 -25
v 0.787804072183854 107.518256533589 -25
v 3.19055707431949 95.9744492396256 -25
v 7.98306518514282 107.868785122651 -25
v 24.3064533743677 96.0608716352524 -25
v 17.186940976224 99.6382420948752 -25
v 17.5352743165626 100.471955460055 -25
v 4.13411410982913 92.2022654936718 -25
v 14.1484022974807 126.530967421583 -25
v 15.1639809225396 126.257269618266 -25
v 16.9920435987824 103.140726474112 -25
v 24.3677115979109 110.897242065531 -25
v 6.44512533265068 112.548428755077 -25
v 7.13913670847423 107.297323382543 -25
v 0.943148512235497 93.2653000313137 -25
v 1.89058211920782 94.0731948459643 -25
v 16.0563019540686 124.760840179806 -25
v 16.2973539452199 125.584361475972 -25
v 17.0472038662416 120.308455090043 -25
v 16.9298394257568 119.424495283206 -25
v 21.6323231709197 99.3648758743852 -25
v 0.635117545803009 105.709436134161 -25
v 8.49363775566247 130.806004687435 -25
v 23.3357810056652 113.156056681227 -25
v 17.8431238647356 115.043280690108 -25
v 3.30384254616243 100.437756448921 -25
v 7.61815947547847 98.2120190408187 -25
v 20.7347528140758 100.470134608576 -25
v 20.2599092626893 99.0762659028713 -25
v 8.36776035132451 98.9059456153661 -25
v 18.1339973111219 93.3870089975629 -25
v 24.2798962111976 93.1664657369653 -25
v 16.0704154974878 128.006879823325 -25
v 14.9843897871041 105.97617699397 -25
v 3.03163335519721 105.565624958343 -25
v 5.35911358465637 109.62511383417 -25
v 6.38081581357979 109.738522422065 -25
v 5.64055019576419 111.122164088222 -25
v 22.1606075624665 114.696636271368 -25
v 10.2390733424391 121.682997563622 -25
v 4.05847960130256 118.470646526774 -25
v 2.64883233131719 118.724145332913 -25
v 18.7172745218918 99.2521055280215 -25
v 18.2407417379939 96.9921446976669 -25
v 21.473176792749 98.0281931214011 -25
v 14.765520794972 120.839336061644 -25
v 18.5734550749836 114.245628317684 -25
v 1.84205248308897 127.517526452226 -25
v 20.1106037888639 99.9851689849813 -25
v 8.95543994333728 92.184011836838 -25
v 11.1303578995043 103.025209882714 -25
v 6.62014954654273 119.208989831313 -25
v 11.2072756947898 92.2089515922214 -25
v 3.45870388561643 129.504922453565 -25
v 7.10171969778109 134.582802193563 -25
v 24.1651544393682 108.452857034232 -25
v 15.7916259957852 113.333917494151 -25
v 9.84150271406981 95.6828873030684 -25
v 14.2427283098886 113.021284032507 -25
v 7.35320262190324 115.009267918473 -25
v 7.10119983594166 113.897394390515 -25
v 5.87214872646987 114.879834099071 -25
v 5.89404444044041 114.080197119582 -25
v 5.0204705298883 103.750767522104 -25
v 2.22975603566394 120.24019806501 -25
v 20.570954702866 121.276603781332 -25
v 6.94412259800481 116.684149764578 -25
v 11.0834788235992 140.428776009374 -25
v 10.8187519058335 130.737644358335 -25
v 18.2491128211036 95.5238266351196 -25
v 13.9310882058526 110.531030559106 -25
v 3.59877892558373 133.821057312366 -25
v 3.16471932113259 123.592685301838 -25
v 3.40677494100587 128.180276704088 -25
v 12.1719298968811 93.4214142113774 -25
v 10.9176271022079 93.5554242306369 -25
v 15.7514385753485 112.314852828387 -25
v 16.9420975163182 112.173790282635 -25
v 15.3654794301035 111.03279896504 -25
v 14.850864948275 123.749849779214 -25
v 23.9385958901012 118.105193650834 -25
v 7.59947341435412 116.006005092931 -25
v 24.2802864354937 119.554016011767 -25
v 0.74392566389236 130.108251614251 -25
v 17.4092164032057 112.785899701808 -25
v 9.59663676158167 130.572987912556 -25
v 13.2218681812738 121.023303688725 -25
v 12.4130548072043 119.943768424981 -25
v 13.8661949891227 120.015595640643 -25
v 23.1050317656938 111.538285997425 -25
v 10.3926530159162 137.795849560219 -25
v 10.6051384167422 134.463139056869 -25
v 13.0067456744593 118.077373638773 -25
v 11.7971328639633 100.641331422378 -25
v 10.5903687848872 100.276077096398 -25
v 11.4829888524816 101.631031847825 -25
v 0.766423122604085 102.042149446116 -25
v 7.34573574296747 125.230439968759 -25
v 11.8379421458569 105.647922259894 -25
v 3.73719113258541 102.945339839977 -25
v 20.1975586747502 106.340390134108 -25
v 17.7219441146813 99.0889650235565 -25
v 17.4965543672164 98.3285187848992 -25
v 5.82531126064134 94.7097529449987 -25
v 6.50788157394209 96.1010578882732 -25
v 15.3406262812122 137.959433955651 -25
v 3.0618276674232 114.201776502787 -25
v 4.06486989908357 115.305190117111 -25
v 2.74471100574388 115.285693979927 -25
v 9.5875823605655 124.839754757831 -25
v 0.641373651929312 114.5304694045 -25
v 7.62548912096085 93.045515687462 -25
v 15.5308933956715 105.329735709792 -25
v 3.19621012763194 97.4479443654763 -25
v 3.91317803260054 124.810488994064 -25
v 0.811134307714313 116.989926059575 -25
v 6.19064384885608 93.6887379516822 -25
v 1.79582175805368 101.529934578101 -25
v 13.5639237237791 92.2181934621393 -25
v 1.94863024987421 99.6095270620294 -25
v 13.1271537476466 136.539657562941 -25
v 4.04952590697691 134.487464714344 -25
v 2.97706219510018 135.272333824919 -25
v 15.6569115568093 92.2401997229942 -25
v 14.3610804396937 99.7022577102363 -25
v 13.8326993761198 98.6934356479344 -25
v 12.9859120991699 99.8254072461556 -25
v 9.15027033891644 97.8814560083982 -25
v 12.9377403714127 110.543659436834 -25
v 17.353426874872 116.382300921835 -25
v 17.0789370041398 114.862136875539 -25
v 5.62170013380247 136.237923329525 -25
v 11.3446145638276 120.835387273611 -25
v 3.96852790808198 116.491105023595 -25
v 22.6813117131556 118.498405077972 -25
v 21.9360335485407 119.265323222947 -25
v 24.378899474924 103.872317026813 -25
v 3.88605899959073 109.889676738717 -25
v 8.38442641782967 113.32441125907 -25
v 23.3735839267008 92.1752309859876 -25
v 4.81917160872264 122.764176707232 -25
v 5.98192042267929 122.621613774341 -25
v 21.157098583649 105.664911568502 -25
v 23.3372472260444 102.690115077926 -25
v 16.3146378148587 123.259801124273 -25
v 23.538493962151 98.6234177963964 -25
v 23.4382677082214 100.183964971942 -25
v 2.06250264933609 124.556777555568 -25
v 1.78789365450718 123.289922953418 -25
v 9.59425107689336 138.894590903152 -25
v 0.752120659280676 120.016689234684 -25
v 1.75099621664817 119.239458711333 -25
v 16.0139877799923 102.142489594094 -25
v 22.2720503605404 117.852303244041 -25
v 1.54006028967853 96.9665854240133 -25
v 4.70875354609596 128.503417009846 -25
v 6.82548561866162 113.197464068515 -25
v 24.4368547658042 101.919191932819 -25
v 13.7370893590088 124.164824219671 -25
v 11.9321081427332 138.902881502708 -25
v 22.5143221379779 104.978381482935 -25
v 12.4570843520642 116.067588002961 -25
v 12.607995666888 115.307279880934 -25
v 5.51945684599458 134.640076364264 -25
v 18.9929959465696 98.3117406955477 -25
v 0.566750387242007 108.660740138887 -25
v 4.49420138424927 135.911304138234 -25
v 6.20486840538285 104.926235231045 -25
v 24.2836790259616 95.3031372498657 -25
v 4.47691499560514 100.171654661037 -25
v 22.0355756250938 95.6790167302632 -25
v 13.5791976223403 103.51022020296 -25
v 13.4043586172866 93.4032955076198 -25
v 9.44835563600003 108.257907820946 -25
v 14.046428474875 111.590377152958 -25
v 13.0968022633294 113.000013019652 -25
v 16.6397908568144 133.632400418355 -25
v 15.1670523077275 133.545193464296 -25
v 6.4829937804923 121.618468664479 -25
v 6.91595284978868 120.752207949051 -25
v 3.97415754177811 117.637637333074 -25
v 18.0170121188975 121.494997388774 -25
v 18.9258866495363 113.147847655804 -25
v 22.8253277534748 110.494068411434 -25
v 0.566592455303648 112.595812145187 -25
v 13.9668160125199 133.899865228065 -25
v 13.241414986455 135.148211099762 -25
v 12.7451129901534 134.12132385208 -25
v 11.774138228607 110.34575076317 -25
v 10.4819382977866 110.277757746314 -25
v 11.604104619816 111.293220411711 -25
v 4.52949194242378 121.191356479522 -25
v 16.7786212587906 95.6800583956312 -25
v 14.456365562325 139.148955736285 -25
v 10.8200558644012 107.303635536256 -25
v 20.5915105150504 117.643855840681 -25
v 4.93428632077152 135.14452094035 -25
v 4.65463699568068 96.5790414395812 -25
v 11.5082627252696 109.651615179481 -25
v 10.9650734396465 129.284349630287 -25
v 20.7622192630816 95.2995388280444 -25
v 8.08000604809577 126.548486101812 -25
v 8.33561305196845 125.639861100734 -25
v 17.5054995430532 96.8166195134512 -25
v 12.0834748686588 130.013590498591 -25
v 7.90125477161715 121.180210409667 -25
v 8.79522377835547 121.541948441953 -25
v 8.34631357378087 122.591670302902 -25
v 1.27407704063441 100.575746773215 -25
v 3.38821841258573 130.602511061733 -25
v 7.3842126656587 108.905133329982 -25
v 14.5999601901667 117.486171251178 -25
v 12.7624111436835 111.520637594015 -25
v 24.2941615726267 116.634738895699 -25
v 16.7054710841271 110.195420824371 -25
v 23.4562875976138 108.253495226252 -25
v 21.5117718814545 111.882367022672 -25
v 15.6490308970943 95.220911146683 -25
v 12.4100170105713 129.043673059196 -25
v 1.62460326648757 135.185040611857 -25
v 4.01752214260155 93.3970165345075 -25
v 5.81900581182908 97.0504313187554 -25
v 9.45250386641624 114.438607928418 -25
v 9.53429941871614 113.553988918917 -25
v 7.41030610727722 122.144946565061 -25
v 23.2762639634624 115.730960243192 -25
v 23.3221254534541 117.154446765354 -25
v 21.9624162024417 93.5015500652161 -25
v 21.9327335814968 92.1484251852457 -25
v 5.24873970130654 93.3262298948111 -25
v 11.0970598170065 138.789558470905 -25
v 0.706856321529127 131.47330180977 -25
v 5.95744800679692 130.836870235754 -25
v 17.5637711374183 124.909726667816 -25
v 19.2331953385975 114.568801180196 -25
v 10.8969436634129 122.006105755658 -25
v 0.5409472349622 100.790596126285 -25
v 19.8883822453507 103.93203355674 -25
v 21.2349812425481 93.4250516845322 -25
v 11.9264755576656 123.15815351502 -25
v 15.5684520452299 114.950307454906 -25
v 17.4465027970336 102.078170701478 -25
v 10.9621409939727 125.212069464112 -25
v 2.59088061136899 134.216078730351 -25
v 0.557053401215643 122.433492160939 -25
v 2.91397034419125 109.187325507559 -25
v 4.35667449912648 108.949212419162 -25
v 0.653025680163906 118.386979045854 -25
v 8.555240355997 127.877631361316 -25
v 20.7683475704471 120.022402261314 -25
v 1.82134052085444 117.768596472142 -25
v 20.6856109640243 114.625212841404 -25
v 9.07316093025074 93.5020835708399 -25
v 16.4611903338499 132.926212602273 -25
v 8.03849437702416 96.8162174829957 -25
v 21.0388380079092 109.8318303509 -25
v 5.35416864335854 132.215329563791 -25
v 1.7757072191316 106.780864006165 -25
v 2.86198480513205 107.458640245089 -25
v 2.34218543129255 108.182030802964 -25
v 5.6089057410401 107.127259271646 -25
v 5.15538058860518 108.136583574656 -25
v 4.19014768748309 107.452993340232 -25
v 13.1947095123314 128.013038705796 -25
v 11.6573507379399 137.436817996304 -25
v 16.183163173158 94.149769447616 -25
v 18.7955459004794 99.9796378325712 -25
v 19.4704896061011 99.6396358337579 -25
v 12.1848753271467 96.369179403423 -25
v 18.8389294322743 117.986830611734 -25
v 17.9600150884823 117.741870952881 -25
v 21.1038290375616 116.774068894315 -25
v 20.3410420161182 98.2969828109426 -25
v 20.7651189617656 107.363766887509 -25
v 22.2195132278664 107.52464294081 -25
v 21.7014965971533 106.609741646127 -25
v 0.738581440426954 110.252504364297 -25
v 16.1976068276448 121.485274675156 -25
v 8.27393811667728 95.5999603327993 -25
v 9.81220598059546 106.128435247558 -25
v 11.8013481834042 104.428586279248 -25
v 12.3149446742182 118.282700971004 -25
v 16.7081124756083 137.345501585371 -25
v 18.7726434456345 92.0017817763458 -25
v 12.0097945351032 122.115987999888 -25
v 10.2301433305032 118.987948104103 -25
v 19.1859939802417 93.2743432646546 -25
v 19.4811641356364 92.1276085342412 -25
v 10.314874957026 113.172570873354 -25
v 24.4934265705888 114.887486568959 -25
v 24.3581609687669 106.102104645427 -25
v 13.3382495739874 115.190039932845 -25
v 0.649782819478805 95.6845071109358 -25
v 13.016308915953 122.162162557337 -25
v 13.312053193692 102.659178205921 -25
v 21.1784641483445 118.224943023217 -25
v 7.20449439327677 133.864402018443 -25
v 8.41466785461312 133.774498462161 -25
v 7.66367959386653 135.034847848259 -25
v 0.559798961003378 102.758132129436 -25
v 4.58996356561081 113.895997911795 -25
f 823 143 2
f 1072 303 815
f 814 563 303
f 1071 336 823
f 1211 664 235
f 1349 563 814
f 1176 663 662
f 547 664 1211
f 662 310 664
f 1224 157 931
f 539 753 9
f 1226 709 175
f 773 807 379
f 670 797 323
f 1156 777 195
f 670 872 15
f 1030 567 178
f 1314 796 307
f 1058 603 17
f 1222 1058 18
f 505 831 211
f 1333 19 20
f 932 487 178
f 575 989 343
f 1237 615 190
f 1167 886 24
f 1304 786 292
f 1172 406 642
f 1121 1008 193
f 786 1208 292
f 767 491 161
f 1207 29 30
f 1008 513 193
f 957 964 325
f 1104 903 730
f 523 1035 245
f 868 1035 523
f 801 574 322
f 746 868 37
f 977 665 978
f 792 964 413
f 1140 957 40
f 839 574 332
f 600 44 697
f 481 56 57
f 1276 107 108
f 1287 1216 215
f 1321 621 215
f 960 1162 544
f 982 1339 527
f 527 481 242
f 1243 163 522
f 528 822 346
f 844 721 288
f 765 1233 394
f 906 816 187
f 1310 617 616
f 617 61 927
f 775 992 368
f 1089 851 228
f 967 523 1204
f 1290 701 358
f 1136 631 194
f 66 669 526
f 849 766 341
f 471 211 470
f 70 949 69
f 933 201 843
f 1122 72 73
f 852 74 75
f 862 852 75
f 76 77 1139
f 862 559 417
f 852 683 74
f 806 1042 313
f 559 78 79
f 849 71 766
f 1282 537 236
f 820 1283 294
f 1346 83 464
f 464 83 84
f 435 489 168
f 928 85 86
f 690 1134 147
f 838 88 466
f 466 88 1112
f 1112 90 557
f 751 1182 997
f 750 432 152
f 1193 1032 498
f 1200 908 225
f 1214 607 436
f 1032 95 1214
f 865 607 97
f 876 695 416
f 913 98 99
f 1227 605 240
f 1061 101 102
f 103 712 1225
f 1088 1038 447
f 46 107 45
f 697 44 45
f 1128 185 801
f 1010 560 156
f 904 957 325
f 1234 208 721
f 677 1206 442
f 1223 110 111
f 118 47 1124
f 1188 1223 111
f 1124 47 48
f 531 519 666
f 784 113 114
f 758 114 115
f 1147 621 314
f 105 106 1038
f 1196 747 447
f 747 400 947
f 799 898 166
f 121 747 120
f 449 627 148
f 1285 121 122
f 1031 605 166
f 1337 144 1021
f 1340 124 125
f 1340 125 935
f 1180 127 128
f 1159 770 148
f 516 128 129
f 129 1175 516
f 850 445 131
f 1109 850 132
f 728 164 540
f 503 450 167
f 1168 916 334
f 916 562 334
f 1173 646 385
f 139 1064 1011
f 846 823 336
f 846 142 823
f 2 143 1
f 1347 999 91
f 1356 379 1153
f 819 716 364
f 701 700 358
f 887 512 146
f 543 64 65
f 1134 711 147
f 848 928 398
f 571 1344 1340
f 1214 96 607
f 645 597 134
f 760 581 180
f 759 1012 296
f 575 1007 153
f 545 672 182
f 1233 59 60
f 286 432 750
f 1347 91 92
f 704 1034 362
f 934 967 451
f 1348 542 1219
f 804 1080 290
f 1341 1350 687
f 1290 69 701
f 1130 652 197
f 531 665 371
f 1224 497 269
f 1303 595 244
f 871 1255 158
f 716 729 145
f 23 886 1241
f 1280 1345 173
f 525 1150 160
f 961 627 257
f 1171 767 161
f 768 652 979
f 1320 162 1037
f 526 543 65
f 50 528 49
f 833 1261 317
f 562 916 1024
f 850 131 132
f 1329 723 354
f 1193 94 1032
f 763 1285 122
f 1028 99 100
f 925 1335 191
f 840 824 279
f 803 435 168
f 1312 920 169
f 890 488 169
f 1068 86 87
f 1034 625 362
f 1292 401 735
f 1231 546 275
f 640 1327 154
f 1169 791 214
f 488 1312 169
f 1195 1280 173
f 533 276 534
f 955 657 174
f 681 127 1180
f 753 547 8
f 930 931 611
f 439 705 176
f 420 1060 760
f 1328 1252 177
f 1306 407 683
f 507 461 273
f 875 983 159
f 1351 301 782
f 907 1040 165
f 1023 717 601
f 568 500 223
f 911 633 263
f 1142 772 1079
f 1261 1275 218
f 992 64 543
f 1305 810 330
f 370 584 1051
f 1014 749 551
f 1334 699 189
f 634 185 633
f 574 839 600
f 1078 670 15
f 993 496 150
f 621 906 314
f 784 679 113
f 473 856 608
f 1112 89 90
f 1076 981 265
f 1352 594 177
f 642 941 311
f 1119 624 159
f 828 1168 334
f 566 564 1083
f 1117 643 272
f 553 276 533
f 1098 787 292
f 870 619 389
f 631 707 194
f 1238 842 189
f 1174 807 271
f 440 832 203
f 580 377 769
f 1189 680 914
f 730 903 197
f 1313 817 291
f 726 586 198
f 1136 299 857
f 1236 1235 715
f 1259 887 146
f 894 200 1113
f 489 675 233
f 842 341 843
f 683 73 74
f 668 880 202
f 446 395 691
f 1047 778 1048
f 702 524 924
f 860 929 327
f 915 420 269
f 286 431 789
f 684 1294 408
f 917 854 504
f 1323 1324 1099
f 974 953 207
f 506 940 183
f 1234 616 208
f 1233 60 1310
f 629 593 961
f 1105 1085 1324
f 997 620 340
f 745 449 284
f 756 470 282
f 624 443 830
f 1130 518 365
f 724 41 1288
f 1101 723 213
f 865 97 98
f 1090 1169 649
f 1298 209 946
f 636 468 346
f 1002 1124 48
f 1221 345 1043
f 1105 1054 1084
f 595 487 367
f 867 1246 222
f 1051 584 241
f 486 833 182
f 990 580 219
f 622 478 196
f 919 1273 220
f 381 928 1068
f 1127 689 221
f 896 825 205
f 554 467 238
f 546 1269 740
f 743 502 223
f 485 1005 221
f 531 1079 224
f 940 521 183
f 895 473 247
f 1077 723 383
f 837 681 261
f 1344 763 123
f 1003 712 447
f 103 1225 102
f 316 910 685
f 1073 700 194
f 874 1131 422
f 516 1175 798
f 1301 514 1009
f 1281 715 199
f 734 1152 404
f 530 788 179
f 841 525 250
f 973 1107 734
f 656 711 274
f 896 779 295
f 846 962 561
f 732 563 235
f 1211 235 563
f 864 564 248
f 435 803 290
f 1270 80 81
f 1014 551 237
f 1297 200 894
f 601 1336 626
f 1255 441 1245
f 737 239 578
f 733 268 648
f 605 550 240
f 587 1028 100
f 585 808 241
f 883 630 270
f 56 481 1339
f 1250 822 51
f 728 540 243
f 134 597 133
f 1194 595 1303
f 752 596 438
f 34 967 934
f 1129 529 515
f 589 460 811
f 598 650 386
f 684 895 247
f 608 856 225
f 566 462 248
f 783 258 503
f 869 692 469
f 936 833 317
f 698 253 566
f 996 620 259
f 972 806 251
f 1141 1134 387
f 796 612 1091
f 975 611 380
f 1311 253 1022
f 912 841 250
f 635 577 423
f 557 90 999
f 908 607 255
f 1001 1202 1025
f 748 433 256
f 577 921 254
f 905 629 610
f 628 627 449
f 976 503 258
f 385 686 1015
f 1325 996 259
f 956 955 174
f 884 1197 260
f 1108 989 153
f 1019 682 261
f 681 935 126
f 784 1016 679
f 978 665 266
f 1253 1223 493
f 632 1179 110
f 1067 1298 430
f 1054 1105 416
f 811 460 246
f 444 826 1326
f 480 151 637
f 1016 784 351
f 1108 713 622
f 1264 648 268
f 1281 1264 393
f 845 403 893
f 995 718 308
f 626 614 281
f 883 270 586
f 858 857 155
f 807 459 271
f 1265 539 1293
f 643 1195 272
f 482 1093 367
f 19 507 1222
f 638 1318 437
f 1103 1239 274
f 711 656 490
f 1269 583 277
f 1135 690 484
f 532 1247 441
f 1219 1218 237
f 1345 533 532
f 1115 453 275
f 1292 735 278
f 1143 761 395
f 1049 709 369
f 1059 732 235
f 1176 662 280
f 8 547 7
f 1107 509 508
f 1057 568 223
f 470 693 282
f 756 676 21
f 1090 649 283
f 788 458 179
f 955 745 284
f 771 770 1260
f 65 66 526
f 1065 630 162
f 456 790 286
f 791 750 457
f 1102 1055 287
f 1013 762 589
f 57 720 481
f 1243 692 163
f 937 616 545
f 492 1046 228
f 1095 290 803
f 848 84 85
f 548 181 911
f 673 1110 212
f 1304 292 654
f 1097 575 343
f 477 809 293
f 810 512 330
f 1283 820 474
f 1137 559 79
f 485 780 741
f 490 656 233
f 1267 759 1060
f 1230 554 238
f 744 649 297
f 782 549 231
f 1201 298 699
f 757 494 1238
f 631 1136 1215
f 725 1102 761
f 538 300 482
f 991 495 222
f 549 782 301
f 781 610 1183
f 581 1251 659
f 1155 502 144
f 4 814 655
f 1059 570 167
f 843 201 959
f 806 1291 251
f 459 777 305
f 709 1049 279
f 896 678 306
f 890 169 433
f 410 796 1314
f 1078 15 16
f 832 995 308
f 829 281 509
f 831 309 567
f 932 830 487
f 709 279 824
f 664 547 280
f 794 311 471
f 1164 983 875
f 826 793 511
f 1191 559 294
f 1328 535 313
f 1291 479 1103
f 114 758 784
f 774 1177 163
f 729 668 315
f 446 1144 395
f 1275 486 316
f 685 228 465
f 835 936 317
f 1275 316 688
f 429 878 877
f 882 1257 463
f 853 1125 319
f 183 477 810
f 1269 546 320
f 1005 485 348
f 805 907 321
f 661 695 209
f 107 1276 697
f 44 600 43
f 797 613 323
f 872 727 13
f 643 902 414
f 674 145 541
f 964 518 325
f 904 746 38
f 920 919 326
f 838 87 88
f 1317 929 860
f 931 157 611
f 591 937 328
f 480 835 151
f 1048 923 517
f 552 841 357
f 1258 888 330
f 512 810 293
f 520 939 331
f 974 818 337
f 565 792 332
f 600 697 322
f 491 767 333
f 673 736 1039
f 646 916 385
f 1106 645 134
f 92 855 754
f 473 608 247
f 2 1071 823
f 846 561 141
f 623 333 818
f 953 940 506
f 703 314 906
f 1148 954 339
f 954 637 339
f 978 266 667
f 998 599 340
f 259 620 956
f 70 849 494
f 959 981 384
f 551 246 658
f 1115 275 546
f 1237 1097 343
f 580 1108 377
f 573 1164 378
f 572 483 1118
f 1100 1043 345
f 723 1077 213
f 951 636 346
f 822 528 50
f 476 1020 1018
f 1229 798 445
f 1004 556 348
f 501 485 172
f 1313 987 634
f 965 332 574
f 514 952 350
f 1009 891 31
f 1355 1016 555
f 1017 758 677
f 582 1114 812
f 812 352 1022
f 795 819 364
f 729 315 708
f 898 345 899
f 1227 671 463
f 718 269 764
f 705 829 176
f 1025 1202 356
f 587 100 101
f 924 232 552
f 1184 912 582
f 67 68 909
f 1074 1073 707
f 851 1066 465
f 630 631 270
f 1331 1041 722
f 755 754 335
f 36 37 868
f 245 730 454
f 714 1034 478
f 880 914 202
f 1123 769 363
f 948 950 192
f 948 795 364
f 901 716 145
f 1110 673 365
f 980 1039 156
f 1249 366 657
f 1322 837 261
f 1094 482 367
f 1092 1093 596
f 62 63 775
f 672 492 182
f 1047 1048 369
f 739 149 564
f 809 688 370
f 293 1051 808
f 665 853 371
f 772 477 183
f 946 372 593
f 627 1062 148
f 1116 643 373
f 1069 538 217
f 1199 895 374
f 618 684 152
f 969 858 402
f 155 857 725
f 706 1161 376
f 1160 376 646
f 989 1108 580
f 363 836 795
f 1190 344 573
f 311 696 471
f 773 379 727
f 1153 710 11
f 1156 975 380
f 778 440 203
f 220 1146 1240
f 1044 838 466
f 1248 870 382
f 785 575 396
f 1329 1085 723
f 383 592 1077
f 1075 842 384
f 640 154 460
f 1286 1173 558
f 686 828 136
f 460 154 650
f 1187 1081 588
f 1133 275 453
f 1133 1134 690
f 1056 737 388
f 1197 1198 619
f 619 1235 389
f 870 389 1007
f 947 1003 447
f 859 587 1061
f 744 297 970
f 1027 1107 508
f 891 1121 392
f 1207 786 29
f 1262 715 393
f 1263 1264 647
f 58 765 720
f 927 1045 289
f 1143 395 680
f 202 1338 668
f 639 785 396
f 1098 963 787
f 692 1243 397
f 1244 397 591
f 802 1080 398
f 1146 928 381
f 1050 840 399
f 167 706 783
f 1284 947 400
f 877 763 429
f 893 735 401
f 1292 278 625
f 270 969 641
f 1341 687 278
f 579 146 731
f 845 401 647
f 1151 524 404
f 1150 549 781
f 504 1087 405
f 681 126 127
f 26 1172 642
f 941 190 573
f 766 1122 407
f 933 407 793
f 813 684 408
f 881 321 661
f 519 291 817
f 634 985 185
f 1315 796 410
f 1058 17 18
f 1178 1128 411
f 1179 800 108
f 606 1203 412
f 1202 913 1028
f 792 413 724
f 957 904 39
f 902 1279 414
f 1195 173 644
f 372 1063 1062
f 1158 604 1159
f 907 1054 695
f 1324 216 1099
f 1192 852 417
f 862 76 1139
f 1194 1303 418
f 1319 860 186
f 623 1052 879
f 1154 1259 579
f 915 1070 420
f 269 420 717
f 1355 555 421
f 1353 421 666
f 475 874 540
f 1109 132 133
f 1157 256 719
f 1041 557 360
f 117 118 945
f 863 528 346
f 1294 247 805
f 1040 885 499
f 770 1159 426
f 206 1100 897
f 917 1126 854
f 427 799 938
f 599 160 751
f 1182 428 628
f 1087 1343 571
f 123 763 122
f 1067 430 458
f 946 1063 372
f 741 779 431
f 790 431 286
f 789 205 432
f 152 432 618
f 432 205 748
f 256 433 635
f 1273 434 675
f 675 434 968
f 675 489 435
f 1273 435 802
f 499 225 908
f 607 96 97
f 860 1319 437
f 752 244 596
f 596 1267 438
f 1070 1060 420
f 923 203 439
f 702 176 524
f 1120 157 440
f 1033 778 305
f 1246 867 441
f 1245 1247 583
f 945 1287 442
f 1206 677 116
f 1118 373 1119
f 830 932 309
f 265 981 640
f 1327 1326 827
f 1131 1229 445
f 131 1175 130
f 1338 202 446
f 1145 761 287
f 119 1196 1038
f 1003 671 390
f 620 210 448
f 956 174 476
f 745 210 449
f 284 449 770
f 815 303 450
f 1277 976 455
f 33 934 1301
f 1204 245 529
f 582 250 452
f 1325 259 475
f 988 894 453
f 453 1113 1133
f 1000 245 454
f 333 454 768
f 561 1277 455
f 1011 1015 138
f 742 172 456
f 1169 456 791
f 660 214 457
f 264 813 881
f 649 214 966
f 179 458 1209
f 807 195 459
f 271 1082 663
f 589 265 460
f 1186 972 386
f 676 461 507
f 1302 944 418
f 1161 462 925
f 191 1335 1024
f 1257 605 463
f 227 671 1003
f 1346 464 537
f 1080 848 398
f 1066 1065 465
f 910 889 492
f 921 1044 466
f 1272 1112 557
f 554 222 467
f 871 158 500
f 522 1177 636
f 346 468 863
f 1244 249 692
f 816 918 187
f 696 211 471
f 1241 756 22
f 642 311 794
f 886 471 470
f 827 1042 472
f 154 972 1186
f 1217 856 473
f 1199 374 719
f 80 1270 820
f 602 1328 177
f 540 164 475
f 986 259 476
f 475 259 986
f 1018 1020 347
f 1256 809 477
f 319 477 772
f 622 267 478
f 196 478 704
f 590 168 479
f 1103 274 588
f 591 328 861
f 637 977 339
f 1339 481 527
f 873 288 522
f 644 300 538
f 217 482 1094
f 1138 1116 483
f 219 572 984
f 780 221 484
f 1271 147 678
f 501 348 485
f 172 741 431
f 1261 833 486
f 316 486 889
f 830 1094 487
f 178 487 595
f 847 968 488
f 306 890 825
f 479 168 489
f 1239 656 274
f 678 147 490
f 306 847 488
f 737 161 491
f 1052 1258 419
f 672 368 492
f 889 910 316
f 679 262 493
f 1223 632 110
f 69 949 701
f 298 757 699
f 644 173 495
f 991 1012 496
f 482 300 993
f 1012 554 296
f 929 915 497
f 1224 718 157
f 93 1193 855
f 856 1200 225
f 608 225 885
f 1084 592 383
f 568 871 500
f 223 500 1006
f 1006 348 501
f 501 742 743
f 1155 1057 502
f 144 1029 744
f 234 450 503
f 258 783 1160
f 854 226 504
f 1322 261 682
f 1163 875 505
f 309 505 624
f 560 331 953
f 888 1305 330
f 282 461 676
f 1333 507 19
f 509 281 508
f 1027 1021 391
f 1036 281 829
f 973 734 524
f 725 299 510
f 762 576 265
f 793 312 511
f 304 1252 694
f 887 330 512
f 146 512 585
f 952 230 513
f 193 651 785
f 1205 952 514
f 1301 1009 32
f 513 230 884
f 1197 1056 388
f 1019 261 516
f 1175 131 445
f 922 149 517
f 923 1048 203
f 792 212 964
f 903 1130 197
f 817 181 519
f 926 224 520
f 519 224 926
f 1289 156 736
f 1079 772 521
f 939 940 331
f 481 288 873
f 1177 774 468
f 35 36 523
f 967 1204 451
f 439 176 702
f 232 524 1151
f 841 1151 525
f 250 599 998
f 465 228 851
f 669 66 67
f 54 55 982
f 960 1250 52
f 1002 49 528
f 1216 863 215
f 1204 529 866
f 515 529 161
f 1228 297 530
f 905 179 629
f 666 266 531
f 519 531 224
f 495 173 532
f 495 532 867
f 674 276 553
f 532 533 277
f 542 171 534
f 533 534 277
f 536 313 535
f 958 1283 474
f 535 236 536
f 313 1308 590
f 81 82 943
f 236 537 804
f 1213 538 1069
f 217 538 482
f 1265 1176 539
f 10 539 9
f 1114 164 728
f 1132 874 422
f 901 145 674
f 988 1115 171
f 276 541 542
f 276 542 534
f 63 64 992
f 1046 1089 228
f 1162 951 544
f 52 1250 51
f 616 289 545
f 1026 182 833
f 1232 546 740
f 1231 275 689
f 753 280 547
f 892 1349 6
f 1353 548 1111
f 262 548 493
f 1152 231 549
f 1150 781 160
f 899 1031 166
f 550 1025 1053
f 749 1268 551
f 971 1297 342
f 922 329 552
f 1086 357 698
f 1279 324 553
f 1345 553 533
f 1012 222 554
f 1230 238 581
f 667 421 555
f 187 555 703
f 1185 1127 556
f 158 556 1004
f 1041 1272 557
f 999 90 91
f 1011 1286 558
f 1015 686 137
f 1191 417 559
f 1137 80 820
f 520 331 1010
f 156 560 980
f 140 141 561
f 1064 561 455
f 1024 352 562
f 1309 243 645
f 5 6 1349
f 303 563 732
f 517 149 739
f 1278 706 399
f 1266 212 565
f 985 965 185
f 1184 253 698
f 564 566 248
f 831 567 693
f 282 1030 461
f 1251 238 568
f 1057 223 502
f 1316 410 569
f 273 569 507
f 1254 570 1050
f 1170 235 664
f 1343 429 571
f 935 125 126
f 219 483 572
f 983 1118 159
f 787 190 941
f 1165 573 378
f 565 332 965
f 185 574 801
f 651 382 785
f 396 575 1097
f 1334 189 576
f 1055 762 287
f 635 169 577
f 423 577 1331
f 491 239 737
f 388 578 1198
f 578 239 733
f 731 1166 403
f 990 343 580
f 769 836 363
f 760 296 581
f 1336 659 626
f 812 253 582
f 164 582 452
f 1247 277 583
f 158 1185 556
f 1037 162 584
f 241 883 586
f 1166 146 585
f 403 726 893
f 1299 586 726
f 1296 641 402
f 1053 356 587
f 1225 712 390
f 972 251 1081
f 200 738 1113
f 762 265 589
f 1268 811 551
f 1308 168 590
f 313 590 806
f 1242 208 591
f 861 936 480
f 499 255 592
f 499 592 1040
f 1209 946 593
f 179 593 629
f 511 312 1352
f 177 1210 602
f 944 178 1194
f 1092 595 367
f 1093 150 596
f 1318 752 437
f 1132 422 597
f 243 1309 562
f 971 246 598
f 200 598 1187
f 525 160 599
f 525 599 250
f 42 43 839
f 574 600 322
f 717 180 601
f 1036 601 281
f 236 535 958
f 294 1210 1191
f 569 410 1058
f 17 603 16
f 1062 415 1158
f 1221 900 345
f 1031 550 605
f 166 605 1257
f 592 255 606
f 213 606 1001
f 908 436 607
f 1203 865 412
f 425 247 608
f 885 225 499
f 1302 418 609
f 1316 1315 410
f 781 301 610
f 428 610 1181
f 613 252 975
f 1120 611 157
f 796 186 612
f 252 612 930
f 797 252 613
f 323 613 773
f 626 302 614
f 281 614 508
f 573 190 1190
f 984 990 219
f 1234 394 616
f 208 616 937
f 60 61 1310
f 616 617 289
f 1157 374 618
f 256 618 748
f 1198 1235 619
f 1248 382 651
f 997 210 620
f 340 620 996
f 774 338 621
f 215 1147 1287
f 713 267 622
f 377 622 836
f 491 333 623
f 491 879 239
f 1119 443 624
f 1357 624 505
f 1034 170 625
f 914 680 202
f 659 302 626
f 601 626 281
f 961 372 627
f 257 627 628
f 1181 257 628
f 210 628 449
f 530 179 905
f 610 629 257
f 1065 359 630
f 162 630 584
f 630 359 631
f 1215 375 969
f 1220 263 1253
f 110 1179 109
f 911 409 633
f 633 1128 1178
f 736 349 987
f 409 634 633
f 433 169 635
f 1330 635 423
f 242 522 636
f 242 951 1162
f 861 480 637
f 249 954 469
f 609 418 638
f 609 1319 186
f 1121 193 639
f 1208 1098 292
f 981 444 640
f 265 640 460
f 586 270 641
f 586 641 198
f 654 406 1172
f 26 794 25
f 1116 192 643
f 373 643 1117
f 538 272 644
f 300 644 495
f 243 597 645
f 334 1106 828
f 925 191 646
f 258 646 1173
f 1264 268 647
f 170 647 1096
f 731 268 733
f 578 648 199
f 744 283 649
f 297 966 788
f 246 460 650
f 246 650 598
f 884 260 651
f 513 651 193
f 768 197 652
f 337 1212 980
f 658 342 653
f 542 653 171
f 27 28 1172
f 1307 654 292
f 3 4 655
f 336 1072 962
f 489 233 656
f 489 1239 479
f 1274 174 657
f 1249 206 917
f 237 551 658
f 237 658 1348
f 568 302 1251
f 581 659 180
f 457 264 660
f 214 660 458
f 805 321 881
f 264 661 1067
f 824 310 662
f 1176 1265 271
f 175 662 663
f 175 1082 776
f 570 235 1170
f 662 664 280
f 977 151 665
f 266 665 531
f 1354 266 666
f 181 666 519
f 555 187 667
f 1354 667 266
f 729 353 668
f 315 1338 1149
f 285 526 669
f 285 669 1074
f 603 307 1078
f 15 872 14
f 227 463 671
f 390 671 859
f 1045 368 672
f 289 672 545
f 1039 365 673
f 349 1266 565
f 553 324 674
f 276 674 541
f 968 233 675
f 434 1273 919
f 756 282 676
f 21 1333 20
f 1147 314 677
f 116 677 115
f 490 306 678
f 147 1271 484
f 112 113 679
f 112 679 1188
f 625 1189 914
f 1144 680 395
f 837 405 681
f 261 1180 516
f 657 366 1274
f 1020 1019 347
f 1122 73 683
f 683 852 1192
f 618 374 684
f 152 684 813
f 688 1320 1037
f 162 685 1065
f 558 385 1015
f 137 686 136
f 1350 155 687
f 278 687 680
f 809 218 688
f 1320 685 162
f 1127 1231 689
f 221 1135 484
f 689 275 1135
f 484 690 147
f 184 446 691
f 184 1013 589
f 869 163 692
f 469 692 249
f 470 211 693
f 282 693 567
f 1252 1328 694
f 1042 806 472
f 661 321 695
f 876 1323 415
f 1163 211 696
f 378 696 1165
f 800 322 1276
f 107 697 45
f 552 357 1086
f 1083 698 566
f 700 1201 821
f 299 1334 510
f 701 298 700
f 358 700 1073
f 949 298 701
f 69 1290 68
f 329 439 702
f 924 524 232
f 1017 314 703
f 351 703 555
f 819 196 704
f 1342 362 880
f 764 355 705
f 308 705 832
f 1278 248 706
f 399 706 1254
f 1066 285 707
f 359 707 631
f 541 145 708
f 1218 1014 237
f 1047 369 1226
f 824 840 310
f 1153 379 710
f 11 1293 10
f 738 274 1141
f 147 711 490
f 1088 447 712
f 104 712 103
f 715 267 1236
f 389 713 1007
f 1263 170 714
f 267 714 478
f 1235 199 715
f 267 715 1262
f 819 353 716
f 364 716 901
f 420 180 717
f 269 1023 764
f 440 157 995
f 1023 601 355
f 1332 188 719
f 423 719 1330
f 57 58 720
f 481 720 288
f 522 288 942
f 1242 721 208
f 1332 423 722
f 188 722 755
f 1085 383 723
f 354 1101 1031
f 839 332 1288
f 41 1140 40
f 857 299 725
f 155 725 761
f 241 586 1299
f 585 726 403
f 872 323 727
f 1356 1153 12
f 562 352 728
f 562 728 243
f 716 353 729
f 145 729 708
f 1035 361 730
f 454 730 197
f 733 579 731
f 268 731 845
f 450 303 732
f 1059 235 570
f 239 579 733
f 578 733 648
f 1107 231 734
f 524 734 404
f 1296 402 735
f 198 735 893
f 673 349 736
f 156 1289 520
f 1056 161 737
f 388 737 578
f 588 274 738
f 588 738 200
f 369 517 1049
f 279 739 564
f 1115 546 1232
f 534 740 277
f 780 295 741
f 485 741 172
f 501 172 742
f 501 743 223
f 1029 502 743
f 283 743 742
f 743 283 1029
f 970 1228 391
f 448 210 745
f 448 745 955
f 37 38 746
f 1104 325 903
f 1285 400 747
f 1196 447 1038
f 205 433 748
f 432 748 618
f 446 184 1149
f 315 1014 708
f 791 286 750
f 457 750 152
f 1183 428 751
f 599 751 340
f 1317 437 752
f 204 752 1070
f 1176 280 753
f 9 753 8
f 722 360 755
f 855 92 93
f 360 754 755
f 188 1217 473
f 1241 470 756
f 22 756 21
f 298 494 757
f 699 757 189
f 1017 351 758
f 677 758 115
f 150 496 759
f 1267 1060 438
f 1060 296 760
f 420 760 180
f 1143 155 761
f 395 761 1145
f 510 576 1055
f 287 1013 691
f 1284 400 1295
f 429 763 1344
f 308 718 764
f 308 764 705
f 58 59 765
f 720 765 288
f 71 72 766
f 341 766 933
f 454 333 767
f 454 767 1000
f 454 197 768
f 979 652 337
f 219 580 769
f 219 1123 483
f 449 148 770
f 284 770 771
f 1260 206 771
f 284 771 657
f 853 319 1142
f 521 772 183
f 613 195 773
f 323 773 727
f 869 338 774
f 468 1321 863
f 927 62 775
f 1045 775 368
f 459 305 776
f 1082 175 663
f 459 195 777
f 305 777 1033
f 1033 440 778
f 305 778 1047
f 741 295 779
f 431 779 205
f 1271 295 780
f 221 780 485
f 549 301 781
f 1183 610 428
f 530 301 1351
f 391 782 1027
f 706 376 783
f 167 783 503
f 262 679 1016
f 351 784 758
f 382 575 785
f 193 785 639
f 1207 392 786
f 29 1304 28
f 1307 292 787
f 406 787 941
f 966 458 788
f 297 788 530
f 431 205 789
f 286 789 432
f 172 431 790
f 172 790 456
f 456 286 791
f 214 791 457
f 565 212 792
f 332 792 724
f 1306 312 793
f 201 793 826
f 26 642 794
f 25 1167 24
f 836 196 795
f 363 795 948
f 1315 186 796
f 307 1091 797
f 1091 252 797
f 307 797 670
f 347 516 798
f 347 1229 1018
f 938 318 878
f 318 1257 882
f 801 322 1300
f 1179 108 109
f 633 185 1128
f 1300 322 800
f 435 290 802
f 220 802 1146
f 804 290 1095
f 536 803 1308
f 537 464 804
f 1095 803 536
f 247 425 805
f 408 805 881
f 694 313 1042
f 472 806 972
f 773 195 807
f 379 1174 710
f 512 293 808
f 512 808 585
f 1256 218 809
f 293 809 1051
f 477 293 810
f 183 1305 506
f 184 589 1268
f 551 811 246
f 1022 253 812
f 352 1114 728
f 457 152 813
f 457 813 264
f 4 5 814
f 655 814 303
f 655 303 1072
f 234 815 450
f 869 469 816
f 906 187 703
f 911 181 817
f 409 817 1313
f 979 337 818
f 623 818 207
f 1342 353 819
f 196 819 795
f 943 474 1270
f 80 1137 79
f 699 299 1201
f 700 821 194
f 544 346 1250
f 51 822 50
f 142 143 823
f 336 1071 655
f 175 709 824
f 175 824 662
f 896 306 825
f 205 825 433
f 959 201 826
f 304 826 511
f 1326 304 827
f 154 827 472
f 135 136 828
f 1106 334 645
f 705 355 829
f 176 829 973
f 1069 217 830
f 624 830 309
f 505 309 831
f 211 831 693
f 439 203 832
f 439 832 705
f 545 182 1026
f 1026 833 936
f 835 317 1125
f 319 1256 477
f 853 151 835
f 1125 317 834
f 622 196 836
f 377 836 769
f 504 405 837
f 504 837 366
f 1068 87 838
f 381 838 1044
f 43 600 839
f 1288 332 724
f 1050 310 840
f 399 840 864
f 552 232 841
f 357 841 912
f 1238 341 842
f 189 842 1075
f 793 201 933
f 842 843 384
f 765 394 844
f 765 844 288
f 731 403 845
f 268 845 647
f 141 142 846
f 561 962 234
f 490 233 847
f 490 847 306
f 464 84 848
f 464 848 1080
f 70 71 849
f 494 849 1238
f 1131 445 850
f 422 850 1109
f 526 285 851
f 526 851 1089
f 312 683 1192
f 417 852 862
f 665 151 853
f 1142 319 772
f 938 226 854
f 1126 917 206
f 335 754 855
f 335 855 498
f 335 498 856
f 335 856 1217
f 821 299 1136
f 1350 1341 402
f 375 857 858
f 969 402 641
f 240 587 859
f 240 859 671
f 612 186 860
f 612 860 327
f 249 591 861
f 249 861 637
f 1139 559 862
f 76 862 75
f 1216 528 863
f 215 863 1321
f 279 564 864
f 279 864 840
f 1203 607 865
f 412 865 913
f 1205 451 866
f 230 1129 884
f 532 441 867
f 495 867 222
f 746 361 868
f 36 868 523
f 774 163 869
f 338 869 816
f 260 619 870
f 1007 713 153
f 238 467 871
f 238 871 568
f 670 323 872
f 14 872 13
f 242 481 873
f 242 873 522
f 475 229 874
f 540 1132 243
f 1163 378 875
f 505 875 1357
f 209 695 876
f 1063 415 1062
f 400 763 1295
f 878 1343 226
f 318 877 878
f 318 938 799
f 491 623 879
f 239 879 1154
f 704 362 1342
f 353 880 668
f 813 408 881
f 264 881 661
f 877 318 1295
f 227 882 463
f 584 630 883
f 584 883 241
f 1129 515 884
f 513 884 651
f 425 608 885
f 1040 592 165
f 1167 471 886
f 24 886 23
f 1258 330 887
f 1258 887 1259
f 953 506 888
f 207 888 1052
f 182 492 889
f 182 889 486
f 306 488 890
f 825 890 433
f 1009 350 891
f 31 1207 30
f 7 547 892
f 7 892 6
f 726 198 893
f 845 893 401
f 598 200 1297
f 342 894 988
f 188 473 1199
f 374 895 684
f 295 678 896
f 779 896 205
f 1126 206 897
f 427 898 799
f 897 345 898
f 897 898 427
f 900 354 899
f 898 899 166
f 604 1221 1043
f 345 900 899
f 950 364 901
f 324 901 674
f 950 324 902
f 192 902 643
f 325 518 903
f 325 1104 746
f 38 39 904
f 746 904 325
f 301 530 905
f 301 905 610
f 338 816 906
f 338 906 621
f 805 425 907
f 321 907 695
f 1200 436 908
f 499 908 255
f 669 67 909
f 669 909 1074
f 228 685 910
f 228 910 492
f 817 409 911
f 548 911 1220
f 698 357 1184
f 582 912 250
f 865 98 913
f 1202 1028 356
f 362 625 914
f 362 914 880
f 929 204 915
f 497 915 269
f 646 191 916
f 385 1168 686
f 771 206 1249
f 366 917 504
f 1148 339 918
f 187 918 667
f 1312 434 919
f 326 1240 1044
f 577 169 920
f 577 920 921
f 920 326 921
f 254 921 1272
f 1086 149 922
f 329 922 923
f 922 517 923
f 329 923 439
f 329 702 924
f 329 924 552
f 248 462 1161
f 376 925 646
f 291 519 926
f 291 926 1289
f 61 62 927
f 617 927 289
f 848 85 928
f 398 928 1146
f 1317 204 929
f 327 929 931
f 612 327 930
f 252 930 611
f 929 497 931
f 327 931 930
f 567 309 932
f 567 932 178
f 766 407 933
f 341 933 843
f 33 34 934
f 514 934 1205
f 405 571 935
f 405 935 681
f 861 328 936
f 480 936 835
f 591 208 937
f 328 937 545
f 854 427 938
f 226 938 878
f 1079 521 939
f 224 939 520
f 939 521 940
f 331 940 953
f 642 406 941
f 311 941 1165
f 721 397 942
f 721 942 288
f 1282 474 943
f 537 943 1346
f 1030 178 944
f 461 1302 273
f 1124 424 945
f 117 945 1206
f 661 209 1298
f 430 946 1209
f 1284 227 947
f 747 947 447
f 1123 363 1138
f 192 950 902
f 494 298 949
f 494 949 70
f 901 324 950
f 364 950 948
f 242 636 951
f 544 951 346
f 1205 230 952
f 350 952 1008
f 974 560 953
f 207 953 888
f 249 637 954
f 469 954 1148
f 284 657 955
f 448 955 956
f 620 448 956
f 259 956 476
f 724 413 1140
f 40 957 39
f 535 602 958
f 236 958 1282
f 826 444 959
f 843 959 384
f 982 527 960
f 53 960 52
f 593 372 961
f 629 961 257
f 846 336 962
f 234 962 815
f 1098 396 963
f 787 963 190
f 212 518 964
f 413 964 957
f 985 565 965
f 185 965 574
f 214 458 966
f 649 966 297
f 35 523 967
f 35 967 34
f 847 233 968
f 488 968 434
f 375 858 969
f 375 1215 1136
f 144 744 970
f 144 1337 614
f 658 246 971
f 658 971 342
f 154 472 972
f 1081 1103 588
f 829 509 973
f 176 973 524
f 337 560 974
f 818 974 207
f 252 611 975
f 613 1156 195
f 234 503 1277
f 455 1286 1011
f 637 151 977
f 339 977 978
f 918 339 978
f 918 978 667
f 333 768 979
f 333 979 818
f 1212 1039 980
f 337 980 560
f 959 444 981
f 384 981 1076
f 53 54 982
f 53 982 960
f 344 572 983
f 344 983 1164
f 344 615 984
f 344 984 572
f 349 565 985
f 349 985 634
f 229 475 986
f 229 986 1018
f 349 634 987
f 736 987 291
f 653 342 988
f 653 988 171
f 575 153 989
f 343 989 580
f 615 343 990
f 615 990 984
f 300 495 991
f 300 991 496
f 775 63 992
f 368 992 1046
f 300 496 993
f 482 993 150
f 164 452 994
f 164 994 475
f 157 718 995
f 440 995 832
f 998 340 996
f 452 1325 994
f 1182 210 997
f 751 997 340
f 452 250 998
f 452 998 996
f 360 557 999
f 360 1347 754
f 529 245 1000
f 529 1171 161
f 606 412 1001
f 213 1001 1025
f 48 49 1002
f 424 1002 1216
f 947 227 1003
f 712 1003 390
f 500 158 1004
f 500 1004 348
f 1127 221 1005
f 556 1005 348
f 500 348 1006
f 223 1006 501
f 382 870 1007
f 382 1007 575
f 952 513 1008
f 350 1121 891
f 514 350 1009
f 32 1009 31
f 331 560 1010
f 520 1010 156
f 1064 455 1011
f 139 1011 138
f 991 222 1012
f 496 1012 759
f 287 762 1013
f 691 1013 184
f 315 749 1014
f 708 1218 541
f 1011 558 1015
f 138 1015 137
f 1355 262 1016
f 555 1016 351
f 703 351 1017
f 314 1017 677
f 986 476 1018
f 229 1229 1131
f 1020 682 1019
f 347 1019 516
f 174 682 1020
f 174 1020 476
f 970 391 1021
f 970 1021 144
f 566 253 1311
f 462 1022 1335
f 269 717 1023
f 764 1023 355
f 1335 352 1024
f 191 1024 916
f 1101 213 1025
f 550 1053 240
f 328 545 1026
f 328 1026 936
f 508 1021 1027
f 231 1027 782
f 913 99 1028
f 356 1028 587
f 144 502 1029
f 744 1029 283
f 282 567 1030
f 461 1030 944
f 1101 550 1031
f 354 1031 899
f 94 95 1032
f 498 1032 1200
f 1120 440 1033
f 380 1033 777
f 714 170 1034
f 478 1034 704
f 868 361 1035
f 245 1035 730
f 355 601 1036
f 355 1036 829
f 370 688 1037
f 370 1037 584
f 106 119 1038
f 105 1088 104
f 1212 365 1039
f 156 1039 736
f 425 885 1040
f 425 1040 907
f 1331 254 1041
f 722 1041 360
f 304 694 1042
f 304 1042 827
f 1159 604 1043
f 1100 345 897
f 1240 381 1044
f 326 1044 921
f 927 775 1045
f 289 1045 672
f 992 543 1046
f 368 1046 492
f 776 305 1047
f 1226 369 709
f 778 203 1048
f 369 1048 517
f 739 279 1049
f 739 1049 517
f 1170 310 1050
f 570 1254 167
f 809 370 1051
f 808 1051 241
f 623 207 1052
f 879 1052 1154
f 1025 356 1053
f 240 1053 587
f 907 165 1054
f 695 1054 416
f 576 762 1055
f 510 1055 1102
f 515 161 1056
f 515 1197 884
f 302 568 1057
f 302 1057 1155
f 1314 603 1058
f 569 1058 1222
f 450 732 1059
f 450 1059 167
f 759 296 1060
f 438 1060 1070
f 587 101 1061
f 859 1225 390
f 876 415 1063
f 372 1062 627
f 209 876 1063
f 209 1063 946
f 140 561 1064
f 140 1064 139
f 1066 359 1065
f 465 1065 685
f 707 359 1066
f 285 1066 851
f 660 264 1067
f 660 1067 458
f 928 86 1068
f 381 1068 838
f 272 538 1213
f 443 1069 830
f 752 438 1070
f 204 1070 915
f 3 655 1071
f 3 1071 2
f 336 655 1072
f 962 1072 815
f 1074 358 1073
f 707 1073 194
f 909 358 1074
f 285 1074 707
f 576 189 1075
f 576 1076 265
f 1075 384 1076
f 1075 1076 576
f 606 213 1077
f 606 1077 592
f 307 670 1078
f 603 1078 16
f 531 371 1079
f 224 1079 939
f 804 464 1080
f 290 1080 802
f 386 972 1081
f 1187 588 200
f 459 776 1082
f 459 1082 271
f 1086 698 1083
f 149 1083 564
f 165 592 1084
f 165 1084 1054
f 1105 383 1085
f 216 1329 900
f 922 552 1086
f 149 1086 1083
f 504 226 1087
f 405 1087 571
f 105 1038 1088
f 104 1088 712
f 543 526 1089
f 543 1089 1046
f 742 456 1090
f 742 1090 283
f 612 252 1091
f 796 1091 307
f 244 595 1092
f 244 1092 596
f 482 150 1093
f 367 1093 1092
f 830 217 1094
f 487 1094 367
f 236 804 1095
f 236 1095 536
f 647 401 1096
f 170 1096 625
f 963 396 1097
f 1237 343 615
f 639 396 1098
f 639 1098 1208
f 1158 415 1099
f 604 1099 1221
f 426 1043 1100
f 426 1100 1260
f 354 723 1101
f 550 1101 1025
f 725 510 1102
f 761 1102 287
f 590 479 1291
f 251 1103 1081
f 361 746 1104
f 361 1104 730
f 1084 383 1105
f 1324 1085 216
f 135 828 1106
f 135 1106 134
f 973 509 1107
f 231 1107 1027
f 622 377 1108
f 713 1108 153
f 597 422 1109
f 597 1109 133
f 518 212 1110
f 518 1110 365
f 548 262 1111
f 548 1353 181
f 88 89 1112
f 1272 1041 254
f 738 387 1113
f 894 1113 453
f 582 164 1114
f 812 1114 352
f 988 453 1115
f 171 1115 1232
f 1138 192 1116
f 483 1116 373
f 1119 373 1117
f 443 1213 1069
f 483 373 1118
f 572 1118 983
f 1117 443 1119
f 1118 1119 159
f 380 611 1120
f 380 1120 1033
f 350 1008 1121
f 392 1121 639
f 766 72 1122
f 407 1122 683
f 219 769 1123
f 483 1123 1138
f 945 118 1124
f 424 1124 1002
f 853 835 1125
f 319 1125 834
f 427 854 1126
f 427 1126 897
f 1185 320 1127
f 556 1127 1005
f 263 633 1178
f 411 1128 1300
f 866 529 1129
f 866 1129 230
f 365 652 1130
f 518 1130 903
f 874 229 1131
f 422 1131 850
f 540 874 1132
f 243 1132 597
f 1113 387 1133
f 275 1133 690
f 1141 711 1134
f 387 1134 1133
f 275 690 1135
f 689 1135 221
f 857 375 1136
f 821 1136 194
f 294 559 1137
f 294 1137 820
f 948 192 1138
f 948 1138 363
f 78 559 1139
f 78 1139 77
f 413 957 1140
f 724 1140 41
f 274 711 1141
f 738 1141 387
f 371 853 1142
f 371 1142 1079
f 687 155 1143
f 687 1143 680
f 202 680 1144
f 202 1144 446
f 691 395 1145
f 691 1145 287
f 802 398 1146
f 220 1240 919
f 215 621 1147
f 442 1147 677
f 816 469 1148
f 816 1148 918
f 749 315 1149
f 749 1149 184
f 1152 549 1150
f 404 1150 1151
f 841 232 1151
f 525 1151 1150
f 734 231 1152
f 404 1152 1150
f 727 379 1356
f 12 1153 11
f 1052 419 1154
f 239 1154 579
f 614 302 1155
f 614 1155 144
f 380 777 1156
f 975 1156 613
f 719 374 1157
f 256 1157 618
f 1099 604 1158
f 1062 1158 148
f 1043 426 1159
f 1158 1159 148
f 783 376 1160
f 258 1160 646
f 706 248 1161
f 376 1161 925
f 527 242 1162
f 527 1162 960
f 696 378 1163
f 211 1163 505
f 573 344 1164
f 378 1164 875
f 941 573 1165
f 311 1165 696
f 731 146 1166
f 403 1166 585
f 794 471 1167
f 794 1167 25
f 385 916 1168
f 686 1168 828
f 1090 456 1169
f 649 1169 214
f 1050 570 1170
f 310 1170 664
f 1000 767 1171
f 1000 1171 529
f 28 654 1172
f 27 1172 26
f 1286 258 1173
f 558 1173 385
f 379 807 1174
f 710 1174 271
f 129 130 1175
f 798 1175 445
f 271 663 1176
f 539 1176 753
f 522 163 1177
f 636 1177 468
f 632 263 1178
f 632 1178 411
f 411 800 1179
f 411 1179 632
f 261 681 1180
f 516 1180 128
f 610 257 1181
f 428 1181 628
f 628 210 1182
f 428 1182 751
f 160 781 1183
f 160 1183 751
f 582 253 1184
f 912 1184 357
f 1269 320 1185
f 583 1185 158
f 650 154 1186
f 650 1186 386
f 386 1081 1187
f 386 1187 598
f 679 493 1188
f 112 1188 111
f 278 680 1189
f 278 1189 625
f 615 344 1190
f 615 1190 190
f 1192 417 1191
f 1210 294 602
f 594 312 1192
f 594 1192 1191
f 93 94 1193
f 855 1193 498
f 178 595 1194
f 944 1194 418
f 643 414 1195
f 272 1195 644
f 120 747 1196
f 120 1196 119
f 515 1056 1197
f 260 1197 619
f 578 199 1198
f 388 1198 1197
f 473 895 1199
f 188 1199 719
f 1032 436 1200
f 498 1200 856
f 700 298 1201
f 821 1201 299
f 412 913 1202
f 412 1202 1001
f 255 607 1203
f 255 1203 606
f 523 245 1204
f 451 1204 866
f 866 230 1205
f 451 1205 934
f 945 442 1206
f 117 1206 116
f 891 392 1207
f 891 1207 31
f 392 639 1208
f 392 1208 786
f 458 430 1209
f 179 1209 593
f 594 1191 1210
f 594 1210 177
f 892 547 1211
f 892 1211 563
f 652 365 1212
f 652 1212 337
f 1117 272 1213
f 1117 1213 443
f 95 96 1214
f 1032 1214 436
f 270 631 1215
f 270 1215 969
f 1002 528 1216
f 424 1216 1287
f 755 335 1217
f 755 1217 188
f 708 1014 1218
f 541 1219 542
f 541 1218 1219
f 542 1348 653
f 911 263 1220
f 548 1220 493
f 216 900 1221
f 216 1221 1099
f 507 569 1222
f 19 1222 18
f 1253 632 1223
f 493 1223 1188
f 269 718 1224
f 497 1224 931
f 1061 102 1225
f 1061 1225 859
f 776 1047 1226
f 776 1226 175
f 240 671 1227
f 605 1227 463
f 970 297 1228
f 391 1228 1351
f 347 798 1229
f 1018 1229 229
f 296 554 1230
f 296 1230 581
f 320 546 1231
f 320 1231 1127
f 534 171 1232
f 534 1232 740
f 765 59 1233
f 1310 61 617
f 844 394 1234
f 844 1234 721
f 1198 199 1235
f 389 1235 1236
f 713 389 1236
f 713 1236 267
f 963 1097 1237
f 963 1237 190
f 849 341 1238
f 757 1238 189
f 489 656 1239
f 479 1239 1103
f 1146 381 1240
f 919 1240 326
f 886 470 1241
f 23 1241 22
f 397 721 1242
f 397 1242 591
f 942 397 1243
f 942 1243 522
f 591 249 1244
f 397 1244 692
f 1246 441 1255
f 158 1245 583
f 467 222 1246
f 467 1246 1255
f 532 277 1247
f 441 1247 1245
f 260 870 1248
f 260 1248 651
f 657 771 1249
f 366 1249 917
f 346 822 1250
f 544 1250 960
f 581 238 1251
f 659 1251 302
f 1352 177 1252
f 511 1252 304
f 263 632 1253
f 1220 1253 493
f 706 167 1254
f 399 1254 1050
f 871 467 1255
f 158 1255 1245
f 834 218 1256
f 834 1256 319
f 799 166 1257
f 799 1257 318
f 1052 888 1258
f 419 1258 1259
f 1154 419 1259
f 579 1259 146
f 1100 206 1260
f 426 1260 770
f 834 317 1261
f 834 1261 218
f 714 267 1262
f 714 1262 1263
f 647 170 1263
f 393 1263 1262
f 1281 648 1264
f 393 1264 1263
f 710 271 1265
f 1293 539 10
f 673 212 1266
f 673 1266 349
f 150 759 1267
f 150 1267 596
f 589 811 1268
f 184 1268 749
f 277 740 1269
f 583 1269 1185
f 474 820 1270
f 943 1270 81
f 780 484 1271
f 295 1271 678
f 466 1112 1272
f 466 1272 921
f 802 220 1273
f 435 1273 675
f 682 174 1274
f 682 1274 366
f 1261 486 1275
f 218 1275 688
f 322 697 1276
f 800 1276 108
f 503 976 1277
f 234 1277 561
f 864 248 1278
f 864 1278 399
f 902 324 1279
f 414 1279 1280
f 1279 553 1280
f 414 1280 1195
f 393 715 1281
f 648 1281 199
f 943 537 1282
f 474 1282 958
f 602 294 1283
f 602 1283 958
f 882 227 1284
f 1295 763 877
f 763 400 1285
f 121 1285 747
f 976 258 1286
f 976 1286 455
f 945 424 1287
f 442 1287 1147
f 42 839 1288
f 42 1288 41
f 926 520 1289
f 291 1289 736
f 909 68 1290
f 909 1290 358
f 806 590 1291
f 251 1291 1103
f 1096 401 1292
f 1096 1292 625
f 710 1265 1293
f 710 1293 11
f 684 247 1294
f 408 1294 805
f 882 1284 1295
f 882 1295 318
f 198 641 1296
f 198 1296 735
f 971 598 1297
f 342 1297 894
f 1067 661 1298
f 430 1298 946
f 585 241 1299
f 585 1299 726
f 1128 801 1300
f 411 1300 800
f 934 514 1301
f 33 1301 32
f 461 944 1302
f 273 1302 609
f 638 418 1303
f 638 1303 244
f 29 786 1304
f 28 1304 654
f 183 810 1305
f 506 1305 888
f 793 407 1306
f 312 1306 683
f 406 654 1307
f 406 1307 787
f 803 168 1308
f 536 1308 313
f 334 562 1309
f 334 1309 645
f 394 1233 1310
f 394 1310 616
f 462 566 1311
f 462 1311 1022
f 919 920 1312
f 434 1312 488
f 634 409 1313
f 987 1313 291
f 1058 410 1314
f 603 1314 307
f 609 186 1315
f 609 1315 1316
f 273 609 1316
f 273 1316 569
f 752 204 1317
f 437 1317 860
f 244 752 1318
f 244 1318 638
f 638 437 1319
f 638 1319 609
f 316 685 1320
f 316 1320 688
f 774 621 1321
f 774 1321 468
f 366 837 1322
f 366 1322 682
f 876 416 1323
f 415 1323 1099
f 416 1105 1324
f 416 1324 1323
f 452 996 1325
f 994 1325 475
f 826 304 1326
f 444 1326 1327
f 640 444 1327
f 154 1327 827
f 313 694 1328
f 535 1328 602
f 216 1085 1329
f 900 1329 354
f 256 635 1330
f 256 1330 719
f 577 254 1331
f 423 1331 722
f 719 423 1332
f 188 1332 722
f 676 507 1333
f 676 1333 21
f 299 699 1334
f 510 1334 576
f 1022 352 1335
f 462 1335 925
f 180 659 1336
f 180 1336 601
f 508 614 1337
f 508 1337 1021
f 315 668 1338
f 1149 1338 446
f 55 56 1339
f 55 1339 982
f 1344 124 1340
f 571 1340 935
f 735 402 1341
f 735 1341 278
f 819 704 1342
f 353 1342 880
f 878 429 1343
f 226 1343 1087
f 123 124 1344
f 429 1344 571
f 1280 553 1345
f 173 1345 532
f 82 83 1346
f 82 1346 943
f 360 999 1347
f 754 1347 92
f 658 653 1348
f 237 1348 1219
f 892 563 1349
f 5 1349 814
f 858 155 1350
f 858 1350 402
f 1228 530 1351
f 391 1351 782
f 312 594 1352
f 511 1352 1252
f 666 181 1353
f 421 1353 1111
f 421 667 1354
f 421 1354 666
f 1111 262 1355
f 1111 1355 421
f 13 727 1356
f 13 1356 12
f 159 624 1357
f 159 1357 875
