v 22.6253002958541 111.275416823948 -12.5
v 21.9401869451714 111.972179583677 -12.5
v 21.2550735944887 112.668942343407 -12.5
v 20.569960243806 113.365705103137 -12.5
v 19.8848468931234 114.062467862867 -12.5
v 19.1997335424407 114.759230622596 -12.5
v 18.514620191758 115.455993382326 -12.5
v 17.8295068410753 116.152756142056 -12.5
v 17.1443934903926 116.849518901786 -12.5
v 16.4592801397099 117.546281661516 -12.5
v 15.7741667890273 118.243044421245 -12.5
v 15.0890534383446 118.939807180975 -12.5
v 14.4039400876619 119.636569940705 -12.5
v 13.7188267369792 120.333332700435 -12.5
v 13.0337133862965 121.030095460164 -12.5
v 13.4273546617511 121.921455483513 -12.5
v 13.7820246798035 122.829044593793 -12.5
v 14.1018710903829 123.749501595518 -12.5
v 14.3920047537968 124.679768894484 -12.5
v 14.6582536171464 125.617166131174 -12.5
v 14.9069263302845 126.559389353805 -12.5
v 15.1446078153077 127.504451954159 -12.5
v 15.3779922135692 128.450587588297 -12.5
v 15.6137461899671 129.396134106114 -12.5
v 15.8583889040105 130.339414538479 -12.5
v 16.1181735752901 131.278628761095 -12.5
v 16.3989585366606 132.21176832966 -12.5
v 16.7060622000565 133.136566556719 -12.5
v 17.0441055993037 134.050494646626 -12.5
v 17.4168565111795 134.950810828873 -12.5
v 17.8270977548079 135.834661861762 -12.5
v 18.2765455157927 136.699225766184 -12.5
v 18.7658386959814 137.541874215903 -12.5
v 19.2946075809097 138.360326944288 -12.5
v 19.8616135668962 139.152772014458 -12.5
v 20.4649374632952 139.917934737814 -12.5
v 21.1021869754772 140.655090851447 -12.5
v 21.7706956622696 141.364031365255 -12.5
v 22.1968871595463 141.776387221365 -12.5
v 22.8690138106089 141.092831982198 -12.5
v 23.5411404616716 140.409276743031 -12.5
v 24.2132671127342 139.725721503864 -12.5
v 24.8853937637968 139.042166264697 -12.5
v 25.5575204148594 138.35861102553 -12.5
v 26.229647065922 137.675055786363 -12.5
v 26.9017737169846 136.991500547196 -12.5
v 27.5739003680472 136.30794530803 -12.5
v 28.2460270191098 135.624390068863 -12.5
v 28.9181536701724 134.940834829696 -12.5
v 29.590280321235 134.257279590529 -12.5
v 30.2624069722977 133.573724351362 -12.5
v 30.9345336233603 132.890169112195 -12.5
v 31.6066602744229 132.206613873028 -12.5
v 32.2787869254855 131.523058633862 -12.5
v 32.9509135765481 130.839503394695 -12.5
v 33.6230402276107 130.155948155528 -12.5
v 34.2951668786733 129.472392916361 -12.5
v 34.9672935297359 128.788837677194 -12.5
v 35.6394201807986 128.105282438027 -12.5
v 36.3115468318612 127.42172719886 -12.5
v 36.9836734829238 126.738171959694 -12.5
v 37.6558001339864 126.054616720527 -12.5
v 36.9725955958895 125.382834907046 -12.5
v 36.2893910577925 124.711053093565 -12.5
v 35.6061865196956 124.039271280084 -12.5
v 34.9229819815987 123.367489466603 -12.5
v 34.2397774435018 122.695707653122 -12.5
v 33.5565729054048 122.023925839641 -12.5
v 32.8733683673079 121.352144026161 -12.5
v 32.190163829211 120.68036221268 -12.5
v 31.5069592911141 120.008580399199 -12.5
v 30.8237547530172 119.336798585718 -12.5
v 30.1405502149202 118.665016772237 -12.5
v 29.4573456768233 117.993234958756 -12.5
v 28.7741411387264 117.321453145275 -12.5
v 28.0909366006295 116.649671331795 -12.5
v 27.4077320625325 115.977889518314 -12.5
v 26.7245275244356 115.306107704833 -12.5
v 26.0413229863387 114.634325891352 -12.5
v 25.3581184482418 113.962544077871 -12.5
v 24.6749139101449 113.29076226439 -12.5
v 23.9917093720479 112.618980450909 -12.5
v 23.308504833951 111.947198637428 -12.5
v 24.2083144296242 125.770549121161 -12.5
v 22.4510473177532 120.011816805718 -12.5
v 23.6328174712746 131.760532500855 -12.5
v 29.7737411181856 126.121127720121 -12.5
v 19.4593291499705 124.072214034674 -12.5
v 26.7360036341687 121.851749520187 -12.5
v 20.5740538267553 128.444019460082 -12.5
v 27.6481156964216 129.969691918995 -12.5
v 22.4334675160847 135.690154300837 -12.5
v 18.7235569032305 120.457911962237 -12.5
v 20.074985660426 131.97308095049 -12.5
v 22.6649140886497 116.391438519492 -12.5
v 25.4578633456241 118.644214719503 -12.5
v 33.0151068186302 125.991107071298 -12.5
v 26.5474549505812 132.898698457669 -12.5
v 23.8158775014365 122.742820911334 -12.5
v 23.587507516865 128.733541704611 -12.5
v 29.8097366551252 122.880125409768 -12.5
v 30.5223794855563 129.045904098266 -12.5
v 16.8522788473858 122.720895086073 -12.5
v 20.1662179993229 117.912903657054 -12.5
v 26.9210441188292 127.056827234211 -12.5
v 17.7468318889628 126.347577917206 -12.5
v 26.4880158740116 124.466393434851 -12.5
v 18.1553697811921 129.240320763038 -12.5
v 21.9772083454845 124.520435588121 -12.5
v 20.7889149179707 121.919504524853 -12.5
v 24.3840933645956 134.137663707728 -12.5
v 28.8320486533092 120.679069252891 -12.5
v 22.2548676036728 138.179176580463 -12.5
v 20.0928290044238 134.56852402231 -12.5
v 21.937016590264 133.258062593812 -12.5
v 20.0011108678636 126.262089500156 -12.5
v 22.2425323228552 126.905210083248 -12.5
v 21.7670224575439 130.41254415278 -12.5
v 31.9984519879608 123.831805583286 -12.5
v 29.0462665618597 131.705694807947 -12.5
v 24.5618648562631 120.663469044221 -12.5
v 25.3531659474375 130.22094670064 -12.5
v 24.5238192013935 136.314898768121 -12.5
v 24.8709402246358 116.507911052111 -12.5
v 16.2041502583572 120.721471061075 -12.5
v 28.7878098250632 127.93169148384 -12.5
v 20.7010061857667 136.816760317864 -12.5
v 22.65303576595 114.267711029746 -12.5
v 32.5348708086208 128.143669002578 -12.5
v 27.0110180649871 119.883737179366 -12.5
v 18.2573037125939 118.512215170289 -12.5
v 26.2304011403268 134.853298949794 -12.5
v 20.8671952168264 115.713602713057 -12.5
v 20.5647279046618 120.046238404481 -12.5
v 16.4982689563111 124.731880803687 -12.5
v 25.45944867628 128.303096040158 -12.5
v 18.9782205197453 122.288111979028 -12.5
v 18.2383941220098 132.114325240148 -12.5
v 28.5373274479065 124.486694697899 -12.5
v 22.0358012841917 118.170780934075 -12.5
v 34.9362525915594 126.07754060847 -12.5
v 19.7896617853878 130.132912367529 -12.5
v 18.925225520766 127.65637511833 -12.5
v 23.8103944344611 117.948059728871 -12.5
v 31.3781405666773 122.189494464489 -12.5
v 31.422888798789 126.765734873411 -12.5
v 27.1398835438443 118.129431910639 -12.5
v 30.7817422884642 130.72326577585 -12.5
v 28.2317693875647 133.213136627083 -12.5
v 33.5881537229659 124.402317408082 -12.5
v 30.4034277610837 124.507420163766 -12.5
v 28.3203481214842 122.224029601665 -12.5
v 15.2941235763354 122.12122310178 -12.5
v 25.5069299170117 123.054259395057 -12.5
v 34.0222665215873 127.443830822546 -12.5
v 17.0286266779112 127.924229032403 -12.5
v 23.8274106134366 115.323039540602 -12.5
v 22.4719114933688 121.707931564912 -12.5
v 27.4446895413683 131.564554697651 -12.5
v 25.2727296852134 131.862026565322 -12.5
v 18.6347803504695 133.919241614453 -12.5
v 28.3597111009296 119.100922070539 -12.5
v 23.5577752748307 124.315571482903 -12.5
v 29.2730234364187 130.09204181536 -12.5
v 28.1703395105268 126.049190010936 -12.5
v 17.8753392107842 123.937645034166 -12.5
v 23.3031172264051 130.251633154726 -12.5
v 22.0514127480038 128.894452702666 -12.5
v 23.7331609888103 127.217526956855 -12.5
v 31.9832352388282 129.608822547664 -12.5
v 17.3762279668315 119.752063233782 -12.5
v 25.4023810480854 126.755971243916 -12.5
v 26.9681314339331 128.592247348399 -12.5
v 31.6919519007534 125.295098130542 -12.5
v 19.5887762887669 116.517496474251 -12.5
v 30.3425178533218 121.03406250639 -12.5
v 23.1820850003685 136.994790246565 -12.5
v 17.7170271149022 121.530783412095 -12.5
v 25.0204168583941 124.439140132495 -12.5
v 27.2504975248473 123.219629303871 -12.5
v 17.3184858849159 130.44108985299 -12.5
v 30.1792141690179 127.515648834789 -12.5
v 15.6409102213661 123.544300637819 -12.5
v 21.7841592524799 123.036719653097 -12.5
v 21.5312369459475 131.854467247037 -12.5
v 18.8391872164042 125.387595936335 -12.5
v 16.3058020311968 126.170888355732 -12.5
v 24.2103305853586 119.299066946685 -12.5
v 19.2168548224859 135.661295631374 -12.5
v 25.9819939095571 117.351439519435 -12.5
v 19.422692777173 119.261662698973 -12.5
v 23.663305711188 138.326659514137 -12.5
v 22.2354116209603 139.676395431296 -12.5
v 21.2387303122858 117.043381839586 -12.5
v 21.3473420287605 125.797659805915 -12.5
v 26.8832777545038 125.731730077422 -12.5
v 22.9366679606608 134.320723570274 -12.5
v 23.2444498956305 133.029671889559 -12.5
v 20.5560685742197 133.267556437372 -12.5
v 21.082024330074 135.507311880819 -12.5
v 27.5503841494587 134.422834500148 -12.5
v 20.8666885754729 138.1951086743 -12.5
v 24.8386269851833 121.936251083058 -12.5
v 25.6844233874186 119.95316232618 -12.5
v 20.3257695484749 125.019811036073 -12.5
v 22.9051776929742 125.480277245134 -12.5
v 23.79185897447 135.268771873023 -12.5
v 19.3906660884733 128.921003605364 -12.5
v 16.8799734967359 129.243445360277 -12.5
v 20.72454620204 123.785271752483 -12.5
v 19.7104497060655 121.253408151659 -12.5
v 21.5133798759667 120.882754593066 -12.5
v 19.0905368127001 131.18351834349 -12.5
v 14.9073483461628 120.874071536816 -12.5
v 33.0817773039636 123.190096338384 -12.5
v 25.5971425924943 133.747563969485 -12.5
v 21.9465033757597 136.836682126392 -12.5
v 26.2731450601429 131.088549959363 -12.5
v 25.8574195016662 136.144913945807 -12.5
v 23.030236238989 118.913833269441 -12.5
v 24.5047566547211 132.87345790737 -12.5
v 31.3139501889501 127.991294909865 -12.5
v 16.1787959934269 119.497552726093 -12.5
v 19.2183220773724 132.845102938529 -12.5
v 17.6477123495509 125.133899759032 -12.5
v 22.6435613259003 113.01220429639 -12.5
v 21.2888688425222 134.298812396774 -12.5
v 27.7316756054022 121.171838199072 -12.5
v 29.4351407049848 119.638805905985 -12.5
v 18.5202904444835 117.246020928304 -12.5
v 16.9913861867639 118.618563421959 -12.5
v 30.8798833810587 123.411646867365 -12.5
v 20.9876981871513 118.863338489268 -12.5
v 23.6840341098602 121.523920298642 -12.5
v 21.0272654512152 114.50057520807 -12.5
v 25.6462447311268 125.525864871221 -12.5
v 29.4116219056375 121.765315034847 -12.5
v 28.5288138496664 129.12452638507 -12.5
v 20.9510469187146 127.178838367942 -12.5
v 24.9575544320893 115.053220785442 -12.5
v 24.3194605994263 129.656345198272 -12.5
v 24.5028733634597 131.001781459263 -12.5
v 26.4574597362166 129.700905236704 -12.5
v 20.7272791688875 130.98276326408 -12.5
v 22.6249683561591 131.190281313279 -12.5
v 21.0610831221499 129.494613920946 -12.5
v 19.8816264028941 123.001415603399 -12.5
v 21.9628974723936 115.241115663364 -12.5
v 25.1471621656208 137.282891502521 -12.5
v 33.2108876779864 129.078464331639 -12.5
v 28.3793983916281 123.360103163476 -12.5
v 18.8685618298447 126.522502965515 -12.5
v 22.7295616182498 127.955804544113 -12.5
v 24.8918315830651 117.633870517627 -12.5
v 25.038527774577 135.188765885395 -12.5
v 23.8350996049669 114.133393833642 -12.5
v 30.2726325191953 131.848002237749 -12.5
v 29.3451900961483 132.840972862987 -12.5
v 28.4032158286312 130.792571905104 -12.5
v 23.5499699075694 120.196693918458 -12.5
v 23.7691612721969 116.426300251858 -12.5
v 25.9843587780988 116.194848110037 -12.5
v 32.5273023533884 127.012129251735 -12.5
v 22.8731998562684 123.395672914218 -12.5
v 26.3938929106012 120.80072047001 -12.5
v 17.9780174721625 122.812835016122 -12.5
v 27.0417937646753 117.024776962638 -12.5
v 18.4139010986318 130.312526267524 -12.5
v 35.955647324868 125.733773331011 -12.5
v 34.7149663310628 124.875577844682 -12.5
v 35.0809155463235 127.163166233835 -12.5
v 21.7500178226964 113.646736365749 -12.5
v 15.4406186745943 124.888441105296 -12.5
v 16.6661900484728 121.676457261457 -12.5
v 32.7020893912451 124.980468986726 -12.5
v 30.6591192106999 125.536902957488 -12.5
v 19.8291963852427 137.434916592744 -12.5
v 17.8231664255114 133.151499675147 -12.5
v 19.9116650842843 127.305310061066 -12.5
v 24.551289948964 123.496437169807 -12.5
v 22.5197919719022 132.249715012947 -12.5
v 27.5090528129607 124.841848780154 -12.5
v 27.7106515535564 127.801044120848 -12.5
v 29.6941243356316 128.428037664603 -12.5
v 29.27390622574 127.022668996643 -12.5
v 29.4767470650964 123.923557539471 -12.5
v 29.0018763860431 125.420150126003 -12.5
v 16.6468059966519 123.721376511965 -12.5
v 24.4153469483033 128.048073348325 -12.5
v 21.5066677648814 128.033157738596 -12.5
v 33.9938847401669 125.629683149255 -12.5
v 29.7981210417969 130.955623537743 -12.5
v 14.7824592064203 122.997206731236 -12.5
v 21.2682985587448 139.19701716328 -12.5
v 30.3810946312916 122.041320191687 -12.5
v 17.637721323742 117.723120689961 -12.5
v 19.1571801512569 118.038710113794 -12.5
v 18.448960929649 119.495000998451 -12.5
v 17.1491112042408 131.477230394119 -12.5
v 26.3086064901791 119.171044241844 -12.5
v 28.0167811886393 120.063319202233 -12.5
v 24.1497191907661 137.240500552259 -12.5
v 26.655999578646 133.919320112659 -12.5
v 26.7649643690224 135.707326328513 -12.5
v 23.2342682330798 139.302935090166 -12.5
v 32.4400631578334 122.332069435225 -12.5
v 18.8593171188435 123.277095919869 -12.5
v 31.8007141459507 130.616937339438 -12.5
v 18.458857521859 134.946294515581 -12.5
v 22.8474748336037 117.456872840193 -12.5
v 19.5876087174001 133.741301545186 -12.5
v 16.1914846005975 127.243680985594 -12.5
v 25.7735025085049 121.583851169361 -12.5
v 23.4046665897473 126.308153615953 -12.5
v 19.8627393691361 115.534704321782 -12.5
v 21.7180114139522 116.179938253716 -12.5
v 26.042736848568 127.506965824803 -12.5
v 25.2117685738755 129.251240495556 -12.5
v 18.0351891773017 128.202846676883 -12.5
v 25.458914726161 132.800669672651 -12.5
v 24.6144682040047 138.102230126639 -12.5
v 22.0983577143247 119.124018669459 -12.5
v 19.6570385900648 120.309752154501 -12.5
v 21.506167520534 119.934765846601 -12.5
v 31.2790603596764 120.92365609007 -12.5
v 20.1800445874558 135.955015168299 -12.5
v 17.7437833087162 127.29809525833 -12.5
v 14.3542101584535 122.082350485448 -12.5
v 19.2549109431614 136.640672536289 -12.5
v 15.3239816766913 119.98344505167 -12.5
v 20.8623035272897 122.856030391699 -12.5
v 22.8870508319746 115.466499333383 -12.5
v 14.0280941136012 121.210901986197 -12.5
v 28.4435673399412 134.129186341882 -12.5
v 22.8742413729775 120.854796735143 -12.5
v 18.7935554200821 121.380989625098 -12.5
v 22.4750898767551 129.759505598996 -12.5
v 20.5920444103242 120.971428020448 -12.5
v 21.0845426462393 117.949405403442 -12.5
v 26.5995338702897 131.964947709983 -12.5
v 23.293852648937 136.063555165848 -12.5
v 28.5703708896418 118.211989878778 -12.5
v 27.482433404066 132.558712809093 -12.5
v 33.9206329402009 123.551558284217 -12.5
v 33.4625010782521 128.184669257344 -12.5
v 27.8727039998104 117.554916329406 -12.5
v 34.1413972874147 126.534671209659 -12.5
v 27.8204048830682 126.89360518099 -12.5
v 17.7936561762056 120.594093141666 -12.5
v 18.0500836465714 131.186535322457 -12.5
v 17.3609704741906 132.36475739059 -12.5
v 22.1063455949236 134.79278616432 -12.5
v 26.2595382877731 126.412593932517 -12.5
v 24.5738048182636 118.475768684497 -12.5
v 18.7027718166174 116.365849819076 -12.5
v 16.9620585308055 126.783306626863 -12.5
v 28.2103903464054 132.033279906893 -12.5
v 26.9101609019377 130.467098729481 -12.5
v 32.1298645691412 126.195210984512 -12.5
v 30.6070730229825 126.421024871899 -12.5
v 20.211252647034 129.250389531857 -12.5
v 30.2613291848471 120.094186362969 -12.5
v 27.1804181861098 119.01429510265 -12.5
v 26.2449691988835 118.210694608499 -12.5
v 19.9232650350187 122.114952952222 -12.5
v 31.6654615331632 123.019274852911 -12.5
v 26.4151158820759 122.753140370341 -12.5
v 31.4194637947108 128.894865492196 -12.5
v 21.9661590268611 140.510053910722 -12.5
v 18.3730397933963 124.652133078432 -12.5
v 15.4784674131045 125.904620911807 -12.5
v 21.3139098522552 137.442219095992 -12.5
v 22.9418402103629 122.487775396549 -12.5
v 16.3064445556252 128.510834926967 -12.5
v 31.2181276492112 124.210190619813 -12.5
v 24.4775497623693 126.660463180403 -12.5
v 20.491901590615 116.535250577501 -12.5
v 32.8147578234192 129.847558464304 -12.5
v 27.3825303888455 133.429323540796 -12.5
v 21.0961045460767 124.586966633539 -12.5
v 35.8330791230487 126.641113484854 -12.5
v 25.7640636304569 123.922488465953 -12.5
v 27.7992156208936 124.015800220489 -12.5
v 26.0221624654014 128.956514067445 -12.5
v 21.2426619768348 132.698347471962 -12.5
v 29.385817994975 129.235301163695 -12.5
v 32.0038525194845 121.553143141603 -12.5
v 19.0348160242388 129.709794710111 -12.5
v 19.6424840027696 128.11035735657 -12.5
v 31.0625484210011 129.821113117714 -12.5
v 30.1806250994418 130.041382129187 -12.5
v 31.0726502048523 131.532536681498 -12.5
v 21.6197067645081 121.728551661547 -12.5
v 16.8697667117853 125.513943521243 -12.5
v 32.7851665562453 124.139732873246 -12.5
v 15.0440196612195 124.142350496382 -12.5
v 33.3706332009776 126.896059848121 -12.5
v 19.2910807670805 134.823316075711 -12.5
v 29.5837012537589 124.781129056055 -12.5
v 15.9610384784144 122.712496677993 -12.5
v 15.8457304758514 121.484145857921 -12.5
v 29.1889501004523 118.81254857609 -12.5
v 19.2382342493594 132.007865576982 -12.5
v 22.0978937454477 117.036954626454 -12.5
v 19.8938218710191 130.960144706758 -12.5
v 27.820253469963 128.647920046546 -12.5
v 24.1726814625024 117.176804943002 -12.5
v 26.5409267504566 123.642215119861 -12.5
v 34.312079663284 128.244702946467 -12.5
v 24.452122150283 131.821805120722 -12.5
v 25.3234808983901 131.042002903864 -12.5
v 23.1799117933965 113.635945945959 -12.5
v 25.5603782409483 120.777715970972 -12.5
v 28.4672727499481 129.941843050071 -12.5
v 24.9904769294449 126.019597403313 -12.5
v 27.5447951245392 121.967161597699 -12.5
v 28.6476292157449 121.475207764454 -12.5
v 28.9736055091891 122.759646335794 -12.5
v 24.8712805014716 127.373312341444 -12.5
v 20.1315389309227 118.773105929269 -12.5
v 25.0528592311985 119.388396067102 -12.5
v 24.4959779409185 128.859874959569 -12.5
v 21.8302086210833 114.447430753715 -12.5
v 28.9641246753126 126.26158856439 -12.5
v 28.2127858249926 125.241170181739 -12.5
v 17.8365811926228 133.950185771472 -12.5
v 16.9839367621148 120.471020775962 -12.5
v 23.7527859788923 123.540020747145 -12.5
v 22.7982323506988 124.655172861578 -12.5
v 23.6647206171061 125.140675866459 -12.5
v 30.142402154232 132.783503743637 -12.5
v 22.0693872837342 125.359816045452 -12.5
v 17.3696147963144 123.324388489884 -12.5
v 17.1755607274201 124.315268844399 -12.5
v 23.9372707509283 133.457155000961 -12.5
v 24.7774897964503 122.731543792536 -12.5
v 21.3323348085542 136.290304034455 -12.5
v 35.5054879735116 124.82498371832 -12.5
v 19.5821073670657 117.337437058698 -12.5
v 24.8125262591239 125.225714110353 -12.5
v 20.0716491337027 138.192091264466 -12.5
v 24.528440572744 115.757594467648 -12.5
v 23.2620778819506 114.771055274275 -12.5
v 26.1170352095601 136.892104534948 -12.5
v 28.9559891212396 133.52820082609 -12.5
v 22.6225752086199 126.2154003218 -12.5
v 30.5436838950587 128.23752083902 -12.5
v 32.4215758399477 128.937436198904 -12.5
v 25.7158779611255 115.403746874566 -12.5
v 27.8079256198071 118.542189633675 -12.5
v 31.8561966275913 127.421872835172 -12.5
v 20.4683147159481 115.043891601128 -12.5
v 17.5165611938638 128.788622226221 -12.5
v 16.0529703312648 125.374428154231 -12.5
v 22.6232015212914 136.455387796964 -12.5
v 22.7447948033637 140.298467643727 -12.5
v 29.6426285528657 120.621075854091 -12.5
v 25.4985707847408 134.538218667893 -12.5
v 23.5528368768887 129.512730435729 -12.5
v 22.8105130683841 128.728586396108 -12.5
v 23.3840686765393 131.024415006721 -12.5
v 22.0113645024644 134.026562628306 -12.5
v 34.5362150353834 124.082531748763 -12.5
v 26.7628540063727 127.830110590244 -12.5
v 27.3524434411793 129.259090845367 -12.5
v 18.6631926386626 128.655796875386 -12.5
v 24.6263027968629 114.312670367987 -12.5
v 19.5069840439611 124.89855623934 -12.5
v 27.6194809241895 130.800518363998 -12.5
v 21.2699029572833 128.759625746327 -12.5
v 24.2666387549299 124.643175641698 -12.5
v 20.6062792423981 130.174109863331 -12.5
v 23.6573336353864 127.97524604175 -12.5
v 23.0079366181017 126.965482974995 -12.5
v 23.8950125928323 113.374285184375 -12.5
v 17.7903404847721 119.113360498421 -12.5
v 15.6795051694255 126.656935419247 -12.5
v 27.4829925530746 135.264000654438 -12.5
v 22.5002601013447 137.41614907364 -12.5
v 23.9338135278725 139.027948768192 -12.5
v 33.0334168648491 127.56768020181 -12.5
v 16.2954447794527 129.722698097212 -12.5
v 22.526125297121 138.931437344241 -12.5
v 22.155083620031 123.742874939709 -12.5
v 22.0607933610603 122.33752258454 -12.5
v 31.3882002201003 125.999456515953 -12.5
v 31.8742834070854 124.56954323685 -12.5
v 25.5077264909339 122.295036014719 -12.5
v 30.2175427733449 123.77512408832 -12.5
v 27.4402592371454 126.24135288144 -12.5
v 21.5194931923742 139.905480626885 -12.5
v 28.7000502543838 119.764491232302 -12.5
v 22.9862595186243 137.993421628005 -12.5
v 27.4197724325812 120.500694882543 -12.5
v 17.4572583272007 122.251256197115 -12.5
v 18.3238995582157 121.94895614728 -12.5
v 22.78535054751 118.204608751074 -12.5
v 25.7497117136033 124.695343761479 -12.5
v 16.0527779728837 124.150227657864 -12.5
v 17.8091841579605 129.891064827779 -12.5
v 16.5882177685035 130.393406109762 -12.5
v 28.1786658828699 134.828653346644 -12.5
v 27.7409774770369 122.674069414303 -12.5
v 21.8632148604691 131.168513238713 -12.5
v 20.788386609287 131.732995202261 -12.5
v 28.5548244693257 126.871770681014 -12.5
v 22.6641504003965 133.575563004882 -12.5
v 23.6483193980513 134.133827126051 -12.5
v 22.8007673134192 135.047953008229 -12.5
v 18.7243729160748 124.002877110665 -12.5
v 30.7978571938739 122.665562750142 -12.5
v 19.9787739809333 136.722019938164 -12.5
v 15.8791996993767 127.910804120201 -12.5
v 23.798256570112 136.596418931277 -12.5
v 18.3806376247537 125.967298164342 -12.5
v 19.3314554308248 125.942688302224 -12.5
v 29.4819335388211 127.71839119662 -12.5
v 30.7908626505868 127.123794457657 -12.5
v 29.9711868559368 126.819926634811 -12.5
v 33.4339449443071 125.13403853648 -12.5
v 26.7331007798891 116.329473309107 -12.5
v 31.0094618644585 124.903394466654 -12.5
v 19.8547740053178 135.295523629793 -12.5
v 22.4858988217862 130.481611316214 -12.5
v 21.7799594863922 129.56368108438 -12.5
v 36.6383835977961 126.063280397626 -12.5
v 21.5008375225668 126.589144383571 -12.5
v 20.7741262803541 126.319451888365 -12.5
v 30.874354153513 121.518061370277 -12.5
v 17.8360061966751 117.035054716864 -12.5
v 21.4370138714939 123.669561716295 -12.5
v 21.9235694118177 112.944723660384 -12.5
f 226 83 2
f 226 2 532
f 272 4 235
f 452 315 133
f 4 5 235
f 297 420 104
f 349 336 93
f 452 5 6
f 296 10 231
f 231 223 171
f 10 11 231
f 223 12 330
f 15 333 14
f 214 401 125
f 330 13 214
f 11 223 231
f 328 214 333
f 439 377 175
f 400 401 153
f 156 327 356
f 273 454 135
f 477 22 312
f 432 195 446
f 374 482 209
f 350 138 213
f 501 181 209
f 351 278 138
f 505 405 94
f 278 28 29
f 426 29 30
f 309 30 31
f 455 341 92
f 329 32 33
f 441 277 34
f 294 113 202
f 369 456 193
f 38 39 40
f 38 40 369
f 305 192 483
f 341 509 92
f 305 456 41
f 221 86 198
f 321 480 43
f 509 352 92
f 382 498 107
f 444 45 46
f 478 47 48
f 242 461 86
f 502 48 49
f 529 295 145
f 241 167 242
f 257 52 392
f 392 308 148
f 392 54 308
f 386 391 102
f 308 55 378
f 250 57 409
f 271 409 59
f 526 61 62
f 381 141 271
f 438 270 141
f 270 520 291
f 399 87 276
f 347 271 141
f 275 359 97
f 519 360 87
f 359 263 97
f 306 68 69
f 490 425 282
f 511 366 145
f 144 220 188
f 492 301 112
f 450 342 346
f 229 73 402
f 76 267 346
f 267 190 147
f 449 124 262
f 412 226 128
f 467 157 240
f 475 226 412
f 2 83 1
f 334 49 50
f 513 374 156
f 421 300 96
f 18 396 293
f 219 249 444
f 351 27 28
f 463 65 66
f 308 54 55
f 380 432 109
f 461 245 86
f 457 237 176
f 220 322 85
f 290 239 90
f 312 22 513
f 465 91 238
f 445 51 258
f 493 479 113
f 189 31 32
f 338 323 211
f 328 17 293
f 311 398 114
f 501 26 299
f 442 261 124
f 191 298 93
f 402 73 74
f 488 436 154
f 438 141 269
f 250 409 345
f 218 160 340
f 304 47 478
f 234 373 99
f 331 247 210
f 460 459 100
f 464 283 105
f 251 286 418
f 387 306 69
f 368 448 129
f 392 53 54
f 496 495 266
f 394 356 106
f 7 355 315
f 233 324 322
f 506 283 126
f 384 318 243
f 186 225 515
f 453 500 108
f 383 139 251
f 415 376 172
f 466 319 108
f 209 482 501
f 531 380 109
f 389 208 90
f 338 211 110
f 365 211 137
f 216 221 111
f 281 385 115
f 228 417 112
f 362 325 71
f 483 294 193
f 294 202 35
f 227 199 114
f 309 426 30
f 198 507 508
f 352 200 92
f 380 205 195
f 389 466 208
f 527 239 117
f 473 460 100
f 281 504 185
f 472 361 142
f 366 232 119
f 215 344 67
f 259 357 120
f 431 51 52
f 421 188 121
f 335 212 158
f 318 241 122
f 358 218 159
f 255 207 123
f 321 43 44
f 332 261 157
f 521 267 77
f 427 223 125
f 328 16 17
f 360 519 518
f 386 414 164
f 372 437 127
f 329 189 32
f 81 475 467
f 248 235 133
f 291 97 347
f 378 55 56
f 413 204 121
f 346 75 76
f 530 296 230
f 191 323 134
f 379 303 201
f 304 444 46
f 5 452 235
f 404 140 310
f 420 191 134
f 85 212 335
f 454 394 135
f 370 468 510
f 422 318 136
f 469 259 91
f 211 336 137
f 307 266 166
f 199 311 114
f 351 299 27
f 418 237 152
f 399 276 151
f 339 233 140
f 310 407 261
f 63 64 269
f 60 271 59
f 361 388 142
f 350 299 138
f 252 327 143
f 279 90 239
f 497 220 144
f 254 96 190
f 529 325 176
f 306 215 68
f 486 359 174
f 451 222 129
f 300 363 364
f 449 442 124
f 292 257 148
f 390 308 170
f 379 334 149
f 445 50 51
f 215 395 344
f 463 438 65
f 489 286 151
f 518 451 146
f 503 251 152
f 112 237 457
f 401 214 153
f 288 499 135
f 367 488 154
f 471 84 440
f 481 155 397
f 409 58 59
f 143 327 319
f 374 23 24
f 79 80 240
f 261 332 95
f 335 158 234
f 264 429 163
f 469 358 159
f 357 343 149
f 411 242 160
f 320 221 216
f 224 278 161
f 398 309 189
f 492 402 162
f 363 450 147
f 280 471 179
f 430 429 206
f 414 259 164
f 102 391 390
f 490 348 165
f 287 424 87
f 434 225 166
f 307 247 137
f 524 461 167
f 241 242 122
f 459 460 337
f 525 470 246
f 446 474 314
f 419 317 172
f 368 390 170
f 448 378 250
f 223 427 171
f 298 349 93
f 289 136 419
f 415 236 440
f 136 384 464
f 406 238 126
f 522 276 174
f 395 275 150
f 6 7 315
f 377 104 194
f 229 457 362
f 71 325 70
f 302 493 192
f 113 372 202
f 336 349 178
f 274 427 125
f 428 471 280
f 107 236 196
f 408 180 367
f 367 503 416
f 501 299 181
f 268 213 142
f 517 284 182
f 451 129 263
f 499 288 183
f 293 400 153
f 393 331 485
f 373 264 99
f 504 244 185
f 385 94 199
f 468 370 186
f 116 252 279
f 477 312 187
f 394 106 225
f 260 121 188
f 144 354 254
f 200 523 326
f 512 277 127
f 364 147 190
f 354 144 188
f 297 131 191
f 420 134 233
f 123 302 249
f 43 480 42
f 456 305 193
f 491 294 36
f 439 104 377
f 316 404 95
f 205 528 195
f 432 446 206
f 353 490 196
f 425 287 139
f 207 508 197
f 352 227 200
f 410 86 221
f 507 281 115
f 505 94 385
f 115 199 227
f 217 92 437
f 523 398 189
f 303 132 201
f 334 502 49
f 483 113 294
f 35 441 34
f 413 313 265
f 436 99 280
f 300 421 204
f 488 367 89
f 516 205 468
f 531 484 184
f 429 432 206
f 474 473 169
f 255 111 207
f 514 177 302
f 470 90 361
f 388 108 268
f 319 156 453
f 453 209 500
f 88 205 210
f 88 247 307
f 323 93 211
f 365 137 247
f 324 134 212
f 393 212 110
f 405 142 213
f 403 138 224
f 328 153 214
f 14 214 13
f 366 215 306
f 68 215 67
f 303 98 216
f 458 111 255
f 479 455 217
f 437 92 200
f 243 122 218
f 340 320 98
f 255 123 219
f 304 46 47
f 497 322 220
f 188 220 260
f 320 160 221
f 435 221 198
f 447 368 222
f 447 222 518
f 214 125 330
f 12 223 11
f 213 138 403
f 94 224 199
f 434 135 225
f 166 225 370
f 82 83 226
f 128 226 272
f 197 462 352
f 200 227 114
f 265 89 228
f 494 228 301
f 342 162 402
f 73 229 72
f 296 131 230
f 355 230 175
f 9 10 296
f 476 231 171
f 295 101 511
f 119 232 375
f 339 104 233
f 324 212 85
f 203 121 234
f 203 234 99
f 3 4 272
f 423 235 248
f 498 440 236
f 196 236 353
f 418 101 237
f 417 237 112
f 465 238 406
f 126 238 284
f 528 239 527
f 117 290 253
f 256 157 467
f 449 262 78
f 459 167 241
f 100 422 289
f 411 122 242
f 160 242 410
f 318 122 243
f 173 243 465
f 504 118 244
f 94 405 403
f 524 504 245
f 86 281 198
f 470 361 246
f 118 472 244
f 331 365 247
f 210 247 88
f 443 128 332
f 95 248 316
f 219 123 249
f 45 249 44
f 345 129 250
f 57 250 56
f 282 139 383
f 180 251 503
f 515 106 252
f 516 252 116
f 290 168 253
f 117 253 474
f 407 144 254
f 124 254 190
f 216 111 458
f 132 255 219
f 80 81 467
f 443 412 128
f 51 431 258
f 120 292 259
f 357 149 258
f 120 258 257
f 414 91 259
f 164 259 292
f 234 121 260
f 85 260 220
f 442 157 261
f 124 407 254
f 77 78 521
f 190 262 124
f 359 146 263
f 97 397 347
f 485 184 373
f 99 264 428
f 130 204 265
f 130 265 494
f 433 166 266
f 495 496 178
f 262 190 521
f 77 267 76
f 500 181 268
f 108 388 466
f 526 63 269
f 61 381 60
f 344 150 463
f 65 438 64
f 347 155 271
f 141 381 269
f 532 3 272
f 128 423 248
f 19 20 273
f 396 499 183
f 495 178 274
f 103 274 400
f 487 174 275
f 520 97 291
f 287 87 399
f 151 522 375
f 202 127 277
f 34 277 33
f 224 138 278
f 426 278 29
f 252 143 279
f 116 279 528
f 203 99 436
f 154 280 382
f 86 245 281
f 198 281 507
f 107 196 282
f 107 383 408
f 464 173 283
f 506 424 165
f 517 126 284
f 182 284 447
f 283 506 348
f 424 285 87
f 251 139 286
f 101 489 232
f 425 165 287
f 139 399 286
f 400 183 288
f 103 288 433
f 473 100 289
f 169 419 376
f 525 168 470
f 239 290 117
f 275 97 520
f 270 291 141
f 120 257 292
f 164 292 391
f 396 183 293
f 18 293 17
f 369 193 491
f 36 294 35
f 237 101 295
f 237 295 176
f 530 9 296
f 131 296 231
f 230 131 297
f 230 439 175
f 476 171 298
f 131 298 191
f 26 27 299
f 181 350 268
f 204 130 300
f 96 300 364
f 228 112 301
f 130 301 363
f 341 177 514
f 249 302 321
f 458 132 303
f 98 379 343
f 132 219 304
f 132 478 201
f 480 192 305
f 42 305 41
f 119 215 366
f 145 306 387
f 510 88 307
f 266 307 137
f 390 148 308
f 170 308 378
f 311 161 398
f 189 309 31
f 194 140 404
f 95 310 261
f 224 161 311
f 224 311 199
f 21 22 477
f 356 327 106
f 121 203 413
f 265 313 89
f 430 206 314
f 84 314 376
f 377 133 315
f 175 315 355
f 377 194 316
f 133 316 248
f 419 136 317
f 172 317 353
f 422 241 318
f 136 318 384
f 327 156 319
f 143 466 389
f 340 160 320
f 98 320 216
f 302 192 321
f 249 321 44
f 140 233 322
f 140 322 497
f 191 93 323
f 134 323 338
f 233 134 324
f 322 324 85
f 362 176 325
f 70 325 387
f 437 200 326
f 512 329 277
f 312 156 356
f 106 327 252
f 333 16 328
f 153 328 293
f 326 189 329
f 277 329 33
f 12 13 330
f 223 330 125
f 393 110 331
f 184 331 531
f 248 95 332
f 248 332 128
f 15 16 333
f 14 333 214
f 379 201 334
f 149 445 258
f 260 85 335
f 260 335 234
f 211 93 336
f 137 336 496
f 246 118 525
f 168 337 460
f 212 134 338
f 212 338 110
f 194 104 339
f 194 339 140
f 159 218 340
f 159 340 343
f 123 207 341
f 455 92 217
f 450 162 342
f 75 342 74
f 340 98 343
f 357 258 120
f 395 150 344
f 67 344 66
f 263 129 481
f 409 57 58
f 342 75 346
f 147 346 267
f 397 155 347
f 291 347 141
f 105 283 348
f 105 490 353
f 274 178 427
f 171 349 298
f 181 299 350
f 268 350 213
f 138 299 351
f 278 351 28
f 462 227 352
f 197 352 509
f 317 105 353
f 172 353 236
f 96 254 354
f 96 354 421
f 530 230 355
f 8 355 7
f 187 312 356
f 187 356 394
f 159 343 357
f 159 357 259
f 243 218 358
f 243 358 91
f 486 146 359
f 174 359 275
f 276 87 360
f 276 360 486
f 90 208 361
f 246 361 472
f 72 229 362
f 72 362 71
f 301 162 363
f 130 363 300
f 363 147 364
f 96 364 190
f 110 211 365
f 110 365 331
f 511 232 366
f 145 366 306
f 416 89 367
f 408 382 107
f 447 102 368
f 222 368 129
f 37 38 369
f 491 193 294
f 225 186 370
f 166 510 307
f 20 21 371
f 20 371 273
f 479 217 372
f 202 372 127
f 184 264 373
f 158 373 234
f 513 23 374
f 156 374 453
f 489 151 375
f 119 375 487
f 314 169 376
f 415 172 236
f 315 175 377
f 133 377 316
f 448 170 378
f 250 378 56
f 98 303 379
f 343 379 149
f 210 205 380
f 210 380 531
f 526 269 381
f 60 381 271
f 280 179 382
f 154 408 367
f 107 282 383
f 180 383 251
f 317 136 464
f 173 384 243
f 281 185 385
f 115 385 199
f 284 238 386
f 284 386 102
f 529 145 387
f 70 387 69
f 361 208 388
f 142 388 268
f 279 143 389
f 279 389 90
f 391 148 390
f 102 390 368
f 292 148 391
f 164 391 386
f 52 53 392
f 257 392 148
f 158 212 393
f 485 331 184
f 371 187 454
f 135 394 225
f 487 275 395
f 119 395 215
f 19 273 396
f 19 396 18
f 345 155 481
f 263 397 97
f 161 309 398
f 523 189 326
f 139 287 399
f 286 399 151
f 288 103 400
f 183 400 293
f 274 125 401
f 274 401 400
f 492 229 402
f 342 402 74
f 405 213 403
f 94 403 224
f 316 194 404
f 95 404 310
f 472 142 405
f 244 405 505
f 283 173 406
f 283 406 126
f 310 144 407
f 261 407 124
f 154 382 408
f 180 408 383
f 155 345 409
f 155 409 271
f 242 86 410
f 160 410 221
f 218 122 411
f 218 411 160
f 82 226 475
f 256 412 443
f 265 204 413
f 313 413 203
f 238 91 414
f 238 414 386
f 84 376 415
f 440 498 179
f 228 89 416
f 228 416 152
f 152 237 417
f 152 417 228
f 286 101 418
f 251 418 152
f 169 289 419
f 376 419 172
f 297 191 420
f 104 420 233
f 121 204 421
f 188 421 354
f 459 241 422
f 289 422 136
f 272 235 423
f 272 423 128
f 506 285 424
f 165 424 287
f 490 165 425
f 282 425 139
f 161 278 426
f 161 426 309
f 349 171 427
f 349 427 178
f 264 163 428
f 99 428 280
f 484 109 429
f 163 429 430
f 471 163 430
f 84 430 314
f 257 258 431
f 257 431 52
f 380 195 432
f 109 432 429
f 434 166 433
f 103 433 495
f 288 135 434
f 288 434 433
f 111 221 435
f 508 507 197
f 488 203 436
f 154 436 280
f 372 217 437
f 127 437 326
f 463 270 438
f 64 438 269
f 297 104 439
f 297 439 230
f 84 415 440
f 84 471 430
f 202 277 441
f 202 441 35
f 240 157 442
f 240 442 449
f 157 256 443
f 157 443 332
f 249 45 444
f 219 444 304
f 334 50 445
f 334 445 149
f 527 117 446
f 206 446 314
f 284 102 447
f 182 447 518
f 368 170 448
f 129 448 250
f 79 240 449
f 79 449 78
f 363 162 450
f 147 450 346
f 518 222 451
f 146 451 263
f 6 315 452
f 235 452 133
f 374 209 453
f 319 453 108
f 187 394 454
f 371 454 273
f 177 341 455
f 177 455 479
f 40 41 456
f 40 456 369
f 229 112 457
f 362 457 176
f 303 216 458
f 132 458 255
f 337 167 459
f 100 459 422
f 253 168 460
f 253 460 473
f 524 245 461
f 167 461 242
f 115 227 462
f 115 462 507
f 150 270 463
f 344 463 66
f 384 173 464
f 317 464 105
f 243 91 465
f 173 465 406
f 143 319 466
f 208 466 388
f 475 256 467
f 80 467 240
f 205 88 468
f 205 516 116
f 91 358 469
f 259 469 159
f 290 90 470
f 290 470 168
f 428 163 471
f 179 471 440
f 118 246 472
f 244 472 405
f 474 253 473
f 169 473 289
f 446 117 474
f 314 474 169
f 81 82 475
f 256 475 412
f 131 231 476
f 131 476 298
f 371 21 477
f 371 477 187
f 132 304 478
f 201 478 502
f 302 177 493
f 113 479 372
f 321 192 480
f 42 480 305
f 129 345 481
f 263 481 397
f 24 25 482
f 24 482 374
f 493 113 483
f 305 483 193
f 264 184 484
f 264 484 429
f 158 393 485
f 158 485 373
f 360 146 486
f 276 486 174
f 522 174 487
f 119 487 395
f 313 203 488
f 313 488 89
f 101 286 489
f 232 489 375
f 105 348 490
f 196 490 282
f 37 369 491
f 37 491 36
f 112 229 492
f 301 492 162
f 177 479 493
f 192 493 483
f 265 228 494
f 130 494 301
f 433 266 495
f 103 495 274
f 336 178 496
f 137 496 266
f 310 140 497
f 310 497 144
f 382 179 498
f 107 498 236
f 273 135 499
f 273 499 396
f 209 181 500
f 108 500 268
f 25 26 501
f 25 501 482
f 478 48 502
f 201 502 334
f 367 180 503
f 416 503 152
f 524 118 504
f 245 504 281
f 185 244 505
f 185 505 385
f 126 285 506
f 348 506 165
f 435 198 508
f 197 507 462
f 111 435 508
f 111 508 207
f 207 197 509
f 207 509 341
f 468 88 510
f 370 510 166
f 101 232 511
f 295 511 145
f 326 329 512
f 326 512 127
f 22 23 513
f 312 513 156
f 123 341 514
f 123 514 302
f 225 106 515
f 186 515 516
f 515 252 516
f 186 516 468
f 285 126 517
f 285 517 519
f 519 182 518
f 360 518 146
f 517 182 519
f 285 519 87
f 150 275 520
f 150 520 270
f 190 267 521
f 262 521 78
f 151 276 522
f 375 522 487
f 114 398 523
f 114 523 200
f 337 118 524
f 337 524 167
f 337 168 525
f 337 525 118
f 62 63 526
f 61 526 381
f 279 239 528
f 195 527 446
f 205 116 528
f 195 528 527
f 176 295 529
f 325 529 387
f 8 9 530
f 8 530 355
f 109 484 531
f 210 531 331
f 2 3 532
f 226 532 272
