v 27.386676239154 91.4001869815835 30
v 27.386676239154 92.3992865134704 30
v 27.386676239154 93.3983860453572 30
v 27.386676239154 94.3974855772441 30
v 27.386676239154 95.396585109131 30
v 27.386676239154 96.3956846410179 30
v 27.386676239154 97.3947841729047 30
v 27.386676239154 98.3938837047916 30
v 27.386676239154 99.3929832366785 30
v 27.386676239154 100.392082768565 30
v 27.386676239154 101.391182300452 30
v 27.386676239154 102.390281832339 30
v 27.386676239154 103.389381364226 30
v 27.386676239154 104.388480896113 30
v 27.386676239154 105.387580428 30
v 27.386676239154 106.386679959887 30
v 27.386676239154 107.385779491773 30
v 27.386676239154 108.38487902366 30
v 27.386676239154 109.383978555547 30
v 27.386676239154 110.383078087434 30
v 27.386676239154 111.382177619321 30
v 27.386676239154 112.381277151208 30
v 27.386676239154 113.380376683095 30
v 27.386676239154 114.379476214982 30
v 27.386676239154 115.378575746868 30
v 27.386676239154 116.377675278755 30
v 27.386676239154 117.376774810642 30
v 27.386676239154 118.375874342529 30
v 27.386676239154 119.374973874416 30
v 27.386676239154 120.374073406303 30
v 26.3901775820437 120.424564289797 30
v 25.4011079243567 120.555219611815 30
v 24.4300568760233 120.783374557213 30
v 23.4936567758494 121.126483999476 30
v 22.6145711154316 121.596990890754 30
v 21.8172760817202 122.1955921794 30
v 21.1197919045973 122.90812976841 30
v 20.5272459376726 123.710320121216 30
v 20.0325707472877 124.576553687578 30
v 19.6220401679945 125.485878426396 30
v 19.2804587274161 126.423405739843 30
v 18.9939405322912 127.379274551492 30
v 18.7508107273175 128.347134264252 30
v 18.5415932754926 129.322913441157 30
v 18.3586853552411 130.303980929215 30
v 18.1959848168838 131.288611102226 30
v 18.0485628977987 132.275650383243 30
v 17.9124020920496 133.26430959043 30
v 17.7841939907898 134.254033575925 30
v 17.6611855954111 135.244418376336 30
v 17.5410628266989 136.235157841077 30
v 17.4218619734979 137.226008794946 30
v 17.3019019826807 138.216768030016 30
v 17.2284 138.815553406303 30
v 16.3127428571429 139.17952482711 30
v 15.3970857142857 139.543496247918 30
v 14.4814285714286 139.907467668725 30
v 13.5657714285714 140.271439089533 30
v 12.6501142857143 140.63541051034 30
v 11.7344571428571 140.999381931148 30
v 10.8188 141.363353351956 30
v 0 125.714689681434 30
v 0 124.734275318581 30
v 0 123.753860955728 30
v 0 122.773446592875 30
v 0 121.793032230022 30
v 0 120.812617867169 30
v 0 119.832203504317 30
v 0 118.851789141464 30
v 0 117.871374778611 30
v 0 116.890960415758 30
v 0 115.910546052905 30
v 0 114.930131690052 30
v 0 113.949717327199 30
v 0 112.969302964347 30
v 0 111.988888601494 30
v 0 111.008474238641 30
v 0 110.028059875788 30
v 0 109.047645512935 30
v 0 108.067231150082 30
v 0 107.086816787229 30
v 0 106.106402424376 30
v 0 105.125988061524 30
v 0 104.145573698671 30
v 0 103.165159335818 30
v 0 102.184744972965 30
v 0 101.204330610112 30
v 0 100.223916247259 30
v 0 99.2435018844064 30
v 0 98.2630875215536 30
v 0 97.2826731587007 30
v 0 96.3022587958478 30
v 0 95.321844432995 30
v 0 94.3414300701421 30
v 0 93.3610157072892 30
v 0 92.3806013444364 30
v 0 91.4001869815835 30
v 0.978095579969785 91.4001869815835 30
v 1.95619115993957 91.4001869815835 30
v 2.93428673990935 91.4001869815835 30
v 3.91238231987914 91.4001869815835 30
v 4.89047789984892 91.4001869815835 30
v 5.86857347981871 91.4001869815835 30
v 6.84666905978849 91.4001869815835 30
v 7.82476463975828 91.4001869815835 30
v 8.80286021972806 91.4001869815835 30
v 9.78095579969785 91.4001869815835 30
v 10.7590513796676 91.4001869815835 30
v 11.7371469596374 91.4001869815835 30
v 12.7152425396072 91.4001869815835 30
v 13.693338119577 91.4001869815835 30
v 14.6714336995468 91.4001869815835 30
v 15.6495292795166 91.4001869815835 30
v 16.6276248594863 91.4001869815835 30
v 17.6057204394561 91.4001869815835 30
v 18.5838160194259 91.4001869815835 30
v 19.5619115993957 91.4001869815835 30
v 20.5400071793655 91.4001869815835 30
v 21.5181027593353 91.4001869815835 30
v 22.4961983393051 91.4001869815835 30
v 23.4742939192748 91.4001869815835 30
v 24.4523894992446 91.4001869815835 30
v 25.4304850792144 91.4001869815835 30
v 26.4085806591842 91.4001869815835 30
v 11.1233203722892 140.441342200228 30
v 11.3494177459802 139.497034412132 30
v 11.4954980616171 138.537087662342 30
v 11.5605314058284 137.568269885261 30
v 11.5440592725482 136.597411558895 30
v 11.4461977956325 135.631357547783 30
v 11.2676369300777 134.676918844492 30
v 11.0096355876151 133.740824549916 30
v 10.6740127609772 132.829674430952 30
v 10.2631346994118 131.949892390005 30
v 9.77989822586084 131.107681174407 30
v 9.22771031342411 130.308978645046 30
v 8.61046406509904 129.55941591253 30
v 7.9325112661482 128.864277636039 30
v 7.19863170260871 128.228464764772 30
v 6.413999462258 127.656459984678 30
v 5.58414645562508 127.152296114065 30
v 4.71492341423595 126.719527670938 30
v 3.81245864106802 126.361205812492 30
v 2.88311480403632 126.079856823477 30
v 1.9334440771311 125.877464305068 30
v 0.970141945476605 125.75545518984 30
v 13.689905093505 105.61619524295 30
v 11.2335014589326 117.381167597184 30
v 18.6639195636773 112.793639552751 30
v 19.0728638094108 99.5189205754155 30
v 8.17444125191884 99.5738231482684 30
v 7.39788165700147 109.537852694362 30
v 20.540921138552 106.207804416229 30
v 13.2444966830919 123.693255646433 30
v 6.10667880107455 120.700764936103 30
v 12.8703928674097 111.721152971367 30
v 17.0768704410135 118.534383717288 30
v 5.7145413679961 114.999274602648 30
v 13.6266204785553 100.135523673107 30
v 8.70552398357683 104.627489635101 30
v 22.3618016363001 116.200461764298 30
v 22.6916908011656 110.381182150856 30
v 4.60601622604058 102.503562548966 30
v 15.1604814895317 95.8888330260159 30
v 13.9063253786604 128.966309177567 30
v 22.5750736928459 96.2145516241948 30
v 5.37952568983382 95.9502251730805 30
v 22.7972064309626 102.207056836245 30
v 16.8726963426478 108.722734659169 30
v 10.2700035896827 95.7410054685339 30
v 16.6909327581756 102.840841605014 30
v 14.6776349435098 115.310516231763 30
v 8.89358847252587 124.062268669749 30
v 9.49994216968063 113.813113596343 30
v 4.22445832195348 106.726182447418 30
v 3.74766486029732 110.518267057214 30
v 18.8786184692262 95.8049127729929 30
v 10.6704314022152 107.780045329169 30
v 9.66886896690905 120.583491292557 30
v 11.301214256859 126.61522019023 30
v 23.9484087918324 106.88622972583 30
v 14.3937413489471 132.52798945967 30
v 16.8667351509405 122.381195074914 30
v 7.79159360156652 117.720649375866 30
v 15.7885731108887 126.052005187884 30
v 3.64655226474075 118.005737269515 30
v 11.6386035006235 102.899180205966 30
v 13.7405327697625 120.058831555888 30
v 4.89304600594115 99.2151230349969 30
v 3.38964781787888 122.727961005617 30
v 20.4379959586625 118.994755747869 30
v 13.7557014718277 108.732510926047 30
v 19.7430796874613 102.514411844522 30
v 14.5059012570137 135.809392635771 30
v 19.8865072180748 109.185953130777 30
v 24.0856896235046 99.1589251303698 30
v 19.1195888880692 116.009355723443 30
v 10.1164402159405 110.673861039153 30
v 15.7151209666032 112.538488453901 30
v 16.6311890728 105.78644279454 30
v 21.6689474548346 113.24219420008 30
v 24.5140692877864 113.879926449038 30
v 2.86362022653239 114.439924508626 30
v 6.1401038727907 112.140309364868 30
v 6.10742344205069 123.536165977469 30
v 2.93283586940779 94.3330345086997 30
v 2.84450455118989 97.2411917398357 30
v 11.0253352995112 98.6432518188419 30
v 16.381046038791 100.103718672796 30
v 12.0219464751872 114.79294029991 30
v 24.6234319858473 117.859994216383 30
v 20.942079831 94.0675289211971 30
v 24.5705456386287 94.2194639101414 30
v 7.75849797487859 94.2966423844717 30
v 7.90954670634516 96.9397193855628 30
v 2.62452123185431 100.714123428686 30
v 12.7614775425584 94.285358291362 30
v 24.6473861894905 104.233062675482 30
v 8.21014288316669 107.124864161449 30
v 7.35567315813824 102.214604953837 30
v 14.1618512577552 102.617399500544 30
v 21.6205229007409 99.9132632790087 30
v 11.2152524923087 105.351660216227 30
v 17.0596389314095 97.6230378853425 30
v 12.7992541081066 96.8251859314646 30
v 2.70799713571555 104.460605482784 30
v 6.0362241369718 104.761345627402 30
v 17.1166726494712 93.9278011490531 30
v 19.1682802381279 121.232047137106 30
v 15.9015916220387 130.403727565971 30
v 11.4818319308777 129.340808304564 30
v 14.71807109382 117.785124898827 30
v 24.9603446775375 96.850483025076 30
v 20.5528931027835 97.5794304663222 30
v 10.1960385397096 100.934900692209 30
v 24.9190832324528 111.444988231276 30
v 10.969071140169 122.699032624535 30
v 3.75227917814601 120.379589250059 30
v 17.0556657256094 114.661672716378 30
v 21.9837628041185 108.153202715468 30
v 25.011509944005 101.346675687978 30
v 24.6633317157753 109.11672440303 30
v 22.2699871092097 104.546330902178 30
v 5.55739384017757 93.6680417760145 30
v 13.5905492924582 126.697369156061 30
v 18.3957423915156 104.348825599586 30
v 14.6768009381677 98.1144853215304 30
v 8.88164671324636 126.485292738002 30
v 2.43954028503886 108.427774648237 30
v 18.4657262383069 107.113631628357 30
v 17.3382292293936 110.947424392761 30
v 20.4116794533934 111.374926648326 30
v 14.9037708186795 93.6765588991683 30
v 9.83476772012158 93.5920823272689 30
v 7.8179618377454 122.118016132614 30
v 15.9557828662365 128.224991376047 30
v 22.691501872041 119.020422463758 30
v 12.9652764664711 130.909283307896 30
v 14.719788097773 110.643542892673 30
v 7.93644080423534 115.456768419408 30
v 5.2374391992716 108.779565297959 30
v 8.32964837724221 111.953125602498 30
v 5.76573439873287 118.54162866832 30
v 17.5281277737626 124.569193992691 30
v 12.0094068617398 109.840661920938 30
v 15.0769397305386 107.145762504119 30
v 11.6048143892619 119.545984423178 30
v 14.1964030993214 137.85665497857 30
v 18.050546587475 101.300807694941 30
v 2.01788781463535 119.267555357883 30
v 6.96746065775985 125.50654464139 30
v 1.9700135548009 111.498681420067 30
v 4.05049029873338 112.64700403835 30
v 13.0628117112926 116.524221032373 30
v 13.6355376272045 113.585557317949 30
v 15.2402889612827 104.323657452201 30
v 1.95843111786181 121.304770765942 30
v 6.23373759369562 106.761200087451 30
v 9.63782997234824 102.856697427872 30
v 24.3393697164 115.876263169197 30
v 2.03734951186613 106.407890779378 30
v 10.2329080575663 115.662154770028 30
v 11.0061759401577 112.478752000259 30
v 10.7890361244468 124.68648070012 30
v 16.2856865576688 116.521874694942 30
v 14.6944276794001 122.040083950569 30
v 15.8503934369357 120.263274425286 30
v 15.5035973979618 123.974564542258 30
v 5.83317888880845 100.953928439794 30
v 10.0098451960417 128.06957446768 30
v 19.0525985102362 93.3618956596546 30
v 12.3063245525294 121.328044579275 30
v 22.4051328122821 98.1432232871087 30
v 2.1218601742879 116.471649056845 30
v 4.03422399081925 116.018565382773 30
v 16.0219814649051 133.522591906414 30
v 13.2481629163179 134.209764298078 30
v 20.3798408739822 104.309730169644 30
v 6.64272753404891 98.3974863193576 30
v 7.36931031752159 113.619234478116 30
v 20.8055460727039 115.004681227994 30
v 1.95872090234475 102.603129217639 30
v 18.6338251361988 123.04099862464 30
v 9.09087476125569 108.764542626971 30
v 12.5393579433133 107.199339775575 30
v 23.3441006892112 112.434167463692 30
v 17.0065627431297 95.7741601784359 30
v 4.35456052010855 124.456895665793 30
v 22.7892313514986 93.3573438914657 30
v 12.9816562506052 118.347686318552 30
v 9.61335554225376 118.572971850134 30
v 7.87668572996909 120.305325129255 30
v 9.65369878912851 97.4508170746802 30
v 5.64050887270218 116.771891443846 30
v 1.91118225481736 123.955774642481 30
v 20.6481285245572 95.8124689088607 30
v 12.0410218088033 101.091795684844 30
v 17.5249874361202 126.327291687341 30
v 12.4944913278713 125.301639114074 30
v 18.8056373939559 97.5508771389486 30
v 9.63706853380733 106.110090864936 30
v 20.8573018843023 120.711664296143 30
v 25.5631929310635 105.887130193943 30
v 3.12286928056028 99.0022569530937 30
v 5.49867635258284 110.510995133879 30
v 22.2935816273441 106.301326174827 30
v 17.501749453692 120.773646319796 30
v 18.671528280367 119.391752093247 30
v 1.77860568281736 95.7533964249195 30
v 12.7862876250191 98.5869891142729 30
v 18.5757665994935 117.658191578402 30
v 13.0363027520857 103.976797270034 30
v 21.5794005750081 117.721191507498 30
v 4.76603475250274 121.738315890435 30
v 25.6569024620539 98.4343265127632 30
v 12.516404878279 128.003305306838 30
v 15.5273437106498 101.586475193699 30
v 25.6424544727094 107.649376005585 30
v 4.4082798151613 104.210698971775 30
v 14.3423484448515 125.192126714324 30
v 12.4454966951175 132.616197671593 30
v 23.1687867360704 100.567733663473 30
v 4.57179655664604 97.4985634875422 30
v 15.7108329552625 137.03857572241 30
v 7.45485230847526 105.677224803545 30
v 19.2716967955055 114.34765949915 30
v 25.8001715363853 112.842696491221 30
v 25.8200643156671 114.879025980925 30
v 1.69714239877478 113.187954027202 30
v 4.22107836544743 100.938013370456 30
v 1.6317946668916 98.3354126966706 30
v 20.1718365463817 100.845757911371 30
v 11.2079962594496 97.0450865995171 30
v 16.0190268054539 135.16659124457 30
v 9.37144264376885 122.528240599853 30
v 21.4860686521472 103.140604788458 30
v 8.98620145688828 116.660508278079 30
v 22.8766502780995 114.519609077551 30
v 25.8636355795282 118.875424108472 30
v 25.7714669285121 116.683396443829 30
v 25.7503286831235 102.889831598283 30
v 15.854120199756 131.967315715032 30
v 15.3155058304308 109.1443128176 30
v 8.58358408191094 101.147996354945 30
v 1.6460833066065 109.877806494211 30
v 18.9577021590455 110.566275036658 30
v 3.42333452989425 92.8668530344248 30
v 1.71032363102864 93.1110975992919 30
v 8.31381242974317 92.8603614236581 30
v 18.2405585453511 102.82284446101 30
v 12.9761947652967 135.717879020946 30
v 12.2261947496223 92.850980108827 30
v 25.9414050866153 94.8970353431876 30
v 18.4240061405049 108.665438439514 30
v 19.9282273158768 107.63414631962 30
v 21.1830912938219 110.032366071111 30
v 21.9176909480439 111.717804885573 30
v 20.1865057172599 112.883445981402 30
v 24.2245280061197 102.761414030448 30
v 6.64703427680134 108.220287428695 30
v 11.2784607317173 94.0217243044546 30
v 20.0810054352259 117.526548838117 30
v 25.962867461536 109.883528321491 30
v 9.54988179316056 98.9553378534491 30
v 25.8517732248372 100.00519678532 30
v 14.4927432445257 131.000978833589 30
v 14.2612244229409 112.239569247749 30
v 15.620284912717 114.083157875499 30
v 17.2091520178982 112.439178501944 30
v 21.5513978196136 101.39743121579 30
v 10.1688553667386 104.267098882162 30
v 25.7543517990559 93.0397615972407 30
v 8.6102087143704 110.457525252802 30
v 10.4868090153994 109.244828521957 30
v 16.7143285451507 104.314722591962 30
v 16.9799766155008 107.23583315042 30
v 4.42947407360727 94.7281573078642 30
v 3.87837347591827 96.136915391506 30
v 24.1728719825464 119.298276511123 30
v 16.1222559441038 92.8154004971924 30
v 1.41993070733171 114.615632732641 30
v 4.31510745182837 114.586945712308 30
v 5.35321782305164 113.457324235289 30
v 6.94809393020407 95.668810648171 30
v 9.10669364277333 94.8580812671689 30
v 11.6145862087689 131.43057621717 30
v 7.1472647856846 111.021901419875 30
v 11.8406238738848 95.5692495258121 30
v 13.6567668714513 95.5422368089217 30
v 17.6544132070872 115.998964460134 30
v 23.5404985630804 105.406906125458 30
v 6.89885314573518 93.1387827343518 30
v 7.32676415728872 103.814796515684 30
v 5.92162840392335 103.25205810662 30
v 23.1790712751574 94.8231935469484 30
v 23.8013313496896 97.7312615981937 30
v 14.652135691192 133.935056094127 30
v 12.1919966759898 113.338278802832 30
v 17.0078372040143 129.341200939596 30
v 23.4530457625821 108.274826194158 30
v 23.1024017844659 117.543127374233 30
v 19.4078666744237 105.348089029081 30
v 7.43840398282498 124.128100547572 30
v 6.13204757303011 122.118458892148 30
v 15.0998530742735 105.731308755192 30
v 13.3250388961319 110.375645044574 30
v 11.4505599056019 111.137942576482 30
v 24.1460894418252 92.8251384747024 30
v 3.8935201020563 108.165996645683 30
v 5.69891796538895 124.887356998423 30
v 14.9349983923519 127.210613591236 30
v 18.0495441502212 105.757398926542 30
v 3.26170737909811 102.004002820889 30
v 13.5981984491721 93.1560420880087 30
v 2.24293381515917 117.876037844321 30
v 17.3745157882996 127.800503051905 30
v 1.3152953029736 104.635780880097 30
v 12.8316706427155 138.140188629079 30
v 15.9104704450501 94.6807735337976 30
v 17.9772145844 98.6655267852417 30
v 7.2244372045173 100.823414565386 30
v 15.0059058644991 100.29911617082 30
v 5.9237196107276 97.2189725844031 30
v 6.7654141581369 119.490258482302 30
v 4.71639545257778 123.121232169258 30
v 26.002707957368 104.563223236433 30
v 10.8938181774499 121.287962890971 30
v 10.9076530935911 113.92540899674 30
v 7.51644846028391 126.794070261065 30
v 21.5128969576841 92.7949309407409 30
v 9.71123038763991 111.995359252428 30
v 3.25170173816421 105.736986676084 30
v 4.48257524397645 119.157782804013 30
v 15.6803813456276 118.843190223367 30
v 16.3793170670226 109.987030922899 30
v 11.530656933359 116.057484668042 30
v 13.3229843330616 115.189272112065 30
v 23.9175354642445 95.9705443261741 30
v 21.8487372117374 95.0724655618078 30
v 19.7678219502145 94.7669437068196 30
v 11.9018006898659 108.445246588559 30
v 6.16308471206208 99.6519987683976 30
v 4.8761165961959 105.509344824987 30
v 10.8742466187027 92.7395875272104 30
v 1.26648025076847 100.714123428686 30
v 1.41560443799656 122.621018958435 30
v 11.9404285290812 99.6985913871084 30
v 11.9718707207439 124.078876632625 30
v 7.96219469324716 98.264796157913 30
v 9.0532286302706 96.2683965658501 30
v 23.1134853165747 103.50738759622 30
v 6.6814644929098 115.927512071391 30
v 1.60821368326059 94.4357679976769 30
v 20.982378464834 116.452395439344 30
v 16.0589529080523 111.265814258076 30
v 17.8270396261624 99.9883664664 30
v 1.31522008105981 107.601661353089 30
v 9.54405296029545 125.277015914472 30
v 15.5372519394246 99.101966724818 30
v 13.362963855159 101.491033448294 30
v 8.25244819530555 125.354639181202 30
v 1.32321001245157 97.0226849595557 30
v 8.30447291102245 118.997503044592 30
v 4.92199078981042 111.678939915657 30
v 20.4518429567306 99.0367707779567 30
v 22.1692447222367 120.294261702059 30
v 1.96387596567385 99.5933291900014 30
v 17.9571311361669 94.904385716295 30
v 17.824095168117 92.7535566068637 30
v 19.8469540740434 122.41598964691 30
v 16.1389782367156 96.7242668298809 30
v 8.43575247037693 127.686224947284 30
v 2.98162106891305 107.269854603179 30
v 17.3422902325053 117.268263623315 30
v 19.7411607492853 120.090217352535 30
v 9.46129831446045 107.373555126054 30
v 12.3289201683484 122.687752656498 30
v 22.7659690128486 99.3620899863851 30
v 14.1575135000475 96.8049836255518 30
v 16.803228238016 101.56979906216 30
v 12.8953272111806 102.714410560955 30
v 15.4150482308093 102.857517736553 30
v 13.8137404342117 107.437386116474 30
v 18.0464118311545 121.917995115683 30
v 17.9286246429531 96.6397106415782 30
v 15.9416126984894 115.305619407842 30
v 17.9297240385897 109.829558489484 30
v 20.1910077349306 92.6803148477688 30
v 15.4228770737218 138.274617620858 30
v 3.04331657846843 103.245481819494 30
v 11.2589410781498 127.878186140947 30
v 18.781116848952 124.311669881085 30
v 7.90131130396026 108.347125058691 30
v 12.6826757201354 139.383563625784 30
v 8.35680721479678 103.033048319612 30
v 3.02540110983499 124.730341388769 30
v 13.6011092991734 121.346216051047 30
v 11.4048998589923 104.121617678896 30
v 12.4888023127077 105.145066639584 30
v 10.8134792613826 106.536829567457 30
v 26.1388150736105 97.2772952368748 30
v 10.0662940491661 123.5861293298 30
v 16.7464959566666 98.8237187389584 30
v 14.4341092237927 119.010031352573 30
v 15.0096909127144 116.54272500246 30
v 24.5744326410572 112.638813969066 30
v 23.6678112091738 111.20114080411 30
v 26.1586469686598 111.640155840632 30
v 3.25195554198377 119.251377776568 30
v 2.87640466714694 109.608932333048 30
v 18.0805040764591 113.917674178267 30
v 13.6831143838713 136.732032125606 30
v 14.8170382982692 129.805671444303 30
v 16.9058722148571 131.216732798061 30
v 10.4525048539574 130.052439918243 30
v 12.7039124868829 129.217222605165 30
v 1.20860545047049 120.263411561727 30
v 1.17541857253231 117.260655980661 30
v 19.6931833234989 96.7134689566932 30
v 21.4595399819273 96.7422495093445 30
v 11.0499652984994 101.819626620328 30
v 10.7230824407416 99.8297496948876 30
v 6.51383988574075 94.4869428651037 30
v 15.8773780183966 97.9131655985732 30
v 16.8814897754314 132.618623752949 30
v 10.0765020972151 126.828259627195 30
v 21.3721907307688 107.099032143218 30
v 2.9388563933466 113.200429130769 30
v 6.89711163245259 114.735148255825 30
v 8.82537125101364 121.449606895441 30
v 16.1667029101719 117.730425895666 30
v 21.4609905770086 105.434863459391 30
v 9.27089630879723 100.141641260335 30
v 15.9943218695806 107.912038844499 30
v 25.8990886584574 96.0988610872376 30
v 3.22814180117334 111.678080134427 30
v 3.5916663755804 121.556972029111 30
v 4.92664755506835 120.560933111384 30
v 26.1923314870646 101.72977279364 30
v 23.8273954255642 101.57879251952 30
v 24.3529012545112 100.335616831931 30
v 18.3995939314457 125.473124881325 30
v 13.6055579505446 122.547503903572 30
v 14.5830718822598 123.223135951914 30
v 15.6988096368043 122.731389005877 30
v 15.806739339334 121.499305517877 30
v 4.70880677594532 92.6856001815958 30
v 16.3916127681378 127.098528141849 30
v 10.1636060081058 116.853210048057 30
v 4.15899608713271 109.363114957607 30
v 6.77670201926365 117.108759073372 30
v 4.48871987507064 117.138632527504 30
v 24.8566648414869 110.273666057707 30
v 23.5086910301034 109.485715640071 30
v 21.0267321114661 108.855588528945 30
v 22.1401219864743 109.329980257634 30
v 18.393377539726 115.105070063253 30
v 8.08405734809242 95.4143149784025 30
v 9.08898506360437 115.511263519165 30
v 1.32840109432694 108.761865255934 30
v 6.17436688592247 102.091563868276 30
v 19.4050022718544 118.468421264806 30
v 4.64896543682833 125.570019624759 30
v 24.8744727799461 95.3301039203754 30
v 12.439109875539 126.845014588914 30
v 13.9377108141363 127.805497334187 30
v 14.7639647273037 113.291689936793 30
v 6.26413035608535 109.311221936469 30
v 4.94159865953064 107.648955443957 30
v 5.89500482154666 92.5590900869426 30
v 22.7910503578804 107.336407265342 30
v 14.9977565599984 92.5169236137242 30
v 12.1759021700996 133.750921640111 30
v 16.5202543847581 113.363166153859 30
v 17.4990172970691 123.384030573615 30
v 16.7745337003149 125.446899564848 30
v 17.5269544835603 119.608924203468 30
v 13.8912311411262 98.9896530076129 30
v 24.5224911042788 107.873681102747 30
v 19.1624746426302 103.499971929209 30
v 11.9139828300869 106.249215662074 30
v 18.3509474153791 111.619302706872 30
v 7.78519104647194 116.583665457423 30
v 8.380271911324 114.313500209905 30
v 8.44825535511404 113.131311980894 30
v 5.92453608556538 126.034167242837 30
v 19.4307448412032 106.494444309588 30
v 25.7407742010022 108.775327710456 30
v 21.5664543895344 118.857850581718 30
v 19.4743140431969 112.006073231895 30
v 20.0868352399631 110.295376672962 30
v 13.5907585192048 97.787445743451 30
v 5.51928164804869 98.2743082766457 30
v 14.6124115504702 94.8313993380726 30
v 23.2739129661694 120.00318213089 30
v 14.1949185505591 103.79044078761 30
v 3.9213829027956 99.828638372807 30
v 8.51605832153579 106.044403879613 30
v 6.9748145839722 121.394304131148 30
v 6.97519482680332 122.842170893613 30
v 8.12627258238131 123.217111030663 30
v 19.6680695108485 98.2502514111388 30
v 10.8527730295914 118.560723275644 30
v 10.4240235739471 119.667627971986 30
v 20.7310663632134 113.875471714557 30
v 21.7507417210144 114.374468685504 30
v 10.5467019934175 125.783207076861 30
v 11.8839814674291 97.9318689153436 30
v 14.7053578323476 120.814563921517 30
v 7.24106078931088 112.119061353398 30
v 12.7516430413176 119.473544824821 30
v 1.17227588019105 115.770033682142 30
v 26.2654861411089 117.760575863177 30
v 9.42096020216155 92.5056332447117 30
v 10.1899221264095 94.6386877104821 30
v 5.48966953798867 119.610900910681 30
v 6.80822347300644 118.204080362597 30
v 14.9758813582997 128.719580275485 30
v 15.9184207328819 129.314104114247 30
v 1.2159777902706 118.423908060043 30
v 19.0260231221772 100.676255987213 30
v 26.3412296640258 113.855672837716 30
v 9.52925486543899 109.759166230599 30
v 14.4437327789955 101.570979132287 30
v 2.24365330056733 115.364847923921 30
v 3.02231162002186 117.101433643119 30
v 13.3924475488103 131.971960354816 30
v 11.9767515565552 130.358468736174 30
v 13.4868207515101 129.962506893161 30
v 26.4191525242458 106.88622972583 30
v 13.6960238272263 138.874379579452 30
v 8.78380212243549 93.8300302209148 30
v 21.3256462070906 98.3651856965023 30
v 12.5904204180513 137.032824794654 30
v 14.3530570231297 109.629853635065 30
v 11.8964156958721 118.246360468197 30
v 23.4419949607609 113.551220565458 30
v 2.79028662718036 96.1543172159795 30
v 17.5686188729415 103.662058250146 30
v 1.1457261173411 103.4639422221 30
v 20.8245659517995 102.243002594672 30
v 12.3499988085301 134.826372769861 30
v 26.4213668884665 93.8979358113007 30
v 3.86608823875202 93.8301093922652 30
v 16.4711652992219 124.424059779982 30
v 14.7384419678929 126.172077009398 30
v 2.44523894992446 92.343587499832 30
v 5.50252435599866 94.8742791562074 30
v 15.4080043185132 125.045943937468 30
v 2.44013050451134 110.561922980868 30
v 8.85695047679786 119.902093258379 30
v 3.61089532988764 98.0225839517132 30
v 21.0962924740797 112.366261627339 30
v 13.8219685112526 111.29312337951 30
v 19.0182732451247 101.738217424948 30
v 13.6547306785325 117.46410368263 30
v 12.2909477066684 117.257508259234 30
v 24.4814946808036 105.943335472515 30
v 1.10490228170475 112.225613465337 30
v 26.4555856365137 115.878125512812 30
v 23.4245969771278 116.489821505116 30
v 22.9852461292899 92.3274803436527 30
v 11.0328783188746 110.189000967021 30
v 12.7524174302354 109.081508701543 30
v 14.7303804951397 108.200645056095 30
v 16.0520438712892 106.692472838969 30
v 14.3334377369031 106.426305730006 30
v 0.91446738286401 124.244068137155 30
v 25.0679170270351 106.79231190439 30
v 2.64718073356586 120.194618996074 30
v 1.09227092427219 105.759810253213 30
v 2.27296718776618 105.399909206361 30
v 23.7240867254105 118.367975950657 30
v 14.7072750033731 136.817162863204 30
v 15.1363524109035 97.1745351264895 30
v 23.1196725901853 115.513323255913 30
v 23.925789040639 114.789605958239 30
v 15.0839088871765 111.612050052559 30
v 9.05342922304876 128.573357656738 30
v 3.32047972813564 95.2795947678912 30
v 9.95380032714644 129.122928988427 30
v 2.93013593336455 123.678692323379 30
v 13.4440707334614 133.112155709851 30
v 14.0993219957798 134.834798779134 30
v 17.7801734738785 107.871664868074 30
v 1.0899718492468 110.831750850573 30
v 19.0728638094108 92.3201869590089 30
v 12.4121854832054 110.816758846609 30
v 6.33701076712792 113.840279413097 30
v 14.6285671873274 114.297158998258 30
v 14.0399606089752 116.143202546148 30
v 0.917865610823357 121.302825048596 30
v 4.6612655080803 118.148742102209 30
v 14.4534797721105 104.95599158659 30
v 15.8892707068399 105.09923485504 30
v 2.68658609010687 122.003748503526 30
v 18.1546710267445 93.8844351115799 30
v 19.9738979996929 93.7774809508815 30
v 13.0370983153278 112.741946148063 30
v 12.8912750256735 114.272820182581 30
v 7.17606261102514 99.8007208736642 30
v 9.44179200182292 117.57016958328 30
v 11.9118349264979 112.034868501551 30
v 10.2608015430047 113.154672555992 30
v 1.94550074131139 101.536632505935 30
v 1.0461804103057 102.081110662867 30
v 5.23362879041308 106.48371635207 30
v 7.15859276653903 107.287306655464 30
v 6.41337746821878 105.733777318889 30
v 19.5070095354682 123.58365457604 30
v 10.6876067636029 103.350928450989 30
v 9.4861840243593 101.770682566059 30
v 11.4894334614934 125.416377860684 30
v 6.96098344958297 97.3947300522903 30
v 24.7451366701884 116.83036278929 30
v 9.1020185173235 103.705418985621 30
v 16.5046987117195 119.464722175741 30
v 16.4324258964728 136.196013094817 30
v 0.927210062950478 99.7256495489501 30
v 12.4717872381859 115.716206900324 30
v 10.997280388037 114.959676056424 30
v 9.76778776502247 114.776734346462 30
v 16.7131833171039 134.345836485416 30
v 21.29487282938 119.816505987138 30
v 24.8134682643271 97.8601688884491 30
v 14.16417431853 124.171133155384 30
v 13.3938091302622 124.831613402108 30
v 20.7847712380386 121.882543719689 30
v 5.23849203160761 124.010809236512 30
v 16.3498690472321 137.839012410404 30
v 21.989345005511 94.0341456511876 30
v 23.7137050191721 93.7185321239854 30
v 26.5329962408659 98.893433470735 30
v 5.24632601054388 101.749911884245 30
v 5.29066903915576 100.123694255061 30
v 18.9339115894695 109.54761374022 30
v 7.33571684977339 92.2555892054256 30
v 11.0558607224433 123.690271980585 30
v 21.7264804374324 121.173096765938 30
v 9.85319925546109 121.606800988806 30
v 17.5437891169235 104.886263928161 30
v 13.0630089705149 92.3252386645132 30
v 3.02249458826207 116.010653797051 30
v 4.82695490685839 115.430734540699 30
v 15.4522742360968 136.086862226596 30
v 21.5482960653058 115.648614126539 30
v 19.7997587249282 115.233807010483 30
v 13.7987815158097 94.1792812156308 30
v 24.9714076628933 99.5764759175173 30
v 2.32574912987916 112.422818990002 30
v 4.36608242922902 113.591974137984 30
v 11.530147722462 107.249129054363 30
v 13.0395933549149 108.051556810811 30
v 12.9211597742908 106.26716230282 30
v 15.9733588620385 103.667551855027 30
v 22.8898654520635 97.2141116679972 30
v 15.0897746048775 134.823646508901 30
v 23.2445516196454 104.475679509098 30
v 10.59686596359 111.59904883038 30
v 0.925419149735092 93.7168652666949 30
v 23.2829131339909 98.5462078638441 30
v 6.68003064466005 110.179812171015 30
v 1.6499621708879 124.91977452507 30
v 6.70584251830302 112.920385643072 30
v 3.53490744354031 115.177235115696 30
v 24.9414372892295 92.2507061841417 30
v 17.8298503666085 128.659989364505 30
v 9.59809296873293 105.100626335613 30
v 11.6434024099299 122.019102798574 30
v 12.9636979893963 120.625942526119 30
v 11.6210501047271 120.568698459467 30
v 3.98989514978255 105.095013879586 30
v 16.4748876395987 123.399815250816 30
v 19.9805570966497 116.526988760582 30
v 2.11919237024091 103.56900942249 30
v 15.1525080530869 133.115908347988 30
v 17.4591999897275 102.268235458235 30
v 18.8150592797724 120.340200484099 30
v 20.3619904423181 105.267117218183 30
v 20.4546653910362 103.272609526026 30
v 21.3170053698928 104.491210608846 30
v 8.30816112294853 102.071029144133 30
v 6.52100711063673 124.398551920973 30
v 18.3822061021897 116.680250877485 30
v 24.8764658713048 114.759341641914 30
v 11.093797310129 94.9646761890242 30
v 26.4605569650288 108.145206677683 30
v 9.28076756104169 111.140493144379 30
v 15.1509796544808 119.626789050124 30
v 25.1729140601334 105.022654811458 30
v 26.4199506956484 105.436650173105 30
v 25.6662415756358 110.805811605964 30
v 17.2805398321851 100.75668672063 30
v 25.4977586228043 94.0690748320663 30
v 17.3430284560725 130.299961554528 30
v 16.1778053043746 93.7664163775694 30
v 8.67091862015741 97.5730528274728 30
v 13.5857797809069 125.754621288762 30
v 3.86883397065499 123.545975856772 30
v 18.9537263482888 122.141526375793 30
v 0.795772954178764 98.75329470298 30
v 7.03530356587057 104.770460425456 30
v 19.3262194431729 104.41858004277 30
v 10.7476766829291 130.982560319901 30
v 0.822716230403547 95.8120516144214 30
v 9.84908098709985 108.221638773773 30
v 8.26858437471827 109.20419176116 30
v 1.46714336995468 92.2030296350337 30
v 0.855766026624834 119.34199632289 30
v 0.799500374420389 113.459510145773 30
v 22.6139876085818 113.060967879316 30
v 6.2563321604091 96.3252255500699 30
v 1.1511334842748 106.687104290342 30
v 12.6723815599669 100.345976021985 30
v 12.158102330061 102.066355871498 30
v 11.1444173494233 100.708931812549 30
v 9.33651331708713 127.410970358803 30
v 16.0816099360032 95.8007130267707 30
v 17.0335242623414 94.8493052770333 30
v 16.7669944200997 115.728918367521 30
v 2.22059628028832 123.081514434794 30
v 16.7735687813441 121.415196342574 30
v 0.785153384164889 109.537852694362 30
v 10.3557550279209 117.768490533167 30
v 8.71896617613689 107.920686289635 30
v 18.9860630071713 94.2803269161193 30
v 21.8089186726653 110.762406068992 30
v 0.778118188687152 94.8316372515685 30
v 20.6475344760529 99.9932252862555 30
v 2.42021333308775 95.0956241207035 30
v 5.29619830933287 112.529675808959 30
v 14.670426632219 138.894024667095 30
v 3.70365497771086 125.408364854199 30
v 25.4253409933788 113.693888725656 30
v 8.76950471413302 118.201264292164 30
v 22.7474002261626 111.305853794141 30
v 17.3528071081949 106.379451566821 30
v 11.5941238106215 133.008139357683 30
v 19.0080656405293 107.904676568316 30
v 22.5131196702401 101.28088970556 30
v 10.1697876187978 98.2422711908027 30
v 9.90972227080869 96.5771213051198 30
v 12.7440743225837 95.2450566197573 30
v 26.414075745652 103.645453537343 30
v 0.783463979961616 97.7728803401271 30
v 6.98819613012299 120.487440928833 30
v 7.8633041838183 121.21218833157 30
v 0.818263809582726 123.325473255841 30
v 9.35791576351665 112.880170660619 30
v 18.0940118323107 118.554228845085 30
v 18.0637241121206 127.126607620168 30
v 17.1166726494712 92.1734008111741 30
v 25.3433090107863 115.769025128886 30
v 19.2854708854823 117.101666938164 30
v 10.7359012971552 128.636373293804 30
v 11.9335675146476 94.6395752123517 30
v 5.89087352671825 107.646396986877 30
v 26.4730866092746 100.778417424066 30
v 17.0332194027835 96.6696698204949 30
v 5.36870884675029 104.05303386938 30
v 23.9551151154235 117.258989108734 30
v 21.1047353350522 107.958680736047 30
v 15.6125182679387 110.474451377034 30
v 12.493864700991 131.698329060174 30
v 2.59450094993883 98.1832414585324 30
v 4.03937520786379 98.8474241260921 30
v 2.8214049635894 99.8429677622342 30
v 12.9451255531758 121.949297476561 30
v 5.45207049186784 117.674524281819 30
v 4.86650857685197 116.333089866 30
v 5.78826469956581 115.890208008854 30
v 26.5209065046237 110.571847759469 30
v 6.69628548079292 102.812998490258 30
v 9.92281289105574 124.467906295704 30
v 24.0630724632401 94.955239079181 30
v 20.6519571062919 94.91588446469 30
v 19.7639933684798 95.6635281509904 30
v 11.8923548947003 98.8158643651657 30
v 20.0015930269755 120.935509932835 30
v 20.5769205536554 96.6935576540048 30
v 3.25656434234224 108.796957593086 30
v 26.4289019104312 92.3586093033855 30
v 12.356192892994 103.413682740371 30
v 13.3102063437823 104.817585694243 30
v 24.0563655088214 96.8639001201531 30
v 5.03589689325638 109.695396461827 30
v 6.74534400784192 126.362057129087 30
v 12.7942708163154 99.4706876191741 30
v 14.0530727082756 92.3001840145058 30
v 26.6446916990535 116.877225044699 30
v 24.7496812591924 119.963204667345 30
v 23.1435741303098 106.529896971506 30
v 22.340446881928 105.423039867579 30
v 26.5872366801498 109.016073889887 30
v 16.9888861060297 93.0506009801136 30
v 10.4531477426638 102.486923260746 30
v 21.913070127562 99.0554163552195 30
v 5.74046241279803 111.356724462365 30
v 4.62298019667104 110.468782194444 30
v 10.4341791677258 105.747561195608 30
v 18.8199186770227 96.6769666121219 30
v 17.9297183873268 97.5163107472877 30
v 3.75473019428558 97.057268941055 30
v 5.13360338927223 96.8067888357269 30
v 13.5813095995862 119.199803763033 30
v 21.8625806132825 102.281904419893 30
v 22.3899762444579 102.994736825455 30
v 22.2290560772363 115.103622562112 30
v 24.9331947768942 118.746744242292 30
v 25.7993979315966 119.761312117335 30
v 18.8697430394104 98.6496677322452 30
v 25.4738610713285 103.78725578598 30
v 18.008910032795 95.7731329007749 30
v 16.894619960753 133.491709800891 30
v 5.5643470271095 122.817665901453 30
v 8.82850867014007 98.4434436682119 30
v 13.8690238310723 118.32549337062 30
v 2.60095175108751 93.2282948968566 30
v 4.02741168858176 103.301563238529 30
v 3.51616650717874 104.050088596441 30
v 10.2700035896827 92.1169015316575 30
v 12.0631537268813 139.993796330247 30
v 16.7367349934436 120.322177786686 30
v 18.3216333586119 121.051495552104 30
v 4.89656261915734 103.322992438699 30
v 19.8692184374498 113.70309492301 30
v 7.12981982801627 96.5304613148138 30
v 7.36237633838103 98.9269365147168 30
v 3.52575653355644 113.858084469932 30
v 24.8320634071877 98.7238782394207 30
v 19.6932159644041 100.123643602831 30
v 20.1189077405153 101.721568994042 30
v 23.5531173952364 110.346687171904 30
v 2.00193908529692 97.5557687850784 30
v 14.3769903706353 99.705315157503 30
v 17.4168116364585 113.312807909188 30
v 11.995390777601 126.110010011614 30
v 21.7587072467761 95.9317306462071 30
v 12.7256814436262 97.7215233435597 30
v 2.31206961151872 113.784414851345 30
v 16.0454561764773 102.2727318443 30
v 16.1572328650391 100.961996776609 30
v 26.5330155614675 102.523814239572 30
v 25.4197757520593 102.099650296116 30
v 20.9240738473645 118.282130807999 30
v 21.769012296914 116.857111101558 30
v 22.2217811171779 118.296911281218 30
v 22.1299356119879 92.1859580948757 30
v 2.62695964354145 118.6521019705 30
v 2.04248887599739 96.5644102613637 30
v 20.8997891969708 92.1859113875831 30
v 24.0548640169149 111.961760763415 30
v 2.11550898011881 107.270469254459 30
v 4.69330631503033 93.5566944446004 30
v 13.4730036498277 109.536421334653 30
v 20.430476493963 115.804856516316 30
v 23.9972572980753 103.623292762069 30
v 16.605944790997 126.278016497031 30
v 5.44550366348885 121.231359321214 30
v 4.08656584151663 122.245272459656 30
v 4.07500830340624 111.792759827354 30
v 7.58614199664714 118.544606060746 30
v 13.093290602578 127.383084213064 30
v 13.2916982755641 128.368860991725 30
v 12.0342393941435 128.699223268693 30
v 22.0469719447561 97.3653626788299 30
v 18.3825407308161 126.330514657991 30
v 13.5711104313364 103.221038827815 30
v 10.5218447715055 120.517538828516 30
v 11.0952154932745 132.097127569683 30
v 22.6815476551841 108.659264140602 30
v 22.4361174939784 100.142411281004 30
v 23.5065375668109 99.7847731290165 30
v 12.3082332038258 136.235976189402 30
v 24.312226749741 105.025817871723 30
v 7.85317783590069 104.497620495769 30
v 26.6106191085104 113.060799552425 30
v 26.5960139587776 98.0219231259659 30
v 24.9095093809529 93.3757935120626 30
v 21.0087182391973 100.753741127934 30
v 14.9510715487292 131.797408644808 30
v 15.3414366187457 131.04266793645 30
v 18.8643689684259 113.611104603487 30
v 21.3733742568062 106.264641779413 30
v 4.25037604223679 121.047183585269 30
v 18.1220524186238 110.646746292852 30
v 19.5822699735529 111.154756247634 30
v 15.6564759736003 117.070060643406 30
v 2.82975197603393 121.076617649143 30
v 25.4950015619335 118.112700542716 30
v 19.4975925584474 119.294966313495 30
v 2.05349573304646 109.158636818374 30
v 7.73160718525427 101.477356583461 30
v 26.6254364781415 99.7146637073095 30
v 25.4535144454998 112.084657770458 30
v 14.2557279924061 100.72770572244 30
v 14.7208304856758 98.9492451594477 30
v 6.11105734787656 95.4794144714207 30
v 4.15153705180714 105.904219119282 30
v 5.44186222189328 102.564873975284 30
v 6.572295448 101.352240674933 30
v 13.2955308470406 137.459170772609 30
v 16.5972947653835 137.027871168997 30
v 26.5351878698235 95.5196003612594 30
v 26.6050098432237 114.634392854646 30
v 16.8290390978595 135.43902157199 30
v 15.794630570875 134.344185626751 30
v 16.4329425274397 112.049635904282 30
v 20.2825943983576 108.420137651419 30
v 9.77556247070904 126.064553372839 30
v 0.761712806567984 122.114854953807 30
v 14.28271342176 116.930624538825 30
v 12.2382799433572 104.248357450007 30
v 7.03311507036224 106.431921194045 30
v 11.3028469517731 109.402864671353 30
v 13.77158396287 114.444386510456 30
v 26.5448321705041 119.370092150289 30
v 8.18668235029253 105.279236158738 30
v 8.9355984268283 106.746727829887 30
v 12.8192031937364 126.060382787843 30
v 8.47501086356242 100.335958892525 30
v 9.37808723358134 100.952734655126 30
v 0.71962501049559 92.8708085258628 30
v 11.0389690796298 108.570145369273 30
v 17.5861749302229 125.5150923108 30
v 14.97102415695 137.592069185726 30
v 0.653316697013436 116.400753234332 30
v 11.7681403103061 123.285204061417 30
v 24.5252487331965 102.002439200039 30
v 23.3240423496063 96.5202400429619 30
v 7.67329392344352 125.966388742196 30
v 24.7731237541898 103.366978579524 30
v 7.61568866208574 119.496077869213 30
v 16.1588171651124 109.172566633579 30
v 4.44055025571772 101.714148461071 30
v 3.46179941210794 100.547962511562 30
v 5.02770197316455 100.887894410073 30
v 14.9769636678695 102.178331480099 30
v 22.0479269548964 103.748721778629 30
v 12.653540652864 124.510592069384 30
v 11.0842412814061 97.840463278233 30
v 8.95143651517629 123.23884799029 30
v 10.1960145426302 122.372693530845 30
v 8.54627871097386 122.506503640225 30
v 10.4184775702917 97.2005642500601 30
v 11.1070588888328 96.1283105031434 30
v 11.9529000464842 96.4773709495833 30
v 20.15773844649 114.483119200505 30
v 26.5858827254292 118.50591209417 30
v 7.53384925398127 103.018180791901 30
v 6.54186007409427 104.097691769273 30
v 9.58860139168724 116.135165743181 30
v 8.41940806701102 116.095190004511 30
v 8.56283792308896 117.386581567833 30
v 22.5465964975554 112.243841638366 30
v 7.39660747777876 95.0083063494672 30
v 11.2480991696525 92.0327803518494 30
v 10.0483254079665 106.811262471295 30
v 0.638792615110604 111.498681420067 30
v 17.0690980534959 99.6079935032021 30
v 4.7270136422684 98.4257783507518 30
v 9.58870000753409 119.438736701982 30
v 2.39219511316372 125.220870192591 30
v 17.0311486076681 128.532766138642 30
v 5.6281342578274 114.206212826928 30
v 25.6436046623769 100.808703730007 30
v 25.6855363038782 99.2282966685976 30
v 18.2235807846588 123.732425092367 30
v 10.9434738930817 116.620863000659 30
v 10.5581949707964 127.476572984825 30
v 12.9940802114422 96.0273542739671 30
v 6.57926948028973 100.34144081138 30
v 20.5253279392065 119.994863132013 30
v 20.633134473157 93.3378680336614 30
v 7.66595446500673 112.83830584697 30
v 23.7528442970766 92.1396992382512 30
v 16.1202359843538 131.160424071939 30
v 12.2122155503187 120.047827742624 30
v 22.2597913729258 113.768603890599 30
v 11.7625777855501 127.262853097189 30
v 14.1539903276212 131.726017852886 30
v 0.636218902640407 114.439924508626 30
v 8.02625280502998 111.122096097413 30
v 7.66941265872714 110.346892820484 30
v 18.8432186292971 105.932763818281 30
v 18.6008316782074 105.146063165224 30
v 17.9124623147944 122.703192452216 30
v 10.2703367184072 101.722881006628 30
v 16.0917855666819 132.728361190615 30
v 22.8583103636408 120.667628024729 30
v 2.0720057709548 93.805247931656 30
v 24.2397003227095 109.782140695348 30
v 12.6929946224634 130.012549577987 30
v 17.1178042990037 109.546802001528 30
v 17.6573538462926 108.937834374006 30
v 17.3115676587063 131.924946384501 30
v 22.047857578304 119.500515724395 30
v 3.40923028180437 106.55496924147 30
v 11.2381061121613 130.088517228193 30
v 5.62029162703428 105.789069514358 30
v 19.2400755762088 108.687378346225 30
v 20.1202894610774 106.871883652907 30
v 18.3093800875693 92.136052364469 30
v 12.2115776460147 116.466936288925 30
v 3.12935757595349 108.031557986337 30
v 3.10048812141913 112.442482983518 30
v 15.6397718882395 116.0478052088 30
v 8.09945382115448 103.763429787216 30
v 20.5107258455216 109.646036637105 30
v 20.7592006882633 110.681706106968 30
v 21.2387669122065 111.311209195503 30
v 4.89134891914333 95.3494149715818 30
v 3.66809568438427 94.5800616138034 30
v 8.60014510603606 120.670931806174 30
v 15.5470507422836 113.303415639095 30
v 16.422300861486 114.163191163844 30
v 15.2506077036473 114.774905754584 30
v 17.8532306033135 129.702160925646 30
v 5.04100078725261 94.2504418805907 30
v 3.99062338539284 92.2411433421055 30
v 3.18833849164069 92.1303430221644 30
v 2.20749684427323 98.8562231187408 30
v 9.01674094959207 102.389828353611 30
v 14.4368326453685 95.5931519285697 30
v 7.68952383930868 114.703127630676 30
v 8.70615735196308 92.1797830452603 30
v 7.69423626626582 93.4463045605381 30
v 7.06426560999348 93.9215097911859 30
v 26.5254093177577 93.1287634042869 30
v 14.3840104190534 93.0248799448116 30
v 10.1141028385484 92.8727009057264 30
v 4.98760229711237 104.735590177529 30
v 19.7834953767347 97.4835412492942 30
v 14.9768625796732 103.548772614186 30
v 21.848579580671 100.667578730422 30
v 7.82303532962087 96.1571377731061 30
v 16.5985834300016 130.022252936155 30
v 18.9609505182588 102.518252612488 30
v 18.3317302803484 103.584454038496 30
v 18.1978543802 102.055296689028 30
v 5.37952568983382 91.9910937604245 30
v 22.5541171854842 116.969968950538 30
v 7.80914048804696 106.370392274407 30
v 13.1040994522455 134.962364650748 30
v 13.7537650608867 135.551062501791 30
v 15.8613968942461 105.873423961193 30
v 12.497550276395 123.520953828048 30
v 23.5739152344955 102.321903647301 30
v 12.0096168134893 92.1161632431907 30
v 12.8131407356562 93.4490107699251 30
v 12.0786562693112 93.823409342563 30
v 11.5103457679277 93.2438329715673 30
v 13.7213795040574 131.082237690645 30
v 26.6566174878526 94.6257841199882 30
v 18.7363078296645 95.0288045089458 30
v 6.31893552744785 93.7465866472185 30
v 26.5776030607825 96.574432908073 30
v 20.2315884049292 112.119110097628 30
v 19.4292313555275 112.770409115669 30
v 20.9165718603287 113.108914343243 30
v 24.698724567048 96.1026448815814 30
v 5.66089885693544 99.047401472488 30
v 14.8020377083743 124.58586268765 30
v 22.5982217419959 95.397821666508 30
v 23.0416490388652 94.0749773086247 30
v 5.98171805446126 108.599434447493 30
v 6.92944657842543 108.932074917672 30
v 15.0509108538917 109.9505674123 30
v 25.1816812504735 108.256879951262 30
v 4.07223424074405 95.4005797266528 30
v 4.64890714973024 96.2040465296309 30
v 0.896800745363473 125.001437879244 30
v 20.1475872806029 118.287863736294 30
v 20.8751705983793 117.277701352753 30
v 15.206405072333 127.958297444869 30
v 21.3010400932265 97.4801268159288 30
v 26.7411441899727 109.822926822625 30
v 25.3550807007765 109.428979156913 30
v 8.94009191752116 99.4378887840958 30
v 10.332030418163 99.0093087402551 30
v 9.93595349648068 99.7015087094478 30
v 24.2262382572236 110.691258287612 30
v 23.4140224458467 119.256192848707 30
v 9.84786106431169 103.582787343134 30
v 10.529171256813 104.966530606655 30
v 3.82520240521325 102.546183735212 30
v 0.714329369642817 96.5656327995449 30
v 0.576782969434764 102.674952154391 30
v 10.5156362528254 93.944598458624 30
v 6.20722357477372 110.76585499199 30
v 6.68063720162569 111.614382595788 30
v 11.7278983202977 104.801058564826 30
v 22.9751428520039 118.285746867475 30
v 16.1385770695015 92.0233890332712 30
v 6.55756275476408 92.1329734237896 30
v 13.335704844529 94.7757783191157 30
v 0.782723496893339 108.18788784355 30
v 17.5563903462259 111.717762644849 30
v 18.0359016535774 112.332138933054 30
v 12.1450614032118 118.984675795992 30
v 12.7738983502369 109.845816857306 30
v 0.713536501497674 92.1117137841722 30
v 21.0425982476162 103.770977220378 30
v 15.4352937468875 93.1360112900694 30
v 25.69855151343 92.1201855692521 30
v 26.6110955435427 112.278429552358 30
v 17.7122027877746 107.045264185536 30
v 17.0356789026715 107.987172984851 30
v 17.5964040325857 117.982414449272 30
v 20.0542402477178 121.689325061308 30
v 25.3420493819695 117.341725608574 30
v 14.0785061143088 112.973052340614 30
v 13.5057846856325 112.141396209773 30
v 14.9961819937856 112.350072865685 30
v 3.52412469049164 116.556127879245 30
v 18.184658382941 119.950515940621 30
v 17.1782705691216 127.036168694099 30
v 16.6309591930902 127.898476299538 30
v 18.1357924132973 127.889695826597 30
v 9.40691196606963 104.382807085022 30
v 14.4788104714317 108.89864101151 30
v 4.62842367230466 108.334912662505 30
v 4.20669508928228 107.480039427135 30
v 24.0127885752418 120.019793245167 30
v 10.3285900680207 109.966333538399 30
v 9.8042442990426 108.959919003266 30
v 16.2541657574685 120.885569867535 30
v 14.418350979395 119.753343121863 30
v 13.0074968627161 122.984081682365 30
v 23.5283138718369 107.519021807043 30
v 24.1638978177415 108.543811306319 30
v 16.8134475031703 105.058530388595 30
v 16.7049039471619 103.57774601312 30
v 19.3084556788869 107.226250913325 30
v 8.18503262035811 124.515975634039 30
v 7.55768591659094 124.988445962109 30
v 8.89425418098471 124.843438944978 30
v 13.2463590091067 106.94463566081 30
v 4.78365559919539 119.834341863383 30
v 1.38225789367415 116.546618549215 30
v 22.0287384520634 110.058729394995 30
v 3.55405723526638 101.302409452618 30
v 9.19655146490591 93.2131364037349 30
v 7.65008326700781 127.576085892015 30
v 20.8144732866561 101.468109433616 30
v 20.6792143749823 107.354862004746 30
v 17.3759349210077 115.32096303745 30
v 17.0368475379328 116.435263604659 30
v 18.3874184753783 115.945302468511 30
v 12.9009600627896 113.536682166568 30
v 12.1823116388737 114.074416818846 30
v 11.7060759911185 112.760910249158 30
v 15.7872900896637 127.512258171264 30
v 9.10883724554182 114.440859353867 30
v 5.93704113902409 112.955861911547 30
v 16.9949965724022 123.913834474899 30
v 20.0828068074242 123.117970725716 30
v 19.8009519156457 103.860059407643 30
v 13.8885879045091 133.757783522122 30
v 21.1794204226662 99.2840298994588 30
v 23.7837692274517 106.171004137018 30
v 19.8020659773524 99.3914262271478 30
v 20.5915400528577 98.3142836981761 30
v 8.37137494130732 94.7243728557242 30
v 9.74485797988668 95.2250886131443 30
v 9.41891851314013 94.1952846975162 30
v 15.5662415434136 126.781936896169 30
v 5.05099976326899 114.670331915151 30
v 19.5613068104197 101.248366022431 30
v 16.5830562229593 131.953433665852 30
v 12.272035303861 138.703741549609 30
v 23.4467847216785 93.038018634797 30
v 6.82082769646485 123.72439740185 30
v 12.1442799812173 97.2153208882553 30
v 6.13914093468525 117.916269492266 30
v 24.1460713269976 98.4047478279417 30
v 21.8342322790424 112.456548035694 30
v 11.0936730015768 120.065584747919 30
v 3.75316591418255 117.266758614078 30
v 2.13732816182521 114.491237771123 30
v 1.59467215702523 113.908809812863 30
v 24.1241717644726 113.238939031735 30
v 3.47681830848882 124.159309697546 30
v 16.8856770500035 117.83302432808 30
v 11.1170022264559 113.212983080719 30
v 15.4425702290733 117.762627927613 30
v 26.2541853315202 106.161348895041 30
v 7.08562550647639 122.118208460835 30
v 25.5361373103126 97.7051510474816 30
v 11.8499563983757 132.149594646583 30
v 14.1985513137982 130.279517129179 30
v 4.1132299519406 93.1106873852521 30
v 1.43717618545182 121.823717114775 30
v 19.0154852572002 125.032047033705 30
v 10.639638373072 129.353499540981 30
v 0.703896136415878 115.185724112667 30
v 16.6142888684626 117.164358735023 30
v 1.91755262524125 120.012777669794 30
v 14.326149831741 126.787977314891 30
v 1.38293507583489 99.168986505254 30
v 2.83278294764157 101.413565594742 30
v 2.51463519184672 102.095699901995 30
v 22.1139016388993 107.024766283547 30
v 23.2078133252169 95.7995124791741 30
v 12.2555315712065 131.020593750338 30
v 8.92107010276844 105.416585662177 30
v 15.9551521164452 104.384793411661 30
v 4.42120352263886 111.160657204468 30
v 14.4082315718271 133.252587611865 30
v 3.36302301895623 104.749365669811 30
v 16.3932866171752 118.755085900533 30
v 15.0999024008769 118.404492559238 30
f 730 303 490
f 843 706 78
f 679 272 770
f 1079 272 679
f 513 152 1187
f 295 763 785
f 638 639 533
f 1260 294 538
f 583 430 606
f 907 140 141
f 1100 180 585
f 1316 632 72
f 419 1157 639
f 669 596 185
f 1328 176 919
f 1093 322 899
f 1025 24 25
f 873 280 805
f 748 322 759
f 582 328 870
f 680 360 873
f 633 360 910
f 609 744 191
f 911 929 930
f 1244 399 911
f 29 1037 1069
f 1244 33 34
f 930 1037 31
f 1037 30 31
f 1116 1290 534
f 632 1047 72
f 1023 738 51
f 580 477 249
f 1089 148 569
f 642 24 1025
f 1124 148 1089
f 812 236 573
f 365 530 670
f 815 46 534
f 55 509 750
f 60 125 942
f 654 438 128
f 125 126 942
f 1291 127 128
f 651 438 268
f 514 58 59
f 438 1291 128
f 371 532 654
f 55 750 54
f 56 509 55
f 1023 344 738
f 852 56 57
f 777 194 704
f 743 934 49
f 545 47 48
f 68 537 67
f 529 186 453
f 1178 252 673
f 833 477 81
f 1202 236 527
f 691 82 83
f 689 181 678
f 692 226 1330
f 914 608 807
f 653 917 1280
f 839 228 488
f 909 111 112
f 695 164 491
f 909 762 111
f 970 329 658
f 1077 1169 1172
f 1018 404 832
f 1018 167 668
f 1146 369 757
f 1207 329 482
f 916 279 732
f 1161 567 102
f 369 1147 757
f 757 104 105
f 848 329 825
f 1111 206 473
f 1320 351 1142
f 1190 397 1132
f 590 1161 103
f 1043 780 95
f 465 87 88
f 667 100 1141
f 87 465 726
f 828 1043 1222
f 660 795 437
f 828 99 667
f 1150 253 768
f 1222 97 98
f 1052 218 977
f 539 177 897
f 811 446 14
f 1123 116 707
f 650 1307 16
f 915 228 816
f 864 446 932
f 508 291 707
f 864 963 13
f 1144 164 499
f 560 168 860
f 1324 1050 166
f 1086 559 241
f 968 120 682
f 1014 9 10
f 1096 122 786
f 745 950 1296
f 998 753 335
f 1177 1024 6
f 752 213 895
f 1177 6 7
f 786 428 1096
f 1149 392 902
f 663 3 4
f 1149 3 663
f 2 902 1
f 1225 392 786
f 60 61 125
f 130 662 994
f 796 182 1001
f 1026 354 743
f 858 341 593
f 884 258 647
f 1325 258 884
f 824 135 535
f 701 875 1315
f 564 154 563
f 522 173 1062
f 1264 492 138
f 512 562 264
f 481 1255 1257
f 746 154 564
f 803 205 1293
f 1083 783 315
f 1318 270 690
f 1031 466 868
f 1192 783 146
f 868 315 688
f 1192 63 688
f 63 1192 62
f 868 64 65
f 660 437 84
f 1208 726 302
f 1089 282 456
f 1314 512 39
f 1266 1122 153
f 642 347 997
f 476 440 150
f 968 971 119
f 947 734 832
f 1148 1147 214
f 1217 80 81
f 883 1188 455
f 1251 242 574
f 616 714 904
f 888 292 517
f 1239 871 42
f 829 68 69
f 733 468 319
f 773 305 1258
f 494 410 804
f 551 1304 1331
f 512 730 39
f 1295 889 314
f 1301 1102 830
f 479 442 955
f 1172 1171 381
f 893 414 581
f 898 208 628
f 1193 191 582
f 991 574 576
f 1261 162 847
f 812 892 528
f 945 163 1020
f 845 219 1039
f 806 170 635
f 1123 872 115
f 1157 534 1097
f 699 701 137
f 440 224 922
f 682 120 121
f 1092 289 755
f 848 93 94
f 778 218 995
f 1327 1252 715
f 1228 169 554
f 883 475 698
f 628 208 1061
f 668 167 1132
f 1154 221 502
f 801 1223 1059
f 710 388 1137
f 790 188 517
f 620 205 935
f 310 656 677
f 869 262 451
f 1036 710 172
f 589 175 727
f 437 691 83
f 906 919 570
f 830 74 75
f 117 118 508
f 320 622 931
f 845 496 826
f 975 192 655
f 760 179 989
f 1235 1299 646
f 957 180 733
f 1264 138 139
f 678 411 995
f 383 608 914
f 1173 258 649
f 1116 534 46
f 793 565 183
f 798 328 1011
f 1074 184 603
f 741 742 448
f 1273 256 1195
f 733 180 627
f 713 186 1299
f 538 70 71
f 1033 518 903
f 1143 279 515
f 937 676 232
f 566 183 565
f 755 189 1182
f 1207 865 91
f 935 205 749
f 1083 144 145
f 967 257 609
f 759 36 748
f 426 975 655
f 686 200 857
f 370 1158 600
f 860 390 1155
f 662 593 297
f 1026 743 50
f 882 240 575
f 673 201 1180
f 769 1086 561
f 931 150 440
f 1068 625 301
f 1162 161 681
f 427 198 683
f 1210 1211 918
f 698 475 199
f 1136 239 506
f 797 370 659
f 554 363 685
f 626 625 201
f 1029 195 1121
f 805 202 854
f 1202 527 953
f 1300 203 645
f 646 186 435
f 1103 262 630
f 949 203 960
f 853 516 1303
f 979 155 424
f 780 368 1111
f 1141 101 1140
f 672 207 923
f 1207 92 825
f 1201 235 553
f 936 469 817
f 813 209 1080
f 695 499 164
f 1305 1272 418
f 1124 274 677
f 681 735 881
f 1069 28 29
f 958 316 459
f 846 488 717
f 5 1024 1174
f 415 459 751
f 106 1146 105
f 1200 208 542
f 1156 470 215
f 443 613 343
f 510 302 1322
f 1320 739 821
f 876 217 863
f 592 909 112
f 913 243 778
f 379 1049 964
f 1034 278 729
f 520 223 601
f 1021 220 581
f 1152 227 1120
f 775 276 1154
f 501 835 480
f 1280 222 849
f 661 356 800
f 601 223 519
f 1039 219 618
f 955 159 598
f 717 228 489
f 1061 353 628
f 409 1144 499
f 795 226 437
f 1125 429 901
f 1163 728 1034
f 1330 452 692
f 915 489 228
f 922 320 440
f 1277 730 490
f 737 287 809
f 1001 1002 362
f 586 245 1319
f 985 231 875
f 701 136 137
f 1127 285 1008
f 188 1248 629
f 7 521 1177
f 986 293 653
f 900 540 1196
f 1196 986 653
f 916 732 1108
f 1201 384 1200
f 1226 997 347
f 1297 831 201
f 355 1063 522
f 1098 267 1220
f 1259 238 453
f 712 66 67
f 840 239 1267
f 577 346 767
f 882 547 240
f 1112 242 573
f 769 385 1086
f 963 12 13
f 20 892 1197
f 953 527 856
f 801 243 552
f 1052 379 964
f 1215 757 412
f 664 206 938
f 666 1319 818
f 984 536 336
f 1159 246 659
f 1227 250 705
f 695 247 499
f 598 330 612
f 140 449 1264
f 733 284 468
f 833 82 691
f 906 261 588
f 705 250 859
f 1105 1106 422
f 1006 366 602
f 1028 199 475
f 673 252 1131
f 602 1218 1006
f 1170 434 768
f 592 113 1214
f 108 1077 941
f 652 214 1147
f 1064 255 550
f 619 866 867
f 1237 436 1238
f 787 44 1138
f 1213 257 967
f 1110 35 759
f 649 1311 1173
f 703 297 593
f 674 259 698
f 1115 169 1228
f 603 472 260
f 1275 403 851
f 782 325 588
f 570 530 901
f 808 262 1103
f 1145 260 549
f 982 444 637
f 263 636 453
f 1107 303 1088
f 987 41 42
f 723 427 708
f 1044 178 772
f 503 266 685
f 1327 276 775
f 1098 791 267
f 624 311 623
f 694 268 532
f 651 58 514
f 797 269 1160
f 675 1289 952
f 690 270 529
f 640 70 538
f 1051 271 1256
f 606 142 583
f 1126 770 556
f 1079 76 77
f 1328 484 981
f 771 403 1288
f 1124 740 274
f 1032 525 232
f 1270 275 720
f 1135 199 594
f 1154 276 616
f 1166 686 425
f 1009 277 690
f 841 702 315
f 727 278 877
f 1326 1038 160
f 518 391 731
f 736 160 1128
f 696 280 681
f 910 680 26
f 452 281 692
f 477 1217 81
f 722 357 569
f 742 174 448
f 719 418 1272
f 869 605 262
f 758 284 522
f 627 546 1030
f 1008 285 1317
f 874 197 794
f 563 888 517
f 1304 1229 157
f 629 287 566
f 1332 232 1306
f 666 340 669
f 564 565 288
f 462 1092 755
f 1020 414 945
f 138 492 699
f 1090 180 1100
f 707 291 489
f 1175 177 933
f 517 292 790
f 989 179 624
f 166 1050 776
f 993 342 992
f 435 294 646
f 1047 71 72
f 1235 295 572
f 713 263 453
f 1027 296 743
f 1157 230 639
f 1165 1164 704
f 131 132 593
f 799 298 801
f 927 926 168
f 469 299 734
f 721 441 1092
f 472 549 260
f 1095 262 605
f 1194 382 794
f 946 1003 1179
f 726 465 725
f 1321 1056 1262
f 1088 303 730
f 1277 37 38
f 1246 304 826
f 643 393 827
f 772 305 461
f 687 266 503
f 972 306 527
f 1099 358 626
f 879 307 505
f 838 439 839
f 144 1083 853
f 980 334 445
f 1185 309 752
f 968 119 120
f 623 656 1220
f 937 232 1332
f 1082 483 311
f 855 1074 722
f 1134 312 671
f 1295 263 889
f 470 313 817
f 959 225 612
f 890 314 572
f 1073 260 579
f 65 1031 868
f 702 819 1303
f 897 316 900
f 896 459 316
f 480 317 834
f 541 235 836
f 978 318 1237
f 987 42 871
f 746 747 154
f 1040 585 957
f 1153 320 539
f 224 491 879
f 1039 321 1078
f 1205 391 518
f 37 490 748
f 1011 328 582
f 17 807 650
f 995 411 778
f 617 324 886
f 739 465 88
f 588 325 906
f 981 273 1126
f 1250 591 912
f 552 243 913
f 820 504 944
f 1247 566 287
f 744 1093 191
f 597 157 870
f 850 658 329
f 954 885 351
f 499 612 225
f 834 317 467
f 197 874 804
f 1304 157 1331
f 904 332 616
f 903 501 988
f 1162 333 966
f 609 191 965
f 935 334 424
f 1005 238 558
f 1309 335 745
f 753 9 1014
f 983 336 585
f 875 701 290
f 961 337 500
f 337 644 442
f 650 338 689
f 17 18 807
f 414 880 945
f 792 1019 452
f 1183 340 746
f 818 319 747
f 593 341 703
f 990 134 824
f 561 342 993
f 1155 390 1000
f 1081 672 343
f 923 398 1191
f 354 738 765
f 52 53 750
f 729 345 1034
f 1128 413 1070
f 1068 346 946
f 1269 410 577
f 1226 347 1015
f 854 526 347
f 697 805 280
f 854 347 642
f 1301 349 960
f 75 76 679
f 887 617 1056
f 1057 754 1055
f 954 351 865
f 887 216 487
f 1289 641 951
f 951 1282 849
f 1065 353 1061
f 1091 408 863
f 743 354 1027
f 1026 51 738
f 1062 355 522
f 550 179 760
f 1223 356 1059
f 661 952 1265
f 603 357 1074
f 1073 579 357
f 928 626 358
f 831 306 657
f 1037 359 1069
f 1010 1231 633
f 910 360 680
f 735 280 873
f 964 361 1052
f 864 14 446
f 796 362 1109
f 1002 386 533
f 1188 363 1054
f 685 266 554
f 1199 553 1041
f 802 1143 515
f 843 365 706
f 670 176 556
f 1114 1115 507
f 611 252 1007
f 102 567 1140
f 1139 244 668
f 100 667 99
f 206 850 473
f 107 634 106
f 652 405 1284
f 659 370 1159
f 1160 675 1158
f 532 371 1165
f 130 131 662
f 1169 372 1172
f 1170 1171 372
f 233 1181 555
f 814 392 663
f 859 374 705
f 756 366 507
f 1121 859 375
f 1254 607 1122
f 1261 376 576
f 1130 611 1129
f 1131 847 377
f 856 527 306
f 1180 378 673
f 1179 610 1178
f 1168 379 471
f 361 932 1052
f 1187 380 513
f 261 589 877
f 876 381 1171
f 1077 108 109
f 767 976 794
f 965 191 1193
f 1198 383 573
f 892 21 528
f 469 936 151
f 861 208 1200
f 753 1014 1087
f 878 11 559
f 1101 386 1001
f 1311 165 533
f 719 1233 1232
f 156 426 674
f 710 587 388
f 199 1028 594
f 1218 389 1028
f 149 531 956
f 926 390 860
f 1000 849 222
f 1205 788 391
f 1240 736 1204
f 999 392 814
f 1225 124 902
f 827 393 1104
f 808 451 262
f 683 394 1035
f 1245 643 394
f 797 659 171
f 761 432 200
f 554 396 1228
f 1227 432 250
f 543 668 244
f 970 207 954
f 1132 1191 1190
f 1191 924 343
f 929 399 693
f 1244 34 615
f 1214 400 592
f 816 439 253
f 645 401 1300
f 1102 74 830
f 484 851 273
f 764 295 785
f 1288 403 1085
f 784 300 709
f 1284 578 1076
f 734 299 443
f 635 1285 1286
f 1156 215 947
f 858 990 1310
f 134 135 824
f 393 1103 1104
f 1103 630 407
f 863 408 876
f 1067 353 1066
f 1067 408 1091
f 768 434 1150
f 840 410 1268
f 239 531 577
f 1281 411 678
f 778 471 977
f 1147 412 757
f 1215 103 104
f 1070 413 893
f 996 345 822
f 1020 581 414
f 1071 227 880
f 895 458 1324
f 751 212 450
f 745 416 905
f 196 993 781
f 1027 417 796
f 1329 703 182
f 448 1305 1271
f 1272 723 719
f 1084 419 639
f 1138 45 815
f 591 420 991
f 1189 338 608
f 681 421 1162
f 693 399 1203
f 600 823 246
f 1105 250 432
f 1255 423 621
f 271 430 803
f 619 424 155
f 619 1308 424
f 687 425 266
f 147 714 425
f 708 426 156
f 1221 684 975
f 1221 708 265
f 779 451 198
f 1292 428 752
f 122 123 786
f 477 973 249
f 1243 589 1242
f 606 430 271
f 749 205 803
f 568 1273 1287
f 431 1195 586
f 1252 761 200
f 1105 607 250
f 725 1321 1322
f 1262 1055 433
f 614 768 253
f 762 110 111
f 529 969 186
f 640 69 70
f 871 436 1237
f 43 44 787
f 84 437 83
f 84 85 660
f 129 654 128
f 651 57 58
f 614 439 164
f 253 1224 816
f 641 476 150
f 209 479 523
f 1041 441 721
f 364 802 1013
f 962 442 209
f 644 221 480
f 613 443 299
f 924 167 832
f 866 444 1053
f 155 636 444
f 749 445 935
f 819 702 190
f 15 811 14
f 810 218 932
f 789 447 292
f 1063 355 760
f 741 448 210
f 724 283 1305
f 492 449 248
f 907 141 606
f 751 450 309
f 1094 718 508
f 427 779 198
f 283 724 451
f 1330 792 452
f 1118 493 281
f 1259 558 238
f 969 270 640
f 525 1008 232
f 157 597 737
f 475 455 251
f 1054 169 1114
f 741 456 282
f 210 457 740
f 720 457 210
f 172 711 457
f 895 584 458
f 905 416 776
f 1184 459 415
f 958 540 316
f 718 460 846
f 896 316 897
f 1035 461 265
f 1044 772 461
f 1182 462 755
f 948 469 151
f 1152 463 792
f 1120 729 278
f 1209 464 1172
f 1151 634 941
f 89 739 88
f 1208 302 660
f 66 1031 65
f 1313 716 466
f 908 834 467
f 836 235 542
f 1048 468 758
f 154 747 1060
f 817 469 215
f 151 721 948
f 1285 470 405
f 862 313 470
f 1059 927 471
f 168 1168 471
f 891 472 314
f 1145 300 604
f 95 780 94
f 1111 938 206
f 794 474 1194
f 766 161 966
f 1218 1028 251
f 1234 387 698
f 500 813 269
f 1080 523 440
f 973 477 833
f 249 1012 580
f 449 1051 248
f 173 522 894
f 523 479 544
f 209 442 479
f 1016 644 480
f 835 187 541
f 248 481 478
f 1256 423 1255
f 821 865 351
f 91 92 1207
f 1082 671 483
f 1053 444 982
f 918 484 325
f 851 403 771
f 1283 485 622
f 951 352 1289
f 1203 615 257
f 1110 759 486
f 1142 487 1320
f 216 465 487
f 933 488 1175
f 307 839 488
f 116 1123 115
f 291 717 489
f 1107 820 303
f 1230 899 322
f 544 491 224
f 164 838 491
f 546 837 248
f 699 137 138
f 452 1118 281
f 1118 1243 493
f 1268 494 1317
f 331 870 1229
f 899 495 1093
f 229 798 495
f 1078 496 1039
f 826 304 845
f 1167 1048 497
f 789 292 888
f 781 498 293
f 992 222 917
f 612 499 247
f 225 1091 499
f 961 500 171
f 962 209 813
f 221 501 480
f 988 616 332
f 644 1058 221
f 171 1253 775
f 773 503 192
f 1258 774 687
f 842 504 183
f 944 229 820
f 488 933 307
f 921 320 922
f 1137 506 172
f 388 1136 506
f 455 1114 251
f 374 756 507
f 971 508 118
f 1094 212 718
f 57 651 852
f 1046 694 344
f 1206 939 510
f 939 940 510
f 985 511 336
f 1090 546 180
f 40 1314 39
f 264 595 1088
f 827 513 304
f 380 728 513
f 942 514 59
f 126 127 1291
f 802 515 1070
f 1128 160 996
f 702 516 315
f 308 583 853
f 629 517 188
f 1249 154 1167
f 903 518 187
f 1212 1205 518
f 774 601 519
f 1212 518 1033
f 496 1078 178
f 920 223 520
f 555 521 233
f 7 8 998
f 758 522 237
f 894 478 1257
f 440 523 224
f 440 476 1080
f 809 524 1332
f 188 631 925
f 676 1032 232
f 172 506 1127
f 1015 526 236
f 1302 657 306
f 526 972 236
f 306 1075 856
f 22 1226 21
f 1015 236 528
f 238 529 453
f 238 690 529
f 1012 530 365
f 901 429 570
f 1136 956 239
f 1003 346 531
f 694 532 194
f 1022 438 654
f 638 533 165
f 230 1002 533
f 47 1116 46
f 1097 1002 230
f 1119 535 1315
f 135 136 535
f 649 536 165
f 1113 648 231
f 712 537 277
f 829 69 640
f 435 538 294
f 435 969 640
f 1153 539 900
f 320 921 539
f 776 986 166
f 234 1153 900
f 835 541 317
f 187 731 916
f 467 542 208
f 467 317 836
f 1176 1148 543
f 1148 1076 543
f 523 544 224
f 479 247 544
f 934 545 48
f 1109 362 1290
f 837 546 1090
f 1030 478 627
f 1004 547 153
f 1323 591 240
f 770 548 349
f 273 771 949
f 158 549 472
f 1085 403 709
f 1064 550 355
f 867 312 1134
f 1306 551 454
f 1317 494 1304
f 1323 1004 326
f 153 799 552
f 1042 553 235
f 1041 151 1199
f 1054 554 169
f 266 686 554
f 1181 584 555
f 1024 5 6
f 1126 556 981
f 272 670 556
f 980 557 334
f 716 277 1009
f 979 558 155
f 334 557 1005
f 1086 878 559
f 11 12 559
f 561 560 342
f 1049 379 1168
f 769 561 196
f 241 560 561
f 41 562 40
f 1045 596 264
f 286 563 517
f 1183 288 669
f 286 564 563
f 793 183 595
f 286 565 564
f 286 629 566
f 286 566 565
f 1247 943 842
f 397 664 974
f 1140 101 102
f 596 978 185
f 1238 256 1273
f 623 844 148
f 357 1072 569
f 530 570 176
f 429 1242 570
f 637 571 184
f 314 472 571
f 890 572 295
f 889 263 713
f 1198 573 242
f 812 528 236
f 576 574 162
f 420 1251 574
f 576 575 240
f 376 1129 575
f 575 576 376
f 991 420 574
f 1267 577 410
f 531 346 577
f 1076 578 404
f 405 470 578
f 1072 579 282
f 260 604 579
f 843 580 365
f 79 80 1217
f 1021 581 289
f 220 893 581
f 874 582 331
f 191 1093 1011
f 143 583 142
f 308 430 583
f 814 584 213
f 373 555 584
f 983 585 245
f 336 511 1100
f 1195 638 586
f 984 336 983
f 1232 587 275
f 1232 1234 587
f 1186 588 261
f 152 1104 782
f 877 589 727
f 1242 429 1243
f 1176 590 412
f 244 567 590
f 547 1323 240
f 1323 912 591
f 113 592 112
f 1224 253 1150
f 1164 662 297
f 132 858 593
f 1135 594 388
f 956 531 239
f 1276 595 264
f 183 504 1107
f 669 665 596
f 264 562 1045
f 1236 597 328
f 943 287 737
f 1017 598 247
f 159 908 598
f 1250 599 420
f 181 689 599
f 800 1278 193
f 823 422 1106
f 147 774 519
f 305 772 601
f 1007 610 602
f 1219 389 1218
f 571 603 184
f 571 472 603
f 1095 605 300
f 1274 742 579
f 604 605 174
f 604 300 605
f 907 606 271
f 141 142 606
f 153 607 422
f 1122 375 1254
f 1251 1189 242
f 914 18 19
f 967 609 333
f 1117 486 744
f 602 610 149
f 602 366 1007
f 756 611 366
f 1129 376 1130
f 598 612 247
f 330 628 959
f 462 1182 299
f 189 886 1081
f 1216 768 614
f 253 439 614
f 1110 615 34
f 486 1117 615
f 714 616 276
f 332 903 988
f 755 617 189
f 1056 216 887
f 1163 618 219
f 1326 160 788
f 1308 619 255
f 155 866 619
f 621 620 255
f 1293 205 620
f 1255 621 173
f 423 1293 621
f 1283 622 234
f 485 1282 622
f 624 623 267
f 311 722 844
f 1298 989 624
f 179 671 1082
f 831 1099 201
f 1068 767 346
f 928 766 626
f 301 625 626
f 546 627 180
f 478 284 627
f 1067 1294 353
f 330 908 898
f 517 629 286
f 1248 524 809
f 784 630 1095
f 1211 407 630
f 1220 631 1098
f 925 524 1248
f 73 1316 72
f 401 645 632
f 28 633 27
f 359 929 1010
f 941 634 107
f 1263 652 369
f 1285 635 170
f 1209 381 806
f 444 636 263
f 155 558 636
f 982 637 184
f 444 263 637
f 586 638 165
f 639 230 533
f 256 639 638
f 256 1084 639
f 435 640 538
f 270 1318 829
f 476 641 269
f 150 951 641
f 24 642 23
f 348 805 854
f 1246 643 304
f 198 808 643
f 159 1016 480
f 1058 502 221
f 785 763 645
f 294 632 645
f 763 646 294
f 1299 572 713
f 703 647 182
f 341 884 647
f 824 1119 406
f 231 536 1113
f 1311 649 165
f 258 1325 1113
f 1307 650 689
f 16 17 650
f 438 651 514
f 268 509 852
f 1146 1263 369
f 1286 405 652
f 540 986 1196
f 293 498 917
f 994 654 129
f 532 1022 654
f 426 655 259
f 1241 685 363
f 631 1220 310
f 623 148 656
f 526 1302 306
f 202 697 657
f 850 700 658
f 398 923 658
f 761 659 246
f 1253 171 659
f 86 726 1208
f 302 510 795
f 952 661 193
f 390 926 661
f 994 662 371
f 131 593 662
f 1174 663 4
f 814 213 999
f 1312 974 664
f 397 1133 664
f 565 793 288
f 264 596 665
f 1287 666 185
f 1319 245 818
f 938 667 367
f 368 828 667
f 1139 668 397
f 543 404 1018
f 665 669 288
f 185 666 669
f 706 670 272
f 530 176 670
f 550 1134 179
f 312 1053 671
f 1081 886 672
f 324 885 672
f 1178 673 378
f 377 1075 1297
f 1233 674 387
f 426 259 674
f 1158 675 193
f 269 641 675
f 677 676 310
f 274 711 1032
f 676 677 274
f 656 148 677
f 689 678 323
f 181 912 1281
f 830 679 349
f 1079 77 706
f 1025 680 348
f 25 26 680
f 696 681 161
f 280 735 681
f 1096 682 121
f 309 450 968
f 427 683 265
f 1245 394 683
f 461 684 265
f 461 305 773
f 655 1241 363
f 192 503 685
f 554 686 396
f 266 425 686
f 1258 687 503
f 147 425 687
f 783 688 315
f 63 64 688
f 1307 689 323
f 338 599 689
f 557 1009 238
f 277 537 1318
f 692 691 437
f 281 973 833
f 691 692 281
f 437 226 692
f 881 693 421
f 211 929 693
f 765 694 194
f 344 509 1046
f 544 695 491
f 544 247 695
f 766 928 161
f 358 657 697
f 696 697 280
f 696 358 697
f 674 698 387
f 259 883 698
f 837 699 492
f 701 535 136
f 1133 700 206
f 398 658 700
f 290 701 699
f 290 1090 875
f 466 841 315
f 190 980 819
f 647 703 341
f 1329 417 1279
f 1165 704 194
f 297 1279 704
f 1115 705 374
f 396 1227 705
f 78 706 77
f 365 670 706
f 117 707 116
f 117 508 707
f 723 708 156
f 427 265 708
f 549 709 300
f 549 158 1085
f 457 1036 172
f 275 587 710
f 457 711 274
f 172 525 711
f 537 712 67
f 1313 466 1031
f 186 713 453
f 572 314 889
f 425 714 276
f 147 904 714
f 1166 715 200
f 425 276 715
f 190 716 557
f 190 702 841
f 846 717 291
f 488 228 717
f 508 718 291
f 212 896 718
f 1233 719 156
f 275 1270 719
f 1271 720 210
f 275 1036 720
f 299 948 462
f 151 1041 721
f 844 722 569
f 311 483 855
f 719 723 156
f 283 779 723
f 174 724 448
f 174 605 869
f 216 725 465
f 1322 433 510
f 87 726 86
f 725 302 726
f 1019 727 175
f 1120 227 729
f 513 728 219
f 380 877 728
f 727 1120 278
f 227 822 729
f 39 730 38
f 512 1088 730
f 518 731 187
f 391 1204 731
f 1042 732 364
f 1108 541 916
f 957 733 319
f 627 284 733
f 832 734 443
f 215 469 734
f 1231 735 360
f 881 421 681
f 279 736 515
f 1204 391 1240
f 1331 737 454
f 597 327 943
f 52 1023 51
f 765 194 777
f 821 739 89
f 487 465 739
f 210 740 456
f 457 274 740
f 456 741 210
f 282 742 741
f 579 742 282
f 579 604 1274
f 1109 934 296
f 49 50 743
f 1117 744 609
f 486 322 744
f 521 1309 233
f 335 1087 950
f 288 1183 564
f 1060 319 468
f 340 747 746
f 1040 245 585
f 37 748 36
f 1230 229 899
f 308 749 430
f 308 445 749
f 54 750 53
f 509 344 750
f 1185 751 309
f 459 212 751
f 1292 752 309
f 428 999 752
f 1309 998 335
f 8 9 753
f 1055 754 163
f 289 581 754
f 1057 755 289
f 350 617 755
f 1121 756 374
f 195 611 756
f 1146 757 105
f 412 590 1215
f 789 1048 237
f 468 284 758
f 486 759 322
f 35 36 759
f 237 1063 447
f 355 550 760
f 659 761 395
f 246 1106 761
f 1170 762 434
f 372 1169 762
f 645 763 294
f 645 203 785
f 1288 764 402
f 764 891 890
f 344 765 738
f 344 694 765
f 976 766 474
f 301 626 766
f 976 767 301
f 197 577 767
f 409 1216 614
f 217 1170 768
f 950 769 196
f 1087 385 769
f 679 770 349
f 272 556 770
f 785 949 402
f 273 851 771
f 520 772 178
f 520 601 772
f 684 773 192
f 684 461 773
f 687 774 147
f 305 601 774
f 171 775 502
f 1327 715 276
f 1050 905 776
f 416 781 776
f 765 777 354
f 704 417 777
f 913 778 411
f 243 471 778
f 723 779 427
f 283 451 779
f 848 780 473
f 95 96 1043
f 776 781 293
f 416 1296 781
f 152 782 588
f 407 1211 1210
f 516 1083 315
f 145 146 783
f 403 1275 709
f 204 630 784
f 949 785 203
f 402 764 785
f 1225 786 123
f 392 999 786
f 1084 787 419
f 436 1239 787
f 618 1326 321
f 160 736 1240
f 1048 789 497
f 237 447 789
f 791 1098 292
f 631 188 790
f 447 791 292
f 447 989 791
f 1152 792 339
f 1019 175 1118
f 1276 793 595
f 665 288 793
f 874 794 382
f 197 767 794
f 302 795 660
f 510 226 795
f 1027 796 296
f 417 1329 796
f 500 797 171
f 500 269 797
f 944 798 229
f 327 597 1236
f 422 799 153
f 422 823 799
f 1278 800 298
f 193 661 800
f 799 801 552
f 298 800 1223
f 1013 802 220
f 364 732 802
f 1256 803 423
f 430 749 803
f 494 804 331
f 410 1269 804
f 873 805 348
f 697 202 805
f 1066 806 408
f 635 1209 806
f 338 807 608
f 338 650 807
f 643 808 393
f 198 451 808
f 737 809 454
f 287 629 809
f 811 810 446
f 323 678 810
f 16 811 15
f 323 810 811
f 383 812 573
f 892 20 21
f 269 813 476
f 500 962 813
f 373 814 663
f 373 584 814
f 1138 815 419
f 45 46 815
f 915 816 400
f 228 839 816
f 470 817 215
f 313 861 936
f 340 818 747
f 340 666 818
f 308 819 445
f 1303 516 702
f 1230 820 229
f 490 303 820
f 90 821 89
f 865 482 954
f 729 822 345
f 227 1071 822
f 1278 823 600
f 298 799 823
f 1119 824 535
f 406 990 824
f 93 825 92
f 93 848 825
f 178 826 496
f 178 1044 826
f 513 827 152
f 304 643 827
f 780 1043 368
f 98 99 828
f 270 829 640
f 537 68 829
f 679 830 75
f 349 1301 830
f 358 1099 657
f 1297 673 377
f 947 832 404
f 443 924 832
f 82 833 81
f 691 281 833
f 898 908 467
f 159 480 834
f 480 835 317
f 501 187 835
f 467 836 542
f 317 541 836
f 699 837 290
f 492 248 837
f 491 838 307
f 164 439 838
f 838 839 307
f 439 816 839
f 1127 840 285
f 506 239 840
f 716 841 466
f 716 190 841
f 504 842 327
f 183 566 842
f 79 843 78
f 79 580 843
f 148 844 569
f 623 311 844
f 513 845 304
f 513 219 845
f 718 846 291
f 460 897 1175
f 856 847 162
f 1131 252 1130
f 780 848 94
f 473 329 848
f 1280 849 485
f 222 1155 1000
f 473 850 329
f 206 700 850
f 918 851 484
f 204 784 1275
f 268 852 651
f 509 56 852
f 143 853 583
f 143 144 853
f 348 854 642
f 202 526 854
f 311 855 722
f 483 982 855
f 847 856 377
f 162 953 856
f 686 857 396
f 200 432 857
f 133 858 132
f 133 990 858
f 607 1254 250
f 375 1029 1121
f 560 860 342
f 168 926 860
f 936 861 384
f 861 1065 1061
f 170 862 470
f 170 1066 862
f 768 1216 217
f 1091 225 1067
f 963 864 361
f 13 14 864
f 90 865 821
f 90 91 865
f 867 866 312
f 155 444 866
f 255 867 550
f 255 619 867
f 315 868 466
f 688 64 868
f 724 869 451
f 724 174 869
f 582 870 331
f 328 597 870
f 1045 987 318
f 42 43 1239
f 1214 872 400
f 114 115 872
f 680 873 348
f 360 735 873
f 582 874 382
f 331 804 874
f 985 875 511
f 1315 535 701
f 806 876 408
f 806 381 876
f 728 877 278
f 380 1186 877
f 1014 878 385
f 10 11 878
f 922 879 505
f 491 307 879
f 939 945 339
f 414 1071 880
f 211 881 735
f 211 693 881
f 1029 882 575
f 375 1122 1266
f 655 1188 259
f 455 475 883
f 1310 884 341
f 406 648 1325
f 672 885 207
f 324 887 1142
f 617 886 189
f 324 672 886
f 1142 887 487
f 324 617 887
f 1249 888 563
f 497 789 888
f 572 889 713
f 314 571 1295
f 764 890 295
f 764 158 891
f 890 891 314
f 158 472 891
f 383 892 812
f 1197 19 20
f 1070 893 220
f 413 1071 893
f 284 894 522
f 284 478 894
f 752 895 415
f 213 584 895
f 718 896 460
f 212 459 896
f 1175 897 177
f 460 896 897
f 330 898 628
f 467 208 898
f 748 1230 322
f 229 495 899
f 897 900 539
f 316 540 900
f 1012 901 530
f 249 973 1125
f 1 902 124
f 2 3 1149
f 1033 903 332
f 187 501 903
f 519 904 147
f 519 1033 904
f 1181 905 458
f 233 745 905
f 919 906 325
f 570 261 906
f 1051 907 271
f 449 140 907
f 598 908 330
f 159 834 908
f 1150 909 592
f 434 762 909
f 27 910 26
f 27 633 910
f 929 911 399
f 32 33 911
f 1250 912 181
f 326 913 912
f 912 913 411
f 326 552 913
f 18 914 807
f 19 1197 914
f 872 915 400
f 872 489 915
f 187 916 541
f 731 279 916
f 293 917 653
f 498 992 917
f 1210 918 325
f 204 851 918
f 484 1328 325
f 176 570 919
f 1078 920 520
f 321 788 920
f 933 921 505
f 177 539 921
f 879 922 224
f 505 921 922
f 672 923 343
f 207 658 923
f 343 924 443
f 343 923 1191
f 310 925 631
f 310 937 925
f 471 927 168
f 356 661 926
f 243 1059 471
f 356 926 927
f 696 928 358
f 696 161 928
f 1010 929 211
f 359 930 929
f 32 930 31
f 32 911 930
f 320 931 440
f 622 1282 931
f 864 932 361
f 446 810 932
f 921 933 177
f 505 307 933
f 49 934 48
f 743 296 934
f 334 935 445
f 424 620 935
f 313 936 817
f 384 1199 936
f 925 937 524
f 310 676 937
f 667 938 368
f 367 664 938
f 940 939 339
f 510 433 1206
f 792 1330 339
f 226 510 940
f 108 941 107
f 1151 254 1263
f 60 942 59
f 126 1291 942
f 597 943 737
f 327 842 943
f 327 944 504
f 327 1236 944
f 339 945 880
f 939 163 945
f 1003 946 346
f 378 625 946
f 578 1156 404
f 215 734 947
f 462 948 721
f 299 469 948
f 273 949 548
f 771 402 949
f 1296 950 196
f 745 335 950
f 1282 951 150
f 849 352 951
f 675 952 193
f 352 1000 1265
f 574 953 162
f 574 1112 953
f 970 954 482
f 207 885 954
f 1017 955 598
f 442 1016 955
f 389 956 594
f 389 1219 956
f 818 1040 319
f 585 180 957
f 1184 958 459
f 166 540 958
f 330 959 612
f 628 1294 959
f 548 960 349
f 548 949 960
f 502 961 171
f 502 1058 961
f 337 962 500
f 337 442 962
f 964 963 361
f 559 12 963
f 559 964 241
f 559 963 964
f 1194 965 382
f 333 609 965
f 1194 966 333
f 474 766 966
f 1162 967 333
f 1213 693 1203
f 309 968 682
f 450 971 968
f 186 969 435
f 529 270 969
f 207 970 658
f 482 329 970
f 119 971 118
f 450 1094 971
f 236 972 527
f 526 306 972
f 493 973 281
f 493 1125 973
f 367 1312 664
f 567 244 974
f 1221 975 426
f 684 192 975
f 766 976 301
f 474 794 976
f 778 977 218
f 471 379 977
f 1287 978 568
f 596 318 978
f 334 979 424
f 334 558 979
f 819 980 445
f 190 557 980
f 176 981 556
f 484 273 981
f 855 982 184
f 483 1053 982
f 586 983 245
f 586 984 983
f 165 984 586
f 165 536 984
f 536 985 336
f 536 231 985
f 166 986 540
f 776 293 986
f 318 987 871
f 562 41 987
f 221 988 501
f 221 616 988
f 267 1298 624
f 447 760 989
f 1310 990 406
f 133 134 990
f 240 991 576
f 240 591 991
f 993 992 498
f 342 860 992
f 781 993 498
f 196 561 993
f 130 994 129
f 371 654 994
f 810 995 218
f 810 678 995
f 1038 996 160
f 822 413 996
f 23 997 22
f 23 642 997
f 7 998 521
f 8 753 998
f 752 999 213
f 428 786 999
f 1265 1000 390
f 352 849 1000
f 796 1001 362
f 182 647 1101
f 1157 1097 230
f 1001 386 1002
f 149 1003 531
f 149 1179 1003
f 552 1004 153
f 552 326 1004
f 334 1005 558
f 557 238 1005
f 507 1006 251
f 507 366 1006
f 611 1007 366
f 252 610 1007
f 1306 1008 551
f 525 1127 1008
f 238 1009 690
f 557 716 1009
f 735 1231 211
f 633 1069 1010
f 191 1011 582
f 495 798 1011
f 580 1012 365
f 249 901 1012
f 1021 1013 220
f 441 1041 1013
f 878 1014 10
f 385 1087 1014
f 1226 1015 528
f 347 526 1015
f 955 1016 159
f 442 644 1016
f 479 1017 247
f 479 955 1017
f 167 1018 832
f 668 543 1018
f 463 1019 792
f 463 727 1019
f 754 1020 163
f 754 581 1020
f 1092 1021 289
f 441 1013 1021
f 268 1022 532
f 268 438 1022
f 750 1023 52
f 750 344 1023
f 373 1024 555
f 373 1174 1024
f 680 1025 25
f 348 642 1025
f 51 1026 50
f 738 354 1026
f 777 1027 354
f 777 417 1027
f 251 1028 475
f 389 594 1028
f 1266 1029 375
f 575 195 1029
f 248 1030 546
f 248 478 1030
f 712 1031 66
f 712 277 1313
f 274 1032 676
f 711 525 1032
f 904 1033 332
f 1212 223 1205
f 618 1163 345
f 728 278 1034
f 683 1035 265
f 394 1044 1035
f 720 1036 457
f 275 710 1036
f 30 1037 29
f 930 359 1037
f 345 1038 618
f 345 996 1038
f 321 1039 618
f 496 845 1039
f 319 1040 957
f 818 245 1040
f 1042 1041 553
f 364 1013 1041
f 732 1042 235
f 364 1041 1042
f 1222 1043 96
f 828 368 1043
f 1035 1044 461
f 394 826 1044
f 987 1045 562
f 318 596 1045
f 268 1046 509
f 268 694 1046
f 294 1260 632
f 538 71 1047
f 237 1048 758
f 1249 563 154
f 241 1049 560
f 241 964 1049
f 1184 1324 166
f 458 905 1050
f 248 1051 481
f 449 907 1051
f 218 1052 932
f 977 379 1052
f 671 1053 483
f 312 866 1053
f 1188 1054 455
f 363 554 1054
f 1206 1055 163
f 350 1057 1055
f 350 1056 617
f 1262 433 1321
f 754 1057 289
f 350 755 1057
f 337 1058 644
f 337 961 1058
f 801 1059 243
f 356 927 1059
f 1167 1060 468
f 747 319 1060
f 861 1061 208
f 861 313 1065
f 621 1062 173
f 621 1064 1062
f 447 1063 760
f 237 522 1063
f 1062 1064 355
f 621 255 1064
f 862 1065 313
f 862 1066 1065
f 1065 1066 353
f 170 806 1066
f 408 1067 1066
f 1294 628 353
f 625 1068 946
f 301 767 1068
f 1010 1069 359
f 633 28 1069
f 802 1070 220
f 515 1128 1070
f 893 1071 414
f 413 822 1071
f 569 1072 282
f 357 579 1072
f 603 1073 357
f 603 260 1073
f 722 1074 357
f 855 184 1074
f 856 1075 377
f 306 831 1075
f 543 1076 404
f 214 1284 1076
f 1169 1077 109
f 464 941 1077
f 920 1078 321
f 520 178 1078
f 272 1079 706
f 679 76 1079
f 813 1080 476
f 209 523 1080
f 613 1081 343
f 613 1182 1081
f 624 1082 311
f 624 179 1082
f 853 1083 516
f 145 783 1083
f 1238 1084 256
f 436 787 1084
f 549 1085 709
f 1288 402 771
f 561 1086 241
f 385 878 1086
f 950 1087 769
f 335 753 1087
f 264 1088 512
f 595 1107 1088
f 282 1089 569
f 456 1124 1089
f 875 1090 511
f 290 837 1090
f 409 1091 863
f 409 499 1091
f 721 1092 462
f 441 1021 1092
f 1011 1093 495
f 744 322 1093
f 971 1094 508
f 450 212 1094
f 784 1095 300
f 630 262 1095
f 122 1096 121
f 428 1292 1096
f 1290 1097 534
f 362 1002 1097
f 790 1098 631
f 790 292 1098
f 201 1099 626
f 831 657 1099
f 336 1100 585
f 511 1090 1100
f 182 1101 1001
f 647 258 1173
f 632 1316 401
f 73 74 1102
f 1104 1103 407
f 393 808 1103
f 782 1104 407
f 152 827 1104
f 1106 1105 432
f 422 607 1105
f 761 1106 432
f 246 823 1106
f 183 1107 595
f 504 820 1107
f 235 1108 732
f 235 541 1108
f 934 1109 545
f 296 796 1109
f 35 1110 34
f 486 615 1110
f 780 1111 473
f 368 938 1111
f 1202 1112 573
f 574 242 1112
f 649 1113 536
f 649 258 1113
f 251 1114 507
f 455 1054 1114
f 507 1115 374
f 1114 169 1115
f 545 1116 47
f 1290 362 1097
f 257 1117 609
f 257 615 1117
f 1019 1118 452
f 175 1243 1118
f 648 1119 231
f 648 406 1119
f 463 1120 727
f 463 1152 1120
f 756 1121 195
f 374 859 1121
f 153 1122 607
f 153 547 1266
f 489 1123 707
f 489 872 1123
f 148 1124 677
f 456 740 1124
f 249 1125 901
f 493 1243 1125
f 548 1126 273
f 548 770 1126
f 172 1127 525
f 506 840 1127
f 736 1128 515
f 996 413 1128
f 195 1129 611
f 195 575 1129
f 847 1130 376
f 252 611 1130
f 847 1131 1130
f 377 673 1131
f 668 1132 397
f 167 1191 1132
f 664 1133 206
f 397 1190 1133
f 179 1134 671
f 550 867 1134
f 587 1135 388
f 587 1234 1135
f 594 1136 388
f 594 956 1136
f 710 1137 172
f 388 506 1137
f 787 1138 419
f 44 45 1138
f 974 1139 397
f 974 244 1139
f 1312 1140 567
f 1141 100 101
f 367 1141 1140
f 367 667 1141
f 885 1142 351
f 885 324 1142
f 732 1143 802
f 732 279 1143
f 614 1144 409
f 614 164 1144
f 300 1145 549
f 604 260 1145
f 634 1146 106
f 634 1263 1146
f 652 1147 369
f 214 1076 1148
f 244 1176 543
f 412 1147 1148
f 392 1149 663
f 902 2 1149
f 909 1150 434
f 592 1224 1150
f 464 1151 941
f 464 1209 1151
f 880 1152 339
f 880 227 1152
f 622 1153 234
f 622 320 1153
f 221 1154 616
f 502 775 1154
f 992 1155 222
f 992 860 1155
f 404 1156 947
f 578 470 1156
f 815 1157 419
f 815 534 1157
f 600 1158 193
f 370 1160 1158
f 600 1159 370
f 600 246 1159
f 797 1160 370
f 269 675 1160
f 103 1161 102
f 590 567 1161
f 967 1162 421
f 966 161 1162
f 728 1163 219
f 1034 345 1163
f 704 1164 297
f 371 662 1164
f 532 1165 194
f 371 1164 1165
f 715 1166 425
f 200 686 1166
f 1060 1167 154
f 468 1048 1167
f 560 1168 168
f 560 1049 1168
f 110 1169 109
f 110 762 1169
f 1171 1170 217
f 372 762 1170
f 876 1171 217
f 381 1209 1172
f 1077 1172 464
f 372 1171 1172
f 1101 1173 386
f 1101 647 1173
f 5 1174 4
f 373 663 1174
f 846 1175 488
f 846 460 1175
f 590 1176 244
f 412 1148 1176
f 555 1177 521
f 555 1024 1177
f 1179 1178 378
f 610 252 1178
f 946 1179 378
f 149 610 1179
f 625 1180 201
f 625 378 1180
f 905 1181 233
f 458 584 1181
f 1081 1182 189
f 613 299 1182
f 340 1183 669
f 746 564 1183
f 895 1324 415
f 166 958 1184
f 415 1185 752
f 415 751 1185
f 877 1186 261
f 380 1187 1186
f 588 1187 152
f 588 1186 1187
f 259 1188 883
f 655 363 1188
f 242 1189 608
f 599 338 1189
f 700 1190 398
f 700 1133 1190
f 1190 1191 398
f 167 924 1191
f 783 1192 688
f 146 62 1192
f 382 1193 582
f 382 965 1193
f 966 1194 474
f 333 965 1194
f 1273 1195 431
f 256 638 1195
f 1283 1196 653
f 234 900 1196
f 383 1197 892
f 383 914 1197
f 608 1198 242
f 608 383 1198
f 936 1199 151
f 384 1201 1199
f 1201 1200 542
f 384 861 1200
f 235 1201 542
f 553 1199 1201
f 1112 1202 953
f 573 236 1202
f 1213 1203 257
f 399 1244 1203
f 279 1204 736
f 279 731 1204
f 920 1205 223
f 920 788 1205
f 1055 1206 433
f 163 939 1206
f 329 1207 825
f 482 865 1207
f 85 1208 660
f 85 86 1208
f 254 1209 635
f 254 1151 1209
f 782 1210 325
f 782 407 1210
f 204 1211 630
f 204 918 1211
f 519 1212 1033
f 519 223 1212
f 421 1213 967
f 421 693 1213
f 114 1214 113
f 114 872 1214
f 103 1215 590
f 104 757 1215
f 863 1216 409
f 863 217 1216
f 580 1217 477
f 580 79 1217
f 1006 1218 251
f 602 149 1219
f 602 1219 1218
f 149 956 1219
f 623 1220 267
f 656 310 1220
f 708 1221 426
f 265 684 1221
f 97 1222 96
f 98 828 1222
f 298 1223 801
f 800 356 1223
f 400 1224 592
f 400 816 1224
f 124 1225 123
f 902 392 1225
f 21 1226 528
f 22 997 1226
f 857 1227 396
f 857 432 1227
f 705 1228 396
f 705 1115 1228
f 331 1229 494
f 870 157 1229
f 490 1230 748
f 490 820 1230
f 633 1231 360
f 1010 211 1231
f 719 1232 275
f 387 1234 1232
f 674 1233 156
f 387 1232 1233
f 199 1234 698
f 199 1135 1234
f 763 1235 646
f 763 295 1235
f 798 1236 328
f 798 944 1236
f 978 1237 568
f 318 871 1237
f 1237 1238 568
f 436 1084 1238
f 787 1239 43
f 436 871 1239
f 788 1240 391
f 788 160 1240
f 192 1241 655
f 192 685 1241
f 261 1242 589
f 261 570 1242
f 1125 1243 429
f 175 589 1243
f 1203 1244 615
f 911 33 1244
f 198 1245 683
f 198 643 1245
f 394 1246 826
f 394 643 1246
f 943 1247 287
f 842 566 1247
f 629 1248 809
f 188 925 1248
f 497 1249 1167
f 497 888 1249
f 599 1250 181
f 420 591 1250
f 599 1251 420
f 599 1189 1251
f 715 1252 200
f 395 761 1252
f 395 1253 659
f 395 775 1253
f 859 1254 375
f 859 250 1254
f 1257 1255 173
f 481 1051 1256
f 481 1256 1255
f 271 803 1256
f 894 1257 173
f 478 481 1257
f 773 1258 503
f 305 774 1258
f 636 1259 453
f 636 558 1259
f 1047 1260 538
f 1047 632 1260
f 376 1261 847
f 576 162 1261
f 350 1262 1056
f 350 1055 1262
f 1151 1263 634
f 254 1286 1263
f 140 1264 139
f 449 492 1264
f 661 1265 390
f 952 352 1265
f 882 1266 547
f 882 1029 1266
f 840 1267 410
f 239 577 1267
f 840 1268 285
f 410 494 1268
f 197 1269 577
f 197 804 1269
f 1271 1270 720
f 418 719 1270
f 448 1271 210
f 418 1270 1271
f 1271 1305 418
f 283 723 1272
f 1287 1273 431
f 568 1238 1273
f 174 1274 604
f 174 742 1274
f 204 1275 851
f 784 709 1275
f 665 1276 264
f 665 793 1276
f 37 1277 490
f 38 730 1277
f 823 1278 298
f 600 193 1278
f 704 1279 417
f 297 703 1279
f 653 1280 485
f 917 222 1280
f 181 1281 678
f 912 411 1281
f 931 1282 150
f 485 849 1282
f 1196 1283 234
f 653 485 1283
f 652 1284 214
f 405 578 1284
f 470 1285 170
f 405 1286 1285
f 1263 1286 652
f 254 635 1286
f 666 1287 431
f 185 978 1287
f 158 1288 1085
f 158 764 1288
f 952 1289 352
f 675 641 1289
f 545 1290 1116
f 545 1109 1290
f 514 1291 438
f 514 942 1291
f 682 1292 309
f 682 1096 1292
f 621 1293 620
f 423 803 1293
f 225 1294 1067
f 225 959 1294
f 637 1295 571
f 637 263 1295
f 781 1296 196
f 416 745 1296
f 831 1297 1075
f 201 673 1297
f 791 1298 267
f 791 989 1298
f 646 1299 186
f 1235 572 1299
f 1301 1300 401
f 960 203 1300
f 1300 1301 960
f 401 1102 1301
f 202 1302 526
f 202 657 1302
f 308 1303 819
f 308 853 1303
f 1008 1317 551
f 494 1229 1304
f 724 1305 448
f 283 1272 1305
f 1332 1306 454
f 232 1008 1306
f 811 1307 323
f 811 16 1307
f 620 1308 255
f 620 424 1308
f 233 1309 745
f 521 998 1309
f 884 1310 406
f 341 858 1310
f 386 1311 533
f 386 1173 1311
f 1140 1312 367
f 567 974 1312
f 712 1313 1031
f 277 716 1313
f 562 1314 40
f 562 512 1314
f 231 1315 875
f 231 1119 1315
f 1102 1316 73
f 1102 401 1316
f 551 1317 1304
f 285 1268 1317
f 277 1318 690
f 537 829 1318
f 431 1319 666
f 431 586 1319
f 739 1320 487
f 821 351 1320
f 216 1321 725
f 216 1056 1321
f 725 1322 302
f 1321 433 1322
f 1004 1323 547
f 326 912 1323
f 415 1324 1184
f 458 1050 1324
f 406 1325 884
f 648 1113 1325
f 321 1326 788
f 618 1038 1326
f 395 1327 775
f 395 1252 1327
f 176 1328 981
f 919 325 1328
f 703 1329 1279
f 182 796 1329
f 940 1330 226
f 940 339 1330
f 551 1331 454
f 157 737 1331
f 809 1332 454
f 524 937 1332
