v 37.6558001339864 126.054616720527 17.5
v 36.9836734829238 126.738171959694 17.5
v 36.3115468318612 127.42172719886 17.5
v 35.6394201807986 128.105282438027 17.5
v 34.9672935297359 128.788837677194 17.5
v 34.2951668786733 129.472392916361 17.5
v 33.6230402276107 130.155948155528 17.5
v 32.9509135765481 130.839503394695 17.5
v 32.2787869254855 131.523058633862 17.5
v 31.6066602744229 132.206613873028 17.5
v 30.9345336233603 132.890169112195 17.5
v 30.2624069722977 133.573724351362 17.5
v 29.590280321235 134.257279590529 17.5
v 28.9181536701724 134.940834829696 17.5
v 28.2460270191098 135.624390068863 17.5
v 27.5739003680472 136.30794530803 17.5
v 26.9017737169846 136.991500547196 17.5
v 26.229647065922 137.675055786363 17.5
v 25.5575204148594 138.35861102553 17.5
v 24.8853937637968 139.042166264697 17.5
v 24.2132671127342 139.725721503864 17.5
v 23.5411404616716 140.409276743031 17.5
v 22.8690138106089 141.092831982198 17.5
v 22.1968871595463 141.776387221365 17.5
v 21.5134917648363 141.049253311183 17.5
v 20.860717478493 140.294519155923 17.5
v 20.2412796273158 139.512201349178 17.5
v 19.6576739217395 138.702807505914 17.5
v 19.1119766990277 137.867389658109 17.5
v 18.6056250097138 137.007554113321 17.5
v 18.1392031234961 136.125415877589 17.5
v 17.712267643804 135.223496410647 17.5
v 17.3232404409428 134.304577383636 17.5
v 16.9693863262009 133.371535222975 17.5
v 16.646874657588 132.427186538921 17.5
v 16.3509076971538 131.47417105676 17.5
v 16.0758895141185 130.514888506926 17.5
v 15.8156096609219 129.551493653254 17.5
v 15.5634237078591 128.5859433814 17.5
v 15.3124238344866 127.620083344042 17.5
v 15.0556030166018 126.655758532509 17.5
v 14.7860231541774 125.694930644342 17.5
v 14.4969991839296 124.739783817211 17.5
v 14.182306995644 123.792798992922 17.5
v 13.8364128257007 122.856777241625 17.5
v 13.4547073695225 121.934796380115 17.5
v 13.0337133862965 121.030095460164 17.5
v 13.7188267369792 120.333332700435 17.5
v 14.4039400876619 119.636569940705 17.5
v 15.0890534383446 118.939807180975 17.5
v 15.7741667890272 118.243044421245 17.5
v 16.4592801397099 117.546281661516 17.5
v 17.1443934903926 116.849518901786 17.5
v 17.8295068410753 116.152756142056 17.5
v 18.514620191758 115.455993382326 17.5
v 19.1997335424407 114.759230622596 17.5
v 19.8848468931234 114.062467862867 17.5
v 20.569960243806 113.365705103137 17.5
v 21.2550735944887 112.668942343407 17.5
v 21.9401869451714 111.972179583677 17.5
v 22.6253002958541 111.275416823948 17.5
v 23.308504833951 111.947198637428 17.5
v 23.9917093720479 112.618980450909 17.5
v 24.6749139101449 113.29076226439 17.5
v 25.3581184482418 113.962544077871 17.5
v 26.0413229863387 114.634325891352 17.5
v 26.7245275244356 115.306107704833 17.5
v 27.4077320625325 115.977889518314 17.5
v 28.0909366006295 116.649671331795 17.5
v 28.7741411387264 117.321453145275 17.5
v 29.4573456768233 117.993234958756 17.5
v 30.1405502149202 118.665016772237 17.5
v 30.8237547530172 119.336798585718 17.5
v 31.5069592911141 120.008580399199 17.5
v 32.190163829211 120.68036221268 17.5
v 32.8733683673079 121.352144026161 17.5
v 33.5565729054048 122.023925839641 17.5
v 34.2397774435018 122.695707653122 17.5
v 34.9229819815987 123.367489466603 17.5
v 35.6061865196956 124.039271280084 17.5
v 36.2893910577925 124.711053093565 17.5
v 36.9725955958895 125.382834907046 17.5
v 24.3068859766547 125.798219392149 17.5
v 22.4722108422223 120.03262649016 17.5
v 23.1077085597246 131.933640175269 17.5
v 29.8333338306071 126.120640637343 17.5
v 19.5639622489751 124.132766573031 17.5
v 26.751661519825 121.845561536155 17.5
v 27.3152579863082 130.004498665615 17.5
v 20.174379939571 128.560824218722 17.5
v 18.7551973590242 120.489023410694 17.5
v 22.5078308476495 135.841907215233 17.5
v 22.6651302698162 116.403279726566 17.5
v 25.4616975666125 118.640315302867 17.5
v 19.8527813901281 131.859559102099 17.5
v 26.1791873744521 133.079678111781 17.5
v 24.3003492211242 128.981842698921 17.5
v 33.0393728179636 125.966428462063 17.5
v 23.8346983926322 122.773771315876 17.5
v 30.2842577276207 129.171213046826 17.5
v 29.8180885025945 122.883385526162 17.5
v 20.1621612683741 117.921729736123 17.5
v 16.946455515178 122.802119851067 17.5
v 27.0067042993581 127.046231120084 17.5
v 18.0317736929849 126.600084753908 17.5
v 26.563205357496 124.461391985334 17.5
v 22.0640104190358 124.599301256335 17.5
v 20.8201669402326 121.942311227131 17.5
v 22.3787175061464 127.386078755922 17.5
v 20.2466787833958 134.473186716268 17.5
v 28.838077843899 120.672937544218 17.5
v 29.2704173457011 131.264817355131 17.5
v 24.0566019354421 134.079456252838 17.5
v 18.0856563368909 129.455053660674 17.5
v 25.2948146040109 131.005521934326 17.5
v 20.284403644689 126.28955465631 17.5
v 21.5152949516313 130.356596010375 17.5
v 32.002653620905 123.825249749718 17.5
v 24.5956447990965 120.686357476249 17.5
v 22.3009114819909 138.249115757343 17.5
v 16.2450289480698 120.761666286336 17.5
v 31.5031597638053 127.432426505342 17.5
v 24.8712853200009 116.507560088875 17.5
v 25.1070830590699 135.899038111421 17.5
v 22.6531582200134 114.274418385179 17.5
v 18.2433623741266 118.539341717585 17.5
v 20.5816305026247 136.471933327933 17.5
v 17.6516763945978 124.654648143279 17.5
v 27.0176270742741 119.87632400277 17.5
v 28.8275325153063 127.827927448738 17.5
v 20.7226380426892 116.023467615822 17.5
v 22.1165011763358 133.936298043119 17.5
v 20.5908243583256 120.074486465687 17.5
v 18.9904629871241 122.348432144646 17.5
v 33.3465808464188 127.826244988755 17.5
v 28.0758295513963 125.532327141545 17.5
v 23.9602754150949 137.380092544697 17.5
v 22.0367919749205 118.189680882506 17.5
v 27.9854574251433 123.24915356734 17.5
v 28.1507859793949 132.897820384951 17.5
v 34.9497135638091 126.07743058482 17.5
v 18.1463990724002 131.262015126112 17.5
v 18.8449961129132 133.347937248842 17.5
v 26.5508393035731 134.834526330163 17.5
v 32.1036503929511 129.154994996713 17.5
v 23.8105176278684 117.94931295763 17.5
v 31.3804835924069 122.187111598834 17.5
v 27.1398445886595 118.125139802627 17.5
v 25.208560581999 127.391889114307 17.5
v 26.3745127409302 128.607395243838 17.5
v 19.8586686543981 130.195089059076 17.5
v 24.6424687428614 132.509283547458 17.5
v 26.834902217685 131.574480041718 17.5
v 16.5297664778429 125.883695492566 17.5
v 21.4694834368114 132.369433269436 17.5
v 30.4167480099504 124.499229689578 17.5
v 31.4252597201325 125.812900831193 17.5
v 33.5857041247982 124.380335428332 17.5
v 24.8619237676288 124.162481079212 17.5
v 15.0464513146661 121.815809673182 17.5
v 23.1956616932167 130.252341373178 17.5
v 17.1608441832681 128.044514980039 17.5
v 16.0644924642243 124.332400373591 17.5
v 23.8212947003875 115.33231348549 17.5
v 22.5014014190738 121.727302305592 17.5
v 21.7198702944294 128.805317134164 17.5
v 28.8506748413922 129.769273260032 17.5
v 30.8317150492363 130.728603804468 17.5
v 28.3572635739046 119.089962083476 17.5
v 25.2260011760602 122.098552485006 17.5
v 18.7195434772959 127.999562145758 17.5
v 17.4104701268986 119.800019436195 17.5
v 25.8670300457587 125.967424997981 17.5
v 19.382223796347 116.659573441255 17.5
v 30.3451013020231 121.034065067254 17.5
v 17.5886589095991 121.440567909975 17.5
v 20.9778075961744 123.488154817243 17.5
v 22.4336075669417 123.186283343216 17.5
v 19.0292359663651 125.510103685015 17.5
v 24.2086522430284 119.316237155001 17.5
v 23.4990597986189 124.612071564643 17.5
v 22.8122989070071 125.94794917691 17.5
v 23.7931282911019 127.637738084532 17.5
v 19.505638844625 119.17151503909 17.5
v 25.983082568113 117.347880154247 17.5
v 28.9543111955174 124.354179921369 17.5
v 26.1790235606552 123.119009966592 17.5
v 15.3872845350751 123.142142168862 17.5
v 28.7002404074341 122.056518052741 17.5
v 30.1919047218263 127.809850041266 17.5
v 22.2256873700032 139.773609525616 17.5
v 20.8808880788321 137.902649913875 17.5
v 19.4548124151427 135.633327438379 17.5
v 18.3724834961229 123.531386486715 17.5
v 21.1926558191929 114.663200359304 17.5
v 27.9179236941961 128.80958152397 17.5
v 20.343348211359 133.122121993993 17.5
v 21.2737706122795 135.328504820154 17.5
v 25.9946213793723 129.878475650905 17.5
v 21.8538420039956 136.998188978603 17.5
v 25.3927128196633 134.163021661706 17.5
v 23.8029883551282 136.07377796064 17.5
v 23.0236342711996 128.695876417169 17.5
v 25.6941544080101 119.945023441946 17.5
v 21.5811121647175 126.361183905429 17.5
v 21.0684480538987 127.582963388628 17.5
v 20.7298206818261 124.81705758397 17.5
v 21.5380156889029 117.010539632247 17.5
v 21.5502637183073 120.896096222626 17.5
v 19.7202307957403 121.31150861918 17.5
v 29.42035892853 132.567947788019 17.5
v 27.2372669691235 133.772371290446 17.5
v 33.0843551797439 123.187474629376 17.5
v 16.1959453494946 119.515145331521 17.5
v 28.081989026231 131.650324920842 17.5
v 23.0322364594095 118.927404088141 17.5
v 18.3148390026355 117.297771088668 17.5
v 22.6436279163498 113.015851752429 17.5
v 23.5476987926705 138.611049578804 17.5
v 28.2077995283551 126.759987212207 17.5
v 29.4280421600334 119.629232105486 17.5
v 27.6273902411494 120.961258162343 17.5
v 17.907444782537 132.501988179317 17.5
v 32.3174709698877 124.994390504847 17.5
v 30.8882016520305 123.405737490138 17.5
v 24.1778178232329 131.414335953528 17.5
v 20.9820078686987 118.877536207633 17.5
v 33.9510105927333 126.771123268202 17.5
v 18.7809426599242 134.589083278645 17.5
v 23.580321769805 133.007358989467 17.5
v 23.0324411434142 134.741189282327 17.5
v 23.7186254602326 121.549053333292 17.5
v 24.9543202254873 115.056509985274 17.5
v 30.3679406098538 131.833892058961 17.5
v 19.2188303672234 126.885448713894 17.5
v 21.3733698045501 138.967450251086 17.5
v 20.0509954813507 122.801708770683 17.5
v 25.1290755639234 137.265107296751 17.5
v 27.7405183208402 124.402224031618 17.5
v 22.1552636553174 115.341682722583 17.5
v 16.961487419615 129.758769753449 17.5
v 19.2227841505938 129.224619973065 17.5
v 14.7944577056495 120.705769100206 17.5
v 17.0276293435701 118.624340458631 17.5
v 34.5687787929082 127.72476365096 17.5
v 24.8674242861111 129.959360759367 17.5
v 25.7961393442839 132.017384780602 17.5
v 24.8929210348599 117.634584156695 17.5
v 27.0027731929751 125.908992629467 17.5
v 16.4065650005374 127.09224145608 17.5
v 23.8379493874214 114.1400427328 17.5
v 20.7605061403002 129.521680873857 17.5
v 22.4019671306911 131.053771066887 17.5
v 20.902369168324 131.349585977932 17.5
v 23.5046979673795 120.454435720506 17.5
v 33.2306610965413 129.097907151812 17.5
v 25.9829996020784 116.192340419814 17.5
v 23.7691460775381 116.435569603061 17.5
v 22.4688813060952 132.873765519505 17.5
v 25.8451346618872 121.105495038933 17.5
v 29.8137295182663 130.305655287099 17.5
v 26.2846858738816 135.984864032795 17.5
v 28.5550630675673 133.911592669765 17.5
v 34.0294991233798 125.420339747562 17.5
v 27.0412258091621 117.022500536919 17.5
v 16.5680565459695 121.79141030339 17.5
v 35.037900807373 124.981033212446 17.5
v 22.8803070543651 137.336692618392 17.5
v 35.960655686038 125.728679809557 17.5
v 21.7470936249535 113.651960021224 17.5
v 32.1658063818243 126.588916497872 17.5
v 30.7626131021135 126.656410838663 17.5
v 31.0813079630913 128.433328194509 17.5
v 31.906952602807 130.485218943031 17.5
v 27.6133168295863 134.768279724251 17.5
v 25.3746668503938 129.00087830315 17.5
v 24.3401217024716 135.128797447984 17.5
v 24.8507928288678 123.096441619237 17.5
v 17.9664889132435 122.566398998661 17.5
v 31.1717795752432 129.73414653517 17.5
v 22.3163065096642 129.673100983453 17.5
v 25.6036633088624 124.931759008597 17.5
v 18.8327283073989 132.037288004128 17.5
v 19.5704610019461 136.654277221106 17.5
v 21.7359813662399 122.422801450007 17.5
v 28.4286414219987 130.694396981925 17.5
v 18.7585157248798 130.336936544946 17.5
v 18.3912757017827 119.542536069355 17.5
v 19.1178865317022 117.966844903777 17.5
v 28.0098934535599 120.032461712908 17.5
v 20.2135244283565 115.07086086459 17.5
v 26.4776134302231 118.958778757098 17.5
v 27.7759905612089 127.765812521166 17.5
v 16.9895058500481 123.846227406251 17.5
v 18.6348172139783 124.492633417782 17.5
v 18.0241546032372 125.591723558811 17.5
v 29.5192637264913 128.539295140756 17.5
v 29.4998503416973 127.074091532922 17.5
v 27.1289444159558 132.597999442561 17.5
v 20.5428816705254 117.002266778727 17.5
v 20.0312305310706 127.532283051291 17.5
v 32.1466808074433 122.833327627186 17.5
v 29.1033920713908 125.381933692665 17.5
v 31.345364114042 124.830281837963 17.5
v 27.7275551510863 121.936222116092 17.5
v 23.6325549950557 126.601388868632 17.5
v 21.0808459483454 133.853881101531 17.5
v 29.7146640279737 121.854158634749 17.5
v 22.8423196797571 117.469307889822 17.5
v 34.0202245347195 128.528766190131 17.5
v 17.1819536095864 130.803607947326 17.5
v 35.7170228157065 126.662059262688 17.5
v 19.4533425570524 115.69381019934 17.5
v 24.4131712424188 138.21650807084 17.5
v 21.1171432188847 117.932106861953 17.5
v 22.0974811491478 119.148251679468 17.5
v 26.2412909559372 130.812423511208 17.5
v 32.6931464384742 129.913823761152 17.5
v 32.4532005349083 127.496725051813 17.5
v 19.6922507352232 120.366951775964 17.5
v 21.5292065232206 119.94968567827 17.5
v 31.2801561107738 120.922541707234 17.5
v 20.6154753302057 121.016700357219 17.5
v 17.9082464831627 133.443610501355 17.5
v 19.4065465078507 131.02573532708 17.5
v 18.7865295551802 121.429647146125 17.5
v 27.1118561786528 122.773006790112 17.5
v 28.9623678572775 123.369872027815 17.5
v 23.9696709028213 123.748205454127 17.5
v 15.3982877643076 124.988359374177 17.5
v 22.1006898467592 134.877891337836 17.5
v 17.4660197638384 117.761930137429 17.5
v 17.3196257868894 131.748941888211 17.5
v 20.3496960342599 135.393820994583 17.5
v 29.7819200591583 123.815607456798 17.5
v 15.3223827584528 119.907031603243 17.5
v 19.8234494596335 125.025975272279 17.5
v 24.8507876899709 128.241893005333 17.5
v 26.0494043207798 126.91615224375 17.5
v 25.0261863069778 126.443161868538 17.5
v 19.2544955542161 123.264901418011 17.5
v 15.0827908039294 124.019339577051 17.5
v 21.5088944608236 125.394272516286 17.5
v 16.5403642111145 128.841076503861 17.5
v 28.1455170989578 118.106660443577 17.5
v 32.6304633454527 128.402080994857 17.5
v 23.1704064680618 133.831306803854 17.5
v 14.0191748209031 121.205378843262 17.5
v 24.7666391455902 133.450000726364 17.5
v 27.5005756658757 130.919675132774 17.5
v 24.5676101270706 118.482256175052 17.5
v 20.2083294189237 137.296670884065 17.5
v 33.916545812499 123.539498880444 17.5
v 34.5482110723494 124.205045383163 17.5
v 23.1649749310965 139.508779284641 17.5
v 19.6722493503468 133.753095236047 17.5
v 19.4713870407076 132.686692132016 17.5
v 15.8156163787957 122.325113021311 17.5
v 25.6271720771651 135.093103446797 17.5
v 27.0757627009983 135.561936550442 17.5
v 26.3598275353449 133.958200500537 17.5
v 26.729326493285 120.947672787915 17.5
v 24.5361061506687 136.591441956904 17.5
v 22.7866272098511 124.033467146993 17.5
v 21.6369076113988 116.098539105648 17.5
v 27.1154611842203 123.707514531136 17.5
v 21.6648882341907 136.128229638891 17.5
v 30.25351771396 120.092110379749 17.5
v 27.4158663256823 119.02426069597 17.5
v 16.2423196338467 127.984343332087 17.5
v 15.637885142863 125.974155396289 17.5
v 16.2001496880847 123.467436174926 17.5
v 28.9891424794594 126.360418110729 17.5
v 20.5487875163188 138.702539275777 17.5
v 24.349887766045 124.900774025058 17.5
v 25.7606698370029 124.038140507756 17.5
v 25.6498551413559 136.57351158387 17.5
v 30.5305266070861 125.455836546161 17.5
v 26.4276212515179 127.720316799762 17.5
v 24.4203724585378 127.051510311684 17.5
v 31.9231381334295 121.507794088303 17.5
v 30.4925760681542 122.295798051398 17.5
v 17.311319669548 127.15046355431 17.5
v 29.2897714620612 133.434294595279 17.5
v 23.9814607856653 129.820079410171 17.5
v 22.2602209530962 132.044869791448 17.5
v 20.6470430498051 132.159170547664 17.5
v 21.6531437643555 133.210614409828 17.5
v 22.9872112016139 122.480941815273 17.5
v 22.7301603166561 120.875772652762 17.5
v 34.9031634030941 126.934377015052 17.5
v 17.417712819925 128.884543845415 17.5
v 26.166039410434 118.173071593242 17.5
v 26.7067080713456 129.398989193905 17.5
v 23.2481309521654 131.098036107374 17.5
v 27.3345871614963 125.137463674323 17.5
v 33.2324153843761 125.145783469005 17.5
v 32.7414119613067 124.253278701581 17.5
v 31.4276063755668 131.358331445795 17.5
v 22.9897252849253 115.594143830424 17.5
v 18.5322004661852 135.38737789554 17.5
v 20.6635201664878 130.516495730974 17.5
v 33.1410024454079 127.007793178262 17.5
v 17.3479481042834 126.101042298617 17.5
v 16.7616006577685 124.968740865959 17.5
v 25.6854830586957 128.121014717994 17.5
v 26.3730668362233 125.287421690633 17.5
v 17.8590671116082 120.581246165186 17.5
v 32.5065357072637 122.091024137607 17.5
v 18.0995386098863 127.435521944807 17.5
v 17.9371497859393 130.45850115802 17.5
v 24.1743458196065 117.181932273725 17.5
v 23.1813448110038 113.641099373105 17.5
v 23.8682252760463 132.239760751891 17.5
v 25.4270911523579 132.750665897534 17.5
v 24.9306574783763 131.74092484159 17.5
v 23.2481219694091 123.351585048284 17.5
v 29.3269394933945 118.809160171697 17.5
v 27.1896324754908 128.377080925546 17.5
v 18.5706788564818 116.513964222705 17.5
v 30.0935158511836 131.06880149255 17.5
v 17.0668831318745 120.804171028814 17.5
v 28.7606552770194 128.923636496688 17.5
v 28.8437575571814 131.974101493068 17.5
v 25.055021132803 119.385834124882 17.5
v 24.5495417932507 130.699607828488 17.5
v 24.3697312741066 122.105204038857 17.5
v 32.2573241765625 125.793145440038 17.5
v 17.596449809059 123.289983612047 17.5
v 23.2063670347667 119.71013361504 17.5
v 14.6823448265125 122.616334561928 17.5
v 15.801843954668 121.466230485457 17.5
v 18.2036392046142 128.640657703298 17.5
v 29.835886320519 125.053387072121 17.5
v 24.5254523527541 115.759869292808 17.5
v 23.2079295068588 114.835715872443 17.5
v 25.1154616896074 125.620006760637 17.5
v 20.0007680657973 129.325926048945 17.5
v 23.0753403678258 129.477900725137 17.5
v 22.3276247091398 128.224906314939 17.5
v 23.0263909429197 127.846498203419 17.5
v 20.935643476186 128.755648505965 17.5
v 23.0586236207181 136.49845882335 17.5
v 21.5413781103851 129.566856643348 17.5
v 19.5049995137688 128.129754520054 17.5
v 25.7140616630626 115.402173966103 17.5
v 14.242838230544 121.961581443703 17.5
v 16.6902456765975 120.119908374996 17.5
v 20.3871767456054 124.065526867035 17.5
v 21.3204515323951 124.239685534178 17.5
v 20.8272401291489 122.722549587805 17.5
v 29.5091747201319 129.330515100545 17.5
v 28.0979536778491 129.984714246713 17.5
v 29.6459591903142 120.626611125581 17.5
v 30.8596522598335 121.613408075625 17.5
v 31.8559504601578 128.42091750297 17.5
v 30.2045637381838 132.601628723925 17.5
v 27.6318304646849 117.525407347811 17.5
v 25.9726596718212 121.874533818298 17.5
v 25.0790143555743 121.317380008184 17.5
v 22.2959224737321 125.352541817642 17.5
v 23.5728141303747 135.317799987221 17.5
v 20.7363296515399 125.622642335748 17.5
v 21.5463509568862 121.671220716639 17.5
v 28.2894004967225 121.385872488778 17.5
v 21.7574156498293 123.586585485321 17.5
v 24.6288076580547 114.31485195338 17.5
v 20.1607917418303 131.158405201813 17.5
v 23.8991940641452 113.377931060989 17.5
v 21.7030256687086 131.459494573316 17.5
v 22.5213413185297 139.024095374552 17.5
v 20.0439222924344 122.021470410009 17.5
v 18.8908518665851 136.292366125239 17.5
v 19.1470957027849 119.839768643575 17.5
v 20.5772631510005 126.996369919555 17.5
v 21.9033196362677 114.395227204623 17.5
v 17.7570800077287 119.123541849814 17.5
v 20.1030391753487 138.066327380953 17.5
v 17.3335841906371 122.152486834583 17.5
v 20.1854324923328 118.7312852463 17.5
v 21.230947208638 115.437768363033 17.5
v 23.5576653030067 125.853847786108 17.5
v 22.8489928417072 126.743436998666 17.5
v 23.0460154771219 125.223633304228 17.5
v 31.2754311155238 124.067096530551 17.5
v 21.3928559749993 134.562992908155 17.5
v 18.0996951301392 134.202927322501 17.5
v 19.839003119997 117.249366621813 17.5
v 19.9943592743143 116.219150857601 17.5
v 18.7437121865327 126.250204300675 17.5
v 19.517791184733 126.123710129965 17.5
v 27.5054353174838 126.475881110733 17.5
v 28.6960005097045 119.750071484816 17.5
v 30.4430933997594 129.901893403324 17.5
v 29.2771797851232 121.262947841124 17.5
v 22.7869359423861 118.217938025253 17.5
v 19.5091628778713 134.472354025892 17.5
v 28.5143179808072 124.942692512324 17.5
v 28.4061961250601 123.857506623831 17.5
v 22.2064130229887 140.599480925235 17.5
v 21.6653057986567 137.770922651984 17.5
v 20.9590927434959 137.139636559431 17.5
v 22.8305277609673 140.200886022087 17.5
v 21.5958696448856 140.172071331343 17.5
v 26.4985148295663 132.225115951167 17.5
v 15.5173581391028 120.795614990924 17.5
v 35.5028303028908 127.374240002009 17.5
v 16.0843394876453 125.283982990002 17.5
v 26.3749500166009 120.27784455244 17.5
v 26.7318264445495 116.327345789399 17.5
v 21.0559526511587 113.930637062986 17.5
v 20.5148408644849 114.414887819887 17.5
v 29.1368035415489 130.555673380725 17.5
v 23.0285452885558 138.070996862591 17.5
v 36.3723108307136 126.334617525567 17.5
v 24.1281759418717 128.279058672888 17.5
v 21.922599134148 112.94947422244 17.5
f 360 275 15
f 442 90 206
f 223 283 143
f 263 14 275
f 377 17 18
f 333 142 223
f 18 238 377
f 325 142 287
f 487 229 32
f 462 202 443
f 324 33 34
f 377 124 262
f 229 143 356
f 473 193 284
f 352 127 502
f 514 120 268
f 367 127 198
f 355 219 21
f 352 284 127
f 236 26 27
f 236 27 374
f 504 191 500
f 500 23 24
f 500 24 25
f 414 85 226
f 275 144 212
f 370 162 344
f 322 74 75
f 482 181 375
f 420 54 55
f 412 309 258
f 369 129 292
f 348 243 160
f 430 84 316
f 172 214 244
f 332 52 53
f 345 70 71
f 52 244 51
f 336 50 214
f 49 243 48
f 458 69 70
f 58 511 512
f 506 121 432
f 265 148 185
f 47 48 348
f 467 164 251
f 289 102 480
f 476 125 240
f 446 66 67
f 218 517 60
f 413 125 218
f 467 251 469
f 313 174 420
f 218 60 62
f 221 72 73
f 469 63 64
f 358 160 432
f 60 61 62
f 515 1 2
f 371 330 508
f 330 43 342
f 322 381 455
f 384 13 263
f 381 75 76
f 280 100 273
f 213 409 77
f 234 168 399
f 308 101 189
f 494 168 261
f 9 399 274
f 310 135 245
f 397 98 428
f 456 122 319
f 354 264 158
f 256 7 318
f 135 228 245
f 245 4 5
f 264 98 397
f 312 141 269
f 3 312 515
f 386 85 259
f 371 250 41
f 425 94 204
f 405 128 296
f 34 35 223
f 190 298 272
f 328 139 189
f 353 78 79
f 451 285 177
f 439 203 97
f 327 88 305
f 368 73 74
f 196 89 394
f 263 13 14
f 490 105 296
f 205 343 461
f 474 91 288
f 332 53 217
f 331 231 92
f 219 20 21
f 227 480 315
f 270 58 59
f 216 146 180
f 418 345 71
f 36 311 333
f 470 253 386
f 416 115 247
f 424 112 211
f 439 97 385
f 416 247 415
f 398 118 213
f 267 81 269
f 232 99 389
f 278 187 376
f 190 100 297
f 234 10 11
f 366 106 187
f 322 368 74
f 480 102 315
f 420 55 313
f 194 429 279
f 447 45 46
f 276 338 406
f 305 88 222
f 404 105 383
f 433 114 392
f 396 106 239
f 278 99 427
f 450 107 343
f 364 417 329
f 451 108 285
f 323 133 209
f 475 205 206
f 306 83 380
f 486 132 331
f 284 29 30
f 495 111 454
f 351 94 425
f 12 384 457
f 494 100 280
f 152 349 230
f 262 16 17
f 411 114 287
f 370 39 40
f 276 199 246
f 317 153 247
f 445 235 301
f 484 107 364
f 402 117 254
f 203 440 441
f 302 118 225
f 434 86 303
f 430 180 255
f 362 129 222
f 374 192 236
f 363 124 377
f 408 422 172
f 447 431 45
f 272 122 190
f 310 245 5
f 400 164 258
f 510 68 265
f 359 144 262
f 238 19 314
f 64 467 469
f 240 365 481
f 288 126 184
f 53 54 217
f 334 127 193
f 501 120 236
f 295 128 194
f 371 41 42
f 290 129 369
f 460 170 427
f 297 130 190
f 373 136 303
f 512 195 291
f 315 138 227
f 347 132 259
f 387 95 468
f 209 133 321
f 474 288 184
f 341 134 237
f 279 176 326
f 346 135 256
f 391 141 312
f 298 220 373
f 407 173 282
f 20 314 19
f 443 200 92
f 321 227 316
f 300 131 208
f 335 186 328
f 366 187 327
f 299 140 212
f 384 12 13
f 269 141 267
f 391 507 245
f 37 241 311
f 468 151 402
f 357 143 283
f 497 193 229
f 277 201 359
f 212 140 263
f 318 145 256
f 346 456 319
f 496 146 216
f 248 185 393
f 409 213 302
f 302 225 147
f 70 345 458
f 393 94 248
f 380 149 338
f 317 89 350
f 339 379 406
f 293 130 196
f 283 142 325
f 438 90 442
f 226 416 414
f 415 201 349
f 505 153 299
f 513 167 261
f 296 404 405
f 383 162 250
f 254 155 387
f 85 230 259
f 434 186 335
f 485 118 304
f 118 224 304
f 271 122 272
f 213 158 398
f 354 80 267
f 282 159 376
f 364 107 466
f 506 160 243
f 372 294 163
f 281 161 253
f 385 246 426
f 241 344 392
f 370 40 250
f 44 188 342
f 294 128 405
f 66 233 65
f 258 93 400
f 389 165 232
f 108 472 323
f 444 166 281
f 442 206 166
f 215 286 112
f 453 196 423
f 399 168 274
f 261 167 452
f 72 221 418
f 290 222 129
f 427 170 278
f 119 204 260
f 242 171 445
f 162 383 410
f 408 172 288
f 214 50 51
f 339 173 249
f 437 375 282
f 56 313 55
f 489 300 488
f 455 308 175
f 454 221 368
f 326 176 408
f 479 266 176
f 341 237 449
f 285 165 389
f 329 181 364
f 107 450 466
f 337 179 295
f 491 235 490
f 255 180 119
f 146 248 351
f 375 181 329
f 483 183 441
f 205 182 483
f 484 181 482
f 483 306 183
f 380 338 516
f 320 184 133
f 126 289 184
f 257 185 123
f 148 292 393
f 434 303 186
f 498 239 499
f 376 187 106
f 170 459 187
f 342 188 372
f 44 45 431
f 328 189 101
f 139 327 305
f 298 190 130
f 122 273 190
f 219 355 471
f 503 23 500
f 471 236 120
f 478 29 352
f 32 229 401
f 334 198 127
f 295 194 87
f 128 294 429
f 240 195 476
f 291 56 57
f 379 104 419
f 130 297 423
f 388 307 197
f 356 143 357
f 307 486 110
f 367 200 502
f 246 199 115
f 394 89 199
f 502 200 501
f 443 202 137
f 349 201 113
f 361 144 201
f 268 443 137
f 92 231 462
f 440 203 166
f 441 516 203
f 180 425 119
f 94 292 204
f 206 205 109
f 463 207 343
f 440 206 109
f 301 235 116
f 491 337 116
f 449 177 450
f 365 208 131
f 93 309 208
f 390 209 84
f 165 285 464
f 472 210 323
f 134 326 210
f 215 424 140
f 112 513 421
f 361 212 144
f 96 299 212
f 78 213 77
f 78 353 213
f 448 214 172
f 121 506 336
f 299 215 140
f 350 89 453
f 316 216 430
f 496 309 146
f 488 289 174
f 126 244 332
f 63 218 62
f 125 270 218
f 314 219 137
f 21 22 355
f 293 220 130
f 492 249 136
f 290 493 111
f 418 71 72
f 465 222 111
f 88 260 362
f 324 223 143
f 333 311 142
f 428 224 397
f 485 156 225
f 335 225 156
f 101 382 225
f 395 226 85
f 395 161 426
f 316 227 138
f 133 184 480
f 319 403 135
f 98 264 228
f 401 229 193
f 32 33 487
f 231 347 113
f 259 155 386
f 277 462 113
f 92 367 331
f 390 255 232
f 232 460 427
f 67 257 446
f 435 164 233
f 457 234 11
f 211 112 234
f 475 301 116
f 171 410 235
f 501 236 192
f 191 504 236
f 449 237 177
f 134 210 472
f 19 238 18
f 137 202 363
f 499 239 139
f 136 249 396
f 436 400 240
f 93 208 365
f 38 241 37
f 38 39 344
f 287 242 151
f 114 433 242
f 431 447 160
f 336 214 121
f 477 244 126
f 214 51 244
f 6 256 310
f 228 141 391
f 426 246 115
f 97 276 246
f 415 247 96
f 115 317 247
f 412 248 146
f 123 185 248
f 220 492 136
f 104 339 249
f 41 250 40
f 250 404 383
f 65 467 64
f 164 436 251
f 402 252 117
f 151 242 438
f 281 253 117
f 161 395 253
f 325 468 95
f 117 253 470
f 232 255 119
f 232 165 390
f 7 256 6
f 145 346 256
f 435 446 123
f 67 68 510
f 435 258 164
f 123 248 412
f 347 259 230
f 132 388 259
f 509 362 260
f 459 170 460
f 421 261 168
f 513 286 167
f 359 262 124
f 144 360 262
f 15 275 14
f 140 211 384
f 353 354 158
f 141 228 264
f 257 510 185
f 68 69 265
f 422 266 121
f 103 372 358
f 81 267 80
f 141 264 267
f 219 514 137
f 120 501 268
f 82 269 81
f 82 1 515
f 511 270 476
f 517 218 270
f 224 428 157
f 403 228 135
f 378 272 86
f 157 271 272
f 280 273 145
f 100 190 273
f 318 274 145
f 8 9 274
f 263 275 212
f 15 16 360
f 338 276 97
f 150 199 276
f 201 277 113
f 124 202 277
f 187 278 170
f 159 329 278
f 194 279 134
f 479 176 279
f 274 280 145
f 274 168 280
f 252 444 117
f 166 203 281
f 407 282 106
f 437 83 375
f 357 283 95
f 223 142 283
f 31 473 30
f 193 127 284
f 466 285 178
f 464 209 165
f 350 286 215
f 453 167 286
f 311 411 142
f 114 242 287
f 408 288 91
f 172 477 288
f 217 289 126
f 217 174 289
f 493 290 169
f 111 222 290
f 481 291 195
f 489 174 313
f 369 292 148
f 129 509 292
f 419 293 196
f 104 220 293
f 342 372 163
f 429 194 128
f 337 295 87
f 179 296 295
f 295 296 128
f 179 490 296
f 452 297 100
f 423 196 130
f 220 298 130
f 86 272 298
f 247 505 96
f 153 215 299
f 315 300 208
f 488 174 489
f 90 301 206
f 445 171 235
f 381 409 147
f 213 118 302
f 373 303 86
f 136 498 303
f 157 304 224
f 157 378 304
f 465 305 222
f 189 139 305
f 482 306 182
f 83 340 380
f 197 307 110
f 197 155 388
f 465 495 189
f 455 147 382
f 208 309 138
f 93 258 309
f 6 310 5
f 256 135 310
f 37 311 36
f 241 114 411
f 515 312 269
f 3 4 507
f 291 313 56
f 291 131 489
f 238 314 137
f 20 219 314
f 300 315 102
f 208 138 315
f 496 316 138
f 321 133 227
f 199 317 115
f 199 89 317
f 8 318 7
f 8 274 318
f 271 319 122
f 271 98 403
f 323 320 133
f 210 91 320
f 84 321 316
f 84 209 321
f 368 322 175
f 75 381 322
f 464 323 209
f 210 320 323
f 223 324 34
f 143 229 487
f 283 325 95
f 287 151 325
f 210 326 91
f 134 279 326
f 239 366 139
f 187 88 327
f 335 328 101
f 186 499 328
f 278 329 99
f 159 375 329
f 405 508 163
f 42 43 330
f 486 331 198
f 132 231 331
f 126 332 217
f 244 52 332
f 35 333 223
f 35 36 333
f 497 334 193
f 110 198 334
f 225 335 101
f 156 434 335
f 49 336 243
f 49 50 336
f 449 337 87
f 207 463 337
f 516 338 97
f 149 339 406
f 379 339 104
f 149 340 339
f 437 340 83
f 173 339 340
f 194 341 87
f 194 134 341
f 330 342 163
f 43 44 342
f 116 463 205
f 207 450 343
f 392 344 162
f 241 38 344
f 369 345 169
f 148 265 458
f 456 346 145
f 319 135 346
f 113 347 230
f 231 132 347
f 47 348 46
f 48 243 348
f 230 349 113
f 152 415 349
f 153 350 215
f 153 317 350
f 146 351 180
f 248 94 351
f 374 478 192
f 29 284 352
f 354 353 79
f 158 213 353
f 80 354 79
f 267 264 354
f 503 355 22
f 471 120 514
f 110 356 197
f 497 229 356
f 387 357 95
f 197 356 357
f 103 358 266
f 188 431 358
f 277 359 124
f 201 144 359
f 262 360 16
f 144 275 360
f 96 361 201
f 96 212 361
f 88 362 222
f 260 204 509
f 137 363 238
f 202 124 363
f 417 364 178
f 181 484 364
f 481 365 131
f 240 93 365
f 139 366 327
f 239 106 366
f 331 367 198
f 92 200 367
f 454 368 175
f 221 73 368
f 345 369 148
f 169 290 369
f 162 370 250
f 344 39 370
f 330 371 42
f 154 250 371
f 358 372 188
f 103 294 372
f 298 373 86
f 220 136 373
f 28 374 27
f 478 352 192
f 282 375 159
f 83 482 375
f 282 376 106
f 159 278 376
f 17 377 262
f 238 363 377
f 304 378 156
f 157 272 378
f 293 419 104
f 406 338 149
f 306 380 183
f 340 149 380
f 409 381 76
f 147 455 381
f 225 382 147
f 101 308 382
f 154 404 250
f 410 171 433
f 140 384 263
f 211 457 384
f 439 385 161
f 97 246 385
f 254 470 155
f 253 85 386
f 197 387 155
f 197 357 387
f 259 388 155
f 132 307 388
f 417 389 99
f 178 285 389
f 209 390 165
f 84 255 390
f 507 391 312
f 245 228 391
f 410 433 162
f 114 241 392
f 148 393 185
f 292 94 393
f 150 394 199
f 150 419 394
f 253 395 85
f 161 385 426
f 136 396 239
f 249 407 396
f 398 397 224
f 158 264 397
f 397 398 158
f 224 118 398
f 10 399 9
f 10 234 399
f 240 400 93
f 240 125 436
f 473 401 193
f 31 32 401
f 468 402 254
f 151 252 402
f 271 403 319
f 98 228 403
f 405 404 154
f 296 105 404
f 508 405 154
f 163 294 405
f 150 406 379
f 150 276 406
f 396 407 106
f 249 173 407
f 326 408 91
f 448 121 214
f 77 409 76
f 302 147 409
f 105 410 383
f 105 235 410
f 142 411 287
f 311 241 411
f 309 412 146
f 258 123 412
f 63 469 218
f 251 125 413
f 230 414 152
f 230 85 414
f 201 415 96
f 152 416 415
f 414 416 152
f 226 426 416
f 389 417 178
f 99 329 417
f 493 418 221
f 169 345 418
f 394 419 196
f 150 379 419
f 217 420 174
f 217 54 420
f 234 421 168
f 234 112 421
f 176 422 408
f 176 266 422
f 452 423 297
f 167 453 423
f 140 424 211
f 215 112 424
f 119 425 204
f 180 351 425
f 416 426 115
f 226 395 426
f 232 427 99
f 232 119 460
f 271 428 98
f 271 157 428
f 103 429 294
f 103 279 429
f 180 430 216
f 255 84 430
f 358 431 160
f 188 44 431
f 266 432 121
f 266 358 432
f 162 433 392
f 171 242 433
f 378 434 156
f 378 86 434
f 446 435 233
f 123 258 435
f 251 436 125
f 164 400 436
f 173 437 282
f 173 340 437
f 151 438 252
f 242 90 438
f 281 439 161
f 281 203 439
f 206 440 166
f 441 183 516
f 109 441 440
f 109 483 441
f 444 442 166
f 252 438 442
f 200 443 268
f 92 462 443
f 117 444 281
f 252 442 444
f 90 445 301
f 90 242 445
f 123 446 257
f 233 66 446
f 348 447 46
f 348 160 447
f 422 448 172
f 422 121 448
f 337 449 207
f 87 341 449
f 449 450 207
f 466 178 364
f 237 451 177
f 237 472 451
f 494 452 100
f 167 423 452
f 350 453 286
f 89 196 453
f 308 495 175
f 111 221 454
f 308 455 382
f 175 322 455
f 273 456 145
f 273 122 456
f 12 457 11
f 211 234 457
f 148 458 345
f 265 69 458
f 88 459 260
f 88 187 459
f 260 460 119
f 260 459 460
f 205 461 182
f 343 107 461
f 113 462 231
f 277 202 462
f 205 463 343
f 116 337 463
f 108 464 285
f 108 323 464
f 495 465 111
f 189 305 465
f 177 466 450
f 177 285 466
f 233 467 65
f 233 164 467
f 387 468 254
f 325 151 468
f 413 469 251
f 413 218 469
f 155 470 386
f 254 117 470
f 191 471 355
f 191 236 471
f 451 472 108
f 237 134 472
f 30 473 284
f 31 401 473
f 320 474 184
f 320 91 474
f 205 475 116
f 206 301 475
f 511 476 195
f 270 125 476
f 288 477 126
f 172 244 477
f 28 478 374
f 28 29 478
f 103 479 279
f 103 266 479
f 133 480 227
f 184 289 480
f 291 481 131
f 195 240 481
f 306 482 83
f 182 484 482
f 205 483 109
f 182 306 483
f 461 484 182
f 461 107 484
f 156 485 304
f 225 118 485
f 110 486 198
f 307 132 486
f 324 487 33
f 324 143 487
f 102 488 300
f 102 289 488
f 291 489 313
f 131 300 489
f 491 490 179
f 235 105 490
f 337 491 179
f 116 235 491
f 104 492 220
f 104 249 492
f 418 493 169
f 221 111 493
f 168 494 280
f 261 452 494
f 175 495 454
f 308 189 495
f 316 496 216
f 138 309 496
f 110 497 356
f 110 334 497
f 303 498 186
f 136 239 498
f 328 499 139
f 186 498 499
f 26 504 25
f 503 22 23
f 502 501 192
f 200 268 501
f 352 502 192
f 127 367 502
f 191 503 500
f 191 355 503
f 25 504 500
f 26 236 504
f 96 505 299
f 247 153 505
f 160 506 432
f 243 336 506
f 3 507 312
f 4 245 507
f 371 508 154
f 330 163 508
f 292 509 204
f 129 362 509
f 185 510 265
f 257 67 510
f 512 511 195
f 58 270 511
f 57 512 291
f 57 58 512
f 421 513 261
f 112 286 513
f 137 514 268
f 219 471 514
f 82 515 269
f 2 3 515
f 203 516 97
f 183 380 516
f 59 517 270
f 59 60 517
