v -37.6558001339864 126.054616720527 -12.5
v -36.9836734829238 126.738171959694 -12.5
v -36.3115468318612 127.42172719886 -12.5
v -35.6394201807986 128.105282438027 -12.5
v -34.9672935297359 128.788837677194 -12.5
v -34.2951668786733 129.472392916361 -12.5
v -33.6230402276107 130.155948155528 -12.5
v -32.9509135765481 130.839503394695 -12.5
v -32.2787869254855 131.523058633862 -12.5
v -31.6066602744229 132.206613873028 -12.5
v -30.9345336233603 132.890169112195 -12.5
v -30.2624069722977 133.573724351362 -12.5
v -29.590280321235 134.257279590529 -12.5
v -28.9181536701724 134.940834829696 -12.5
v -28.2460270191098 135.624390068863 -12.5
v -27.5739003680472 136.30794530803 -12.5
v -26.9017737169846 136.991500547196 -12.5
v -26.229647065922 137.675055786363 -12.5
v -25.5575204148594 138.35861102553 -12.5
v -24.8853937637968 139.042166264697 -12.5
v -24.2132671127342 139.725721503864 -12.5
v -23.5411404616716 140.409276743031 -12.5
v -22.8690138106089 141.092831982198 -12.5
v -22.1968871595463 141.776387221365 -12.5
v -21.7706956622696 141.364031365255 -12.5
v -21.1021869754772 140.655090851447 -12.5
v -20.4649374632952 139.917934737814 -12.5
v -19.8616135668962 139.152772014458 -12.5
v -19.2946075809097 138.360326944288 -12.5
v -18.7658386959814 137.541874215903 -12.5
v -18.2765455157927 136.699225766184 -12.5
v -17.8270977548079 135.834661861762 -12.5
v -17.4168565111795 134.950810828873 -12.5
v -17.0441055993037 134.050494646626 -12.5
v -16.7060622000565 133.136566556719 -12.5
v -16.3989585366606 132.21176832966 -12.5
v -16.1181735752901 131.278628761095 -12.5
v -15.8583889040105 130.339414538479 -12.5
v -15.6137461899671 129.396134106114 -12.5
v -15.3779922135692 128.450587588297 -12.5
v -15.1446078153077 127.504451954159 -12.5
v -14.9069263302845 126.559389353805 -12.5
v -14.6582536171465 125.617166131174 -12.5
v -14.3920047537968 124.679768894484 -12.5
v -14.1018710903829 123.749501595518 -12.5
v -13.7820246798035 122.829044593793 -12.5
v -13.4273546617511 121.921455483513 -12.5
v -13.0337133862965 121.030095460164 -12.5
v -13.7188267369792 120.333332700435 -12.5
v -14.4039400876619 119.636569940705 -12.5
v -15.0890534383446 118.939807180975 -12.5
v -15.7741667890273 118.243044421245 -12.5
v -16.4592801397099 117.546281661516 -12.5
v -17.1443934903926 116.849518901786 -12.5
v -17.8295068410753 116.152756142056 -12.5
v -18.514620191758 115.455993382326 -12.5
v -19.1997335424407 114.759230622596 -12.5
v -19.8848468931234 114.062467862867 -12.5
v -20.569960243806 113.365705103137 -12.5
v -21.2550735944887 112.668942343407 -12.5
v -21.9401869451714 111.972179583677 -12.5
v -22.6253002958541 111.275416823948 -12.5
v -23.308504833951 111.947198637428 -12.5
v -23.9917093720479 112.618980450909 -12.5
v -24.6749139101449 113.29076226439 -12.5
v -25.3581184482418 113.962544077871 -12.5
v -26.0413229863387 114.634325891352 -12.5
v -26.7245275244356 115.306107704833 -12.5
v -27.4077320625325 115.977889518314 -12.5
v -28.0909366006295 116.649671331795 -12.5
v -28.7741411387264 117.321453145275 -12.5
v -29.4573456768233 117.993234958756 -12.5
v -30.1405502149202 118.665016772237 -12.5
v -30.8237547530172 119.336798585718 -12.5
v -31.5069592911141 120.008580399199 -12.5
v -32.190163829211 120.68036221268 -12.5
v -32.8733683673079 121.352144026161 -12.5
v -33.5565729054048 122.023925839641 -12.5
v -34.2397774435018 122.695707653122 -12.5
v -34.9229819815987 123.367489466603 -12.5
v -35.6061865196956 124.039271280084 -12.5
v -36.2893910577925 124.711053093565 -12.5
v -36.9725955958895 125.382834907046 -12.5
v -24.4417098961227 126.166100406394 -12.5
v -22.7019721099378 120.133778754583 -12.5
v -22.9156306271138 132.146874444244 -12.5
v -29.9193516691092 126.119937568025 -12.5
v -19.6401926347167 124.283837542693 -12.5
v -27.1369709985871 130.038921877329 -12.5
v -26.9683940435663 122.170364549766 -12.5
v -20.0321378866706 128.734297301123 -12.5
v -18.819081151257 120.55183910849 -12.5
v -22.2094163620225 135.897153665998 -12.5
v -22.6661867218966 116.4611463208 -12.5
v -25.5192998630618 118.581733558692 -12.5
v -25.6641554072278 133.757907820124 -12.5
v -19.6990454992465 131.940254439428 -12.5
v -22.762939472619 123.383228957115 -12.5
v -23.1524948398999 129.022226308303 -12.5
v -33.1334068508164 126.092624014142 -12.5
v -30.1543981861046 129.234017142858 -12.5
v -30.4400519315191 123.143534005031 -12.5
v -16.6050140147949 122.363893483089 -12.5
v -20.1435272581673 117.943060856146 -12.5
v -17.7217555302054 126.353884574761 -12.5
v -27.1717041866537 125.095662878635 -12.5
v -21.7885500509342 125.868826329179 -12.5
v -26.5643530481641 127.563146925732 -12.5
v -27.8237982969335 132.462053127788 -12.5
v -27.7118513896114 119.783266823099 -12.5
v -20.6999766803061 122.094335273476 -12.5
v -25.1510664565402 123.766384261418 -12.5
v -24.9577090302577 120.895393334614 -12.5
v -25.1889303618194 131.418576589909 -12.5
v -20.0377326463527 134.500156967459 -12.5
v -17.8606218764772 129.316764548888 -12.5
v -21.4459780822855 130.464165486717 -12.5
v -24.3475434323432 136.496641861629 -12.5
v -21.9116397981674 138.156783930201 -12.5
v -32.2707240538736 128.257740540826 -12.5
v -29.0278489285285 121.502455016721 -12.5
v -17.5333933083771 124.25532892476 -12.5
v -25.2355681132568 129.174586837691 -12.5
v -19.8171926917564 126.63150644932 -12.5
v -22.6537553567083 114.307126226328 -12.5
v -16.7317926313573 120.260137185522 -12.5
v -23.5535525476352 134.208634520695 -12.5
v -32.4668810894919 123.996907761205 -12.5
v -24.8619097792317 116.486576119063 -12.5
v -29.5727606699179 131.269431797966 -12.5
v -28.3314697532958 128.458540796961 -12.5
v -18.6100054739018 122.554169163531 -12.5
v -20.7097403646791 119.871112606075 -12.5
v -20.8773060239893 115.723544474262 -12.5
v -18.2091183493705 118.601576151585 -12.5
v -20.3417343691137 136.414055103552 -12.5
v -28.4576478298139 123.536574697896 -12.5
v -21.2434417016273 133.038279771937 -12.5
v -22.0519344941342 118.303622030027 -12.5
v -17.9872297675682 131.183930643605 -12.5
v -28.1624550989847 126.635404541604 -12.5
v -15.2478947844377 121.226411261461 -12.5
v -23.7628560046905 118.726453539081 -12.5
v -25.8584848778999 135.537168622949 -12.5
v -35.0069429087301 126.076962819096 -12.5
v -22.9798035914877 127.225246186217 -12.5
v -18.3989921383066 133.02986796036 -12.5
v -18.5965920647683 127.797576349594 -12.5
v -23.4141695512623 121.745713295152 -12.5
v -31.5208160679754 125.451645875739 -12.5
v -30.7072454113281 121.485441836577 -12.5
v -21.2829107742648 127.544063369112 -12.5
v -16.9261838056905 127.822887653468 -12.5
v -33.7984809402875 127.612045036644 -12.5
v -33.9503655654116 124.678947125999 -12.5
v -23.229156755969 124.999778666579 -12.5
v -21.1529027984656 123.664799541678 -12.5
v -31.694266267289 129.790096291842 -12.5
v -19.8393751428468 130.334552024357 -12.5
v -26.6596132761078 117.422030686402 -12.5
v -15.8847946194125 123.890958473654 -12.5
v -27.4069018376197 134.127072310995 -12.5
v -24.3785495193017 132.801137535162 -12.5
v -30.6965016022477 127.627189625659 -12.5
v -16.3088920691145 125.491154575521 -12.5
v -23.6842099753921 130.633834842218 -12.5
v -25.0009193946392 127.627522215338 -12.5
v -23.4784577630027 138.33097548656 -12.5
v -24.1199869305374 115.029927041975 -12.5
v -28.6971809364599 129.976565404928 -12.5
v -29.2642081041508 119.958251254136 -12.5
v -30.2431261028282 124.642831409236 -12.5
v -28.7381654631999 125.077817458559 -12.5
v -31.8816146307566 122.553335740145 -12.5
v -21.5569298522197 134.524988189667 -12.5
v -19.5896175308665 116.528883720529 -12.5
v -26.1849552864324 119.968293902638 -12.5
v -25.6443882525938 125.216911321816 -12.5
v -26.6679736042191 123.660958224627 -12.5
v -21.4747337522105 128.997955539481 -12.5
v -31.9163445311003 126.862114637197 -12.5
v -25.4749975520086 122.302561285971 -12.5
v -17.7035111442862 121.447436008078 -12.5
v -21.2926049105118 117.09189645062 -12.5
v -26.321791846097 132.406376241394 -12.5
v -18.8983085100534 125.520277946132 -12.5
v -19.486408185722 119.183203838636 -12.5
v -21.991680031658 121.41090709211 -12.5
v -22.2318249968904 139.640809152968 -12.5
v -23.0516983920263 137.005733832242 -12.5
v -15.1930155332668 122.647920774064 -12.5
v -29.3051855608205 127.448869624726 -12.5
v -27.7631853762146 118.345318244035 -12.5
v -29.2197270595106 132.630437984625 -12.5
v -20.8000142237004 124.960248137841 -12.5
v -24.0572910694578 122.949731798254 -12.5
v -24.5492583708043 135.144871993719 -12.5
v -18.6676806420638 134.378786005605 -12.5
v -19.1930808021775 135.652740391999 -12.5
v -28.2565253496854 131.217916251235 -12.5
v -20.5666732414987 137.789897756795 -12.5
v -22.4281782365725 133.564870928171 -12.5
v -30.5829844821977 130.457300748346 -12.5
v -19.6854510894917 133.244409259237 -12.5
v -21.0144489984736 131.72523705191 -12.5
v -27.0736572566218 128.749458197751 -12.5
v -26.9245491276092 126.34331696628 -12.5
v -23.1242689008166 117.637492503953 -12.5
v -21.5168560885401 136.955323104521 -12.5
v -26.9800679200016 131.308967262494 -12.5
v -27.0716945107892 120.893214198627 -12.5
v -24.5649759945827 117.730456166387 -12.5
v -18.9462424095233 117.5964502781 -12.5
v -25.6669082293227 126.48197207927 -12.5
v -24.0005020337523 120.009123866569 -12.5
v -22.1188958547951 124.444476882278 -12.5
v -16.9488573382197 118.712884191362 -12.5
v -23.3483101615038 135.424508076203 -12.5
v -22.6439521997473 113.033614201031 -12.5
v -20.0517776488962 123.131822306569 -12.5
v -21.8011018298755 122.627312508584 -12.5
v -20.0410468215366 120.979808690652 -12.5
v -24.4636548825212 124.809324257045 -12.5
v -16.1953449430295 126.768790445698 -12.5
v -25.8665083119587 130.310179446169 -12.5
v -21.0312801781472 114.504522811442 -12.5
v -33.1756796843449 129.04384499219 -12.5
v -28.4075690938627 133.492922780655 -12.5
v -31.1853952370154 128.686989936036 -12.5
v -22.2756566306729 128.152683320769 -12.5
v -31.3510446263659 124.306239833703 -12.5
v -24.2352415388629 128.534982570186 -12.5
v -15.5294331980466 120.058034820408 -12.5
v -17.0168922827361 130.524510006684 -12.5
v -20.9933494976432 138.87444382367 -12.5
v -24.0850149316341 131.700303065392 -12.5
v -22.0623371901971 115.387585361456 -12.5
v -26.6846320743368 118.875347652263 -12.5
v -23.6098630705926 113.690621174822 -12.5
v -32.9335910213383 122.967261750311 -12.5
v -19.0544039401362 129.428259101662 -12.5
v -16.7241839885566 128.988430589544 -12.5
v -21.115229959882 135.576240109328 -12.5
v -22.5309265252725 130.999728558903 -12.5
v -30.5450408282304 131.834966186806 -12.5
v -22.9044650124503 126.090101668673 -12.5
v -22.3029455765059 129.747585588631 -12.5
v -17.6624173296121 119.601842333956 -12.5
v -25.533462637816 136.694758908719 -12.5
v -24.5265003606959 137.704477636894 -12.5
v -23.6867002508216 123.992317878407 -12.5
v -24.7344379994875 130.19608977658 -12.5
v -25.6674351816892 115.69787279518 -12.5
v -28.7657117420723 118.917255327685 -12.5
v -32.8979525428318 125.013658654871 -12.5
v -23.7612894849074 116.712065443961 -12.5
v -27.1732717329125 135.24179272646 -12.5
v -25.0890792732465 119.793462203048 -12.5
v -21.737386054723 113.659178379793 -12.5
v -29.3181448288524 122.68080904803 -12.5
v -28.1616936628887 122.34077377563 -12.5
v -28.1765281190501 120.790844328491 -12.5
v -17.5067741840957 132.357278953263 -12.5
v -24.5840501134719 133.867122945475 -12.5
v -30.4557857261764 120.394326071072 -12.5
v -19.6137778959561 122.13693596412 -12.5
v -24.4870193364869 121.867087511991 -12.5
v -30.8865589023179 126.575216664719 -12.5
v -26.1531103476619 121.461668671579 -12.5
v -34.8882596412803 127.226741402107 -12.5
v -35.2830515960404 125.051202320069 -12.5
v -25.5736604469841 117.31386364089 -12.5
v -26.3351166800168 134.584868613338 -12.5
v -20.9058430012677 126.516324998965 -12.5
v -20.1968541034571 127.65507900464 -12.5
v -18.7591112966107 126.570912065992 -12.5
v -20.6977984329591 129.716105048256 -12.5
v -16.6584927006305 121.311418090697 -12.5
v -16.8545638059383 123.414963569208 -12.5
v -17.8479019692928 125.284830582829 -12.5
v -18.5837998491377 124.490776288062 -12.5
v -29.2941457279075 124.180475392577 -12.5
v -23.3691172615736 133.095547512218 -12.5
v -34.0741613638385 126.56169327123 -12.5
v -26.0451043946898 128.488551712638 -12.5
v -23.0988247761925 115.252840693448 -12.5
v -36.0137970124732 125.797941410434 -12.5
v -15.4441758556147 124.864031959984 -12.5
v -21.7812952296507 119.430267056521 -12.5
v -20.9988905327313 118.64649157752 -12.5
v -22.7743742545819 119.084832025919 -12.5
v -24.0441959312973 127.1559091389 -12.5
v -18.3784046918601 130.219530513921 -12.5
v -17.8909444690731 117.595385185895 -12.5
v -19.0478310999457 131.052592969574 -12.5
v -18.6279452761068 132.00990336926 -12.5
v -26.650048645989 133.401865581862 -12.5
v -32.8002795587366 127.380469720306 -12.5
v -22.6038472014133 134.673581452128 -12.5
v -27.9474029079753 124.425592591677 -12.5
v -17.5859556173548 122.686153572618 -12.5
v -19.0922795743276 123.438550572284 -12.5
v -18.7047243208517 121.551978874295 -12.5
v -33.9564980082205 123.667105517039 -12.5
v -21.0911120268733 120.857135569944 -12.5
v -31.3197917346883 131.166949130847 -12.5
v -27.4525221187132 123.043508561406 -12.5
v -26.4477150182361 116.396412266099 -12.5
v -23.2368622532727 139.349194745409 -12.5
v -25.3875030934165 132.787528503713 -12.5
v -19.950822510396 125.58547605498 -12.5
v -27.8765666935692 129.356320893396 -12.5
v -29.3886570679785 128.50372464111 -12.5
v -27.5285603163485 127.851678101316 -12.5
v -24.0207530240261 129.505003668142 -12.5
v -32.6735390432977 129.894544188557 -12.5
v -16.0699511306846 119.206923185948 -12.5
v -14.4651671095308 121.908007125615 -12.5
v -21.8958556042118 132.248010400912 -12.5
v -29.6725541885152 130.089555650734 -12.5
v -19.727559529206 137.220776747714 -12.5
v -20.1446176212684 135.464272199133 -12.5
v -19.8668528231305 115.540028667948 -12.5
v -34.0052233046143 128.553325735454 -12.5
v -22.2095081961617 117.361097962584 -12.5
v -31.7093841342576 121.56306130451 -12.5
v -17.0681966892668 131.492651706981 -12.5
v -26.3443628976795 129.437460452172 -12.5
v -20.5361172330199 133.683054939406 -12.5
v -20.3927755580991 132.599634091768 -12.5
v -34.1718518210681 125.60982682007 -12.5
v -26.6494262685406 136.071149989684 -12.5
v -19.6583380022744 120.114041571 -12.5
v -35.7192351808951 126.691146267447 -12.5
v -25.3932795346247 134.70890206335 -12.5
v -18.5896975088182 119.459118123899 -12.5
v -21.7474106577455 116.271328316212 -12.5
v -26.3618384195389 124.57422676612 -12.5
v -17.8765005356365 120.520329910045 -12.5
v -22.7380114546516 122.425062271569 -12.5
v -23.4192707277941 120.780157880241 -12.5
v -30.1535323846315 122.246788226705 -12.5
v -31.3680852613075 123.354649041166 -12.5
v -27.6949233006254 125.847617633652 -12.5
v -29.0893303731327 126.542727625627 -12.5
v -24.3933038873502 114.159021591068 -12.5
v -18.6366110413674 116.682199018597 -12.5
v -28.3888611191951 127.526725059153 -12.5
v -20.2499534635397 131.179417563575 -12.5
v -23.5598919598739 127.925770336213 -12.5
v -27.690749902245 121.561230633908 -12.5
v -16.0361254216727 127.659587793686 -12.5
v -25.8708951622236 123.157922963306 -12.5
v -29.863610290438 121.105333158172 -12.5
v -22.2022882944431 126.706776879582 -12.5
v -14.7285746071347 120.483164272278 -12.5
v -26.0743892175207 131.198564603788 -12.5
v -20.3649479755258 117.040766839729 -12.5
v -25.0509041704369 135.934844448498 -12.5
v -15.0138489151467 123.561645460806 -12.5
v -21.3365217667597 139.703758797187 -12.5
v -21.980224069676 140.496791016137 -12.5
v -22.6474986778198 138.671583305498 -12.5
v -34.7665307834618 124.328706232159 -12.5
v -15.9210958146651 121.801545649064 -12.5
v -21.8224905781281 120.330550179643 -12.5
v -25.091676377217 114.905268228113 -12.5
v -15.5096981497384 125.896378457338 -12.5
v -24.6374279810076 118.609794639489 -12.5
v -17.4756354109478 128.51838863389 -12.5
v -18.1256606785269 123.489699959903 -12.5
v -31.0053874752657 122.468757586445 -12.5
v -14.1199541364165 121.107419175887 -12.5
v -16.6021211492237 124.557143544657 -12.5
v -32.3570263664101 125.69687418263 -12.5
v -30.6953246261264 125.726459777867 -12.5
v -30.1016988234082 132.59809659792 -12.5
v -27.5891375783513 117.432177645171 -12.5
v -20.8494378274319 128.340855142322 -12.5
v -24.1725143514326 115.920441271007 -12.5
v -27.5740349562846 133.284218019666 -12.5
v -28.2560081864448 134.360349512957 -12.5
v -22.7849411588129 137.822970180834 -12.5
v -19.1468169809421 128.522707877055 -12.5
v -28.8921189644057 131.819169112714 -12.5
v -33.1413255633897 128.177549359601 -12.5
v -26.2325033297653 125.839172815749 -12.5
v -32.0671348769 124.785386073082 -12.5
v -23.174702982983 129.908417396328 -12.5
v -23.295910303866 131.388317683211 -12.5
v -17.5607540856392 133.213749370918 -12.5
v -30.3807382948197 128.415518808912 -12.5
v -30.1064714933057 126.977435308035 -12.5
v -31.5851285155455 127.689022782888 -12.5
v -16.071613174346 123.045695572113 -12.5
v -18.1052849967788 127.108385556904 -12.5
v -19.2504183646002 127.260102858682 -12.5
v -16.0330333002795 120.73961245961 -12.5
v -32.3215170107317 129.113208382694 -12.5
v -22.404417029242 125.261179955342 -12.5
v -23.9350824250267 125.479340483363 -12.5
v -18.4400730399811 135.217974312051 -12.5
v -21.7256915621183 131.264250074211 -12.5
v -31.2000422329845 120.797337649241 -12.5
v -30.0489460585962 119.659983748237 -12.5
v -19.3816708975452 118.333539783176 -12.5
v -18.3110581785166 128.585556781056 -12.5
v -17.0634624895888 126.947302580567 -12.5
v -29.2556386343494 133.477880359497 -12.5
v -25.3606238379924 137.529357984506 -12.5
v -32.0619607422392 130.637635449663 -12.5
v -28.5285282078085 125.885521660402 -12.5
v -19.5116640162433 136.419257575199 -12.5
v -17.8991760907668 134.000583062403 -12.5
v -17.125801763919 125.74159358544 -12.5
v -23.4715975554328 114.510087320939 -12.5
v -24.4898022056989 130.982768002828 -12.5
v -30.9398056909322 129.469208331963 -12.5
v -20.3630987747248 123.892581146024 -12.5
v -21.0112978061347 122.85509411293 -12.5
v -21.9427068222063 123.437017937331 -12.5
v -21.8504730057799 114.471211550573 -12.5
v -33.28629636138 124.168983030745 -12.5
v -23.8698886317986 137.1845880825 -12.5
v -22.9112725598582 124.247781666165 -12.5
v -29.2646615290967 129.344249735793 -12.5
v -26.2462164971248 118.156021128557 -12.5
v -27.5808501482853 130.738473990749 -12.5
v -19.1223661812686 132.656565887341 -12.5
v -27.4181095956566 127.020790912107 -12.5
v -32.6400572688874 122.16952508098 -12.5
v -19.8582741484966 129.525091327677 -12.5
v -22.9927625860486 136.176245844607 -12.5
v -20.3199291235361 119.132625999664 -12.5
v -16.535360168812 129.820340284147 -12.5
v -23.343123800427 116.021919410813 -12.5
v -24.7763350630102 132.105516732419 -12.5
v -28.5571451442513 118.118230276402 -12.5
v -22.2710935559351 128.950445987758 -12.5
v -34.6451296664483 128.022089993105 -12.5
v -25.6592969394377 116.520368463244 -12.5
v -21.3401003477869 117.905913645874 -12.5
v -24.2828956404743 138.486823973083 -12.5
v -29.6114892950659 125.27841767959 -12.5
v -26.5943661195742 130.608376221687 -12.5
v -23.6703524579711 132.368825612508 -12.5
v -24.9269240378498 126.818135377231 -12.5
v -25.2575892288209 128.379919509494 -12.5
v -25.7884345605082 127.736154418481 -12.5
v -22.7497481436867 140.258011403409 -12.5
v -16.8024247727703 119.481193653386 -12.5
v -28.9723834071558 120.703774638567 -12.5
v -28.509558095982 119.679772462946 -12.5
v -29.1149571781659 130.63655261179 -12.5
v -22.6330030913955 120.931504117052 -12.5
v -23.4749814104409 126.622309316705 -12.5
v -21.0063067557834 125.727855321839 -12.5
v -24.7540684743631 122.599692939578 -12.5
v -20.477060057487 115.053754521928 -12.5
v -32.1446598589702 123.287117594598 -12.5
v -30.0405089132752 123.853637218162 -12.5
v -17.8242223528545 127.82846388741 -12.5
v -24.1679000829615 121.112657422904 -12.5
v -27.1712866451418 116.745841508585 -12.5
v -26.9202900634415 119.643781622407 -12.5
v -25.7238497219125 119.33659694903 -12.5
v -25.552991670875 120.407565430324 -12.5
v -24.2835386117648 119.293334391096 -12.5
v -22.1302183686434 137.419371285131 -12.5
v -23.4642104360527 119.445134961581 -12.5
v -20.0763516948264 138.400050702786 -12.5
v -25.5844105290054 124.428157160231 -12.5
v -24.8877631606745 125.494749484911 -12.5
v -20.6579825756015 130.504106909492 -12.5
v -27.0636783540844 132.680158186075 -12.5
v -27.0132992811616 118.181765197323 -12.5
v -22.2217786609984 136.660965919736 -12.5
v -19.391264372772 134.004226577104 -12.5
v -19.6670351952584 117.347815827717 -12.5
v -20.6997745549408 134.914743256504 -12.5
v -26.6975208394426 122.891342468223 -12.5
v -27.1019443225237 124.314372602734 -12.5
v -22.0015443220824 135.154783532293 -12.5
v -21.293941325532 133.804036743966 -12.5
v -20.3203663528295 116.265169229985 -12.5
v -19.0197058266646 116.024915240571 -12.5
v -21.917216373416 138.932134077313 -12.5
v -33.4254614753156 126.952786443079 -12.5
v -30.9421799562864 124.952126260936 -12.5
v -24.896632238102 115.652372780991 -12.5
v -25.7758695386396 131.888956245627 -12.5
v -29.4112687728033 123.432324507409 -12.5
v -22.4639532205998 132.784387096373 -12.5
v -25.38573588268 121.536710634657 -12.5
v -26.2192538097088 122.208876333405 -12.5
v -16.3736113664121 128.327397252464 -12.5
v -26.236319068137 120.716416108823 -12.5
v -22.809789766144 118.327430418951 -12.5
v -29.5114109470419 119.108793843436 -12.5
v -24.3839608966735 123.653004647703 -12.5
v -17.2931157382133 129.818892403473 -12.5
v -27.7449287140158 123.718449595421 -12.5
v -21.4314721836219 129.730494038214 -12.5
v -24.0601139399735 135.762815644602 -12.5
v -19.1054449422018 130.320798361894 -12.5
v -31.7724949191558 126.141761334858 -12.5
v -21.6055319166629 125.075896529788 -12.5
v -21.3817333548082 124.369540994386 -12.5
v -17.5437772958043 118.258566419035 -12.5
v -22.6770543356794 121.688225875841 -12.5
v -21.2603519538711 121.591067770044 -12.5
v -19.3079994796998 121.114350156951 -12.5
v -17.2457043979133 120.882321362853 -12.5
v -22.2833259755144 127.427479509571 -12.5
v -24.8231447880392 137.043350509356 -12.5
v -29.8382684677923 127.937416446194 -12.5
v -27.8957770337333 125.149852766574 -12.5
v -17.9356508697325 116.870858510235 -12.5
v -23.858992088118 117.461280410001 -12.5
v -17.2311668949004 124.910449293133 -12.5
v -18.266928156844 125.876244437597 -12.5
v -19.3940253700889 126.045896286442 -12.5
v -19.4578699699569 125.015232416053 -12.5
v -32.4824434360991 126.410256488966 -12.5
v -24.0126993676714 133.42446700263 -12.5
v -28.0118337827449 119.074085444986 -12.5
v -21.5576758444072 128.209847335794 -12.5
v -21.5249955217163 136.204929009264 -12.5
v -21.9218138888357 112.956771907623 -12.5
v -14.4463057627626 123.114015525299 -12.5
v -17.1726768898119 117.641840469022 -12.5
v -17.2580774273168 122.030100756408 -12.5
v -18.1513311300579 122.005247837126 -12.5
v -29.638658042751 132.012815099574 -12.5
f 287 83 2
f 287 2 334
f 334 4 270
f 440 324 154
f 386 120 298
f 440 154 270
f 426 313 101
f 399 120 227
f 454 200 170
f 306 203 158
f 228 381 109
f 534 130 245
f 335 264 96
f 228 109 194
f 382 15 257
f 332 17 249
f 515 424 118
f 249 18 410
f 250 19 443
f 309 443 21
f 450 309 22
f 24 25 23
f 23 450 22
f 487 235 119
f 201 136 209
f 235 201 119
f 403 244 319
f 469 383 119
f 243 483 93
f 413 30 31
f 473 214 84
f 199 31 32
f 402 32 33
f 390 446 86
f 263 35 36
f 391 35 263
f 263 36 327
f 268 393 87
f 370 496 153
f 242 370 116
f 224 368 165
f 41 42 224
f 374 279 122
f 288 44 360
f 360 45 530
f 47 48 373
f 318 530 46
f 360 44 45
f 318 47 373
f 288 360 161
f 356 233 142
f 317 52 217
f 217 52 53
f 217 531 509
f 294 54 518
f 347 55 486
f 226 237 134
f 459 57 58
f 259 422 226
f 61 62 63
f 219 239 125
f 380 436 169
f 416 286 125
f 256 208 94
f 286 237 125
f 325 337 94
f 350 292 232
f 308 68 69
f 366 289 85
f 378 70 71
f 378 438 193
f 452 262 453
f 499 72 73
f 405 73 74
f 326 372 151
f 331 284 100
f 431 326 77
f 423 128 240
f 364 271 155
f 271 82 287
f 2 83 1
f 446 283 86
f 306 245 203
f 367 66 67
f 294 347 213
f 202 299 175
f 257 15 16
f 343 461 102
f 314 206 108
f 507 195 508
f 509 294 135
f 328 445 225
f 13 382 409
f 526 238 193
f 458 196 267
f 277 432 91
f 327 37 234
f 512 333 222
f 337 237 94
f 471 201 235
f 410 18 19
f 346 416 239
f 459 323 57
f 258 369 466
f 253 68 308
f 297 273 96
f 504 433 218
f 241 505 293
f 414 33 34
f 500 458 112
f 305 222 133
f 252 166 315
f 180 247 503
f 271 331 155
f 418 203 101
f 411 306 158
f 387 338 106
f 404 326 151
f 344 207 106
f 301 279 103
f 356 50 233
f 406 479 104
f 486 57 323
f 521 276 105
f 496 39 40
f 502 307 137
f 251 98 196
f 311 274 124
f 527 180 379
f 449 214 108
f 214 473 178
f 12 409 377
f 210 185 357
f 262 211 110
f 438 378 71
f 157 220 420
f 221 510 340
f 472 223 112
f 463 215 113
f 494 467 497
f 258 468 369
f 491 437 114
f 310 297 96
f 329 480 115
f 321 30 413
f 275 384 397
f 435 234 38
f 503 247 117
f 493 202 138
f 359 515 118
f 383 363 119
f 26 361 362
f 21 443 20
f 399 229 120
f 268 376 506
f 137 261 260
f 265 74 75
f 302 281 371
f 368 43 288
f 448 285 123
f 315 389 99
f 457 274 311
f 384 241 407
f 63 64 219
f 259 226 59
f 183 513 339
f 248 509 135
f 264 197 127
f 202 484 138
f 78 79 240
f 376 268 87
f 272 212 129
f 367 346 66
f 534 385 130
f 426 131 313
f 312 206 131
f 516 164 392
f 220 302 266
f 303 533 183
f 333 434 133
f 442 325 139
f 485 323 134
f 422 259 125
f 333 336 187
f 486 323 176
f 198 115 199
f 321 471 29
f 492 282 137
f 502 482 179
f 330 205 138
f 299 218 483
f 133 290 289
f 272 427 95
f 296 263 140
f 234 37 38
f 348 430 141
f 412 517 173
f 278 365 398
f 233 50 51
f 289 139 291
f 467 494 113
f 332 249 144
f 335 197 264
f 81 82 271
f 284 270 154
f 401 456 246
f 274 275 124
f 295 97 296
f 414 402 33
f 276 397 396
f 242 39 496
f 196 340 149
f 463 341 215
f 506 376 150
f 231 461 343
f 260 121 342
f 342 151 372
f 514 527 152
f 275 379 91
f 462 370 153
f 408 224 415
f 4 440 270
f 488 298 524
f 79 80 304
f 255 331 100
f 421 98 216
f 456 292 146
f 195 419 508
f 421 420 221
f 7 8 316
f 399 158 229
f 349 295 159
f 293 501 116
f 476 378 193
f 464 308 69
f 279 374 161
f 365 191 142
f 14 15 382
f 381 297 475
f 437 310 163
f 283 127 202
f 394 229 164
f 345 348 141
f 368 288 165
f 415 520 280
f 225 114 252
f 247 244 117
f 207 108 214
f 292 350 146
f 424 250 168
f 363 309 189
f 490 169 367
f 66 346 65
f 428 312 170
f 130 320 203
f 354 171 265
f 499 254 72
f 388 489 231
f 492 137 260
f 444 412 173
f 282 300 137
f 240 460 174
f 77 326 76
f 484 202 175
f 480 243 322
f 479 347 176
f 486 56 57
f 497 177 211
f 465 238 526
f 387 106 207
f 472 353 179
f 482 338 179
f 481 353 495
f 439 247 180
f 379 277 91
f 298 394 181
f 524 506 375
f 353 458 182
f 90 269 211
f 532 278 183
f 339 126 248
f 290 104 442
f 139 325 498
f 200 109 210
f 491 310 437
f 281 523 186
f 521 186 276
f 248 135 336
f 434 104 290
f 221 511 188
f 149 455 341
f 362 361 189
f 22 309 21
f 504 118 433
f 477 469 209
f 395 360 191
f 318 46 47
f 313 348 192
f 393 345 87
f 476 193 238
f 453 254 171
f 11 12 377
f 385 109 200
f 523 195 311
f 400 425 156
f 216 98 425
f 112 458 353
f 273 144 335
f 433 477 93
f 478 115 198
f 147 414 391
f 322 413 199
f 402 199 32
f 428 170 200
f 109 385 194
f 321 136 201
f 471 235 28
f 264 127 525
f 493 138 319
f 245 130 203
f 158 203 418
f 296 97 429
f 147 478 198
f 474 205 349
f 97 205 330
f 312 89 206
f 131 206 314
f 314 108 430
f 430 207 344
f 498 325 208
f 143 519 212
f 528 477 209
f 201 209 119
f 445 210 357
f 185 210 475
f 261 90 351
f 110 211 465
f 256 129 519
f 369 212 95
f 336 135 406
f 479 176 358
f 447 84 214
f 447 214 449
f 470 468 215
f 463 267 149
f 508 421 216
f 425 98 251
f 51 317 233
f 451 217 248
f 127 197 218
f 483 243 175
f 61 63 219
f 61 529 60
f 419 88 220
f 111 220 266
f 420 111 221
f 510 455 149
f 512 222 266
f 511 305 188
f 401 156 223
f 178 223 472
f 352 41 224
f 408 415 105
f 206 328 285
f 417 236 166
f 219 125 259
f 59 226 58
f 6 7 227
f 324 386 154
f 382 162 228
f 409 228 194
f 394 120 229
f 164 229 392
f 350 99 230
f 514 152 355
f 489 172 231
f 460 343 174
f 448 123 232
f 167 232 292
f 398 142 233
f 451 317 217
f 293 140 234
f 501 435 242
f 27 28 235
f 361 487 189
f 417 114 236
f 166 236 390
f 184 134 337
f 416 346 169
f 466 95 238
f 465 526 110
f 64 65 239
f 64 239 219
f 423 240 304
f 78 431 77
f 432 505 241
f 407 462 148
f 352 153 496
f 39 435 38
f 480 175 243
f 136 528 209
f 389 244 247
f 403 319 205
f 10 11 245
f 10 306 9
f 400 156 246
f 107 246 355
f 166 244 389
f 99 439 230
f 513 126 339
f 336 406 187
f 17 18 249
f 144 249 359
f 424 515 250
f 443 19 20
f 223 156 251
f 223 500 112
f 123 225 252
f 123 315 232
f 441 253 308
f 68 253 67
f 405 171 499
f 72 438 71
f 423 155 255
f 128 388 231
f 519 208 256
f 436 286 169
f 297 162 273
f 144 257 332
f 113 215 258
f 466 369 95
f 529 219 259
f 60 259 59
f 342 102 260
f 307 481 90
f 121 260 261
f 121 351 262
f 351 211 262
f 452 453 171
f 296 147 263
f 140 327 234
f 310 96 264
f 525 127 283
f 452 171 354
f 151 265 404
f 302 132 266
f 111 266 222
f 196 149 267
f 182 267 494
f 394 164 268
f 181 268 506
f 494 497 269
f 495 269 90
f 3 4 334
f 488 524 100
f 287 145 271
f 81 271 364
f 95 212 272
f 160 272 308
f 257 144 273
f 257 273 162
f 355 152 274
f 457 311 195
f 274 152 275
f 397 384 148
f 522 124 276
f 105 276 396
f 379 180 277
f 159 474 349
f 532 103 278
f 126 398 233
f 371 279 301
f 103 279 395
f 281 186 280
f 520 165 374
f 302 88 281
f 122 281 280
f 444 173 282
f 492 260 102
f 437 163 446
f 86 283 493
f 145 270 284
f 331 255 155
f 225 123 328
f 206 285 108
f 94 237 286
f 436 380 256
f 82 83 287
f 334 2 3
f 43 44 288
f 165 288 374
f 305 133 366
f 498 208 143
f 406 104 434
f 289 290 139
f 85 289 291
f 85 470 215
f 447 167 292
f 456 146 246
f 295 140 293
f 241 293 116
f 53 54 531
f 135 294 213
f 349 97 295
f 505 295 293
f 429 147 296
f 295 296 140
f 381 162 297
f 185 297 310
f 227 120 386
f 154 488 284
f 127 218 299
f 127 299 202
f 344 106 517
f 173 300 282
f 122 279 371
f 533 532 183
f 220 88 302
f 132 371 301
f 266 132 303
f 92 303 339
f 364 155 304
f 79 304 240
f 111 222 511
f 188 366 455
f 10 245 306
f 9 411 8
f 261 137 307
f 261 307 90
f 129 253 441
f 160 464 378
f 363 168 309
f 189 309 450
f 491 185 310
f 163 310 264
f 88 195 523
f 522 311 124
f 428 89 312
f 170 312 426
f 312 131 426
f 516 393 164
f 313 131 348
f 430 108 207
f 123 252 315
f 232 315 99
f 411 158 316
f 7 316 227
f 51 52 317
f 233 317 126
f 142 191 318
f 142 373 356
f 244 86 319
f 205 319 138
f 454 170 320
f 203 320 101
f 413 136 321
f 30 321 29
f 243 136 322
f 115 322 199
f 485 176 323
f 459 58 226
f 6 227 324
f 6 324 5
f 442 184 325
f 208 325 94
f 431 174 326
f 76 404 75
f 36 37 327
f 263 327 140
f 206 89 328
f 285 328 123
f 330 138 329
f 204 329 478
f 429 97 330
f 204 330 329
f 145 284 331
f 145 331 271
f 16 17 332
f 16 332 257
f 512 92 333
f 222 333 133
f 145 287 334
f 145 334 270
f 359 197 335
f 273 335 96
f 339 248 336
f 92 336 333
f 134 237 337
f 184 337 325
f 387 178 338
f 106 338 482
f 303 183 339
f 92 339 336
f 98 221 340
f 98 340 196
f 85 215 341
f 455 510 188
f 372 102 342
f 151 342 354
f 128 231 460
f 174 343 372
f 412 141 344
f 517 106 300
f 393 192 345
f 345 412 444
f 367 169 346
f 65 346 239
f 518 55 347
f 213 347 479
f 131 314 348
f 192 348 345
f 205 97 349
f 205 474 403
f 230 146 350
f 99 350 232
f 90 211 351
f 261 351 121
f 40 41 352
f 153 352 408
f 472 112 353
f 481 495 90
f 342 121 354
f 151 354 265
f 246 146 355
f 107 355 274
f 49 50 356
f 373 142 318
f 428 210 445
f 225 357 114
f 442 104 358
f 184 485 134
f 335 144 359
f 197 359 504
f 395 161 360
f 530 45 46
f 27 235 361
f 27 361 26
f 25 26 362
f 25 362 23
f 424 168 383
f 119 363 487
f 80 81 364
f 80 364 304
f 395 191 365
f 103 365 278
f 133 289 366
f 305 366 188
f 380 169 490
f 253 367 67
f 42 43 368
f 42 368 224
f 143 212 369
f 468 258 215
f 407 116 370
f 462 408 396
f 281 122 371
f 302 371 132
f 343 102 372
f 174 372 326
f 49 356 373
f 49 373 48
f 288 161 374
f 165 520 415
f 255 100 375
f 255 375 388
f 489 150 376
f 172 376 444
f 409 194 377
f 11 377 245
f 69 70 464
f 160 378 476
f 439 180 527
f 152 379 275
f 129 256 380
f 129 490 253
f 228 162 381
f 475 297 185
f 257 162 382
f 14 382 13
f 168 363 383
f 477 528 93
f 91 241 384
f 91 384 275
f 534 194 385
f 130 385 454
f 324 227 386
f 154 386 298
f 214 178 387
f 214 387 207
f 375 150 388
f 255 388 128
f 315 166 389
f 99 389 247
f 244 166 390
f 244 390 86
f 263 147 391
f 35 391 34
f 101 313 392
f 101 392 229
f 516 192 393
f 164 393 268
f 298 120 394
f 181 394 268
f 279 161 395
f 103 395 365
f 397 148 396
f 105 396 408
f 124 275 397
f 124 397 276
f 365 142 398
f 278 398 126
f 316 158 399
f 316 399 227
f 507 216 400
f 107 400 246
f 246 156 401
f 84 401 473
f 198 199 402
f 198 402 414
f 117 244 403
f 117 403 474
f 76 326 404
f 75 404 265
f 265 171 405
f 265 405 74
f 135 213 406
f 187 406 434
f 241 116 407
f 384 407 148
f 352 224 408
f 153 408 462
f 382 228 409
f 13 409 12
f 359 249 515
f 250 410 19
f 9 306 411
f 8 411 316
f 345 141 412
f 345 444 87
f 322 136 413
f 199 413 31
f 147 198 414
f 391 414 34
f 224 165 415
f 105 415 280
f 125 239 416
f 286 416 169
f 252 114 417
f 252 417 166
f 229 158 418
f 229 418 101
f 195 88 419
f 157 419 220
f 220 111 420
f 157 420 421
f 508 157 421
f 98 421 221
f 237 226 422
f 237 422 125
f 255 128 423
f 155 423 304
f 433 118 424
f 190 424 383
f 400 216 425
f 156 425 251
f 320 170 426
f 320 426 101
f 272 160 427
f 95 427 238
f 445 89 428
f 210 428 200
f 204 147 429
f 204 429 330
f 348 314 430
f 141 430 344
f 240 174 431
f 240 431 78
f 277 159 432
f 91 432 241
f 424 190 433
f 218 433 93
f 333 187 434
f 133 434 290
f 501 234 435
f 242 435 39
f 94 286 436
f 94 436 256
f 236 114 437
f 236 437 446
f 526 193 438
f 254 438 72
f 99 247 439
f 230 439 527
f 5 324 440
f 5 440 4
f 272 129 441
f 272 441 308
f 358 184 442
f 290 442 139
f 168 250 443
f 168 443 309
f 376 87 444
f 172 444 282
f 328 89 445
f 225 445 357
f 163 283 446
f 236 446 390
f 292 84 447
f 167 447 449
f 449 285 448
f 167 448 232
f 448 167 449
f 285 449 108
f 362 189 450
f 362 450 23
f 126 317 451
f 126 451 248
f 121 262 452
f 121 452 354
f 526 254 453
f 110 453 262
f 385 200 454
f 130 454 320
f 85 341 455
f 85 455 366
f 84 292 456
f 84 456 401
f 107 274 457
f 107 457 507
f 500 196 458
f 182 458 267
f 134 323 459
f 134 459 226
f 231 343 460
f 128 460 240
f 172 282 461
f 172 461 231
f 407 370 462
f 148 462 396
f 149 341 463
f 267 463 113
f 160 308 464
f 378 464 70
f 177 238 465
f 177 465 211
f 467 258 466
f 177 466 238
f 466 177 467
f 258 467 113
f 143 369 468
f 143 468 470
f 190 383 469
f 209 469 119
f 291 143 470
f 291 470 85
f 321 201 471
f 29 471 28
f 338 178 472
f 338 472 179
f 223 178 473
f 223 473 401
f 277 117 474
f 277 474 159
f 109 381 475
f 109 475 210
f 427 160 476
f 427 476 238
f 190 469 477
f 190 477 433
f 329 115 478
f 204 478 147
f 406 213 479
f 104 479 358
f 484 175 480
f 115 480 322
f 179 353 481
f 179 481 307
f 300 106 482
f 300 482 502
f 218 93 483
f 299 483 175
f 329 138 484
f 329 484 480
f 358 176 485
f 358 485 184
f 55 56 486
f 347 486 176
f 361 235 487
f 189 487 363
f 154 298 488
f 284 488 100
f 376 172 489
f 150 489 388
f 129 380 490
f 253 490 367
f 357 185 491
f 357 491 114
f 461 282 492
f 461 492 102
f 283 202 493
f 86 493 319
f 267 113 494
f 182 494 495
f 494 269 495
f 182 495 353
f 370 242 496
f 352 496 40
f 467 177 497
f 269 497 211
f 291 139 498
f 291 498 143
f 171 254 499
f 405 499 73
f 251 196 500
f 251 500 223
f 293 234 501
f 116 501 242
f 179 307 502
f 300 502 137
f 277 180 503
f 277 503 117
f 359 118 504
f 197 504 218
f 159 295 505
f 159 505 432
f 524 181 506
f 375 506 150
f 457 195 507
f 107 507 400
f 419 157 508
f 507 508 216
f 531 294 509
f 217 509 248
f 221 188 510
f 340 510 149
f 222 305 511
f 111 511 221
f 303 92 512
f 303 512 266
f 278 126 513
f 278 513 183
f 146 230 514
f 146 514 355
f 410 250 515
f 410 515 249
f 313 192 516
f 313 516 392
f 412 344 517
f 173 517 300
f 54 55 518
f 294 518 347
f 143 208 519
f 212 519 129
f 122 280 520
f 122 520 374
f 280 186 521
f 280 521 105
f 523 311 522
f 186 522 276
f 281 88 523
f 186 523 522
f 298 181 524
f 100 524 375
f 163 264 525
f 163 525 283
f 453 110 526
f 254 526 438
f 514 230 527
f 152 527 379
f 243 93 528
f 243 528 136
f 61 219 529
f 60 529 259
f 191 360 530
f 191 530 318
f 54 294 531
f 53 531 217
f 301 103 532
f 301 532 533
f 132 301 533
f 132 533 303
f 377 194 534
f 377 534 245
