v 0 91.4001869815835 30
v 0 92.3806013444364 30
v 0 93.3610157072892 30
v 0 94.3414300701421 30
v 0 95.321844432995 30
v 0 96.3022587958478 30
v 0 97.2826731587007 30
v 0 98.2630875215536 30
v 0 99.2435018844064 30
v 0 100.223916247259 30
v 0 101.204330610112 30
v 0 102.184744972965 30
v 0 103.165159335818 30
v 0 104.145573698671 30
v 0 105.125988061524 30
v 0 106.106402424376 30
v 0 107.086816787229 30
v 0 108.067231150082 30
v 0 109.047645512935 30
v 0 110.028059875788 30
v 0 111.008474238641 30
v 0 111.988888601494 30
v 0 112.969302964347 30
v 0 113.949717327199 30
v 0 114.930131690052 30
v 0 115.910546052905 30
v 0 116.890960415758 30
v 0 117.871374778611 30
v 0 118.851789141464 30
v 0 119.832203504317 30
v 0 120.812617867169 30
v 0 121.793032230022 30
v 0 122.773446592875 30
v 0 123.753860955728 30
v 0 124.734275318581 30
v 0 125.714689681434 30
v -10.8188 141.363353351956 30
v -11.7344571428571 140.999381931148 30
v -12.6501142857143 140.63541051034 30
v -13.5657714285714 140.271439089533 30
v -14.4814285714286 139.907467668725 30
v -15.3970857142857 139.543496247918 30
v -16.3127428571429 139.17952482711 30
v -17.2284 138.815553406303 30
v -17.3019019826807 138.216768030016 30
v -17.4218619734979 137.226008794946 30
v -17.5410628266987 136.235157841079 30
v -17.6611855954109 135.244418376337 30
v -17.7841939907898 134.254033575925 30
v -17.9124020920496 133.26430959043 30
v -18.0485628977987 132.275650383243 30
v -18.1959848168835 131.288611102227 30
v -18.3586853552411 130.303980929215 30
v -18.5415932754926 129.322913441157 30
v -18.7508107273175 128.347134264252 30
v -18.9939405322909 127.379274551493 30
v -19.2804587274161 126.423405739843 30
v -19.6220401679941 125.485878426397 30
v -20.0325707472877 124.576553687578 30
v -20.5272459376726 123.710320121216 30
v -21.1197919045973 122.90812976841 30
v -21.8172760817187 122.195592179401 30
v -22.6145711154316 121.596990890754 30
v -23.4936567758494 121.126483999476 30
v -24.4300568760233 120.783374557213 30
v -25.4011079243567 120.555219611815 30
v -26.3901775820437 120.424564289797 30
v -27.386676239154 120.374073406303 30
v -27.386676239154 119.374973874416 30
v -27.386676239154 118.375874342529 30
v -27.386676239154 117.376774810642 30
v -27.386676239154 116.377675278755 30
v -27.386676239154 115.378575746868 30
v -27.386676239154 114.379476214982 30
v -27.386676239154 113.380376683095 30
v -27.386676239154 112.381277151208 30
v -27.386676239154 111.382177619321 30
v -27.386676239154 110.383078087434 30
v -27.386676239154 109.383978555547 30
v -27.386676239154 108.38487902366 30
v -27.386676239154 107.385779491773 30
v -27.386676239154 106.386679959887 30
v -27.386676239154 105.387580428 30
v -27.386676239154 104.388480896113 30
v -27.386676239154 103.389381364226 30
v -27.386676239154 102.390281832339 30
v -27.386676239154 101.391182300452 30
v -27.386676239154 100.392082768565 30
v -27.386676239154 99.3929832366785 30
v -27.386676239154 98.3938837047916 30
v -27.386676239154 97.3947841729047 30
v -27.386676239154 96.3956846410179 30
v -27.386676239154 95.396585109131 30
v -27.386676239154 94.3974855772441 30
v -27.386676239154 93.3983860453572 30
v -27.386676239154 92.3992865134704 30
v -27.386676239154 91.4001869815835 30
v -0.970141945476601 125.75545518984 30
v -1.93344407713109 125.877464305068 30
v -2.88311480403632 126.079856823477 30
v -3.81245864106802 126.361205812492 30
v -4.71492341423594 126.719527670938 30
v -5.58414645562507 127.152296114065 30
v -6.41399946225799 127.656459984678 30
v -7.19863170260871 128.228464764772 30
v -7.93251126614819 128.864277636039 30
v -8.61046406509903 129.55941591253 30
v -9.22771031342411 130.308978645046 30
v -9.77989822586083 131.107681174407 30
v -10.2631346994118 131.949892390005 30
v -10.6740127609772 132.829674430952 30
v -11.0096355876151 133.740824549916 30
v -11.2676369300777 134.676918844492 30
v -11.4461977956325 135.631357547783 30
v -11.5440592725482 136.597411558895 30
v -11.5605314058284 137.568269885261 30
v -11.4954980616171 138.537087662342 30
v -11.3494177459802 139.497034412132 30
v -11.1233203722892 140.441342200228 30
v -26.4085806591842 91.4001869815835 30
v -25.4304850792144 91.4001869815835 30
v -24.4523894992446 91.4001869815835 30
v -23.4742939192748 91.4001869815835 30
v -22.4961983393051 91.4001869815835 30
v -21.5181027593353 91.4001869815835 30
v -20.5400071793655 91.4001869815835 30
v -19.5619115993957 91.4001869815835 30
v -18.5838160194259 91.4001869815835 30
v -17.6057204394561 91.4001869815835 30
v -16.6276248594863 91.4001869815835 30
v -15.6495292795166 91.4001869815835 30
v -14.6714336995468 91.4001869815835 30
v -13.693338119577 91.4001869815835 30
v -12.7152425396072 91.4001869815835 30
v -11.7371469596374 91.4001869815835 30
v -10.7590513796676 91.4001869815835 30
v -9.78095579969785 91.4001869815835 30
v -8.80286021972807 91.4001869815835 30
v -7.82476463975828 91.4001869815835 30
v -6.8466690597885 91.4001869815835 30
v -5.86857347981871 91.4001869815835 30
v -4.89047789984892 91.4001869815835 30
v -3.91238231987914 91.4001869815835 30
v -2.93428673990936 91.4001869815835 30
v -1.95619115993957 91.4001869815835 30
v -0.978095579969789 91.4001869815835 30
v -13.697016361797 105.887130193943 30
v -11.3589811081119 117.003455945339 30
v -18.8179296707535 112.76821942139 30
v -8.31381242974317 99.6355764965969 30
v -19.125356077737 99.6540957420687 30
v -7.58886106781789 110.406471587901 30
v -20.400209084369 106.244646588532 30
v -11.8711115103973 123.576752028016 30
v -6.24808761370092 120.603602332764 30
v -17.1306493243006 118.482477311158 30
v -13.2171999927131 111.590248954666 30
v -13.7182473231283 100.425336798254 30
v -5.80511493590147 104.87656934159 30
v -6.43530437980125 115.44150718184 30
v -22.4046299547029 116.229203407219 30
v -12.2261947496223 96.0228461091052 30
v -4.84711826765017 96.2474215097276 30
v -13.7403736458395 128.151626992963 30
v -22.0071505493202 96.0157323960626 30
v -22.9093981020494 110.882627853377 30
v -22.9683507499045 101.890732066396 30
v -17.1166726494712 95.7570712946763 30
v -16.9001539405895 108.849391037474 30
v -4.21241386625269 100.714123428686 30
v -16.8680773363098 103.168518709253 30
v -10.5610415795109 103.144002140689 30
v -16.0441365398558 123.323238190465 30
v -4.02001677226374 108.505014404305 30
v -15.4495577962367 114.87985695482 30
v -9.21055754669753 106.830733989108 30
v -9.88292762647784 113.471220034043 30
v -14.3200713454518 132.004034547878 30
v -8.50811667105827 95.1973746261435 30
v -3.90516177145518 112.433755033624 30
v -13.6323734593572 120.13293252324 30
v -8.00247910870737 124.089475628201 30
v -23.8818431687831 106.88622972583 30
v -3.49129732292537 117.381167597184 30
v -3.33057721314505 122.283239411449 30
v -10.6215481480738 126.756636184073 30
v -9.9424791628492 120.420414940994 30
v -19.9284304462857 109.796098644082 30
v -20.4670977911247 118.99298209193 30
v -19.9462503130721 102.663473173164 30
v -14.5494517545416 135.369786349694 30
v -10.6855134694908 109.655278567665 30
v -18.4051632370756 121.310857799731 30
v -8.40300355247781 117.78013933988 30
v -3.04199112904863 103.547904366589 30
v -18.3285678636762 115.729958087415 30
v -22.0654076892138 99.0223311522555 30
v -6.77454970200447 102.119693608765 30
v -16.2280440050841 98.6812967171701 30
v -12.6076353450011 114.407142202184 30
v -24.2685209624459 113.708057381846 30
v -16.1275850804679 111.656136462168 30
v -13.9897688528347 108.783503529972 30
v -16.5539466872261 106.010819146697 30
v -24.4387710215704 94.3484682449283 30
v -24.5005414370734 97.4712831764163 30
v -14.5298562800388 117.502551707938 30
v -21.5354658562352 113.283139400588 30
v -13.3193967523444 103.154724357325 30
v -10.9598921502948 100.414614581617 30
v -6.56184437629171 107.502192902985 30
v -16.1577784146956 126.341250094745 30
v -9.9511440985713 97.4839045398916 30
v -24.6485646497335 117.875694542864 30
v -2.83292086806939 98.239656062569 30
v -14.5857282874759 94.3129077517059 30
v -19.6452064559701 94.3115548619417 30
v -19.5013233369955 96.9941166548293 30
v -2.83857619436224 94.2389977676802 30
v -6.51154193709607 112.809312504963 30
v -12.3135005240445 130.336157482645 30
v -14.0462966168619 124.909611469091 30
v -15.9903224455942 129.354844700314 30
v -22.5113988390637 104.555562609072 30
v -8.24725188600696 104.186443450055 30
v -2.67219437521336 106.195900406734 30
v -24.8566200812111 103.586116310073 30
v -5.71724083001586 123.055187181942 30
v -3.98846777291175 114.931740528364 30
v -6.18293252557591 93.9976743268577 30
v -5.92372337551898 117.86906198209 30
v -16.0290530726787 120.680222885018 30
v -21.8320898438468 108.241920953149 30
v -2.58704960192813 119.805191391651 30
v -10.7353103204199 93.9518730892774 30
v -7.147649064847 97.3611676767523 30
v -11.6618266056254 107.348077464402 30
v -14.5914180445391 96.8036811795103 30
v -24.8483306366229 109.23791726322 30
v -18.6903600403244 104.642032260301 30
v -24.808459377666 100.053360191348 30
v -12.3467815703538 98.4360597758727 30
v -22.2091096265994 93.7034496627775 30
v -2.39158844901328 110.518267057214 30
v -9.44412194331704 115.729113635581 30
v -13.908592140806 137.629529910663 30
v -17.1137936713003 100.84421458557 30
v -25.0993466585067 111.568797626607 30
v -5.14722226220507 98.5712152018589 30
v -17.5616123318336 93.6011252364534 30
v -18.4103836152165 107.22479685218 30
v -11.6025450624573 105.117448480985 30
v -22.5457658768526 118.389183572457 30
v -2.13140297781411 100.252506959257 30
v -18.0600073436572 110.791506253953 30
v -8.40373406136963 126.314958303178 30
v -20.9062603481274 100.784952858821 30
v -5.24441151573457 110.506858227334 30
v -2.05652926442384 113.459510145773 30
v -24.4510432284279 115.792559843182 30
v -18.1940557491067 123.454404097331 30
v -13.8962776432506 122.440188348758 30
v -15.0981715273815 102.020823908447 30
v -15.1916019921627 104.421743943904 30
v -9.18804116239026 101.549526816616 30
v -9.78454155382152 122.684319794663 30
v -9.98102043966121 124.766111942765 30
v -15.8140093035796 133.495651348936 30
v -2.0172194614709 115.514805640193 30
v -20.4619491110143 115.20109905182 30
v -3.93550060338975 124.27921183784 30
v -8.14091097805759 121.432193047343 30
v -6.05519296392214 125.116881787789 30
v -13.172537089488 133.772932704782 30
v -4.67580898551782 106.574313810307 30
v -2.02812564788885 108.119758039785 30
v -2.12266831845212 96.2383189056974 30
v -4.98719689279284 103.040069454231 30
v -16.3316454140926 116.661782448616 30
v -16.9365207188031 113.509438525436 30
v -14.6406221579016 113.026554891552 30
v -7.99516726289487 114.169484871123 30
v -1.99983221215112 123.776204873116 30
v -10.7834013295099 128.869765085658 30
v -16.2012984856777 131.338981760506 30
v -8.23543731467778 108.544100869786 30
v -6.12174332288436 100.271685444499 30
v -18.9661657027412 117.644377314229 30
v -11.1012106265413 111.7350823011 30
v -12.6466482934927 126.412979405257 30
v -12.7686162215507 118.369919130405 30
v -12.0287360946807 121.485077355562 30
v -12.6599501533284 94.13846038551 30
v -8.31381242974317 93.2722593857049 30
v -4.58999022042632 119.413773831739 30
v -20.4320926176611 111.677810254963 30
v -8.38094781022335 112.204535147236 30
v -25.3763063307021 105.533639513352 30
v -14.216535191647 130.087635776969 30
v -15.4728835301742 107.583069911778 30
v -14.2004308386353 98.6255025724568 30
v -7.57269955536426 105.929790157188 30
v -20.7711241274731 117.145080530751 30
v -10.1761678347157 118.515205420056 30
v -18.0212611909493 98.1414809962831 30
v -8.30148293485175 119.608285127059 30
v -13.1032490979278 116.243916148755 30
v -10.4370474020255 95.7387183646431 30
v -11.944872022442 101.952387728923 30
v -20.6505046845882 104.393559273638 30
v -20.0297799733888 108.002500208397 30
v -15.4192659051925 109.9514693566 30
v -17.7467097714149 125.333605117264 30
v -25.551506469474 95.8884763193179 30
v -12.3575879545074 132.150885172462 30
v -25.5730229626336 107.565640594612 30
v -22.1872886001383 106.314388845845 30
v -15.6033951879499 136.889428155019 30
v -24.736148541511 101.821052314651 30
v -1.81741835585415 118.137421067765 30
v -20.3220731724356 120.940036312027 30
v -4.95947520474757 116.398174584083 30
v -15.1131217984213 119.169861658115 30
v -4.44744177559654 93.2409250437205 30
v -6.52207781908232 95.7204973210771 30
v -11.6050112273339 119.738995166338 30
v -9.79496272612314 105.120227569296 30
v -4.07022617133895 104.947023937346 30
v -9.56686401273073 110.960311924069 30
v -10.9334609897569 114.846969971844 30
v -1.67602103762861 104.635780880097 30
v -15.4625489277137 100.25760257113 30
v -2.8752989556657 101.820458840275 30
v -12.2707682139583 108.965925090003 30
v -9.35978676057722 127.916042596275 30
v -21.7053393224861 103.045750331361 30
v -18.6877890803062 119.463731980642 30
v -21.888936630548 120.007913674938 30
v -1.75857275922852 121.404342426931 30
v -4.6113447567955 121.134258347671 30
v -18.2802820173315 102.14267131452 30
v -5.06079289099212 113.645597420039 30
v -6.36309294515089 109.206202936566 30
v -17.0237080799659 127.900816884763 30
v -15.3648879143239 127.801674104169 30
v -20.4108003219785 98.4792236809131 30
v -25.7007448654983 114.632891834204 30
v -13.130270069086 136.188053877083 30
v -19.4794978229124 122.498832432805 30
v -10.2230301991832 108.099406120174 30
v -14.5627898473353 126.420751343992 30
v -23.1773155366692 109.233223797021 30
v -1.5228329232242 102.674952154391 30
v -21.3922366681326 110.41255509672 30
v -18.5547985841028 108.873300684228 30
v -23.1808931142046 114.8535339587 30
v -23.6834737998547 112.249878202222 30
v -11.4325855746427 125.397334378867 30
v -23.7319719528937 95.924467374048 30
v -25.8108746382619 113.02021021566 30
v -25.8563363057587 118.919885037181 30
v -25.8811410962317 116.877225044699 30
v -16.0949153293046 135.048882963612 30
v -24.9414372892295 92.876618038515 30
v -16.9514444869346 121.99650956717 30
v -15.876771919678 93.133806082844 30
v -9.89699250491186 99.1415036321598 30
v -19.0728638094108 92.8710542252499 30
v -20.7018976474479 93.0577556744842 30
v -6.91661243409462 98.915797020689 30
v -11.8279263155121 127.726997697549 30
v -12.2407034729194 112.853339261649 30
v -25.7189469789975 98.6353842632278 30
v -7.87864158956921 116.224215468194 30
v -16.1812925103332 97.0699564026545 30
v -23.8773401117004 119.279788452622 30
v -14.1823859095619 92.8434182902409 30
v -1.43882579311504 94.8316372515685 30
v -4.29502962075059 94.7910006075183 30
v -24.0083906242592 104.855561209953 30
v -15.6277571732286 124.850062286281 30
v -22.8098736597559 97.5040422763841 30
v -22.3881757395639 100.497046139068 30
v -11.985321339932 110.476926968458 30
v -1.42061190407156 98.75329470298 30
v -16.8988653552 115.271709625267 30
v -18.2966278892489 114.203383272595 30
v -1.65075228587049 93.0516671466183 30
v -2.46462601242857 112.016293420682 30
v -19.4771189716789 101.23916080642 30
v -25.9113352709372 94.456472927685 30
v -7.19224281992069 118.629795073585 30
v -20.0471267070501 113.709502235317 30
v -20.9883393837108 97.1045051715499 30
v -20.4953620550078 95.622146301896 30
v -23.6849718696427 98.8779399357609 30
v -17.2988264309869 119.941728674457 30
v -5.41453829038983 101.560810230055 30
v -6.36784029186377 103.525562396373 30
v -7.79140863456072 101.03082758128 30
v -6.76509817323012 121.998816813731 30
v -13.6903814292341 95.560346235039 30
v -16.0734415681605 94.6455046473304 30
v -18.2900615422239 94.8753469700001 30
v -14.6735875797767 111.570405222591 30
v -13.4136966931031 110.134636346001 30
v -13.2385147133099 107.39645522007 30
v -17.49292792407 112.163381468925 30
v -10.5926954159037 106.347863960695 30
v -26.0096871961498 100.891632534509 30
v -12.2261947496223 92.7600068654066 30
v -14.0728283006997 114.377582032937 30
v -9.91724268541782 117.094019571242 30
v -16.9030389778885 107.408640583056 30
v -16.6159294271547 104.579160413946 30
v -15.1296192522341 105.853402676655 30
v -23.4535926954195 92.8879305642953 30
v -3.81597088190447 110.005178038877 30
v -17.6980399980344 99.5366685788305 30
v -3.07601587226361 92.8259842155149 30
v -3.37716324239837 99.5580069686975 30
v -3.48275678210632 96.8823374542041 30
v -19.5864023284893 116.374421659574 30
v -1.40251729416648 106.840577557409 30
v -17.6416382141143 117.172564988337 30
v -1.4061925365076 109.440797437592 30
v -8.57877926705689 96.7513912677014 30
v -8.34374019137766 98.1840622098455 30
v -9.10765363039596 103.007130413308 30
v -25.949911765131 102.624852193412 30
v -10.5664565924161 101.75095727277 30
v -26.0845560587489 109.883528321491 30
v -23.6222583898665 116.922076433768 30
v -15.8342445141641 117.981920218762 30
v -14.5532962792522 116.038167979682 30
v -13.3793183762713 97.4964146350522 30
v -16.7283329485168 110.407022060345 30
v -22.9014471431202 113.499111953243 30
v -21.8622115937986 111.876711570198 30
v -14.6529768408898 121.184916400366 30
v -9.25229626717227 109.558711449318 30
v -13.7188903895111 101.819266944767 30
v -11.9394570095368 103.345432596842 30
v -12.3383075803207 100.616045037771 30
v -13.7855904821805 104.482592703198 30
v -25.9770513124992 97.2410940330526 30
v -21.8167292577495 114.990612903869 30
v -6.22811131937438 106.176517856558 30
v -5.22549624241432 107.837748822289 30
v -9.73204491224973 92.8727919336303 30
v -5.95922481533423 119.247855613756 30
v -11.1723541916466 96.8836829705756 30
v -23.3788936151589 103.332723112438 30
v -12.9918108343815 138.853763309942 30
v -7.88510339129265 107.241753224569 30
v -22.8140636574781 94.921248581184 30
v -18.1198048867676 96.7403012732407 30
v -6.96925052005658 92.8150562967844 30
v -3.19281445997672 107.439932934495 30
v -17.7664935409654 126.724591866611 30
v -1.31025261059489 111.32178220213 30
v -15.1624305871101 138.190203125664 30
v -8.41391699300526 122.778662484677 30
v -12.6604162557267 124.729978163236 30
v -14.4638476076789 133.353974314526 30
v -26.0162052324675 104.31978651846 30
v -12.1015433121294 129.025840034022 30
v -10.9091071693159 130.270081060777 30
v -7.41944258115832 125.343511735726 30
v -17.0708347325056 124.179866158197 30
v -6.66517448952528 114.130963632115 30
v -5.25405292733908 112.304366945381 30
v -6.45449416979215 111.340805323697 30
v -2.24399351649809 116.851000703888 30
v -9.32434005368333 94.1426288966239 30
v -15.0885966183533 95.557152245309 30
v -7.4844155398878 94.3283347334593 30
v -1.76184125657552 97.4930714504663 30
v -3.19551311528076 95.4946432240348 30
v -13.3801898488012 131.093816745912 30
v -13.4980274035089 123.703650728435 30
v -23.6895552792083 100.772900158915 30
v -2.73550477258022 109.239357482445 30
v -19.0365478361416 105.986116928429 30
v -11.4726682254252 118.447490663353 30
v -3.31241586797282 116.06968936407 30
v -2.9982233722752 121.032390611753 30
v -1.29699478020991 120.151030151378 30
v -3.02946910298759 118.589559420668 30
v -11.8651895541163 115.783345324311 30
v -10.9948685733353 98.3476857299396 30
v -6.55866913405842 126.30561216421 30
v -14.8151307769826 123.808264041944 30
v -21.0296445175254 94.3746648373606 30
v -4.7297350077057 125.370167440257 30
v -14.7575720712712 128.928007323723 30
v -5.65347717099042 92.7030805504552 30
v -5.96421798588542 96.8728009291937 30
v -6.65647276239864 116.755798525144 30
v -11.4725662705832 94.9932528551956 30
v -17.2637900667543 129.165674843744 30
v -15.6334136000834 122.068753713812 30
v -16.748194873481 132.55030100053 30
v -10.6515521639286 121.607343811908 30
v -24.3967528819878 108.049059532572 30
v -23.0981178618295 107.928686972889 30
v -24.0100722469318 110.214952186547 30
v -7.04571106728306 104.600608586676 30
v -7.56938111058767 103.111397259752 30
v -17.6310294912321 105.340279633144 30
v -12.598597683346 134.970818638435 30
v -18.8212348434218 103.337237349771 30
v -19.3488645162415 110.959487606993 30
v -9.90729854958352 112.192805813463 30
v -1.20353790807462 114.439924508626 30
v -15.2262473430501 97.8927902616748 30
v -5.1929903410334 124.199667897493 30
v -9.69499120138849 100.390405534583 30
v -4.60571072532495 122.416303504624 30
v -6.68675135214776 123.95481120542 30
v -12.3887330246964 106.212656856762 30
v -26.2149835495747 92.8988362794138 30
v -3.80361822800904 113.687523281709 30
v -5.26956673214952 114.90976161011 30
v -1.33934820836943 101.3411913631 30
v -10.9749046343778 92.7231837640108 30
v -18.7517476788248 124.580009430475 30
v -4.70987998721793 117.613300820519 30
v -13.8921977399937 118.912538222045 30
v -2.64915934255067 124.848398470615 30
v -21.3269996397757 105.427497415227 30
v -20.8213831730833 108.946893397982 30
v -21.26016642328 107.14003550584 30
v -14.437317911446 106.889689794691 30
v -4.19834882565449 102.010823415521 30
v -5.12485900233446 109.078478076747 30
v -19.2239616393168 95.7470663276513 30
v -11.0106542455185 112.967052845755 30
v -1.13404026830223 116.352036683387 30
v -4.19614858489999 111.207142084445 30
v -2.7893690186413 114.501550186801 30
v -26.2761559803582 111.881727385264 30
v -16.7777047544956 130.274406466787 30
v -11.7939764538905 99.5239200250691 30
v -13.1929381436394 99.3200974990614 30
v -2.87916052681014 104.744964006036 30
v -19.1973868898997 98.4422582265304 30
v -5.43532906437557 95.1915959858444 30
v -13.4142446115826 113.305973751132 30
v -21.8027335324587 92.5700808620043 30
v -14.6255062391441 103.241495329606 30
v -21.702881787494 101.775002960176 30
v -18.3599918208629 100.655512641291 30
v -17.1166726494712 92.4912972776525 30
v -19.2666447421956 114.946709501426 30
v -1.31435605436657 122.647728306058 30
v -11.3716190265256 131.412050495214 30
v -26.1759858861795 108.64796192157 30
v -4.04986592663555 97.9880676342351 30
v -15.1994837076375 108.761687119664 30
v -13.2939636055982 129.287981966002 30
v -8.75484824046623 105.719952018432 30
v -20.9708519000581 99.5649759427792 30
v -14.4517749616692 136.56283052415 30
v -12.7318279868349 137.703684325567 30
v -15.392790455441 130.421666321225 30
v -15.8721021455811 112.870845061471 30
v -17.6704445635289 104.03979559564 30
v -4.55381034626068 99.5877005250849 30
v -16.5506723757189 99.811998512394 30
v -17.1118560685369 102.019149896251 30
v -16.0245396185658 101.293001165411 30
v -23.2943968401999 105.830343813739 30
v -12.645080792963 122.583300386883 30
v -13.2799329449683 121.341965317437 30
v -5.67033613109852 121.611092808062 30
v -16.2130601680547 119.535729508204 30
v -10.9849338522909 122.763207836448 30
v -7.53056806183586 96.2755672649622 30
v -10.5785377931089 116.100340723808 30
v -9.79668780684789 114.62604612814 30
v -12.2479843205118 97.2903672445771 30
v -7.23514046734714 100.013463487517 30
v -7.13346837362428 119.814399023425 30
v -9.64041627257547 129.036519741314 30
v -26.2340597871759 99.7158633439596 30
v -12.5730655035473 104.383936407525 30
v -3.68804810222582 120.118782849992 30
v -14.152107140841 138.767276757421 30
v -9.37412427483267 121.518226150368 30
v -9.21031773443858 123.788682739154 30
v -19.8857374733364 105.23261650598 30
v -1.39211886524362 112.492328686027 30
v -24.7325524904623 112.6754245607 30
v -17.7156501064659 109.679763869364 30
v -9.46676025756602 126.7661805015 30
v -8.19976959798996 127.522736446231 30
v -8.60127723603655 125.130426721032 30
v -15.1575355244686 134.416393464167 30
v -6.17302156406956 98.0189513053698 30
v -26.2278172621824 115.719943121777 30
v -8.28234878809819 102.230595954846 30
v -19.5126664798381 107.004405210937 30
v -15.7539869815067 103.426115280279 30
v -10.7563106958553 123.901662562865 30
v -10.6975464902253 104.33351492025 30
v -1.16470040657755 124.599203270749 30
v -1.05307620891631 105.61619524295 30
v -11.2996930105736 108.407904482522 30
v -9.35869091185792 104.093803819892 30
v -17.5574305743675 106.502710736698 30
v -8.85413820346759 116.761782875739 30
v -5.02941470813909 97.4688370453191 30
v -22.0106686429677 109.407990398853 30
v -17.7380342428364 108.130690738908 30
v -19.38961480214 123.635231021323 30
v -19.7602349704077 119.919260162852 30
v -17.2036005597046 94.6511254025739 30
v -21.4494500310862 98.1068998982961 30
v -21.2437292407593 116.07333972104 30
v -21.0061352984462 114.246276708655 30
v -15.4915811013696 132.324641528803 30
v -8.85514816701105 120.553514764949 30
v -21.6134990956947 121.093904247507 30
v -17.1157373245785 123.082468253292 30
v -26.4124791909014 105.887130193943 30
v -16.632240343196 125.332821317299 30
v -9.04702294241778 118.732794749495 30
v -21.9556828499948 117.343139282054 30
v -21.2092425161723 118.166122811759 30
v -23.5673315654353 118.010266509406 30
v -12.0979117444563 133.297098837947 30
v -16.411097270351 137.606268491543 30
v -18.0085967056317 122.353970509241 30
v -13.3732084254303 117.375744846553 30
v -18.6118942044989 93.8460297378714 30
v -11.5880277017394 113.932304404742 30
v -6.29425624189983 110.278408486546 30
v -1.07108184059635 99.8371128963422 30
v -3.14476435811082 100.605683212273 30
v -23.3982902067878 93.9877694523403 30
v -20.8231000122821 119.999262886204 30
v -17.2316249173434 97.3818914894012 30
v -8.42348320441604 115.224444502382 30
v -1.07172851699888 96.61535941444 30
v -26.3572424339071 117.904487125959 30
v -20.4686052893515 122.026357742998 30
v -10.9441785956751 110.685023565225 30
v -12.1503006608036 111.532570296358 30
v -10.7692536282494 127.808085766718 30
v -23.0387338494765 120.068759556612 30
v -18.8186654169784 109.964280983865 30
v -18.5943306411121 111.720293026526 30
v -0.998116506368095 103.655366517244 30
v -9.62047126718372 96.4516001072884 30
v -4.90778243202734 104.175825255501 30
v -2.38169908277126 99.1974423748189 30
v -2.97751438621351 112.940629170051 30
v -19.8173283398714 103.72433362984 30
v -15.1369026516049 92.3623880712976 30
v -7.53913225356818 111.501875868639 30
v -16.8902058608612 133.624886308519 30
v -20.4164305120683 101.719192083128 30
v -19.9651585763616 100.299288713408 30
v -14.5251611111206 101.121929763651 30
v -16.105334868623 102.406205732625 30
v -13.5599868050386 132.767614252131 30
v -14.0685142325495 134.39242198257 30
v -13.7202042627792 115.379410420333 30
v -24.3697587098556 105.923418965899 30
v -25.1104940696545 110.444702767379 30
v -26.4495765598149 113.879926449038 30
v -8.53513639743317 111.164215720381 30
v -12.5205031946903 120.441285231782 30
v -10.9875519346334 120.601352022703 30
v -0.94622598437238 93.8512228887157 30
v -24.6708340052471 116.822651204123 30
v -23.400873578309 115.884514325252 30
v -24.2310627643234 114.76157947663 30
v -10.4291440885973 125.720230258377 30
v -7.30047986703533 122.999827657341 30
v -12.8384114336443 119.428822189546 30
v -3.12134996084733 123.436304226298 30
v -3.61901266760427 125.302096261419 30
v -17.0381610944091 120.954415205691 30
v -1.73047911033276 119.189008440935 30
v -23.2102222734492 99.8265738845716 30
v -19.8993944918303 112.629192121546 30
v -14.6855117202508 120.132280611894 30
v -7.17965923097422 121.051798168404 30
v -14.5265379250374 99.6773747536314 30
v -24.0841120569033 111.270507272022 30
v -5.533793625818 126.053754799753 30
v -13.6068006368606 125.903663186448 30
v -13.5904798425158 127.032583288417 30
v -11.6548494305367 126.707090492053 30
v -15.365679910524 113.813273729939 30
v -2.2918081745202 122.295892315305 30
v -24.6726429062787 98.5108254741691 30
v -12.3993036202287 117.009927621407 30
v -5.14961090179816 94.181660526769 30
v -2.02369090233126 103.670810913615 30
v -16.4237648172485 136.122605837416 30
v -7.26757894821121 127.064703831394 30
v -25.6126373580809 106.536283010358 30
v -5.36574837749007 120.082951646015 30
v -5.14708829782303 118.546641727093 30
v -4.08638050550021 118.474440974966 30
v -17.2553791774186 116.227948884691 30
v -5.2946300157173 105.761473091862 30
v -3.64888061135077 106.518117568587 30
v -4.21974283414378 107.496129176214 30
v -16.1019474580611 95.6640828159098 30
v -9.14046836561378 107.925010649858 30
v -23.8741800985378 102.412274857097 30
v -1.00495960197028 108.444980815965 30
v -7.57348751251467 117.193375013586 30
v -16.3626796078456 114.378714814605 30
v -13.9549622599443 112.282584419547 30
v -17.9231800498454 113.255474477066 30
v -15.4517034309347 135.833099563339 30
v -18.0608735947716 118.090729181677 30
v -19.4231789476618 118.645278518489 30
v -18.5491916086685 116.719864969143 30
v -20.205326059522 117.992375579166 30
v -25.0393989261563 104.580442106517 30
v -14.3899451430493 109.75249777993 30
v -7.35244106346868 113.381318866463 30
v -7.30790068895147 114.919129636775 30
v -9.00029683251532 113.985940293324 30
v -20.0509593893806 92.2846410796758 30
v -24.8283690844545 118.888307075377 30
v -5.90691605774726 102.630456088727 30
v -3.94380486670516 103.022836881163 30
v -8.72502892162165 100.656605313225 30
v -26.4583697741409 110.855970142166 30
v -20.7656239495033 103.396978305193 30
v -9.55731775167291 95.1661138908346 30
v -13.2042903295921 92.3439198132774 30
v -13.6635814873277 93.7759176519982 30
v -17.1954888652246 131.188945586327 30
v -18.1573684700519 92.3587115067075 30
v -13.5517488335384 135.279226099926 30
v -15.427325986315 117.074827517729 30
v -15.5940930404144 115.917597181734 30
v -7.1431181438095 108.433587158221 30
v -7.35091315944973 109.423435664471 30
v -16.7333075201257 117.566894637463 30
v -4.11456172804261 123.291618448641 30
v -15.4286890718872 99.2671342693176 30
v -26.4409639947157 107.083601877829 30
v -9.14888081944621 112.817787198676 30
v -21.7551134837878 119.010987222597 30
v -13.1726371860245 96.4701846639217 30
v -17.8620218257649 103.051845011858 30
v -22.2776189253604 107.327528031622 30
v -5.93323293216009 99.2502398570176 30
v -5.19192801207143 100.600141442714 30
v -6.75896006530436 101.085895060381 30
v -12.7225431917257 128.216777278388 30
v -15.8301475131402 105.166560477426 30
v -1.00878763658589 123.605770643104 30
v -0.935990905433174 113.431090755825 30
v -0.856422104209181 118.361581960037 30
v -1.13313579290379 117.375860807719 30
v -19.4292141473118 121.464536127508 30
v -21.0562794062096 112.430644083237 30
v -20.2969258001823 110.705727890517 30
v -7.53925582225838 95.3011981411566 30
v -14.1219355268376 107.81494774901 30
v -18.905156000836 120.442175933908 30
v -17.3395009945988 114.399666491206 30
v -5.59317827532107 106.926485344462 30
v -24.6654585016152 119.843459032429 30
v -10.8510840246705 99.3049351754833 30
v -8.83596561184573 92.4087492189607 30
v -14.4472329023187 127.487383673575 30
v -12.7565087907924 95.1528012710345 30
v -11.7337658148434 93.6724298247038 30
v -3.3074493830566 110.827128466883 30
v -3.90414145522987 103.99168935367 30
v -22.3237590650836 112.725108944524 30
v -9.89374246051068 102.444875271935 30
v -0.834943141557848 97.7728803401271 30
v -15.1724776746174 122.914144227446 30
v -9.46126123112485 125.592523785674 30
v -14.5170530810992 105.1097109023 30
v -10.7875230667141 117.774938733966 30
v -10.5474905639305 119.527687643791 30
v -14.5848404012641 131.028733796176 30
v -4.40143010986403 92.2561658986044 30
v -17.208415102602 111.242633219621 30
v -1.06248747242297 115.392116956887 30
v -9.58661085104972 119.527863766942 30
v -7.85283848533329 92.3832441094705 30
v -13.9367551666069 110.946314375585 30
v -21.8068599967402 95.0233752226387 30
v -15.7650737121708 106.626187586311 30
v -16.2650293990736 108.127741113661 30
v -8.28549304327898 109.717532839838 30
v -26.5370663502244 95.8961348750744 30
v -12.7273415428028 115.36009437508 30
v -25.1296676642902 95.0212681835402 30
v -25.1457531784908 96.759378537309 30
v -18.0567859941527 127.658325388279 30
v -15.3310900531438 125.79529645836 30
v -26.4682919053195 101.77508953338 30
v -3.57912469991102 93.636981707968 30
v -16.2029704818357 92.2456752862577 30
v -7.3810460178317 112.435166468996 30
v -2.31972603687236 107.074360714796 30
v -0.964863274175922 110.361226466478 30
v -8.2631769973371 113.139452015458 30
v -18.6750410105182 125.52469466464 30
v -2.35833490858806 95.0540690757888 30
v -12.8655088522213 105.337064743909 30
v -3.35474684904717 105.553032494558 30
v -20.0462901532768 99.3545636647345 30
v -18.2865084280942 95.8152713405744 30
v -18.7862585787145 97.6000045478722 30
v -17.2079503860086 98.688096294454 30
v -11.5225952284647 124.455909796887 30
v -7.09829036408842 106.73593241903 30
v -8.03635032194559 105.107014869316 30
v -21.5764747263613 104.525987593178 30
v -16.9398046574022 134.65198958451 30
v -15.5117037108182 96.4025709846757 30
v -21.9019058613891 97.2915112218826 30
v -14.3114258832502 97.696457356675 30
v -22.8193396956888 111.836363484912 30
v -8.12053154440968 118.665112115813 30
v -2.93253158168021 108.331607190631 30
v -18.4601464213177 99.0064966351495 30
v -9.34230999731257 117.839158674581 30
v -0.914606309283606 121.003511263894 30
v -25.2197238220079 93.7934188449234 30
v -1.99785343043446 105.528383180943 30
v -21.0308242297408 102.411678733612 30
v -8.40858414892288 94.2771572440049 30
v -0.802569688942064 119.34199632289 30
v -16.2858438209673 109.569919222706 30
v -15.8704902725742 110.763470785586 30
v -22.4364119797365 114.301097381901 30
v -12.4314646578684 107.981916993797 30
v -17.8946238073836 118.996265880584 30
v -2.6233865193417 117.690742923155 30
v -13.2631673320549 98.4059094621904 30
v -13.1114590398858 101.122581951481 30
v -22.8973989228201 96.4962051873568 30
v -23.6470959704977 97.0690314630005 30
v -7.91781468549125 120.467786211887 30
v -12.5466699189553 102.651259982787 30
v -11.5616900468081 101.113486835481 30
v -11.3376591130235 102.646560342978 30
v -2.57232296943953 97.0468828168828 30
v -9.34776393781717 98.293876976452 30
v -24.8098321851772 107.020828453397 30
v -25.2862395459562 108.434524552546 30
v -1.35200631282423 95.7434055871027 30
v -26.619019964498 97.8943339388482 30
v -24.6395516471121 95.7958791350904 30
v -19.1944271000581 114.036367672313 30
v -20.9469038008825 108.002000061093 30
v -16.642373386421 93.8737328362392 30
v -26.5359756196306 93.7698261817206 30
v -11.4520119719466 132.332067893346 30
v -12.266455329608 131.245199790123 30
v -4.10033935294934 95.697653446492 30
v -12.8266122764104 139.745670451586 30
v -2.44523894992446 92.1687428060011 30
v -10.57911571371 94.8441167356849 30
v -11.3304979588986 95.8878544841539 30
v -23.5862829486456 97.9751555681419 30
v -22.7788535081141 98.4304943639944 30
v -13.3184152610648 130.191790416499 30
v -9.61780433472662 106.014786346594 30
v -10.6989497725371 105.246241698441 30
v -12.7311518370712 127.312919491497 30
v -11.6826648304673 104.214645247591 30
v -11.4726624538713 106.040467894371 30
v -2.09988872862892 120.566987761843 30
v -14.5820363276152 115.119785902285 30
v -5.51842124017361 111.404168720132 30
v -19.5503882261138 108.875074235864 30
v -19.107977790571 107.847080485967 30
v -17.1889799673515 126.037171679327 30
v -10.2764409184334 92.1580343241266 30
v -25.3530072195466 116.088450662262 30
v -1.903253748897 93.9843316623211 30
v -23.9633417092597 92.1510076572976 30
v -10.7151414074238 107.288486582605 30
v -22.4720520113177 105.457587974714 30
v -22.9826783560719 106.75406927636 30
v -14.8162724210728 110.654928711626 30
v -13.7621921658918 94.6668521825713 30
v -16.8572559974439 126.973055667981 30
v -16.5361909710615 128.648566130259 30
v -14.0257588765651 116.76210329241 30
v -0.967155682539403 92.3673712802112 30
v -6.79514607303151 117.644852568407 30
v -5.80924947135313 108.509543880987 30
v -7.64169239743864 122.173655711955 30
v -14.7289088741704 122.086401038951 30
v -14.8482295536939 137.358557215017 30
v -6.79334794453965 105.469724396818 30
v -12.3185982340902 135.817850106501 30
v -26.5982503897239 114.869028364121 30
v -10.0588278469607 129.875383678058 30
v -22.7076779061866 92.3160189384994 30
v -25.0355476090416 102.687260614872 30
v -24.5809952742371 100.929380404358 30
v -15.370057903415 112.131031420103 30
v -16.6296293226339 112.395950103536 30
v -4.21833287219712 116.879136291852 30
v -6.3576212698036 92.1501265274913 30
v -14.6376938996936 118.400502687094 30
v -10.664793479578 113.963153877887 30
v -12.1520859533549 139.128092504139 30
v -24.1589130767938 93.474705547286 30
v -17.8541424917836 120.624557803398 30
v -12.9916728000151 93.2017677840881 30
v -5.44533316466929 117.131170521486 30
v -5.58914182673798 115.752849193578 30
v -4.6399001101591 115.555087000615 30
v -8.91431736845279 110.370665825334 30
v -19.4783049126686 111.842420712124 30
v -6.67284603286955 94.7960253148294 30
v -5.69919522928296 96.0303602003765 30
v -26.6051300637239 98.8759292879539 30
v -8.38758822769877 106.519494690309 30
v -20.3825308436832 107.122283653967 30
v -9.56830701038944 108.716402557996 30
v -13.1007270958596 108.596338497442 30
v -2.43970376471185 102.837700750523 30
v -22.9856784760248 119.172198836162 30
v -26.667799623004 94.8970353431876 30
v -15.4459971604223 93.9584917047118 30
v -12.3733410880051 134.126454259384 30
v -22.4276496433794 120.722131430298 30
v -0.766321955446969 104.635780880097 30
v -17.7645892973915 101.432757075026 30
v -19.0833487426422 102.498773663964 30
v -22.8147982064693 117.547962280499 30
v -0.765599828663873 100.66756158402 30
v -19.8236820219002 97.8177393340404 30
v -26.5785827120455 105.011366859513 30
v -4.20184616548789 105.824368935922 30
v -3.60891136701217 101.345916432771 30
v -2.23787524526287 101.162434674062 30
v -8.95780001964382 104.870127245731 30
v -25.603074807831 101.83027660617 30
v -19.7482065146951 117.239882824938 30
v -11.8369280313983 114.87972650419 30
v -11.4560396743725 109.259777423738 30
v -12.0163196309619 140.047308474959 30
v -17.8884926960391 124.475709265812 30
v -7.42091370501383 126.210937173346 30
v -24.0830797182319 95.135440004228 30
v -13.0805475219201 112.475120302722 30
v -22.2706885704837 110.260706813175 30
v -9.07980589413981 97.4645375812602 30
v -11.3744239975078 129.522509473056 30
v -20.9777443540676 92.1941243774797 30
v -4.02835987544464 121.772731340437 30
v -10.1580750622507 110.335127586183 30
v -10.3529675461551 111.310207903111 30
v -8.81339716796644 128.683334568417 30
v -9.1828948237778 111.729634037391 30
v -3.32709962103599 111.734314586918 30
v -21.2570795227502 106.282341880888 30
v -22.2829045256504 102.409257299415 30
v -22.4704177910746 103.607365679891 30
v -11.8748957761696 117.689331187803 30
v -25.4991568690128 118.112434782144 30
v -3.98275934040698 98.888405880384 30
v -16.0109035077449 127.206958334146 30
v -25.0042838218863 115.135555980754 30
v -24.9275238079354 114.25891533008 30
v -17.6926974632225 128.429050275218 30
v -26.5876712489883 112.673357403227 30
v -23.6956942117662 108.547080893422 30
v -25.8026552340854 119.785970118309 30
v -21.563100838237 100.208030856244 30
v -25.7343542508398 103.482046851978 30
v -19.9149920267762 96.2477411119052 30
v -8.77137996860944 98.9189450896315 30
v -9.18301484101787 99.6861666531467 30
v -0.876211834503648 121.883548944211 30
v -3.74496638916689 119.262153169694 30
v -25.9195328691993 92.0988404572713 30
v -20.2535496918359 122.888211444824 30
v -0.803053045336628 107.54349269923 30
v -14.009940286823 102.633814383938 30
v -14.9718103885302 93.2223398909787 30
v -25.1153206820732 99.2490952762349 30
v -25.2787271034053 97.8764678973075 30
v -20.3847121123228 116.05679674553 30
v -13.2158744664087 131.95802279168 30
v -12.8161373851063 125.572808991833 30
v -12.0842644124687 119.037352176481 30
v -4.53072572252767 120.280078885231 30
v -9.05218752089478 95.8352244020654 30
v -6.76301900191712 96.6151659662884 30
v -5.77568214041992 114.176856443807 30
v -5.68634283575467 109.701067349566 30
v -4.41350869652412 113.10592256133 30
v -5.68440105091068 113.050915302895 30
v -4.61953052512902 114.367792253871 30
v -15.5513373050115 128.629105258697 30
v -1.92553276502395 101.940051626103 30
v -23.1749391213322 110.079299116146 30
v -22.5063227123941 108.735373959723 30
v -24.0125708670758 109.325368281406 30
v -11.822295353358 122.740506479208 30
v -10.1926964083642 115.360497479616 30
v -10.1235672954557 128.347623962465 30
v -10.0492101338834 127.373136526807 30
v -21.9530542417262 111.0400461634 30
v -12.7193493364512 110.902924134144 30
v -17.7282648243091 115.143451598308 30
v -26.7247588515253 103.888931130169 30
v -4.34276397497969 96.9470081113381 30
v -3.20299325500512 115.234887129066 30
v -3.57513367189279 92.1605614682298 30
v -11.3838745250509 122.02372531176 30
v -23.9339536118927 101.575459736002 30
v -21.1304839997405 111.210855212492 30
v -2.42721914078642 93.3419655577023 30
v -14.1983618729143 123.229903461841 30
v -10.1699405706537 98.3628915465392 30
v -24.0329703256988 103.953873743219 30
v -15.3738700169872 126.653566660248 30
v -15.3388546309609 131.466328518048 30
v -19.1621278731978 100.475385001736 30
v -26.6235952588554 96.7212331488788 30
v -23.8783637010423 120.145767225547 30
v -7.05972786590928 116.01218419772 30
v -16.5161897903821 97.8665880612361 30
v -15.4783086912583 119.908321664306 30
v -21.3649504417308 93.5919765751101 30
v -20.3602679012061 93.8420177832366 30
v -19.8723419440929 93.0956234737051 30
v -11.7020272718906 97.9145532035694 30
v -13.280582777037 137.037757565916 30
v -12.4294127369357 136.750182657097 30
v -26.5471677109004 119.397409811351 30
v -23.229000051922 104.145511651079 30
v -12.9718213476633 109.423550666482 30
v -4.90748321996116 105.01591141833 30
v -12.7013288647263 123.425335924322 30
v -12.905614988788 101.915203505384 30
v -20.5734906276542 113.087265829216 30
v -16.8955601631419 96.5891908920849 30
v -13.8861739448655 118.035304206163 30
v -26.7307036339544 102.889831598283 30
v -24.0499596530573 99.6537129066475 30
v -10.3634872022144 108.90432808663 30
v -9.77772398339696 107.416444354557 30
v -15.2089528505946 129.617946881975 30
v -10.615167046303 131.053776726212 30
v -4.94865593294539 123.395434359835 30
v -25.4474271431024 112.298270616443 30
v -25.6346070987477 113.818274114912 30
v -3.81437795909561 120.931400847205 30
v -10.3169362714072 100.951407997743 30
v -13.7856292375747 139.490781022046 30
v -24.3263674166194 96.5751425986411 30
v -16.2229505805712 134.223710347027 30
v -10.3644625791618 96.7823947421369 30
v -26.7059255774914 107.885329257717 30
v -3.23529890010625 102.576499634473 30
v -17.6655330373266 121.626606983336 30
v -16.3689294104783 121.423381098742 30
v -16.450703978225 122.627672879449 30
v -7.80921080746973 98.8991067941566 30
v -7.50867500054581 98.1171269821385 30
v -4.30464134855098 109.307686376395 30
v -18.823446600368 122.012356769919 30
v -18.8708435098475 123.022445074049 30
v -0.75286374038808 102.893486641353 30
v -0.9368577223322 102.076063090435 30
v -15.84627696057 118.802068632985 30
v -6.96090408377789 93.662225643299 30
v -5.54841328694405 103.649965212534 30
v -14.3885937479129 95.1668292777316 30
v -14.3647668745589 125.644597538588 30
v -12.3397924887653 113.650166412632 30
v -11.7397097629242 112.224152442713 30
v -8.68487412660206 115.98020993047 30
v -16.3776816300313 124.576084739061 30
v -20.7866300835908 109.804429545417 30
v -1.98787050798117 114.691604980496 30
v -26.6239874617161 117.156900300519 30
v -10.2679929947153 99.84229752566 30
v -16.1346010978989 113.619180683449 30
v -9.06823209608423 122.281159560645 30
v -6.50034912004379 122.784092952435 30
v -8.26301918405579 95.9574017194952 30
v -0.759617264196392 106.362005733143 30
v -10.7473490951794 124.988482990039 30
v -11.9782887011424 125.978466285869 30
v -15.6109957009949 124.025303931404 30
v -14.8278518786362 124.636173978043 30
v -17.5743020601177 129.962727685254 30
v -23.6539731430608 114.213633970192 30
v -22.7078130853484 115.493433947207 30
v -7.48239304210656 103.91748654873 30
v -13.6493276200051 106.696947503134 30
v -12.4564570727822 107.167384718933 30
v -22.7444467328807 95.7146152548275 30
v -16.5198286723097 138.40276854618 30
v -19.7370502088078 115.591018466944 30
v -11.1093409120352 126.130017236488 30
v -21.6668245504412 100.988498831466 30
v -22.3797851513508 101.349891778609 30
v -3.0089059456969 113.73621249112 30
v -16.2068713762617 100.523818506972 30
v -24.0029643548387 112.968148167354 30
v -3.52623983140721 109.131905328831 30
v -7.29341755713636 124.522366106882 30
v -18.622410198444 118.66185257627 30
v -13.8995732488259 135.992680023549 30
v -18.3586828402589 106.421055749319 30
v -21.1443795240338 96.2294596541455 30
v -19.8059847958275 95.1382965860692 30
v -5.56067387980396 93.4965983530018 30
v -6.29611334970159 93.2202089451976 30
v -16.7868782919091 135.42417508193 30
v -5.50855182473885 120.848913851118 30
v -10.0083802019957 123.502174777883 30
v -3.60213530962714 94.4217750330396 30
v -4.38811870585801 94.0176228579698 30
v -7.83661440556711 96.9938504902373 30
v -24.741961220742 92.1234810276729 30
v -18.3335681308735 93.1179755822144 30
v -12.8419281082452 133.068195225297 30
v -13.2607082372035 134.551615754592 30
v -12.970585070965 100.103236437446 30
v -18.4865841359372 114.960080004539 30
v -15.4023942667509 102.734522804588 30
v -11.1984684971242 103.599060259496 30
v -19.2916444862071 92.127061255848 30
v -24.1635255221425 103.161448663476 30
v -17.7791077258111 108.90598254235 30
v -11.3417774438944 128.331390366363 30
v -20.2603145190532 114.453694132192 30
v -19.3960016743135 113.286559865044 30
v -24.4324252487999 111.961845788965 30
v -18.4446449608543 105.421944701201 30
v -18.4719130276233 126.314807753872 30
v -8.33462715453266 103.001870594956 30
v -11.7513875885681 120.496035714677 30
v -5.33706630753236 99.8013484664599 30
v -4.97244697317515 102.234451687587 30
v -6.06981113517619 112.091110951679 30
v -19.0749730540571 94.8514537725141 30
v -12.375214767032 138.388723967818 30
v -12.2610834151079 109.746558667336 30
v -11.361760042268 110.024429994657 30
v -24.1310523499181 118.545221713815 30
v -13.9577639123987 96.3147310286782 30
v -25.8089016408515 111.269662411515 30
v -21.3069638177685 98.8677157213568 30
v -16.2570516203991 127.933772841944 30
v -25.2498759155892 117.361653700989 30
v -9.80199935558868 103.419059828964 30
v -13.5342474640984 138.304585409542 30
v -11.2480991696525 91.9995036317036 30
v -23.2113855052933 104.947622749682 30
v -15.2664694355739 94.7615231942469 30
v -4.8011419728254 111.682438336779 30
v -0.669292681401652 109.6534863923 30
v -14.4151918627621 92.117831939391 30
v -4.60639890342585 110.039030928159 30
v -0.722451703230765 94.5776143434985 30
v -17.6635721838579 107.372971501642 30
v -15.4256202358524 97.1585311021019 30
v -15.6338802099431 138.805446465655 30
v -7.63555338868114 119.247101668621 30
v -3.04404144908296 110.095883750221 30
v -5.98023621427068 124.323490580699 30
v -7.55395903013955 101.828320462919 30
v -5.15597458146264 92.1195673036729 30
v -19.8986586836467 104.476337648184 30
v -22.4341987864627 99.7142938562408 30
v -6.56685170224428 99.6614217261518 30
v -15.2964716631809 101.01796266221 30
v -1.99550931350488 123.006401366291 30
v -13.9744776143695 128.899455494235 30
v -1.93657043518035 124.547231678749 30
v -26.6495714448934 118.625840093432 30
v -3.13319410141481 97.5491977405027 30
v -2.91254957841482 96.328365800613 30
v -2.12487278160905 98.4912686978705 30
v -0.708445222665049 98.5135834736896 30
v -19.6250010549663 120.658700084627 30
v -16.1090081352197 115.316944946738 30
v -16.5579874434229 115.943377823635 30
v -24.6846184363263 105.241977814974 30
v -2.2558908033683 112.736576492221 30
v -2.65269697236526 111.256330172983 30
v -19.6298651284366 101.978266203477 30
v -18.6726620819139 101.417986875924 30
v -23.1528864589932 102.617631165156 30
v -11.3811005804209 133.078196580479 30
v -14.4708266154395 104.041571739938 30
v -9.03649619270002 114.756372558319 30
v -26.6812645637236 92.1115520404634 30
v -16.6360784599784 95.1394466793321 30
v -25.9664645173383 95.2315355687013 30
v -18.6344499159583 113.522773391435 30
v -1.52303339030841 125.253993501986 30
v -1.68528554839157 92.1124432306394 30
v -20.5770298819475 97.7403836180991 30
v -20.2541673982497 96.9235474861833 30
v -26.4755734193682 116.424727362409 30
v -20.1954041692978 101.007775372916 30
v -8.05376259687874 100.333633389963 30
v -8.42174129221467 101.473227624695 30
v -3.1441498347921 124.228923386457 30
v -6.48160459334378 121.310469235618 30
v -22.7011199076823 93.0969570733188 30
v -16.7098633777346 136.866933958676 30
v -7.48582630826446 117.938912278871 30
v -21.7441198259167 103.794854329901 30
v -18.7991815995916 96.3851984727936 30
v -0.909434406107851 93.1086305334719 30
v -14.8904037156593 138.886905544399 30
v -0.609813934125749 112.47909578292 30
v -6.50771142015406 118.333256352876 30
v -13.2346165694839 114.812377828186 30
v -13.3791772761012 114.065703945079 30
v -20.9206801415147 121.412334653319 30
v -8.74304653942757 126.993371358421 30
v -11.0286654984217 97.6090230894469 30
v -11.5293268604185 111.134288132306 30
v -23.2733148465336 112.86250981952 30
v -14.7220039575326 128.181930947976 30
v -8.71437610795661 124.372665299174 30
v -9.03613549338206 93.1194139465623 30
v -10.4079248111016 93.2503278447378 30
v -5.98495665324763 101.035191526488 30
v -4.76592212822336 101.204983843672 30
v -6.12688716068238 101.761546639448 30
v -0.575366972736288 111.498681420067 30
v -7.06952182895389 110.93172571753 30
v -16.6688809297679 120.319471683985 30
v -17.1930326561585 119.214604495593 30
v -18.058224244431 119.891364641162 30
v -13.7053046192705 109.460592838762 30
v -17.7236298946531 95.3431746388907 30
v -17.9730373099121 94.2112525151653 30
v -19.3333851023336 93.6241266576172 30
v -17.8930358148437 111.505652842814 30
v -14.1592584308245 120.642835857473 30
v -15.2470828717792 120.67645834812 30
v -14.0681968015805 121.688112607636 30
v -14.5904300904437 113.800287203001 30
v -25.5160648535009 99.862669021424 30
v -25.2883395679801 100.645505413016 30
v -26.7189268003777 101.084224422798 30
v -6.21709669300422 116.153981809481 30
v -9.93809670587103 106.693689132731 30
v -11.2246407460901 106.743881223757 30
v -6.32824559798076 104.301767775359 30
v -6.61097516293655 102.834136166057 30
v -11.9475372722493 94.4009425209063 30
v -0.66852107133354 96.0047311479436 30
v -9.53428662665054 92.1574703476579 30
v -17.7278886670436 130.68179688271 30
v -16.6471160889591 93.102778656604 30
v -22.9982607286858 99.1273838201874 30
v -1.70985252447224 110.152416232128 30
v -1.66735433790215 108.75683012172 30
v -9.18183692234294 102.280203153493 30
v -8.76287854631412 103.659111772345 30
v -6.26663305642464 113.507536331982 30
v -1.77161164451095 99.6099310562567 30
v -17.210829174924 112.83479989635 30
v -18.1179294395393 112.547949249607 30
v -15.4088666489768 111.369890638602 30
v -0.575950743276232 120.339601564672 30
v -24.980273961755 113.407319246324 30
v -21.4378255720523 116.799002950194 30
v -14.1586173012545 119.607115149863 30
v -15.1792522694989 133.040532703718 30
v -20.6314881368931 105.144282474449 30
v -19.1505284797232 105.215673555233 30
v -13.9506669984499 103.526018334444 30
v -19.2407415028269 104.167092354213 30
v -25.5917722062356 109.12210547892 30
v -26.5289972464605 100.38143955802 30
v -2.48536973145593 121.574884448701 30
v -15.2382927599675 135.138518736312 30
v -12.5224176737919 92.0986900447343 30
v -15.3497349816218 121.397721428403 30
v -5.90340510585336 122.326331572453 30
v -10.6393069473684 117.067762508624 30
v -10.0638271871351 117.801493060196 30
v -9.53081860591116 116.463514233725 30
v -14.7265291411803 100.399843527576 30
v -20.4981280441118 94.8851765883386 30
v -15.9752627444377 108.853162466282 30
v -7.95528357343819 124.809326724739 30
v -4.45728185348466 103.529095999837 30
v -21.2275322701043 95.490147444732 30
v -1.91808671207498 106.283341140102 30
v -16.1771468072947 107.407187016978 30
v -16.5413974089781 106.756455124835 30
v -16.9909215696673 108.129194679739 30
v -15.9384153116347 104.186937470504 30
v -0.578159519552995 124.182305976636 30
v -12.6787427342975 103.606921506887 30
v -9.9230931679094 94.5445927267515 30
v -22.1841013287316 97.9813276085382 30
v -8.86284334060386 108.932165958318 30
v -9.97507564964988 109.515410314979 30
v -14.764902150377 116.746544856393 30
v -12.7428563708495 129.755126617415 30
v -14.859687427481 108.061847315851 30
v -16.9925244319159 109.731871137454 30
v -6.79704544861622 111.990198628945 30
v -16.5370452268615 105.292916291173 30
v -14.4121403203815 105.820251762088 30
v -16.587906992 103.846295301175 30
v -15.843807993011 105.913788202403 30
v -17.3068669482042 131.979700870004 30
v -3.78828820935284 92.945672886609 30
v -17.2292635069679 100.11150817773 30
v -18.4003453494011 99.7333730168674 30
v -12.4030998100212 101.361660508077 30
v -21.7209802282132 114.281342163543 30
v -22.9764773042605 100.92929814636 30
v -2.29554933881491 118.706337717103 30
f 1004 524 160
f 27 28 765
f 624 62 63
f 746 747 286
f 840 686 764
f 914 184 528
f 681 182 463
f 103 492 693
f 1181 273 1120
f 762 33 34
f 451 155 584
f 99 100 530
f 1220 271 683
f 530 1190 1212
f 1221 401 690
f 762 283 1188
f 98 35 36
f 1090 470 173
f 786 596 680
f 1150 460 56
f 962 221 467
f 667 274 465
f 938 113 511
f 1128 47 48
f 44 45 1111
f 703 1223 47
f 1122 191 743
f 998 667 178
f 503 268 662
f 1036 651 64
f 539 765 474
f 541 229 523
f 793 515 25
f 1283 594 1118
f 542 76 77
f 338 935 753
f 1148 248 692
f 888 260 677
f 1280 149 653
f 907 73 74
f 1162 671 248
f 980 360 672
f 1284 161 620
f 1165 362 677
f 997 303 620
f 1070 558 80
f 1160 214 631
f 24 515 763
f 893 183 573
f 1229 593 1245
f 1093 71 72
f 82 626 751
f 1229 22 23
f 946 83 84
f 1046 68 69
f 21 1245 812
f 466 984 726
f 925 800 152
f 712 174 449
f 654 702 353
f 951 319 910
f 740 921 293
f 929 373 586
f 994 377 740
f 809 366 1271
f 1035 860 91
f 828 165 1124
f 1142 127 128
f 1035 314 446
f 742 128 129
f 731 369 963
f 1330 151 833
f 731 126 127
f 804 314 861
f 919 205 836
f 865 94 95
f 849 165 828
f 864 403 618
f 522 95 96
f 1222 550 243
f 909 890 123
f 586 1292 89
f 1208 522 96
f 921 411 779
f 522 990 364
f 807 430 1055
f 1208 97 120
f 899 1 2
f 988 556 339
f 957 256 469
f 704 492 104
f 991 60 61
f 1079 349 1078
f 908 468 962
f 1060 908 109
f 886 313 627
f 814 57 58
f 1060 468 908
f 979 805 344
f 1286 178 465
f 1327 503 51
f 1327 285 503
f 906 114 115
f 503 50 51
f 1045 565 1044
f 465 178 667
f 1128 703 47
f 1157 565 116
f 633 45 46
f 1111 43 44
f 1066 454 869
f 918 117 118
f 955 118 119
f 869 39 40
f 119 38 955
f 38 119 37
f 38 39 955
f 779 411 526
f 992 716 276
f 1187 332 1301
f 1099 16 17
f 776 294 1240
f 940 331 654
f 776 1269 138
f 654 353 1080
f 1183 915 141
f 654 13 14
f 795 776 138
f 1081 1080 353
f 1206 1289 445
f 525 944 11
f 839 179 475
f 944 10 11
f 791 142 143
f 385 478 784
f 1218 150 583
f 975 215 421
f 1024 1328 791
f 1268 6 645
f 1268 1175 5
f 1175 4 5
f 1028 889 219
f 1227 676 388
f 899 146 1
f 1055 984 1021
f 670 380 573
f 685 1072 920
f 461 593 389
f 926 653 149
f 766 193 1078
f 1183 141 142
f 1195 8 9
f 554 129 130
f 688 149 1147
f 1246 152 638
f 583 150 1075
f 970 153 931
f 80 558 79
f 625 261 634
f 902 272 690
f 1262 160 923
f 556 988 33
f 425 156 722
f 481 1050 464
f 965 192 1317
f 1255 181 575
f 829 238 436
f 854 172 1141
f 783 172 431
f 1081 353 1010
f 539 793 26
f 584 690 851
f 774 982 732
f 907 601 73
f 1241 450 475
f 544 775 210
f 1024 144 870
f 784 7 8
f 806 212 627
f 967 335 597
f 958 803 205
f 963 550 125
f 1011 166 507
f 678 161 433
f 1203 341 942
f 857 670 183
f 1302 395 1306
f 660 131 132
f 1123 510 611
f 719 157 959
f 948 170 640
f 757 370 600
f 512 755 568
f 1321 169 841
f 562 176 876
f 544 444 1138
f 1032 345 976
f 261 527 616
f 947 817 711
f 1172 19 20
f 1197 175 745
f 538 289 514
f 932 350 714
f 877 252 606
f 730 177 752
f 925 329 965
f 1033 790 178
f 938 112 113
f 325 579 769
f 1269 887 137
f 1006 180 523
f 812 426 1172
f 434 207 916
f 675 187 504
f 492 704 957
f 794 187 789
f 893 506 183
f 558 432 79
f 686 840 488
f 1224 392 831
f 762 607 283
f 684 101 495
f 1017 186 596
f 1130 578 266
f 504 187 590
f 923 160 524
f 1091 188 768
f 841 312 842
f 920 193 771
f 1036 64 65
f 1114 983 257
f 1288 1149 484
f 115 1045 906
f 268 1068 662
f 966 289 648
f 1158 406 1048
f 62 624 1233
f 1082 156 434
f 831 194 1224
f 1207 581 730
f 1305 278 734
f 944 254 639
f 709 196 1020
f 688 393 1052
f 873 206 850
f 1214 1215 945
f 733 198 1244
f 1153 757 249
f 419 821 570
f 1209 168 1251
f 953 200 637
f 549 281 719
f 1018 1027 439
f 974 214 732
f 792 202 913
f 1095 697 718
f 560 203 727
f 844 237 609
f 415 1323 510
f 770 407 933
f 865 522 836
f 909 123 124
f 1056 482 241
f 1035 92 801
f 669 307 898
f 1285 181 1255
f 1237 830 782
f 862 387 1139
f 1051 209 993
f 1140 604 666
f 544 210 444
f 1065 265 431
f 773 449 211
f 1005 258 638
f 886 212 896
f 1164 1009 897
f 308 655 1069
f 1075 1076 370
f 982 361 732
f 1216 72 601
f 975 559 215
f 422 1022 868
f 994 216 937
f 643 1038 821
f 643 305 457
f 1040 243 550
f 820 218 1226
f 1215 1124 985
f 1132 324 808
f 1213 145 146
f 1004 471 1277
f 1171 258 540
f 962 284 908
f 866 111 1205
f 1029 481 493
f 786 267 598
f 54 501 1104
f 1319 467 221
f 1225 737 310
f 857 183 505
f 905 302 824
f 879 252 587
f 17 992 1099
f 1084 159 1265
f 1055 430 984
f 1031 1047 380
f 1061 517 228
f 902 463 272
f 523 229 1008
f 528 231 922
f 1183 791 324
f 1133 236 1076
f 708 295 707
f 1179 306 831
f 1082 323 577
f 785 903 1029
f 863 233 533
f 532 1091 614
f 835 339 881
f 706 155 451
f 1002 655 738
f 740 216 994
f 1022 559 613
f 428 856 961
f 1109 237 844
f 1159 192 648
f 1085 1161 476
f 847 242 545
f 981 352 1013
f 1162 248 1062
f 1184 1290 1288
f 568 415 510
f 911 241 482
f 929 89 90
f 545 242 544
f 1235 213 1030
f 797 243 494
f 124 125 550
f 780 418 1180
f 483 276 1274
f 834 413 612
f 802 307 669
f 1228 1178 462
f 565 1045 116
f 419 1329 553
f 665 158 442
f 736 432 671
f 1063 1283 978
f 1153 287 757
f 1022 163 868
f 404 1252 618
f 554 742 129
f 603 251 885
f 1144 169 1321
f 816 587 252
f 606 172 1166
f 753 253 630
f 943 433 161
f 421 254 640
f 639 9 10
f 652 255 513
f 1254 1280 653
f 469 256 598
f 597 106 967
f 838 552 663
f 818 346 547
f 1077 1174 536
f 1322 220 810
f 1116 259 541
f 24 25 515
f 977 260 888
f 433 214 677
f 60 991 616
f 634 365 625
f 903 440 1257
f 575 292 574
f 666 263 1140
f 993 209 1289
f 1206 264 551
f 1323 204 510
f 602 1151 1275
f 172 854 431
f 591 266 463
f 1025 292 504
f 1239 267 591
f 1113 696 1101
f 363 1068 599
f 662 50 503
f 765 28 764
f 474 486 269
f 952 725 303
f 1106 356 843
f 1061 271 517
f 101 102 495
f 851 272 623
f 623 187 794
f 517 495 273
f 597 704 105
f 114 511 113
f 599 268 1286
f 947 275 710
f 773 211 448
f 811 276 459
f 716 19 1172
f 815 277 479
f 645 7 784
f 1084 278 1305
f 1243 170 948
f 709 279 425
f 745 435 1318
f 1280 1279 720
f 1258 281 549
f 912 281 567
f 959 372 549
f 374 644 729
f 813 752 297
f 1188 556 762
f 1312 35 607
f 1145 371 650
f 585 967 107
f 1270 1104 543
f 790 299 480
f 930 455 176
f 747 343 638
f 1242 287 758
f 600 236 498
f 722 288 425
f 620 161 447
f 1087 200 1232
f 1159 1158 954
f 777 351 695
f 464 154 822
f 1054 291 529
f 788 304 485
f 1014 292 1025
f 674 682 326
f 1267 293 779
f 778 402 895
f 140 458 795
f 475 1314 1241
f 707 295 451
f 487 185 964
f 767 296 688
f 1254 255 792
f 810 297 661
f 514 289 966
f 84 1021 946
f 892 224 825
f 1009 496 1059
f 480 178 790
f 799 300 560
f 798 416 534
f 691 301 545
f 1177 375 827
f 508 905 824
f 455 286 714
f 723 725 288
f 630 253 629
f 794 304 628
f 1089 245 644
f 833 305 821
f 1053 168 713
f 831 306 628
f 272 590 623
f 291 635 700
f 882 175 1258
f 500 308 872
f 1314 475 738
f 1051 848 1331
f 1275 265 1219
f 1225 336 737
f 1290 512 240
f 484 603 153
f 885 355 884
f 1303 560 312
f 894 727 796
f 896 460 886
f 956 261 470
f 996 446 804
f 936 94 865
f 468 557 221
f 1205 112 632
f 1291 558 858
f 705 751 626
f 825 531 892
f 533 233 756
f 904 318 564
f 1223 46 47
f 1026 319 911
f 807 86 87
f 765 320 474
f 489 184 846
f 63 939 624
f 1249 337 845
f 486 914 924
f 922 499 1262
f 1247 577 232
f 1054 635 291
f 1131 1132 808
f 1126 1127 497
f 548 325 927
f 928 498 1003
f 1152 326 675
f 485 304 789
f 950 562 327
f 880 1264 521
f 546 328 781
f 947 710 1049
f 441 925 965
f 752 177 514
f 1015 330 581
f 637 372 538
f 16 608 15
f 817 328 546
f 1117 332 1187
f 750 516 301
f 1071 535 948
f 640 254 949
f 407 844 933
f 609 350 1057
f 1016 335 585
f 1234 256 597
f 971 336 972
f 190 659 737
f 766 321 1196
f 1121 288 722
f 617 642 189
f 939 64 651
f 1293 339 698
f 1282 30 31
f 1064 487 964
f 1297 228 1097
f 663 390 1202
f 571 171 755
f 1008 342 523
f 1007 472 1006
f 901 343 746
f 638 473 1246
f 1164 344 896
f 805 56 460
f 1238 345 777
f 1164 896 976
f 818 563 346
f 1315 874 382
f 75 672 74
f 978 679 977
f 564 1122 1044
f 1137 668 274
f 647 349 991
f 1079 634 261
f 891 350 609
f 1316 286 800
f 694 351 1086
f 694 695 351
f 505 981 1013
f 1027 354 768
f 934 353 702
f 949 254 525
f 1011 614 960
f 768 296 1027
f 884 355 652
f 1310 414 799
f 1105 356 679
f 447 270 620
f 1148 357 1118
f 830 439 782
f 999 464 358
f 1100 605 267
f 1067 861 359
f 641 417 1222
f 672 360 1063
f 75 76 980
f 1046 361 982
f 1191 70 646
f 73 601 72
f 1165 214 974
f 721 703 363
f 826 49 662
f 1134 364 990
f 836 391 865
f 232 1296 1073
f 173 470 625
f 994 366 660
f 1271 554 809
f 775 491 1030
f 986 428 1075
f 1135 368 742
f 217 1125 1302
f 1253 1041 1042
f 963 125 126
f 1186 370 757
f 1076 428 1133
f 878 290 696
f 696 186 650
f 1231 1232 200
f 959 649 1088
f 699 373 996
f 1259 410 1292
f 612 374 717
f 729 282 471
f 403 1170 713
f 1177 829 516
f 774 732 376
f 1160 631 935
f 1173 377 660
f 1295 134 135
f 889 378 815
f 859 1268 645
f 479 379 1131
f 163 928 548
f 1199 380 670
f 1047 453 972
f 1102 381 1090
f 1086 351 806
f 396 873 874
f 850 359 849
f 1333 383 1115
f 197 563 983
f 1236 384 648
f 1048 1250 933
f 1278 385 639
f 1192 422 855
f 387 772 1020
f 718 175 1197
f 718 772 280
f 555 270 1146
f 146 899 1213
f 3 4 676
f 540 780 969
f 1245 21 22
f 942 1202 1203
f 1034 151 1330
f 803 391 836
f 1210 801 936
f 900 499 231
f 231 707 451
f 1211 862 1147
f 1146 621 393
f 619 394 1214
f 537 1125 1156
f 1124 395 985
f 797 456 243
f 1185 687 1272
f 995 373 699
f 1247 397 577
f 845 156 1248
f 733 398 1154
f 1244 759 1242
f 1265 399 1084
f 1265 1107 399
f 509 602 1182
f 265 518 735
f 706 1129 155
f 1097 520 681
f 1085 402 1161
f 1161 436 238
f 1170 403 937
f 618 250 864
f 457 819 168
f 1253 1042 368
f 1281 405 912
f 1250 203 933
f 1019 406 1158
f 894 405 1281
f 1320 534 770
f 1108 521 1109
f 1254 408 1280
f 913 567 280
f 876 409 877
f 1058 350 891
f 1261 410 807
f 1260 911 319
f 135 1168 1295
f 1168 136 887
f 802 669 1231
f 175 697 1258
f 1299 413 834
f 1298 580 413
f 611 414 1176
f 1309 798 1308
f 604 1311 1325
f 1326 416 798
f 787 416 761
f 1324 534 416
f 456 641 243
f 890 122 123
f 459 832 174
f 969 389 658
f 833 419 1330
f 821 199 570
f 145 870 144
f 808 324 1328
f 569 421 170
f 215 1194 657
f 868 479 1193
f 855 478 215
f 1112 423 997
f 196 724 423
f 1307 608 1099
f 992 18 716
f 724 425 288
f 748 434 156
f 483 426 1273
f 716 18 19
f 655 427 961
f 769 477 927
f 367 856 986
f 961 1133 428
f 1151 509 1107
f 610 327 606
f 910 430 951
f 984 466 1021
f 853 431 309
f 1065 518 265
f 79 432 78
f 239 507 671
f 678 433 260
f 161 629 943
f 425 748 156
f 748 744 434
f 635 898 307
f 744 279 745
f 1161 754 436
f 162 452 582
f 595 437 255
f 842 202 437
f 1118 438 1105
f 208 621 1332
f 782 439 767
f 166 960 1018
f 1039 689 1256
f 1255 575 1257
f 1317 932 441
f 286 747 800
f 665 442 263
f 1331 444 853
f 606 879 1141
f 1313 445 1289
f 853 444 210
f 309 852 1051
f 1313 587 445
f 1324 416 787
f 860 446 996
f 91 92 1035
f 843 447 1106
f 621 270 447
f 710 448 159
f 211 823 448
f 712 449 275
f 174 536 449
f 477 839 294
f 235 779 526
f 1230 451 392
f 295 706 451
f 1043 452 1235
f 872 308 1069
f 910 715 1143
f 1204 971 972
f 41 589 1066
f 1157 116 117
f 823 455 930
f 211 746 455
f 1110 456 797
f 958 205 641
f 820 457 305
f 1226 537 819
f 1083 458 1127
f 294 776 795
f 811 459 226
f 832 483 1119
f 805 460 896
f 56 57 1150
f 1201 461 389
f 1273 426 812
f 1167 589 246
f 1178 43 1111
f 591 463 182
f 1096 590 272
f 1101 999 358
f 481 262 574
f 668 599 465
f 1286 622 178
f 626 946 298
f 1021 85 1055
f 875 561 1319
f 760 371 467
f 585 908 284
f 1060 110 557
f 1304 469 598
f 273 495 693
f 1102 1090 173
f 956 527 261
f 729 471 160
f 282 728 471
f 1171 472 883
f 180 1006 472
f 1322 661 1246
f 152 747 638
f 539 474 269
f 846 184 474
f 1240 475 450
f 871 308 500
f 895 1085 216
f 827 375 713
f 458 1083 294
f 927 325 769
f 1194 478 385
f 645 6 7
f 815 479 219
f 1193 422 868
f 561 875 299
f 221 867 480
f 222 481 464
f 1103 381 1102
f 715 1026 167
f 1056 396 687
f 1180 483 244
f 418 1077 1119
f 592 484 153
f 611 204 1309
f 1000 485 326
f 291 700 973
f 1023 486 229
f 474 184 486
f 1001 588 1064
f 234 881 487
f 881 488 835
f 686 320 764
f 1334 489 846
f 234 588 989
f 580 490 330
f 148 700 490
f 1043 491 242
f 213 856 1030
f 273 492 469
f 103 104 492
f 1074 785 173
f 481 222 493
f 1041 494 1040
f 1306 1124 165
f 684 495 271
f 693 492 273
f 1189 496 1238
f 299 566 1059
f 701 1126 324
f 915 140 141
f 600 498 613
f 1003 579 325
f 900 717 499
f 1037 160 1262
f 778 500 162
f 235 871 500
f 566 543 223
f 54 55 979
f 1074 502 785
f 1296 232 1256
f 52 741 1327
f 285 622 503
f 578 504 266
f 292 674 1152
f 858 505 239
f 316 857 505
f 1012 506 233
f 505 183 506
f 1013 507 239
f 166 830 692
f 1107 508 225
f 159 448 905
f 1266 509 198
f 225 1276 1151
f 1149 510 1123
f 240 568 510
f 743 511 348
f 938 632 112
f 942 512 190
f 755 171 568
f 768 513 296
f 188 652 513
f 673 968 329
f 177 538 514
f 1092 515 793
f 259 593 763
f 691 750 301
f 199 1038 516
f 519 749 1061
f 271 495 517
f 775 1094 210
f 367 986 987
f 964 519 340
f 185 683 749
f 517 1181 228
f 273 469 1120
f 445 587 816
f 1264 409 891
f 1208 990 522
f 364 836 522
f 658 523 180
f 1116 541 523
f 924 524 1008
f 160 471 1004
f 12 1081 11
f 1010 333 949
f 1295 1168 411
f 887 450 1241
f 814 527 313
f 58 59 527
f 914 528 322
f 184 489 708
f 916 529 323
f 291 682 529
f 1190 530 1220
f 100 684 530
f 892 531 317
f 1287 592 153
f 863 532 233
f 311 884 532
f 531 970 317
f 153 603 931
f 798 534 300
f 1108 407 770
f 1071 734 535
f 1154 398 1243
f 901 536 1005
f 1174 418 540
f 819 537 1156
f 985 395 1125
f 917 637 538
f 372 1088 538
f 1092 793 269
f 26 27 539
f 472 1171 180
f 258 1174 540
f 515 1092 259
f 269 486 1023
f 78 736 77
f 1162 1062 542
f 1270 543 741
f 501 223 543
f 1138 545 544
f 242 491 544
f 691 545 158
f 301 829 847
f 702 546 195
f 331 837 546
f 818 547 151
f 945 218 820
f 701 548 230
f 379 868 548
f 1087 549 372
f 1232 1258 549
f 1040 550 369
f 1222 417 909
f 604 551 264
f 263 442 993
f 1115 1114 552
f 257 663 552
f 941 553 247
f 390 664 1034
f 809 554 130
f 1135 636 368
f 1139 555 862
f 196 423 1112
f 683 698 1188
f 339 835 988
f 111 866 110
f 867 221 557
f 81 751 1070
f 858 239 1291
f 613 559 249
f 422 1192 559
f 841 1303 312
f 1320 770 203
f 496 1189 299
f 164 760 561
f 610 950 327
f 302 823 930
f 983 563 257
f 1163 619 346
f 462 904 246
f 318 721 564
f 1167 565 1157
f 1045 348 906
f 543 566 285
f 1059 496 299
f 1279 913 280
f 912 405 719
f 512 568 240
f 171 1325 568
f 758 569 170
f 249 559 975
f 1329 570 1117
f 199 750 570
f 941 571 341
f 247 572 571
f 666 572 263
f 247 1329 1117
f 1169 573 380
f 317 893 573
f 1050 574 1014
f 262 575 574
f 1257 575 262
f 181 674 575
f 519 576 340
f 519 228 1297
f 689 1039 323
f 1248 156 1082
f 1130 605 578
f 1014 574 292
f 1002 1098 427
f 325 928 1003
f 1300 580 245
f 148 490 580
f 580 1015 245
f 330 917 581
f 436 582 242
f 436 754 582
f 759 583 287
f 400 1218 583
f 451 584 392
f 155 690 584
f 108 585 107
f 284 650 1016
f 995 1259 373
f 410 1261 1292
f 879 587 1313
f 252 521 816
f 708 989 295
f 234 487 588
f 42 1228 41
f 462 246 589
f 463 1096 272
f 266 504 590
f 1239 591 182
f 267 605 1130
f 531 1287 153
f 1184 659 1290
f 763 593 1229
f 1200 389 593
f 1062 594 360
f 1118 201 1283
f 652 595 255
f 1144 615 1310
f 1017 596 335
f 186 680 596
f 106 597 105
f 335 596 1234
f 1304 598 1239
f 256 596 786
f 274 668 465
f 1294 721 363
f 757 600 249
f 370 1076 600
f 977 888 601
f 362 1093 1216
f 1219 602 1275
f 1182 198 509
f 931 603 311
f 484 1123 603
f 1311 604 264
f 171 666 604
f 1100 822 605
f 154 578 605
f 1166 610 606
f 327 877 606
f 98 607 35
f 1212 99 530
f 1307 837 608
f 331 940 608
f 844 609 334
f 237 891 609
f 1276 610 1166
f 225 824 950
f 1123 611 251
f 510 204 611
f 834 612 194
f 1300 245 1089
f 600 613 249
f 498 163 613
f 1012 614 352
f 233 532 614
f 885 615 355
f 1176 414 1310
f 59 616 527
f 59 60 616
f 642 617 321
f 189 723 617
f 1209 618 403
f 1209 1251 618
f 563 1163 346
f 197 874 1315
f 997 620 270
f 1284 629 161
f 1332 621 447
f 208 1052 621
f 503 622 268
f 1033 566 790
f 851 623 306
f 590 187 623
f 642 624 338
f 1233 647 62
f 1074 625 365
f 470 261 625
f 705 626 298
f 82 83 626
f 470 627 313
f 381 806 627
f 623 794 306
f 304 1299 834
f 630 629 303
f 253 631 943
f 725 630 303
f 189 642 753
f 935 631 253
f 214 433 631
f 1136 632 938
f 315 866 632
f 462 633 318
f 462 1178 1111
f 1079 1078 634
f 193 1072 634
f 898 635 207
f 973 148 788
f 1252 636 250
f 404 1156 636
f 177 917 538
f 330 953 637
f 901 1005 343
f 258 883 638
f 1278 639 254
f 385 1195 639
f 948 640 333
f 170 421 640
f 958 641 456
f 205 919 641
f 1233 642 321
f 338 753 642
f 168 1053 457
f 1038 199 821
f 612 1089 374
f 245 581 1207
f 277 645 478
f 859 378 1175
f 1046 1191 361
f 70 71 646
f 62 647 61
f 321 766 647
f 1236 648 289
f 384 1159 648
f 1088 649 289
f 157 1019 649
f 1145 650 284
f 371 696 650
f 935 651 376
f 939 63 64
f 884 652 188
f 355 595 652
f 688 926 149
f 513 255 653
f 940 654 14
f 702 195 934
f 1069 655 213
f 308 738 655
f 734 781 1305
f 1049 710 159
f 421 657 254
f 421 215 657
f 969 658 180
f 389 1200 658
f 737 659 310
f 190 512 659
f 809 660 366
f 132 1173 660
f 1322 810 661
f 968 514 966
f 1068 826 662
f 49 50 662
f 737 838 190
f 1217 664 390
f 663 1217 390
f 257 563 664
f 572 1187 263
f 1301 691 158
f 571 666 171
f 571 572 666
f 480 998 178
f 315 632 1136
f 1137 743 668
f 191 599 668
f 745 882 435
f 1231 200 802
f 726 1199 298
f 573 183 670
f 1291 671 432
f 507 692 671
f 907 672 347
f 75 980 672
f 661 673 152
f 661 297 673
f 575 674 292
f 1000 291 485
f 292 675 504
f 326 789 675
f 889 676 378
f 388 899 1227
f 888 677 362
f 260 433 677
f 679 678 260
f 356 1106 678
f 1105 679 201
f 356 678 679
f 696 1113 186
f 358 1100 680
f 1097 681 401
f 520 182 681
f 181 682 674
f 181 1285 682
f 698 683 185
f 283 1190 1220
f 1220 684 271
f 100 101 684
f 1073 685 232
f 1072 193 920
f 234 686 488
f 234 489 1334
f 1272 687 396
f 383 1333 687
f 1052 767 688
f 296 513 926
f 1256 689 440
f 323 529 1285
f 1221 690 155
f 401 902 690
f 665 1301 158
f 750 199 516
f 671 692 248
f 507 166 692
f 102 693 495
f 102 103 693
f 464 999 222
f 1238 164 1189
f 290 695 694
f 878 371 760
f 878 696 371
f 1101 358 1113
f 718 697 175
f 567 281 697
f 487 1293 185
f 339 556 698
f 873 699 206
f 699 1056 995
f 307 700 635
f 307 490 700
f 548 701 379
f 1126 497 324
f 331 702 654
f 331 546 702
f 599 1294 363
f 318 633 1223
f 105 704 104
f 597 256 704
f 670 705 298
f 751 81 82
f 588 1001 295
f 1129 576 1221
f 528 707 231
f 989 489 234
f 528 708 707
f 528 184 708
f 724 709 425
f 386 1198 709
f 656 1049 159
f 275 773 710
f 459 711 226
f 459 712 711
f 711 712 275
f 459 174 712
f 827 713 476
f 375 1053 713
f 1058 714 350
f 176 455 714
f 1204 715 167
f 453 1031 1143
f 1274 716 426
f 276 424 992
f 612 717 194
f 374 1037 717
f 772 718 386
f 1095 567 697
f 912 719 281
f 405 796 719
f 772 720 280
f 387 862 1211
f 564 721 191
f 318 703 721
f 845 722 156
f 1121 723 288
f 617 723 337
f 189 630 725
f 952 724 288
f 196 709 724
f 997 952 303
f 723 189 725
f 466 726 298
f 227 1031 726
f 796 727 406
f 312 560 727
f 1277 728 220
f 813 730 752
f 1037 729 160
f 644 282 729
f 644 1207 282
f 581 177 730
f 1142 731 127
f 1142 1042 731
f 651 1036 376
f 361 974 732
f 1084 733 278
f 399 1266 733
f 781 734 195
f 278 1154 734
f 1219 735 400
f 518 987 735
f 77 736 542
f 78 432 736
f 825 1225 310
f 838 663 190
f 179 738 475
f 179 1002 738
f 1173 739 377
f 133 134 739
f 739 921 377
f 293 778 895
f 53 1270 52
f 543 285 741
f 250 1135 554
f 368 1142 742
f 1122 743 348
f 191 668 743
f 1318 744 745
f 207 434 744
f 1198 1197 745
f 175 882 745
f 455 746 286
f 211 901 746
f 800 747 152
f 746 343 747
f 279 748 425
f 279 744 748
f 185 749 519
f 683 271 749
f 332 750 691
f 332 570 750
f 316 751 705
f 316 558 1070
f 968 752 514
f 297 810 813
f 189 753 630
f 338 651 935
f 778 754 402
f 162 582 754
f 341 755 512
f 341 571 755
f 533 756 317
f 233 506 756
f 569 1153 249
f 1186 583 370
f 1243 758 170
f 398 1242 758
f 1182 759 198
f 400 583 759
f 561 760 467
f 164 695 878
f 1311 761 415
f 264 787 761
f 33 762 556
f 34 1312 762
f 24 763 23
f 515 259 763
f 29 764 28
f 29 840 764
f 27 765 539
f 764 320 765
f 647 766 349
f 1196 617 771
f 782 767 208
f 439 1027 767
f 1091 768 354
f 188 513 768
f 1098 769 579
f 179 839 769
f 560 1320 203
f 534 1108 770
f 766 771 193
f 617 337 771
f 1020 772 386
f 387 720 772
f 710 773 448
f 275 449 773
f 66 774 65
f 66 982 774
f 1094 775 367
f 544 491 775
f 887 1269 450
f 138 139 795
f 1032 777 345
f 695 164 777
f 1267 778 293
f 162 754 778
f 500 1267 235
f 293 921 779
f 1201 780 244
f 540 418 780
f 546 781 195
f 328 656 781
f 438 782 208
f 1237 357 830
f 265 783 431
f 429 1166 783
f 1195 784 8
f 478 645 784
f 1102 785 493
f 502 903 785
f 267 786 680
f 598 256 786
f 1206 787 264
f 445 147 787
f 973 788 485
f 1298 413 1299
f 675 789 187
f 326 485 789
f 622 1033 178
f 566 299 790
f 1024 791 143
f 324 497 1183
f 437 792 255
f 437 202 792
f 26 793 25
f 539 269 793
f 304 794 789
f 628 306 794
f 140 795 139
f 458 294 795
f 1019 796 406
f 157 719 796
f 1302 1306 494
f 165 1110 797
f 1308 798 300
f 204 1326 798
f 1310 799 169
f 414 1308 799
f 673 925 152
f 441 1316 800
f 93 801 92
f 93 936 801
f 953 802 200
f 490 307 802
f 958 861 803
f 314 1210 803
f 996 804 206
f 446 314 804
f 897 979 344
f 55 56 805
f 1103 1086 806
f 351 1032 806
f 1261 807 87
f 410 1260 951
f 1028 808 420
f 1131 379 1132
f 131 809 130
f 131 660 809
f 728 810 220
f 728 813 810
f 1307 811 226
f 424 276 811
f 21 812 20
f 461 244 1273
f 282 813 728
f 282 730 813
f 527 814 58
f 313 886 1150
f 889 815 219
f 378 859 815
f 147 816 521
f 147 445 816
f 837 817 546
f 226 711 817
f 664 818 151
f 664 563 818
f 1251 819 404
f 457 1226 819
f 547 820 305
f 547 945 820
f 833 821 419
f 305 643 821
f 464 822 358
f 154 605 822
f 905 823 302
f 211 455 823
f 508 824 225
f 302 562 824
f 972 1225 224
f 310 1287 825
f 703 1128 363
f 48 49 826
f 238 827 476
f 238 829 1177
f 619 828 394
f 382 849 828
f 847 829 436
f 301 516 829
f 692 830 357
f 166 1018 830
f 584 1179 392
f 628 194 831
f 276 832 459
f 276 483 832
f 547 833 151
f 547 305 833
f 628 834 194
f 628 304 834
f 1282 835 488
f 31 32 835
f 919 836 364
f 205 803 836
f 817 837 226
f 331 608 837
f 336 838 737
f 336 971 838
f 1240 839 475
f 477 769 839
f 30 840 29
f 30 1282 840
f 1321 841 437
f 169 799 1303
f 841 842 437
f 312 894 842
f 1105 843 356
f 438 208 843
f 933 844 334
f 407 1109 844
f 1249 845 1248
f 337 723 1121
f 320 846 474
f 320 1334 846
f 301 847 545
f 436 242 847
f 158 848 442
f 158 1138 848
f 850 849 382
f 359 456 1110
f 873 850 382
f 206 804 1067
f 584 851 306
f 690 272 851
f 854 852 309
f 443 1313 852
f 1065 853 210
f 309 1331 853
f 852 854 443
f 309 431 854
f 1193 855 422
f 277 478 855
f 1030 856 367
f 961 427 1133
f 705 857 316
f 705 670 857
f 316 858 558
f 316 505 858
f 277 859 645
f 277 815 859
f 929 860 373
f 90 91 860
f 850 1067 359
f 314 803 861
f 1146 862 555
f 1147 149 1211
f 931 863 533
f 311 532 863
f 554 1271 250
f 366 937 864
f 936 865 391
f 95 522 865
f 557 866 315
f 557 110 866
f 315 867 557
f 315 998 867
f 548 868 163
f 379 479 868
f 1066 869 40
f 454 918 869
f 1028 870 388
f 420 1024 870
f 1241 1314 235
f 738 308 871
f 162 872 452
f 162 500 872
f 874 873 382
f 396 699 873
f 828 1315 382
f 197 1185 1272
f 480 875 221
f 480 299 875
f 562 876 327
f 176 1263 876
f 876 877 327
f 409 880 877
f 164 878 760
f 695 290 878
f 1141 879 443
f 606 252 879
f 252 880 521
f 252 877 880
f 1293 881 339
f 234 488 881
f 669 882 412
f 669 435 882
f 1155 883 472
f 473 638 883
f 532 884 188
f 311 885 884
f 603 885 311
f 251 615 885
f 1150 886 460
f 627 212 886
f 1168 887 526
f 136 137 887
f 1216 888 362
f 601 347 977
f 808 1028 219
f 388 676 889
f 919 890 417
f 364 1134 890
f 1264 891 237
f 1263 176 1058
f 573 892 317
f 573 1169 892
f 756 893 317
f 756 506 893
f 727 894 312
f 796 405 894
f 740 895 216
f 740 293 895
f 976 896 212
f 344 805 896
f 501 897 223
f 501 979 897
f 744 1318 207
f 435 669 898
f 3 1227 2
f 388 870 1213
f 1230 900 231
f 1230 1224 900
f 449 901 211
f 449 536 901
f 681 902 401
f 681 463 902
f 1029 903 262
f 502 1296 903
f 246 904 564
f 462 318 904
f 1265 905 508
f 448 823 905
f 511 906 348
f 511 114 906
f 672 907 74
f 347 601 907
f 108 908 585
f 108 109 908
f 890 909 417
f 124 550 909
f 715 910 319
f 227 984 910
f 1026 911 482
f 319 951 1260
f 202 912 567
f 202 842 1281
f 792 913 408
f 202 567 913
f 924 914 322
f 486 184 914
f 1127 915 497
f 458 140 915
f 1082 916 323
f 207 635 1054
f 581 917 177
f 330 637 917
f 955 918 118
f 454 1167 1157
f 890 919 364
f 417 641 919
f 337 1249 771
f 397 685 920
f 377 921 740
f 739 411 921
f 528 922 322
f 231 499 922
f 924 923 524
f 322 922 1262
f 486 924 229
f 322 923 924
f 800 925 441
f 673 329 925
f 296 926 688
f 513 653 926
f 1083 927 477
f 230 548 927
f 548 928 325
f 163 498 928
f 89 929 586
f 90 860 929
f 562 930 176
f 562 302 930
f 863 931 311
f 533 970 931
f 286 1316 714
f 1317 192 1057
f 1048 933 334
f 203 770 933
f 734 1071 195
f 333 1010 934
f 1160 935 376
f 253 753 935
f 1210 936 391
f 93 94 936
f 1170 937 216
f 403 864 937
f 1137 938 511
f 274 1136 938
f 338 939 651
f 338 624 939
f 15 940 14
f 15 608 940
f 571 941 247
f 341 1203 941
f 1202 942 190
f 341 512 942
f 253 943 629
f 631 433 943
f 254 944 525
f 639 10 944
f 346 945 547
f 1214 394 1215
f 298 946 466
f 626 83 946
f 817 947 328
f 711 275 947
f 1071 948 333
f 535 1243 948
f 1081 1010 525
f 333 640 949
f 225 950 610
f 824 562 950
f 807 951 430
f 807 410 951
f 724 952 423
f 288 725 952
f 490 953 330
f 490 802 953
f 609 954 334
f 609 1057 954
f 869 955 39
f 869 918 955
f 313 956 470
f 313 527 956
f 492 957 469
f 704 256 957
f 359 958 456
f 359 861 958
f 719 959 549
f 157 649 959
f 1011 960 166
f 614 354 960
f 213 961 856
f 213 655 961
f 221 962 468
f 467 1145 962
f 731 963 126
f 369 550 963
f 1064 964 340
f 185 519 964
f 966 965 329
f 648 192 965
f 965 966 648
f 329 968 966
f 107 967 106
f 585 335 967
f 297 968 673
f 297 752 968
f 540 969 180
f 780 1201 969
f 317 970 533
f 531 153 970
f 1115 971 167
f 552 838 971
f 1047 972 224
f 453 1204 972
f 291 973 485
f 700 148 973
f 646 974 361
f 646 362 1165
f 569 975 421
f 569 249 975
f 1032 976 212
f 1164 897 344
f 978 977 347
f 679 260 977
f 1063 978 347
f 201 679 978
f 54 979 501
f 55 805 979
f 542 980 76
f 542 1062 980
f 506 981 505
f 506 1012 981
f 67 982 66
f 67 68 1046
f 552 1114 257
f 383 1185 983
f 910 984 430
f 227 726 984
f 1226 985 537
f 1215 394 1124
f 987 986 150
f 856 428 986
f 735 987 150
f 518 1094 987
f 32 988 835
f 32 33 988
f 295 989 588
f 708 489 989
f 121 990 120
f 121 1134 990
f 647 991 61
f 349 616 991
f 1099 992 424
f 17 18 992
f 263 993 551
f 442 1051 993
f 366 994 937
f 660 377 994
f 396 1056 699
f 1259 586 373
f 699 996 206
f 373 860 996
f 555 1112 270
f 423 952 997
f 867 998 480
f 315 1136 998
f 694 999 290
f 694 222 999
f 682 1000 326
f 682 291 1000
f 1129 1001 340
f 706 295 1001
f 1098 1002 179
f 427 655 1002
f 236 1003 498
f 236 1133 1003
f 1277 1007 1004
f 342 1008 1004
f 343 1005 638
f 536 1174 1005
f 342 1006 523
f 342 1007 1006
f 1004 1007 342
f 220 1155 1007
f 924 1008 229
f 524 1004 1008
f 897 1009 223
f 345 1238 1009
f 525 1010 949
f 353 934 1010
f 1013 1011 507
f 352 614 1011
f 614 1012 233
f 352 981 1012
f 505 1013 239
f 352 1011 1013
f 154 1014 578
f 154 1050 1014
f 245 1015 581
f 580 330 1015
f 284 1016 585
f 650 1017 1016
f 1016 1017 335
f 650 186 1017
f 830 1018 439
f 960 354 1018
f 649 1019 384
f 157 796 1019
f 709 1020 386
f 196 555 1139
f 946 1021 466
f 84 85 1021
f 559 1022 422
f 613 163 1022
f 541 1023 229
f 541 269 1023
f 144 1024 143
f 1328 324 791
f 578 1025 504
f 578 1014 1025
f 1333 1026 482
f 715 319 1026
f 767 1027 296
f 1018 354 1027
f 870 1028 420
f 388 889 1028
f 785 1029 493
f 262 481 1029
f 775 1030 367
f 491 1235 1030
f 726 1031 380
f 1143 715 453
f 806 1032 212
f 351 777 1032
f 285 1033 622
f 285 566 1033
f 1203 1034 553
f 664 151 1034
f 314 1035 801
f 446 860 1035
f 774 1036 65
f 774 376 1036
f 717 1037 499
f 374 729 1037
f 375 1038 643
f 375 1177 1038
f 577 1039 232
f 577 323 1039
f 1041 1040 369
f 494 243 1040
f 1042 1041 369
f 217 1302 1041
f 731 1042 369
f 368 636 1253
f 582 1043 242
f 582 452 1043
f 246 1044 565
f 246 564 1044
f 116 1045 115
f 1044 348 1045
f 67 1046 982
f 69 70 1191
f 1169 1047 224
f 1031 453 1047
f 1158 1048 334
f 406 1250 1048
f 328 1049 656
f 328 947 1049
f 464 1050 154
f 481 574 1050
f 209 1051 852
f 442 848 1051
f 621 1052 393
f 208 767 1052
f 643 1053 375
f 643 457 1053
f 916 1054 529
f 916 207 1054
f 86 1055 85
f 86 807 1055
f 482 1056 687
f 241 995 1056
f 954 1057 192
f 350 932 1057
f 409 1263 891
f 176 714 1058
f 223 1059 566
f 223 1009 1059
f 110 1060 109
f 557 468 1060
f 519 1061 228
f 749 271 1061
f 980 1062 360
f 248 1148 1062
f 672 1063 347
f 360 594 1283
f 1001 1064 340
f 588 487 1064
f 853 1065 431
f 210 1094 1065
f 41 1066 40
f 589 454 1066
f 206 1067 850
f 804 861 1067
f 599 1068 268
f 363 826 1068
f 1235 1069 213
f 452 872 1069
f 81 1070 80
f 751 316 1070
f 934 1071 333
f 934 195 1071
f 365 1072 685
f 365 634 1072
f 1074 1073 502
f 365 685 1073
f 625 1074 173
f 365 1073 1074
f 583 1075 370
f 150 986 1075
f 600 1076 236
f 1075 428 1076
f 174 1077 536
f 1119 483 1180
f 766 1078 349
f 193 634 1078
f 616 1079 261
f 616 349 1079
f 13 1080 12
f 13 654 1080
f 11 1081 525
f 12 1080 1081
f 1248 1082 577
f 434 916 1082
f 927 1083 230
f 477 294 1083
f 159 1084 656
f 399 733 1084
f 1170 1085 476
f 895 402 1085
f 381 1103 806
f 222 694 1086
f 637 1087 372
f 637 200 1087
f 538 1088 289
f 372 959 1088
f 374 1089 644
f 612 1300 1089
f 627 1090 381
f 627 470 1090
f 614 1091 354
f 532 188 1091
f 541 1092 269
f 541 259 1092
f 646 1093 362
f 646 71 1093
f 987 1094 367
f 518 1065 1094
f 280 1095 718
f 280 567 1095
f 266 1096 463
f 266 590 1096
f 576 1297 401
f 228 520 1097
f 769 1098 179
f 579 1133 1098
f 1307 1099 424
f 608 16 1099
f 680 1100 267
f 358 822 1100
f 290 1101 696
f 290 999 1101
f 785 1102 173
f 493 1103 1102
f 222 1103 493
f 222 1086 1103
f 54 1104 53
f 501 543 1104
f 1118 1105 201
f 438 843 1105
f 161 1106 447
f 161 678 1106
f 1151 1107 225
f 509 399 1107
f 1324 1108 534
f 147 521 1108
f 1108 1109 407
f 521 237 1109
f 849 1110 165
f 849 359 1110
f 633 1111 45
f 633 462 1111
f 270 1112 997
f 555 196 1112
f 680 1113 358
f 680 186 1113
f 971 1115 552
f 383 983 1114
f 1026 1333 167
f 383 1114 1115
f 658 1116 523
f 658 259 1116
f 247 1117 572
f 570 332 1117
f 1148 1118 594
f 357 1237 1118
f 174 1119 1077
f 174 832 1119
f 520 1120 182
f 520 1181 1120
f 845 1121 722
f 845 337 1121
f 1044 1122 348
f 564 191 1122
f 603 1123 251
f 484 1149 1123
f 828 1124 394
f 165 797 1306
f 1156 1125 217
f 537 985 1125
f 230 1126 701
f 1127 458 915
f 230 1127 1126
f 230 1083 1127
f 826 1128 48
f 826 363 1128
f 1001 1129 706
f 340 576 1129
f 591 1130 266
f 591 267 1130
f 219 1131 808
f 219 479 1131
f 701 1132 379
f 701 324 1132
f 1098 1133 427
f 579 1003 1133
f 122 1134 121
f 122 890 1134
f 554 1135 742
f 250 636 1135
f 667 1136 274
f 667 998 1136
f 938 1137 274
f 511 743 1137
f 848 1138 444
f 158 545 1138
f 1020 1139 387
f 1020 196 1139
f 551 1140 263
f 551 604 1140
f 854 1141 443
f 172 606 1141
f 742 1142 128
f 368 1042 1142
f 227 1143 1031
f 227 910 1143
f 355 1144 595
f 355 615 1144
f 962 1145 284
f 467 371 1145
f 862 1146 393
f 270 621 1146
f 393 1147 862
f 393 688 1147
f 357 1148 692
f 594 1062 1148
f 592 1288 484
f 240 510 1149
f 814 1150 57
f 814 313 1150
f 1275 1151 429
f 602 509 1151
f 292 1152 675
f 674 326 1152
f 758 1153 569
f 758 287 1153
f 734 1154 535
f 278 733 1154
f 883 1155 473
f 472 1007 1155
f 636 1156 217
f 404 819 1156
f 918 1157 117
f 918 454 1157
f 954 1158 334
f 384 1019 1158
f 1158 1159 384
f 954 192 1159
f 732 1160 376
f 732 214 1160
f 476 1161 238
f 402 754 1161
f 736 1162 542
f 736 671 1162
f 197 1163 563
f 197 619 1163
f 345 1164 976
f 345 1009 1164
f 214 1165 677
f 974 646 1165
f 783 1166 172
f 429 1276 1166
f 565 1167 246
f 454 589 1167
f 411 1168 526
f 135 136 1168
f 1047 1169 380
f 224 892 1169
f 1085 1170 216
f 476 713 1170
f 258 1171 883
f 540 180 1171
f 812 1172 20
f 426 716 1172
f 133 1173 132
f 133 739 1173
f 1005 1174 258
f 1077 418 1174
f 676 1175 378
f 676 4 1175
f 251 1176 615
f 251 611 1176
f 238 1177 827
f 516 1038 1177
f 589 1228 462
f 42 43 1178
f 392 1179 831
f 584 306 1179
f 780 1180 244
f 418 1119 1180
f 228 1181 520
f 517 273 1181
f 1219 1182 602
f 400 759 1182
f 915 1183 497
f 142 791 1183
f 1287 1184 592
f 310 659 1184
f 983 1185 197
f 383 687 1185
f 287 1186 757
f 287 583 1186
f 263 1187 665
f 572 1117 1187
f 683 1188 283
f 698 556 1188
f 561 1189 164
f 561 299 1189
f 607 1190 283
f 607 1212 1190
f 361 1191 646
f 1046 69 1191
f 215 1192 855
f 215 559 1192
f 277 1193 479
f 277 855 1193
f 657 1194 385
f 215 478 1194
f 639 1195 9
f 385 784 1195
f 766 1196 771
f 321 617 1196
f 279 1198 745
f 386 718 1197
f 709 1198 279
f 386 1197 1198
f 298 1199 670
f 726 380 1199
f 259 1200 593
f 259 658 1200
f 461 1201 244
f 389 969 1201
f 663 1202 190
f 390 1203 1202
f 1034 1203 390
f 553 941 1203
f 715 1204 453
f 167 971 1204
f 866 1205 632
f 111 112 1205
f 1289 1206 551
f 445 787 1206
f 282 1207 730
f 644 245 1207
f 97 1208 96
f 120 990 1208
f 713 1209 403
f 713 168 1209
f 803 1210 391
f 314 801 1210
f 720 1211 149
f 720 387 1211
f 98 1212 607
f 98 99 1212
f 388 1213 899
f 870 145 1213
f 346 1214 945
f 346 619 1214
f 218 1215 985
f 218 945 1215
f 888 1216 601
f 1093 72 1216
f 257 1217 663
f 257 664 1217
f 735 1218 400
f 735 150 1218
f 735 1219 265
f 400 1182 1219
f 283 1220 683
f 530 684 1220
f 1129 1221 155
f 576 401 1221
f 550 1222 909
f 243 641 1222
f 318 1223 703
f 633 46 1223
f 717 1224 194
f 717 900 1224
f 224 1225 825
f 972 336 1225
f 820 1226 457
f 218 985 1226
f 2 1227 899
f 3 676 1227
f 41 1228 589
f 42 1178 1228
f 763 1229 23
f 593 461 1245
f 1224 1230 392
f 231 451 1230
f 412 1231 669
f 1232 549 1087
f 412 1232 1231
f 412 1258 1232
f 642 1233 624
f 321 647 1233
f 335 1234 597
f 596 256 1234
f 1043 1235 491
f 452 1069 1235
f 649 1236 289
f 649 384 1236
f 438 1237 782
f 438 1118 1237
f 164 1238 777
f 496 1009 1238
f 1304 1239 182
f 598 267 1239
f 776 1240 450
f 294 839 1240
f 526 1241 235
f 526 887 1241
f 1244 1242 398
f 759 287 1242
f 1154 1243 535
f 398 758 1243
f 733 1244 398
f 198 759 1244
f 1229 1245 22
f 461 812 1245
f 1322 1246 473
f 661 152 1246
f 685 1247 232
f 685 397 1247
f 397 1248 577
f 397 1249 1248
f 920 1249 397
f 920 771 1249
f 727 1250 406
f 727 203 1250
f 618 1251 404
f 168 819 1251
f 618 1252 250
f 404 636 1252
f 217 1253 636
f 217 1041 1253
f 255 1254 653
f 792 408 1254
f 689 1255 440
f 689 1285 1255
f 1296 1256 440
f 232 1039 1256
f 903 1257 262
f 440 1255 1257
f 882 1258 412
f 697 281 1258
f 241 1259 995
f 241 1260 1259
f 1259 1260 410
f 241 911 1260
f 88 1261 87
f 1292 586 1259
f 322 1262 923
f 499 1037 1262
f 891 1263 1058
f 409 876 1263
f 521 1264 237
f 880 409 1264
f 905 1265 159
f 508 1107 1265
f 733 1266 198
f 399 509 1266
f 235 1267 779
f 500 778 1267
f 1175 1268 859
f 5 6 1268
f 138 1269 137
f 776 450 1269
f 52 1270 741
f 53 1104 1270
f 864 1271 366
f 864 250 1271
f 874 1272 396
f 874 197 1272
f 461 1273 812
f 244 483 1273
f 483 1274 426
f 276 716 1274
f 783 1275 429
f 783 265 1275
f 1151 1276 429
f 225 610 1276
f 728 1277 471
f 220 1007 1277
f 657 1278 254
f 657 385 1278
f 720 1279 280
f 408 913 1279
f 1279 1280 408
f 720 149 1280
f 202 1281 912
f 842 894 1281
f 835 1282 31
f 488 840 1282
f 978 1283 201
f 1063 360 1283
f 303 1284 620
f 303 629 1284
f 323 1285 689
f 529 682 1285
f 599 1286 465
f 268 622 1286
f 825 1287 531
f 310 1184 1287
f 1184 1288 592
f 240 1149 1288
f 993 1289 551
f 209 1313 1289
f 1288 1290 240
f 659 512 1290
f 671 1291 239
f 432 558 1291
f 88 1292 1261
f 88 89 1292
f 185 1293 698
f 487 881 1293
f 191 1294 599
f 191 721 1294
f 739 1295 411
f 739 134 1295
f 903 1296 440
f 502 1073 1296
f 401 1297 1097
f 576 519 1297
f 148 1298 788
f 148 580 1298
f 788 1299 304
f 788 1298 1299
f 413 1300 612
f 413 580 1300
f 1187 1301 665
f 332 691 1301
f 1041 1302 494
f 1125 395 1302
f 169 1303 841
f 799 560 1303
f 1120 1304 182
f 1120 469 1304
f 656 1305 781
f 656 1084 1305
f 494 1306 797
f 395 1124 1306
f 811 1307 424
f 226 837 1307
f 799 1308 300
f 1309 204 798
f 414 1309 1308
f 414 611 1309
f 1144 1310 169
f 615 1176 1310
f 761 1311 264
f 1325 171 604
f 762 1312 607
f 34 35 1312
f 852 1313 209
f 443 879 1313
f 871 1314 738
f 871 235 1314
f 619 1315 828
f 619 197 1315
f 932 1316 441
f 932 714 1316
f 932 1317 1057
f 441 965 1317
f 898 1318 435
f 898 207 1318
f 875 1319 221
f 561 467 1319
f 300 1320 560
f 300 534 1320
f 595 1321 437
f 595 1144 1321
f 1155 1322 473
f 1155 220 1322
f 761 1323 415
f 761 1326 1323
f 147 1324 787
f 147 1108 1324
f 415 1325 1311
f 415 568 1325
f 1323 1326 204
f 761 416 1326
f 52 1327 51
f 741 285 1327
f 420 1328 1024
f 420 808 1328
f 553 1329 247
f 419 570 1329
f 553 1330 419
f 553 1034 1330
f 1051 1331 309
f 848 444 1331
f 843 1332 447
f 843 208 1332
f 167 1333 1115
f 482 687 1333
f 686 1334 320
f 686 234 1334
