v -22.6253002958541 111.275416823948 17.5
v -21.9401869451714 111.972179583677 17.5
v -21.2550735944887 112.668942343407 17.5
v -20.569960243806 113.365705103137 17.5
v -19.8848468931234 114.062467862867 17.5
v -19.1997335424407 114.759230622596 17.5
v -18.514620191758 115.455993382326 17.5
v -17.8295068410753 116.152756142056 17.5
v -17.1443934903926 116.849518901786 17.5
v -16.4592801397099 117.546281661516 17.5
v -15.7741667890273 118.243044421245 17.5
v -15.0890534383446 118.939807180975 17.5
v -14.4039400876619 119.636569940705 17.5
v -13.7188267369792 120.333332700435 17.5
v -13.0337133862965 121.030095460164 17.5
v -13.4547073695225 121.934796380115 17.5
v -13.8364128257007 122.856777241625 17.5
v -14.182306995644 123.792798992922 17.5
v -14.4969991839296 124.739783817211 17.5
v -14.7860231541774 125.694930644342 17.5
v -15.0556030166018 126.655758532509 17.5
v -15.3124238344866 127.620083344042 17.5
v -15.5634237078591 128.5859433814 17.5
v -15.8156096609219 129.551493653254 17.5
v -16.0758895141185 130.514888506926 17.5
v -16.3509076971538 131.47417105676 17.5
v -16.646874657588 132.427186538921 17.5
v -16.9693863262009 133.371535222975 17.5
v -17.3232404409428 134.304577383636 17.5
v -17.712267643804 135.223496410647 17.5
v -18.1392031234961 136.125415877589 17.5
v -18.6056250097138 137.007554113321 17.5
v -19.1119766990277 137.867389658109 17.5
v -19.6576739217395 138.702807505914 17.5
v -20.2412796273158 139.512201349178 17.5
v -20.860717478493 140.294519155923 17.5
v -21.5134917648363 141.049253311183 17.5
v -22.1968871595463 141.776387221365 17.5
v -22.8690138106089 141.092831982198 17.5
v -23.5411404616716 140.409276743031 17.5
v -24.2132671127342 139.725721503864 17.5
v -24.8853937637968 139.042166264697 17.5
v -25.5575204148594 138.35861102553 17.5
v -26.229647065922 137.675055786363 17.5
v -26.9017737169846 136.991500547196 17.5
v -27.5739003680472 136.30794530803 17.5
v -28.2460270191098 135.624390068863 17.5
v -28.9181536701724 134.940834829696 17.5
v -29.590280321235 134.257279590529 17.5
v -30.2624069722977 133.573724351362 17.5
v -30.9345336233603 132.890169112195 17.5
v -31.6066602744229 132.206613873028 17.5
v -32.2787869254855 131.523058633862 17.5
v -32.9509135765481 130.839503394695 17.5
v -33.6230402276107 130.155948155528 17.5
v -34.2951668786733 129.472392916361 17.5
v -34.9672935297359 128.788837677194 17.5
v -35.6394201807986 128.105282438027 17.5
v -36.3115468318612 127.42172719886 17.5
v -36.9836734829238 126.738171959694 17.5
v -37.6558001339864 126.054616720527 17.5
v -36.9725955958895 125.382834907046 17.5
v -36.2893910577925 124.711053093565 17.5
v -35.6061865196956 124.039271280084 17.5
v -34.9229819815987 123.367489466603 17.5
v -34.2397774435018 122.695707653122 17.5
v -33.5565729054048 122.023925839641 17.5
v -32.8733683673079 121.352144026161 17.5
v -32.190163829211 120.68036221268 17.5
v -31.5069592911141 120.008580399199 17.5
v -30.8237547530172 119.336798585718 17.5
v -30.1405502149202 118.665016772237 17.5
v -29.4573456768233 117.993234958756 17.5
v -28.7741411387264 117.321453145275 17.5
v -28.0909366006295 116.649671331795 17.5
v -27.4077320625325 115.977889518314 17.5
v -26.7245275244356 115.306107704833 17.5
v -26.0413229863387 114.634325891352 17.5
v -25.3581184482418 113.962544077871 17.5
v -24.6749139101449 113.29076226439 17.5
v -23.9917093720479 112.618980450909 17.5
v -23.308504833951 111.947198637428 17.5
v -24.5294207290862 126.165383499336 17.5
v -22.7011101317332 120.148466866019 17.5
v -22.6418819795457 131.753874427587 17.5
v -29.9719545422324 126.119507616903 17.5
v -19.7346906331225 124.336083289409 17.5
v -27.0567582198567 130.132011418157 17.5
v -27.2139667937458 122.324664366188 17.5
v -19.9082169213638 128.546665488586 17.5
v -18.8470567161054 120.579346940536 17.5
v -23.2597504955173 135.427036097844 17.5
v -22.6663474169441 116.469948305562 17.5
v -25.8421704522194 133.269952953487 17.5
v -25.5164687268975 118.584612834428 17.5
v -22.8411482405453 123.392149758333 17.5
v -19.5879667066943 131.588255207752 17.5
v -33.163081189491 126.092381470067 17.5
v -22.9312544390767 128.73860336801 17.5
v -30.0837447892872 129.265964123606 17.5
v -30.4435728319239 123.139953236563 17.5
v -16.6315888532424 122.355778901157 17.5
v -20.1403487937837 117.951806550154 17.5
v -20.5210136674669 134.371214448744 17.5
v -17.8563461856676 126.426220195012 17.5
v -27.24277200204 125.203365995175 17.5
v -21.5640572136005 126.369558309443 17.5
v -21.9828995534961 137.641324340397 17.5
v -24.7411699242162 121.685256601389 17.5
v -28.0166890398566 127.764190264351 17.5
v -20.7554196195036 122.111675219438 17.5
v -27.7196508266283 119.839901746496 17.5
v -28.0920818520689 132.336782158324 17.5
v -25.3286082563207 128.444641726879 17.5
v -24.9087106940936 131.104610167612 17.5
v -25.0546379368836 123.94513990418 17.5
v -32.2189864214549 128.25705941539 17.5
v -17.9693069384574 129.486487713107 17.5
v -29.1583995810236 121.426545496627 17.5
v -17.5809081521976 124.289617294724 17.5
v -21.3268146820873 130.106147854527 17.5
v -16.7572469593719 120.242772172829 17.5
v -22.653846003437 114.312091352118 17.5
v -32.468699189063 124.003287019969 17.5
v -24.8627018592066 116.48773939012 17.5
v -25.4286920607746 135.399298511865 17.5
v -18.6947837663423 122.598558009186 17.5
v -20.7515144439121 120.162036221321 17.5
v -20.8786303458174 115.724846654311 17.5
v -18.202746365075 118.630159806463 17.5
v -28.5717168983837 123.750573216369 17.5
v -26.3595747065972 126.867637044738 17.5
v -23.9146825466439 137.279984102632 17.5
v -22.356342403734 133.690452675964 17.5
v -29.7788549355164 131.249502203155 17.5
v -19.7145299152731 126.681109139724 17.5
v -22.0511820641479 118.315185275047 17.5
v -20.4765790972803 136.352897942371 17.5
v -15.1431356515158 121.390746658589 17.5
v -24.1444123258491 132.717966742348 17.5
v -18.9426613225069 133.352499376039 17.5
v -26.2786755985516 120.840481288519 17.5
v -27.3817958909003 134.102386118975 17.5
v -20.9388280033129 132.683241548871 17.5
v -23.8217088326647 117.962655026069 17.5
v -35.0245230419469 126.076819127363 17.5
v -26.4779398438134 131.712004062116 17.5
v -30.9546528570559 124.747951659834 17.5
v -31.6485204693302 129.813688208478 17.5
v -21.230826996888 123.676226975976 17.5
v -23.6679122465532 124.789342395128 17.5
v -22.390832658651 121.78672668853 17.5
v -33.763507370597 127.642465163775 17.5
v -33.9510468105176 124.670526112578 17.5
v -17.9828642660224 131.150229459824 17.5
v -24.2046629930911 119.539138095567 17.5
v -26.3253800108831 117.182056049839 17.5
v -15.8180634693524 123.775001380563 17.5
v -31.5724560009952 126.686867986371 17.5
v -22.7971633977358 139.005516289595 17.5
v -16.4495776051625 125.521517004598 17.5
v -16.9114553749793 127.720083919883 17.5
v -29.6375974139451 127.706601116938 17.5
v -28.6748578814428 130.064605329942 17.5
v -30.7936983664496 121.538647200918 17.5
v -18.4464015261222 128.000807365788 17.5
v -24.1215141996106 115.031130816059 17.5
v -24.2583375281496 129.638817159905 17.5
v -19.7971839060438 130.07262927444 17.5
v -22.8352355109441 130.250909448635 17.5
v -21.4228336102199 128.593841773901 17.5
v -24.0116115992477 127.626686103649 17.5
v -27.0155350203893 118.514640723132 17.5
v -31.8652839152546 122.611879849562 17.5
v -19.5893941445417 116.533296646441 17.5
v -24.3296971538954 134.277452869939 17.5
v -23.0380576453818 126.141386363114 17.5
v -22.1437043318345 124.90201660571 17.5
v -19.1997864259151 135.071367273306 17.5
v -21.8243133479172 135.070503530198 17.5
v -29.245354861519 119.902053949389 17.5
v -19.5647971717349 119.300569869081 17.5
v -28.7470826832466 125.245213191387 17.5
v -26.6110579094763 123.770192196676 17.5
v -25.7427861717857 125.280171190635 17.5
v -21.370056323158 117.062951043138 17.5
v -25.6556829136942 129.895996211733 17.5
v -17.7765280470357 121.513963269928 17.5
v -18.6378093815081 125.239423286026 17.5
v -25.8252682334558 122.593954384645 17.5
v -26.7009778269543 128.2163286382 17.5
v -20.7982900312525 125.218852027552 17.5
v -22.285892863132 127.532013900647 17.5
v -27.9626898593841 126.383153144278 17.5
v -30.8831004991335 128.193756639968 17.5
v -21.3593812024421 131.428803747761 17.5
v -21.4455375967922 138.887173250999 17.5
v -32.1509931614392 125.268835515806 17.5
v -29.7669689798273 124.240221463693 17.5
v -22.2726955706452 136.333145937303 17.5
v -20.7929000027146 127.437221202262 17.5
v -20.6130464389797 137.718096920179 17.5
v -27.822723243892 129.064047032367 17.5
v -23.5409634141554 121.156042837624 17.5
v -24.1346582040229 122.921067932327 17.5
v -27.5222953453555 121.093575344246 17.5
v -28.3249853037726 118.668605322339 17.5
v -31.071378024813 130.997366726382 17.5
v -18.9314226894883 117.605106659524 17.5
v -29.4153076207089 132.53755017658 17.5
v -15.4153052742181 122.601357334176 17.5
v -23.1007699982401 118.974935141411 17.5
v -17.9645997373578 132.468474696807 17.5
v -25.1757823053346 127.216813722605 17.5
v -16.9450188599096 118.709109889852 17.5
v -22.6440013641941 113.036307157151 17.5
v -25.4452316482329 119.865382679104 17.5
v -20.1105150554616 123.16214195361 17.5
v -19.9675148182364 121.138430002287 17.5
v -28.5309819105718 133.539020227261 17.5
v -27.0201582368244 132.931229992769 17.5
v -27.5944274088369 131.225001659043 17.5
v -15.545926043972 120.07425191694 17.5
v -24.3527863868751 136.082916299878 17.5
v -25.1448683512044 137.051505796054 17.5
v -22.0334039505051 139.950804543458 17.5
v -33.1607938918979 129.029208080274 17.5
v -28.469351621707 122.488666305218 17.5
v -21.031807196779 114.505041018674 17.5
v -32.6553819926939 127.159171390738 17.5
v -23.688023244282 131.124538705599 17.5
v -25.3950901538262 132.17881080343 17.5
v -26.7490764828584 135.268641813726 17.5
v -21.7308918413092 120.813225156323 17.5
v -20.6983794078294 118.98711532934 17.5
v -21.7219569097812 119.529486644793 17.5
v -26.5811591882445 119.738206948545 17.5
v -28.9726253686311 128.947865639554 17.5
v -22.0654638214048 115.39446479845 17.5
v -23.6088869534366 113.691613889506 17.5
v -33.1701777990103 123.100192714657 17.5
v -30.0289104255368 120.711472765316 17.5
v -16.2578475895585 126.709595289353 17.5
v -21.9045288594571 122.789000722554 17.5
v -24.5005928371375 120.605278546536 17.5
v -25.6673436455428 115.697965887772 17.5
v -31.4329973151688 123.625896681173 17.5
v -23.7673648143039 116.128216900051 17.5
v -25.2735837822578 117.509986916484 17.5
v -26.2970525716581 134.268648926925 17.5
v -30.5367950877318 127.067270742544 17.5
v -28.6847685249822 131.404214022244 17.5
v -21.7562893315677 113.681087302949 17.5
v -26.0003174529357 136.347976839523 17.5
v -17.6304857160911 119.571360054994 17.5
v -19.7200182435035 125.435881758918 17.5
v -17.1985806356102 130.324694238941 17.5
v -16.8750383542866 128.941854364495 17.5
v -18.9168244288176 128.971318211803 17.5
v -17.533757002975 125.381751098064 17.5
v -17.5917356869377 123.084372933384 17.5
v -18.6613054342174 124.150338955878 17.5
v -27.3787288355089 117.481529669974 17.5
v -29.9276774679928 122.188222236373 17.5
v -29.0328105246574 126.750422390833 17.5
v -24.6879173669353 125.108446183666 17.5
v -34.8592441968791 127.234350754206 17.5
v -35.2848779491206 125.04934491237 17.5
v -19.6828777713399 122.176412152977 17.5
v -16.738672328341 121.301907297123 17.5
v -18.712393492352 130.312358636488 17.5
v -22.1511071035497 129.448271708854 17.5
v -20.6426862746929 129.303510114745 17.5
v -20.055553433578 133.360305669589 17.5
v -15.5484473882742 124.942921615859 17.5
v -28.4528984865438 120.597701690885 17.5
v -23.8470775033669 138.693432150499 17.5
v -23.1107642861728 115.31055589977 17.5
v -23.364257372964 122.197842756354 17.5
v -17.8707577277214 117.622637578954 17.5
v -20.5467107830114 130.787084498133 17.5
v -29.3456624678718 123.052685760717 17.5
v -36.1188619567845 126.067526722952 17.5
v -23.2386795428285 134.334719778534 17.5
v -23.0378450124209 137.936751018832 17.5
v -34.0975678647622 126.535028811202 17.5
v -19.6442242966092 136.974941010812 17.5
v -23.0308453208504 132.800565161567 17.5
v -21.9933274557708 132.590502567014 17.5
v -31.2409882997076 125.724600141451 17.5
v -23.957132610255 128.654558472353 17.5
v -18.4159795585465 134.309951190205 17.5
v -18.786249956831 121.590108520928 17.5
v -25.5360327231326 126.270962626917 17.5
v -30.3180898066602 132.097028481642 17.5
v -30.2662865573161 130.309224004661 17.5
v -26.2360517904302 130.727371007084 17.5
v -21.2578736937266 136.96421878943 17.5
v -20.8247063573422 135.369363956713 17.5
v -26.4853828016888 129.247248059807 17.5
v -27.595706198517 124.191989410629 17.5
v -27.7402507727834 123.182915978885 17.5
v -25.3126634330173 134.114072678155 17.5
v -24.6698878988232 137.920146316762 17.5
v -23.2954784182768 136.456626125926 17.5
v -14.5343679319041 122.163509822758 17.5
v -31.7979931892951 121.607480491122 17.5
v -21.4812771509264 134.145680464198 17.5
v -19.1538598711043 136.085759550157 17.5
v -16.0676673526584 119.209453829504 17.5
v -18.622342435368 119.612409357819 17.5
v -17.8614204920458 120.530789926851 17.5
v -21.1190954252862 118.010814725969 17.5
v -22.2948836892655 117.371270116707 17.5
v -19.8662833360443 115.542653904655 17.5
v -23.7264135960446 123.811517457424 17.5
v -26.4829092470671 116.235136020219 17.5
v -19.5798806824797 134.191935250683 17.5
v -34.0439731199011 128.553176759598 17.5
v -14.7128491320355 120.539232031824 17.5
v -16.8023471841838 123.679952132601 17.5
v -33.1045294575067 125.130667619623 17.5
v -17.9727321767724 133.442540288596 17.5
v -30.0773366656832 125.157190316807 17.5
v -22.1684983224175 130.929054769642 17.5
v -23.4516603219486 117.055593453046 17.5
v -27.304702061376 127.100455023214 17.5
v -27.0175625046052 126.150335165802 17.5
v -19.7214365694546 120.229298995731 17.5
v -14.0552952569542 121.211335960393 17.5
v -19.5047081289072 132.557940177851 17.5
v -18.8315279819984 126.21766123277 17.5
v -19.4080686870069 127.655759480598 17.5
v -20.6371092742165 126.512366645066 17.5
v -16.428733056599 124.562953379557 17.5
v -33.9648637963938 125.607448804194 17.5
v -20.4105763368193 117.030597749288 17.5
v -23.7448268182671 133.556192125544 17.5
v -17.3260237715633 131.80037796242 17.5
v -18.6627063496073 131.818897943814 17.5
v -17.5890820744135 128.351709736582 17.5
v -24.3931387918037 114.159332715892 17.5
v -18.5061794878293 127.080555147285 17.5
v -25.9578315115948 127.686889524804 17.5
v -18.6353945839498 116.685513073709 17.5
v -32.6683359241907 129.889428062135 17.5
v -31.9268550570732 130.681941544433 17.5
v -24.9037326193835 133.269418049397 17.5
v -29.2333293221464 118.950924041651 17.5
v -25.7111392515071 121.629086435713 17.5
v -19.3538081449125 118.413352564241 17.5
v -19.9408122532199 135.609882551767 17.5
v -21.6504877235179 116.200669514182 17.5
v -24.1497044400987 135.182634066836 17.5
v -22.9262648980898 118.087789965543 17.5
v -24.4012888759703 117.266898266277 17.5
v -24.6940037389522 118.205743676276 17.5
v -23.5335982815123 132.030842463697 17.5
v -20.5685443735929 138.630730291817 17.5
v -15.6869395562529 126.007953468586 17.5
v -25.3845997179532 120.760939667145 17.5
v -20.8900207801458 121.197154398452 17.5
v -31.0117710217361 129.12375643158 17.5
v -32.6808133414495 122.231274837011 17.5
v -24.5412020465049 131.918224143195 17.5
v -20.5034723803106 131.839572939593 17.5
v -23.1742919554436 127.113802784885 17.5
v -15.9636888112279 121.755537686468 17.5
v -33.9789483621429 123.677336286786 17.5
v -34.7687467116899 124.329019842045 17.5
v -22.6973405973258 137.113403941837 17.5
v -25.0926189540767 114.905112429034 17.5
v -26.7794640709983 121.561687102744 17.5
v -19.3170464490793 123.555250393914 17.5
v -28.2290039319764 134.376798931242 17.5
v -23.6661419816579 120.262757019436 17.5
v -25.8892881477105 124.35978576363 17.5
v -21.5242458420084 135.887996402605 17.5
v -15.8573778989171 120.889408281379 17.5
v -27.2574867498008 132.095502842327 17.5
v -29.3925499754394 133.40863158396 17.5
v -27.5719568703198 134.960312596214 17.5
v -24.9397018717115 122.549429782566 17.5
v -17.6578419795895 127.273207532286 17.5
v -35.5774169962849 126.746329953789 17.5
v -14.6820179152153 123.076216455541 17.5
v -32.3579775212292 126.363427449522 17.5
v -31.8698604724599 127.482611927586 17.5
v -32.2114855715761 129.137155766953 17.5
v -31.339763158124 120.86192112413 17.5
v -30.6560159724415 123.957650192009 17.5
v -31.7316341997832 124.416198148998 17.5
v -27.9148962364874 121.846058215472 17.5
v -26.1741928829838 132.496747849279 17.5
v -25.6988371146558 131.394067016267 17.5
v -30.1150283319385 119.844137806394 17.5
v -17.0746821978017 126.095589646288 17.5
v -25.1761842182235 136.217732085095 17.5
v -21.5862953086189 122.015479239726 17.5
v -22.5500318162413 120.96836579887 17.5
v -22.1132066523788 123.971912487914 17.5
v -22.8737881876044 124.412525435964 17.5
v -22.9261181523809 125.279787829142 17.5
v -22.2048863796594 125.774427053324 17.5
v -32.9811246516334 127.924324338486 17.5
v -23.9524542355601 126.78333030757 17.5
v -27.0972360045647 120.384290941823 17.5
v -23.0111614735878 127.919978798786 17.5
v -25.7000287062372 116.536048019321 17.5
v -30.7370379368239 122.365188887634 17.5
v -21.6110810215039 133.326532510708 17.5
v -16.2475261985695 123.07840223502 17.5
v -15.0006974477711 123.830977257064 17.5
v -21.0849375825995 122.866052254976 17.5
v -20.4428483703528 123.915663511528 17.5
v -24.495677850111 115.757618618483 17.5
v -23.445498778891 114.553594426906 17.5
v -21.8533347582707 114.496903421892 17.5
v -27.7276797618758 133.354169169525 17.5
v -33.2917454410362 124.15501761539 17.5
v -24.3441671881593 124.339138923438 17.5
v -23.9916189754186 125.544382994588 17.5
v -24.9581040328215 119.195922346299 17.5
v -23.8969783638491 118.779125322189 17.5
v -29.6920523053057 128.534525930576 17.5
v -28.8206962969155 127.553939925629 17.5
v -29.5141785937808 129.903222366405 17.5
v -27.8786443416324 130.406446683885 17.5
v -29.2243901160286 130.659351670832 17.5
v -25.9771092813611 117.915738555954 17.5
v -23.3663842626846 129.52543175714 17.5
v -23.660751018293 130.298123984665 17.5
v -24.8691101694107 130.244998972187 17.5
v -24.7062270697523 128.963536032796 17.5
v -16.3411732109971 128.314513614264 17.5
v -16.1216820921381 127.514299082596 17.5
v -21.3487301621957 124.54123796111 17.5
v -26.4765653152402 124.925117777576 17.5
v -22.6304438692797 134.892814130475 17.5
v -30.7351851889889 120.343656150603 17.5
v -22.8852385917145 139.857867354192 17.5
v -22.35484192067 138.344424384331 17.5
v -16.6234436906171 129.729989270548 17.5
v -17.4518073263435 122.271830139356 17.5
v -22.4462953494154 126.720042849983 17.5
v -22.681877667084 122.610673906935 17.5
v -26.781060662084 136.090212978579 17.5
v -33.4135641029969 126.932800844503 17.5
v -24.8632169621079 134.854027889451 17.5
v -25.9515497110311 119.251178306784 17.5
v -26.9635417642356 123.068711916089 17.5
v -25.7891258358397 123.468693077013 17.5
v -20.2562947397927 114.807335753898 17.5
v -28.3388877869537 124.53549880794 17.5
v -34.6696140249336 128.028530184954 17.5
v -20.8391511826005 133.612119985842 17.5
v -18.552618478931 123.371742522418 17.5
v -24.5851463976429 128.172464350387 17.5
v -18.9686238175688 131.07489838271 17.5
v -16.7972241127056 119.469340779532 17.5
v -26.2517772945484 125.903352797505 17.5
v -18.7301194294791 132.591266897208 17.5
v -28.4976196365946 119.499892829708 17.5
v -29.7933809346498 126.86812875103 17.5
v -27.0010034813946 116.807889234233 17.5
v -28.6792992711948 126.037804131686 17.5
v -22.9302700508199 131.011178410822 17.5
v -19.7787651261558 130.842339894938 17.5
v -19.8773298875984 129.311439484823 17.5
v -29.2135038199036 120.664962891096 17.5
v -21.0170848880596 139.534313919433 17.5
v -19.1659851600247 115.880934622019 17.5
v -20.3160928740179 116.259965730594 17.5
v -19.6768130548861 117.315594202655 17.5
v -28.5824166626168 128.28515340627 17.5
v -26.5593118398905 133.546254158209 17.5
v -28.1284155080075 117.85461380339 17.5
v -32.1296996643544 123.323755907618 17.5
v -30.875280983883 126.388797005013 17.5
v -20.6754682345239 128.25102997305 17.5
v -21.3992331809412 129.351544586041 17.5
v -22.1747075328284 128.690568896714 17.5
v -17.9560724805917 130.390368181571 17.5
v -21.4563987529012 125.611049504891 17.5
v -21.4055231620746 118.713044297565 17.5
v -23.4756944839752 139.366128300634 17.5
v -17.010517383935 126.860564395587 17.5
v -19.8537699059467 137.704849892094 17.5
v -27.9954564544859 125.20526923664 17.5
v -29.3498159579782 125.695953661093 17.5
v -27.1969537819246 119.267932406186 17.5
v -21.5588558180311 127.178130622303 17.5
v -18.4472765820633 135.061869910095 17.5
v -29.1672897881172 122.186882384544 17.5
v -25.4197307806752 129.186638240417 17.5
v -20.5417761769172 130.041873650164 17.5
v -22.3266811306775 119.041660394076 17.5
v -31.6165252568139 128.692004923297 17.5
v -22.541528452889 135.635323901808 17.5
v -17.0238445152266 131.083129805899 17.5
v -22.0682046658842 130.189739022546 17.5
v -29.9022064650845 121.444631612196 17.5
v -30.1913647737771 132.83164774081 17.5
v -24.2916366360377 130.70231974864 17.5
v -17.9240648367724 116.885622010615 17.5
v -23.9880151300945 121.767756061347 17.5
v -31.0216129652644 130.240560184678 17.5
v -26.7185666450068 117.829843892422 17.5
v -20.2021919285878 119.670640867306 17.5
v -18.2334572725961 128.70329138383 17.5
v -19.919240510156 134.860463197618 17.5
v -20.0365129303113 118.675817418176 17.5
v -29.0915863940714 124.574825980243 17.5
v -28.2628178125714 127.06299226091 17.5
v -25.5057368972511 130.618931338236 17.5
v -26.9580577488606 130.85930621383 17.5
v -31.2047564028004 122.929442356457 17.5
v -20.2310539949409 132.514310022377 17.5
v -25.0861818071386 125.708521894947 17.5
v -21.9183126268123 112.970679237699 17.5
v -21.1697121336504 138.202642893744 17.5
v -34.5411519932734 125.130386940437 17.5
f 208 52 53
f 213 27 28
f 71 396 440
f 295 51 52
f 490 86 324
f 376 84 204
f 294 83 214
f 275 19 20
f 260 105 189
f 460 122 255
f 413 18 19
f 211 386 413
f 211 158 412
f 306 139 330
f 330 15 16
f 292 323 29
f 292 179 318
f 381 49 50
f 309 287 138
f 224 92 305
f 34 359 488
f 233 126 254
f 371 108 285
f 447 45 46
f 382 233 46
f 398 224 225
f 225 43 44
f 35 471 359
f 304 43 225
f 37 226 36
f 486 441 40
f 226 37 39
f 441 39 40
f 486 40 41
f 39 37 38
f 297 88 187
f 271 169 259
f 289 85 196
f 271 459 468
f 346 149 347
f 517 410 101
f 364 478 241
f 307 174 364
f 241 66 67
f 448 286 98
f 470 181 276
f 385 58 59
f 364 174 478
f 195 388 251
f 369 65 66
f 283 59 60
f 387 98 198
f 370 64 65
f 502 119 494
f 283 60 62
f 259 118 271
f 283 63 268
f 508 157 430
f 60 61 62
f 510 118 259
f 263 477 75
f 243 21 22
f 320 139 379
f 310 11 12
f 465 157 508
f 474 103 337
f 461 328 106
f 215 280 10
f 450 95 423
f 505 9 280
f 342 79 80
f 453 129 229
f 497 137 485
f 229 129 239
f 240 80 81
f 453 315 129
f 229 253 4
f 253 3 4
f 2 82 1
f 216 123 240
f 482 99 408
f 208 135 295
f 372 78 79
f 505 209 345
f 469 90 259
f 309 493 31
f 490 265 86
f 319 56 57
f 256 87 189
f 436 243 22
f 425 100 195
f 432 168 431
f 349 207 463
f 116 205 316
f 480 90 273
f 500 257 25
f 512 103 351
f 223 310 12
f 456 274 104
f 359 34 35
f 342 240 417
f 453 6 315
f 48 375 47
f 365 231 358
f 423 95 357
f 465 76 317
f 234 362 399
f 403 404 177
f 323 292 141
f 366 196 281
f 385 283 146
f 268 64 370
f 408 193 482
f 121 196 325
f 428 252 164
f 347 54 346
f 228 131 282
f 322 98 336
f 412 102 211
f 223 12 13
f 351 103 474
f 472 315 6
f 308 104 299
f 493 292 30
f 487 105 397
f 436 23 435
f 490 324 513
f 452 190 383
f 492 107 334
f 256 189 332
f 277 133 285
f 511 104 318
f 350 109 383
f 205 279 96
f 214 172 458
f 238 164 427
f 414 111 218
f 269 127 374
f 393 119 276
f 477 74 75
f 380 113 222
f 381 50 503
f 300 114 495
f 291 99 431
f 365 115 504
f 495 114 434
f 377 116 266
f 316 96 402
f 363 498 195
f 227 56 319
f 341 162 258
f 443 25 257
f 72 349 396
f 393 89 228
f 262 120 189
f 360 275 20
f 481 273 121
f 281 468 366
f 379 122 223
f 255 130 215
f 278 167 417
f 81 82 216
f 478 124 241
f 241 369 66
f 416 167 248
f 326 314 355
f 447 233 254
f 303 348 176
f 374 127 457
f 444 102 261
f 329 128 509
f 485 137 313
f 473 129 315
f 418 123 253
f 11 215 10
f 255 311 130
f 451 301 302
f 324 86 290
f 344 132 214
f 327 194 328
f 305 133 224
f 285 160 277
f 134 338 288
f 496 121 273
f 210 135 252
f 295 52 208
f 334 136 201
f 136 343 333
f 212 424 355
f 93 239 353
f 352 138 299
f 488 33 34
f 17 306 16
f 379 270 122
f 338 176 348
f 348 232 140
f 318 141 292
f 340 155 213
f 373 142 350
f 450 173 430
f 126 233 250
f 375 49 220
f 288 289 134
f 331 141 274
f 357 145 424
f 356 248 326
f 64 268 63
f 286 153 267
f 394 147 232
f 380 222 147
f 391 148 392
f 290 159 387
f 507 208 347
f 346 55 227
f 244 150 401
f 414 218 415
f 266 151 422
f 401 150 437
f 279 204 152
f 362 128 219
f 227 319 405
f 455 58 267
f 198 322 124
f 336 286 146
f 483 155 271
f 26 27 339
f 361 217 245
f 423 357 424
f 77 317 76
f 249 95 430
f 335 158 275
f 102 368 211
f 479 159 290
f 230 98 387
f 42 277 41
f 471 35 36
f 321 335 120
f 360 21 243
f 487 243 436
f 435 24 258
f 203 238 475
f 388 117 230
f 428 164 203
f 429 296 427
f 390 165 307
f 264 101 410
f 333 166 259
f 343 384 166
f 239 278 123
f 416 246 372
f 504 168 432
f 458 172 291
f 496 169 281
f 469 259 169
f 467 170 325
f 431 99 272
f 193 171 482
f 201 136 333
f 191 344 114
f 406 177 367
f 207 173 491
f 430 95 450
f 69 307 68
f 517 101 247
f 8 345 7
f 473 186 353
f 354 176 284
f 126 250 303
f 422 177 406
f 192 437 415
f 151 402 403
f 402 96 401
f 32 287 309
f 104 274 318
f 378 200 499
f 439 284 134
f 73 207 349
f 112 206 276
f 329 182 311
f 509 235 512
f 513 183 490
f 475 110 203
f 301 184 438
f 383 109 506
f 184 377 438
f 116 421 266
f 313 186 337
f 314 93 353
f 395 297 515
f 300 191 114
f 293 188 127
f 312 255 122
f 262 189 87
f 120 260 189
f 451 190 452
f 190 373 350
f 203 191 300
f 110 327 191
f 484 192 334
f 437 150 415
f 172 367 408
f 445 107 492
f 489 194 466
f 328 132 327
f 425 195 163
f 498 149 389
f 289 196 144
f 501 170 272
f 442 197 160
f 521 202 359
f 392 198 124
f 148 290 198
f 282 199 101
f 131 454 513
f 499 200 305
f 180 299 378
f 193 492 171
f 492 334 201
f 298 202 521
f 138 287 202
f 191 203 110
f 88 428 203
f 245 204 506
f 400 152 204
f 452 383 116
f 506 204 279
f 276 206 393
f 407 237 142
f 463 207 112
f 73 74 477
f 347 208 53
f 507 363 100
f 345 209 474
f 130 311 351
f 220 210 113
f 503 51 295
f 306 211 139
f 386 18 413
f 376 212 84
f 424 145 355
f 462 213 323
f 339 27 213
f 294 214 132
f 83 406 214
f 255 215 460
f 130 280 215
f 2 216 82
f 2 3 520
f 245 217 156
f 142 373 407
f 415 218 374
f 111 269 218
f 293 269 219
f 362 234 128
f 221 419 113
f 375 48 49
f 476 221 394
f 419 220 113
f 516 222 428
f 429 135 296
f 320 223 13
f 139 368 379
f 225 224 133
f 449 176 354
f 304 225 133
f 44 45 254
f 197 226 160
f 197 471 226
f 389 346 227
f 55 56 227
f 302 228 89
f 282 101 264
f 216 253 123
f 4 5 229
f 388 230 159
f 405 153 448
f 288 358 85
f 231 504 432
f 394 232 94
f 147 395 232
f 47 382 46
f 348 94 232
f 400 234 152
f 84 236 234
f 234 236 128
f 485 313 235
f 128 236 235
f 84 212 497
f 142 237 217
f 491 173 450
f 163 475 425
f 203 164 238
f 353 239 129
f 93 248 278
f 216 240 81
f 417 167 342
f 364 241 67
f 420 154 369
f 390 440 165
f 396 181 242
f 384 487 162
f 161 360 243
f 446 244 96
f 399 111 414
f 376 245 156
f 109 350 361
f 409 317 246
f 77 78 246
f 391 247 101
f 391 392 247
f 326 248 93
f 125 416 248
f 409 249 157
f 356 145 357
f 143 250 233
f 143 419 476
f 464 251 86
f 163 195 251
f 113 252 222
f 113 210 252
f 418 253 229
f 520 3 253
f 224 398 126
f 225 44 254
f 270 312 122
f 311 182 351
f 334 256 136
f 192 87 256
f 258 443 118
f 25 26 500
f 435 258 162
f 443 257 118
f 333 259 90
f 166 341 510
f 335 260 120
f 161 397 260
f 262 457 120
f 127 188 444
f 415 374 87
f 457 261 120
f 207 477 173
f 75 76 465
f 242 502 165
f 494 228 282
f 514 426 265
f 163 251 464
f 519 266 83
f 185 377 266
f 286 267 146
f 153 319 455
f 522 268 370
f 146 283 268
f 219 269 111
f 219 91 293
f 444 270 102
f 188 312 270
f 257 483 118
f 155 340 459
f 501 272 121
f 170 431 272
f 272 481 121
f 171 480 273
f 308 411 456
f 518 366 97
f 335 275 161
f 158 413 275
f 470 276 119
f 181 463 276
f 441 486 160
f 42 43 304
f 93 278 239
f 248 167 278
f 244 446 152
f 205 383 506
f 10 280 9
f 130 209 280
f 121 281 196
f 468 97 366
f 494 282 264
f 131 199 282
f 63 283 62
f 146 267 385
f 308 439 134
f 92 354 284
f 305 371 133
f 108 442 285
f 268 522 146
f 98 230 448
f 352 309 138
f 32 33 287
f 284 338 134
f 358 231 467
f 411 289 144
f 288 85 289
f 324 290 148
f 479 251 159
f 434 291 168
f 172 408 291
f 462 323 141
f 29 30 292
f 312 293 91
f 127 269 293
f 328 461 132
f 185 266 519
f 210 295 135
f 503 50 51
f 427 296 100
f 135 208 296
f 433 515 187
f 147 222 516
f 202 298 138
f 108 200 298
f 298 378 138
f 180 308 299
f 88 300 187
f 88 203 300
f 489 454 301
f 451 89 190
f 131 302 301
f 131 228 302
f 449 303 176
f 250 94 303
f 277 304 133
f 277 42 304
f 499 305 92
f 200 108 371
f 320 330 139
f 17 386 306
f 390 307 69
f 165 410 307
f 439 308 180
f 134 289 411
f 493 309 179
f 31 32 309
f 122 310 223
f 215 11 310
f 312 311 255
f 91 329 311
f 293 312 188
f 91 311 312
f 235 313 103
f 137 314 313
f 313 314 186
f 355 145 326
f 7 472 6
f 175 473 315
f 421 316 151
f 205 96 316
f 246 317 77
f 246 125 409
f 352 511 179
f 274 141 318
f 455 319 57
f 153 405 319
f 14 320 13
f 330 16 306
f 261 321 120
f 261 102 412
f 420 322 154
f 198 98 322
f 28 323 213
f 28 29 323
f 199 324 148
f 199 513 324
f 85 325 196
f 85 358 467
f 314 326 93
f 145 356 326
f 191 327 132
f 110 514 327
f 106 328 194
f 106 438 461
f 219 329 91
f 219 128 329
f 14 330 320
f 14 15 330
f 144 518 274
f 97 340 331
f 256 332 136
f 189 105 332
f 480 333 90
f 136 332 343
f 484 334 107
f 192 256 334
f 260 335 161
f 321 158 335
f 322 336 154
f 98 286 336
f 474 337 175
f 103 313 337
f 288 338 140
f 284 176 338
f 155 339 213
f 155 257 500
f 462 340 213
f 459 271 155
f 118 341 258
f 166 384 341
f 372 342 167
f 80 240 342
f 333 343 166
f 332 105 343
f 114 344 214
f 191 132 344
f 472 345 175
f 505 280 209
f 55 346 54
f 227 117 389
f 54 347 53
f 149 507 347
f 338 348 140
f 303 94 348
f 396 349 181
f 72 73 349
f 89 373 190
f 361 245 109
f 130 351 209
f 182 509 512
f 104 511 299
f 179 309 352
f 473 353 129
f 186 314 353
f 224 354 92
f 224 126 449
f 137 355 314
f 137 497 355
f 125 356 249
f 125 248 356
f 249 357 95
f 249 356 357
f 140 358 288
f 140 365 358
f 521 359 197
f 202 488 359
f 275 360 161
f 20 21 360
f 142 361 350
f 142 217 361
f 111 362 219
f 111 399 362
f 100 363 195
f 100 296 507
f 68 364 67
f 68 307 364
f 232 365 140
f 232 115 365
f 331 518 97
f 144 196 366
f 406 367 172
f 177 445 367
f 211 368 139
f 102 270 368
f 124 420 241
f 154 370 369
f 369 370 65
f 154 522 370
f 133 371 285
f 305 200 371
f 78 372 246
f 79 342 372
f 393 373 89
f 206 407 373
f 87 374 262
f 218 269 374
f 419 375 220
f 143 233 382
f 245 376 204
f 156 212 376
f 438 377 185
f 184 452 377
f 138 378 299
f 298 200 378
f 320 379 223
f 368 270 379
f 394 380 147
f 221 113 380
f 220 381 210
f 220 49 381
f 375 382 47
f 375 143 382
f 116 383 205
f 190 350 383
f 341 384 162
f 343 105 384
f 58 385 267
f 59 283 385
f 306 386 211
f 17 18 386
f 290 387 198
f 159 230 387
f 251 388 159
f 195 498 388
f 498 389 117
f 149 346 389
f 70 390 69
f 440 396 242
f 199 391 101
f 199 148 391
f 247 392 124
f 148 198 392
f 494 393 228
f 206 373 393
f 476 394 94
f 221 380 394
f 232 395 115
f 147 297 395
f 165 440 242
f 71 72 396
f 260 397 105
f 161 243 397
f 254 398 225
f 254 126 398
f 152 399 244
f 152 234 399
f 84 400 204
f 84 234 400
f 402 401 178
f 96 244 401
f 403 402 178
f 151 316 402
f 404 403 178
f 177 422 403
f 437 484 178
f 107 445 404
f 117 405 230
f 117 227 405
f 214 406 172
f 83 422 406
f 112 407 206
f 112 491 407
f 291 408 99
f 367 193 408
f 249 409 125
f 157 317 409
f 307 410 174
f 165 264 410
f 274 456 144
f 308 134 411
f 321 412 158
f 321 261 412
f 275 413 19
f 158 211 413
f 244 414 150
f 244 399 414
f 192 415 87
f 150 414 415
f 246 416 125
f 372 167 416
f 123 417 240
f 123 278 417
f 239 418 229
f 239 123 418
f 476 419 221
f 143 375 419
f 241 420 369
f 124 322 420
f 266 421 151
f 116 316 421
f 266 422 83
f 151 403 422
f 217 423 156
f 217 450 423
f 156 424 212
f 156 423 424
f 426 475 163
f 238 100 425
f 265 426 163
f 265 466 514
f 238 427 100
f 164 429 427
f 516 428 88
f 222 252 428
f 252 429 164
f 252 135 429
f 508 430 173
f 157 249 430
f 467 432 170
f 168 291 431
f 170 432 431
f 504 115 433
f 515 433 115
f 187 495 433
f 433 495 168
f 114 458 434
f 436 435 162
f 23 24 435
f 23 436 22
f 162 487 436
f 484 437 192
f 178 401 437
f 461 438 185
f 106 301 438
f 378 499 180
f 92 284 439
f 70 440 390
f 70 71 440
f 226 441 160
f 226 39 441
f 285 442 160
f 108 521 442
f 24 443 258
f 24 25 443
f 127 444 261
f 188 270 444
f 367 445 193
f 177 404 445
f 279 446 96
f 279 152 446
f 45 447 254
f 46 233 447
f 405 448 230
f 153 286 448
f 224 449 354
f 126 303 449
f 237 450 217
f 237 491 450
f 301 451 184
f 302 89 451
f 377 452 116
f 184 451 452
f 5 453 229
f 5 6 453
f 301 454 131
f 301 106 489
f 58 455 57
f 267 153 455
f 308 456 104
f 411 144 456
f 374 457 262
f 127 261 457
f 434 458 291
f 114 214 458
f 97 459 340
f 97 468 459
f 310 460 215
f 310 122 460
f 294 461 185
f 294 132 461
f 331 462 141
f 331 340 462
f 276 463 112
f 181 349 463
f 265 464 86
f 265 163 464
f 157 465 317
f 263 75 465
f 489 466 183
f 194 514 466
f 85 467 325
f 231 432 467
f 169 468 281
f 169 271 468
f 496 469 169
f 273 90 469
f 502 470 119
f 242 181 470
f 226 471 36
f 197 359 471
f 345 472 7
f 175 315 472
f 337 473 175
f 337 186 473
f 345 474 175
f 209 351 474
f 425 475 238
f 426 110 475
f 250 476 94
f 250 143 476
f 173 477 263
f 207 73 477
f 517 478 174
f 247 124 478
f 86 479 290
f 86 251 479
f 201 480 171
f 201 333 480
f 482 481 272
f 171 273 481
f 481 482 171
f 272 99 482
f 118 483 271
f 257 155 483
f 404 484 107
f 404 178 484
f 236 485 235
f 236 497 485
f 277 486 41
f 277 160 486
f 105 487 384
f 397 243 487
f 287 488 202
f 287 33 488
f 194 489 106
f 183 454 489
f 466 490 183
f 466 265 490
f 407 491 237
f 112 207 491
f 171 492 201
f 193 445 492
f 31 493 30
f 179 292 493
f 502 494 264
f 119 393 494
f 168 495 434
f 187 300 495
f 121 496 281
f 273 469 496
f 84 497 236
f 212 355 497
f 388 498 117
f 363 149 498
f 439 499 92
f 439 180 499
f 339 500 26
f 339 155 500
f 325 501 121
f 325 170 501
f 165 502 264
f 242 470 502
f 210 503 295
f 210 381 503
f 168 504 433
f 231 365 504
f 8 505 345
f 8 9 505
f 205 506 279
f 109 245 506
f 363 507 149
f 296 208 507
f 263 508 173
f 263 465 508
f 329 509 182
f 128 235 509
f 166 510 259
f 341 118 510
f 179 511 318
f 352 299 511
f 182 512 351
f 235 103 512
f 131 513 199
f 454 183 513
f 327 514 194
f 110 426 514
f 395 515 115
f 297 187 515
f 297 516 88
f 297 147 516
f 478 517 247
f 174 410 517
f 274 518 331
f 144 366 518
f 294 519 83
f 294 185 519
f 216 520 253
f 216 2 520
f 442 521 197
f 108 298 521
f 336 522 154
f 336 146 522
