v -25.030191260846 91.4448001113213 -25
v -25.030191260846 92.4423612371782 -25
v -25.030191260846 93.4399223630351 -25
v -25.030191260846 94.4374834888921 -25
v -25.030191260846 95.435044614749 -25
v -25.030191260846 96.4326057406059 -25
v -25.030191260846 97.4301668664628 -25
v -25.030191260846 98.4277279923197 -25
v -25.030191260846 99.4252891181767 -25
v -25.030191260846 100.422850244034 -25
v -25.030191260846 101.420411369891 -25
v -25.030191260846 102.417972495747 -25
v -25.030191260846 103.415533621604 -25
v -25.030191260846 104.413094747461 -25
v -25.030191260846 105.410655873318 -25
v -25.030191260846 106.408216999175 -25
v -25.030191260846 107.405778125032 -25
v -25.030191260846 108.403339250889 -25
v -25.030191260846 109.400900376746 -25
v -25.030191260846 110.398461502603 -25
v -25.030191260846 111.39602262846 -25
v -25.030191260846 112.393583754317 -25
v -25.030191260846 113.391144880174 -25
v -25.030191260846 114.38870600603 -25
v -25.030191260846 115.386267131887 -25
v -25.030191260846 116.383828257744 -25
v -25.030191260846 117.381389383601 -25
v -25.030191260846 118.378950509458 -25
v -25.030191260846 119.376511635315 -25
v -25.030191260846 120.374072761172 -25
v -24.0679697601298 120.524300860751 -25
v -23.1217062455877 120.754051272042 -25
v -22.2042990282037 121.079955062127 -25
v -21.335026448553 121.517873577086 -25
v -20.5386916865078 122.077213451943 -25
v -19.8398465655983 122.754341029006 -25
v -19.2535324899596 123.531110243649 -25
v -18.7799645335738 124.381595260611 -25
v -18.4074703953617 125.28119522325 -25
v -18.119256245873 126.211403947432 -25
v -17.8985285705988 127.160004920969 -25
v -17.7307506039843 128.119453951485 -25
v -17.604097447363 129.08523192169 -25
v -17.50917447917 130.054666423891 -25
v -17.4385515466986 131.026187546458 -25
v -17.3863232457028 131.998879407072 -25
v -17.347751707593 132.972213497484 -25
v -17.318992591211 133.945889853272 -25
v -17.2968894720184 134.919741683769 -25
v -17.2788204521681 135.893677549482 -25
v -17.2625834824804 136.867646002575 -25
v -17.2463100977758 137.841613845817 -25
v -17.2284 138.815552761172 -25
v -16.3127428571429 139.179524294769 -25
v -15.3970857142857 139.543495828365 -25
v -14.4814285714286 139.907467361962 -25
v -13.5657714285714 140.271438895558 -25
v -12.6501142857143 140.635410429155 -25
v -11.7344571428571 140.999381962751 -25
v -10.8188 141.363353496348 -25
v 0 135.714360182203 -25
v 0 134.730592180628 -25
v 0 133.746824179053 -25
v 0 132.763056177478 -25
v 0 131.779288175903 -25
v 0 130.795520174328 -25
v 0 129.811752172752 -25
v 0 128.827984171177 -25
v 0 127.844216169602 -25
v 0 126.860448168027 -25
v 0 125.876680166452 -25
v 0 124.892912164877 -25
v 0 123.909144163301 -25
v 0 122.925376161726 -25
v 0 121.941608160151 -25
v 0 120.957840158576 -25
v 0 119.974072157001 -25
v 0 118.990304155426 -25
v 0 118.00653615385 -25
v 0 117.022768152275 -25
v 0 116.0390001507 -25
v 0 115.055232149125 -25
v 0 114.07146414755 -25
v 0 113.087696145975 -25
v 0 112.1039281444 -25
v 0 111.120160142824 -25
v 0 110.136392141249 -25
v 0 109.152624139674 -25
v 0 108.168856138099 -25
v 0 107.185088136524 -25
v 0 106.201320134949 -25
v 0 105.217552133373 -25
v 0 104.233784131798 -25
v 0 103.250016130223 -25
v 0 102.266248128648 -25
v 0 101.282480127073 -25
v 0 100.298712125498 -25
v 0 99.3149441239225 -25
v 0 98.3311761223474 -25
v 0 97.3474081207722 -25
v 0 96.3636401191971 -25
v 0 95.3798721176219 -25
v 0 94.3961041160468 -25
v 0 93.4123361144716 -25
v 0 92.4285681128964 -25
v 0 91.4448001113213 -25
v -0.962699663878693 91.4448001113213 -25
v -1.92539932775739 91.4448001113213 -25
v -2.88809899163608 91.4448001113213 -25
v -3.85079865551477 91.4448001113213 -25
v -4.81349831939347 91.4448001113213 -25
v -5.77619798327216 91.4448001113213 -25
v -6.73889764715085 91.4448001113213 -25
v -7.70159731102955 91.4448001113213 -25
v -8.66429697490824 91.4448001113213 -25
v -9.62699663878693 91.4448001113213 -25
v -10.5896963026656 91.4448001113213 -25
v -11.5523959665443 91.4448001113213 -25
v -12.515095630423 91.4448001113213 -25
v -13.4777952943017 91.4448001113213 -25
v -14.4404949581804 91.4448001113213 -25
v -15.4031946220591 91.4448001113213 -25
v -16.3658942859378 91.4448001113213 -25
v -17.3285939498165 91.4448001113213 -25
v -18.2912936136952 91.4448001113213 -25
v -19.2539932775739 91.4448001113213 -25
v -20.2166929414526 91.4448001113213 -25
v -21.1793926053313 91.4448001113213 -25
v -22.14209226921 91.4448001113213 -25
v -23.1047919330886 91.4448001113213 -25
v -24.0674915969673 91.4448001113213 -25
v -10.231812952795 140.583789462599 -25
v -9.58877385795033 139.849776793224 -25
v -8.89320542040045 139.165336565749 -25
v -8.14891811199221 138.534218289319 -25
v -7.35998929690934 137.95987936409 -25
v -6.53074089500431 137.445466140855 -25
v -5.66571570540207 136.993796684665 -25
v -4.76965252008026 136.60734533687 -25
v -3.84746016375874 136.288229160151 -25
v -2.90419060231376 136.0381963408 -25
v -1.94501126703429 135.858616611781 -25
v -0.97517674633434 135.750473749048 -25
v -12.5122141552549 104.725668132586 -25
v -10.889927398225 116.530884151488 -25
v -9.03053957681856 125.384796165664 -25
v -17.0140643077248 111.3583940011 -25
v -17.4737260499656 99.0112103802629 -25
v -8.18294714296889 98.782133420001 -25
v -7.21329326608431 109.644508140462 -25
v -10.596673421613 131.991355491309 -25
v -18.7567980825425 105.331402878081 -25
v -6.04004579792155 120.134571389246 -25
v -16.8337535869632 117.356589295596 -25
v -13.2094176070129 121.640193153683 -25
v -7.05047890581502 104.155507648915 -25
v -5.54551018107019 129.699859688618 -25
v -5.84126710553911 114.801697452898 -25
v -11.9301705703133 111.550833679259 -25
v -12.8847029063398 96.6105977256239 -25
v -13.3472050529604 126.858513281628 -25
v -4.55231329201409 124.458769379362 -25
v -12.4042405091008 136.015568366281 -25
v -20.4214129066596 114.462629515458 -25
v -4.55456116757042 96.0060346637543 -25
v -20.6106347800363 95.8680053161268 -25
v -4.32010526616462 100.774042278281 -25
v -20.7258128270595 109.166208592915 -25
v -11.8891986195132 100.63098719918 -25
v -15.3830028817828 107.621309130809 -25
v -21.0269245910726 100.921630806962 -25
v -3.964780771433 106.693204135736 -25
v -16.498080848681 95.2897525102284 -25
v -14.184592491698 114.620411262355 -25
v -15.3703145127116 102.196064179079 -25
v -9.14564680684759 95.1608336326741 -25
v -3.83678960623821 111.507320761885 -25
v -9.46200564091919 121.66224064946 -25
v -6.71508922647862 133.328543798055 -25
v -9.53203517295078 106.828814835268 -25
v -13.9922366133472 131.328887161641 -25
v -9.08841111899366 113.555910429232 -25
v -20.3405984944195 118.033244695845 -25
v -10.3566403950421 128.559345619431 -25
v -3.41276167657117 132.390104807881 -25
v -16.7345938782188 120.947759035787 -25
v -3.52993400131162 117.514652153063 -25
v -21.8866928706606 105.909436436247 -25
v -15.2932913100787 124.196148558247 -25
v -3.17859499897174 121.568119247125 -25
v -9.2457365398918 135.33672650254 -25
v -8.73449838490362 118.695439673419 -25
v -17.3868029548083 114.371406625775 -25
v -13.7591635246584 117.682855348817 -25
v -9.01044430948809 101.762557085135 -25
v -4.11584828268149 103.732026737542 -25
v -12.2992699629741 108.393411295991 -25
v -2.93616872981102 114.312312134352 -25
v -3.22341878331599 127.425249027608 -25
v -14.5497926394992 99.3671393205893 -25
v -18.3760009914048 102.346160239543 -25
v -7.13125718080934 123.27837568819 -25
v -11.3481604276457 123.767139559859 -25
v -18.1490803791164 108.066347713827 -25
v -6.39815423995813 126.823630434327 -25
v -8.25944398765657 130.430421300435 -25
v -6.76283276988413 106.910954729117 -25
v -15.2229973326999 104.909046032654 -25
v -13.9591451262411 94.117010239985 -25
v -22.0391736874383 111.89864887724 -25
v -11.3238381951127 119.633090679248 -25
v -6.41771110532989 112.193952878827 -25
v -6.33949028183272 117.453268202936 -25
v -14.4957204693636 134.1118557492 -25
v -9.92786460558878 109.716481335333 -25
v -14.4270128986838 110.263036862224 -25
v -10.4138460756964 97.4365900986137 -25
v -2.61967175184943 97.8392921215598 -25
v -22.3680259583417 97.9289474293913 -25
v -9.92879842135087 104.227987746517 -25
v -11.5845428859934 114.077307559991 -25
v -22.3473810429039 103.262022061315 -25
v -6.59132809064229 94.1777776726179 -25
v -19.5497529113557 111.413344395464 -25
v -19.87731098038 98.2730655157132 -25
v -22.5332899589942 115.885047694816 -25
v -2.58681659947561 129.935565233353 -25
v -14.720781073733 137.083801774986 -25
v -11.5331007673395 94.5499438490447 -25
v -6.95346042898498 96.6298676974474 -25
v -5.20534429247363 98.4278036642764 -25
v -3.36944882357543 93.8539783718173 -25
v -2.6927969820076 109.068146106366 -25
v -15.3077315308631 128.292890337394 -25
v -6.56236743487604 101.756578028215 -25
v -8.41315895634908 115.997761422896 -25
v -11.5987510451367 138.37490141017 -25
v -18.7726434456345 94.0099289152852 -25
v -22.6684804867326 118.435545885239 -25
v -21.6607424372706 93.754863941583 -25
v -19.049085178946 120.12334543885 -25
v -18.8509165286233 116.186477016263 -25
v -2.32934160745329 123.743448221411 -25
v -2.24786229115436 101.77436412786 -25
v -12.003455433772 130.168567042295 -25
v -11.0989638228138 126.385005728769 -25
v -4.93411377140063 109.504808640626 -25
v -15.8013921424867 97.4610217799053 -25
v -18.4227027481799 96.5152142918794 -25
v -22.8201163562895 95.6484966906549 -25
v -12.56072088316 133.024899886035 -25
v -14.6840897293192 119.828198092262 -25
v -2.14847331863306 104.725668132586 -25
v -22.7480905121098 108.051767147137 -25
v -13.9602752457173 112.42250081057 -25
v -8.52442867222059 111.421117523181 -25
v -8.46844214014673 127.483850464547 -25
v -20.0837763925572 107.102069427283 -25
v -5.2670262102386 122.164167077349 -25
v -20.1702564706898 103.634193815399 -25
v -10.1382234163565 99.5017871815775 -25
v -12.5884883549486 98.6706959700434 -25
v -13.1242925926879 102.537801807126 -25
v -7.04525233208921 135.405916468096 -25
v -4.67655256911289 134.222473271702 -25
v -8.58932433016103 132.466748302556 -25
v -15.9541155690289 126.242215619872 -25
v -11.0681367034352 102.516219326622 -25
v -2.26428700710374 119.446910625771 -25
v -17.0021228984648 106.376497031474 -25
v -13.7635205113601 106.355996676018 -25
v -16.2982121523112 109.446346573195 -25
v -16.8050755794392 103.634463552771 -25
v -2.17148771104927 95.6917864731414 -25
v -10.7865327555609 134.013480028303 -25
v -19.1433245401502 100.1654317701 -25
v -22.942722703103 99.9833177560627 -25
v -22.9537490117383 113.809109172486 -25
v -15.8298807356904 93.401662998047 -25
v -17.1022627976044 123.054838836928 -25
v -2.01168252596894 107.175252442172 -25
v -5.47418871272084 105.38369333857 -25
v -13.3570872244368 123.647268073133 -25
v -2.58242678287902 99.8208744002589 -25
v -15.6970309794655 113.355650760175 -25
v -22.5007275297011 109.994943932721 -25
v -2.02196751091199 112.471701844064 -25
v -4.76903638876724 113.197096017264 -25
v -9.81825478713417 137.319978120341 -25
v -4.13238536909318 119.899353298324 -25
v -2.03284981988242 116.136018786431 -25
v -14.6748939759864 95.9021588167483 -25
v -16.1631273745027 100.432653504104 -25
v -6.54870813672235 131.379342460787 -25
v -12.6042002039855 115.69108809658 -25
v -15.1689275337891 116.317925172081 -25
v -13.4201104100618 128.815891162199 -25
v -2.03798155481409 125.763659077729 -25
v -2.01435316919299 133.843153932342 -25
v -9.00775534919809 123.495872855252 -25
v -7.53782388452918 121.375975436013 -25
v -11.3348923452442 121.511964130336 -25
v -8.36760590190049 93.3724236252732 -25
v -15.5770973808679 130.212606180807 -25
v -15.5024316103892 132.492697019336 -25
v -11.8524462466955 106.52741611004 -25
v -7.22253332270437 128.876176509568 -25
v -18.2526777724068 112.73472759051 -25
v -8.46085686487529 105.334726469161 -25
v -8.60381327887451 108.427014254509 -25
v -18.9814427963325 109.684594908329 -25
v -20.9815663899073 119.734535280019 -25
v -6.34308392897531 124.963818305857 -25
v -6.54945804174956 99.8208484659793 -25
v -15.0362095720081 121.620837250251 -25
v -16.3900245702027 119.141290882814 -25
v -20.748311723376 116.256250412701 -25
v -18.5349570457245 117.965547979386 -25
v -4.90992150701683 116.349287631357 -25
v -8.71679821600031 96.8910556345353 -25
v -12.4412196933179 125.191982363237 -25
v -18.3463902135742 121.768876409875 -25
v -1.72215452391592 128.380414271375 -25
v -23.2808849538189 104.788255536921 -25
v -7.56888590547593 114.450001918947 -25
v -10.0934081162712 114.980274716335 -25
v -10.2031698042303 112.11951217338 -25
v -14.0464118716675 101.046601012901 -25
v -2.27239947504527 110.753174154735 -25
v -1.79906032514227 131.566876602272 -25
v -10.2757269255429 130.28940349627 -25
v -23.3773689922624 93.9387029259636 -25
v -4.1426853235797 130.778253941588 -25
v -5.17213293816585 132.478546683983 -25
v -1.64919550929014 93.9042201152592 -25
v -13.4358092933824 138.396856440453 -25
v -10.0452756565208 93.7060066994091 -25
v -12.9908642236913 119.956255580096 -25
v -11.9558969316742 127.89038122838 -25
v -22.5494564954848 101.605311859454 -25
v -1.70747302821264 117.822298052589 -25
v -15.6481308690725 135.376288509622 -25
v -14.1026682182177 125.368288331712 -25
v -16.8680693413863 124.687904377027 -25
v -4.9552291296157 118.423027026846 -25
v -21.279770328478 99.2381043733081 -25
v -5.29484815133281 93.076414115251 -25
v -12.0337457984837 93.0004230122932 -25
v -3.67737809949914 125.847716877785 -25
v -3.99763121951693 128.957462465695 -25
v -1.64528512681756 120.971372148897 -25
v -15.3861397376137 111.600509943154 -25
v -4.79144802928239 127.02239074795 -25
v -10.8351669474368 135.628789439898 -25
v -8.19037264988486 134.068050599132 -25
v -8.33747237685247 136.673183180217 -25
v -14.1395379822702 97.733784002239 -25
v -3.90005916014318 122.996999036409 -25
v -23.3969235633301 106.546538925658 -25
v -20.3894338143629 105.253905684778 -25
v -11.5911354922848 109.910915972068 -25
v -13.825653432052 107.945522014902 -25
v -10.832524986885 107.758137260138 -25
v -6.14467840181878 108.416712239448 -25
v -20.577530897868 112.768774382387 -25
v -14.4204596683691 103.504976917625 -25
v -5.69300492851542 103.182590633507 -25
v -7.78879711803155 100.780491133095 -25
v -10.3844931659473 118.183029256885 -25
v -12.0970244320246 118.102940148888 -25
v -11.354190032705 96.1408842488317 -25
v -10.3873013935937 101.037718843002 -25
v -7.78396945020502 102.757140983147 -25
v -15.3370299502415 117.902049582119 -25
v -6.00675877890798 110.666853269458 -25
v -8.68420466096032 120.280371223115 -25
v -7.11046269688572 118.896741788701 -25
v -18.8970680584216 114.651205637499 -25
v -16.660528852015 115.78067520985 -25
v -23.5762681978215 111.894803191388 -25
v -21.1070100226788 110.664841106558 -25
v -1.43761425123388 114.563348148337 -25
v -4.7487411215901 94.4967600930045 -25
v -16.8804799670727 102.124484225903 -25
v -18.6737777743501 103.825084407393 -25
v -19.6705078759711 101.576291156834 -25
v -17.2483133697523 93.9619594486814 -25
v -5.86430327433314 128.229868635608 -25
v -7.57972659027107 125.85792186868 -25
v -6.7451733885504 98.1761585546618 -25
v -11.0769940047138 105.221787760776 -25
v -7.81679210005795 112.749959807297 -25
v -12.2238704286934 134.506702893374 -25
v -17.8223202386434 100.925977320658 -25
v -1.44561514218594 98.8083662176141 -25
v -13.9794861975802 135.645444073339 -25
v -4.01566727681602 108.248557031865 -25
v -3.99270103276594 99.3103919623847 -25
v -3.74057593421933 102.220068663474 -25
v -2.61594878367019 103.264085444043 -25
v -3.6181444771951 105.191077997243 -25
v -8.74406673645584 128.984097781493 -25
v -4.32377751557543 114.942505235729 -25
v -15.9828263123833 98.9514918458526 -25
v -20.1471239389847 93.0946670786918 -25
v -9.49178139005869 117.006540163424 -25
v -23.6322861342241 116.882608820673 -25
v -12.0326977062845 131.645389097108 -25
v -21.6490519595428 117.39818604473 -25
v -13.0352871375239 113.627306526517 -25
v -12.9599085662696 110.482941839702 -25
v -1.46229619993173 122.48696701775 -25
v -9.67874272140338 126.683163990856 -25
v -11.3371525378826 136.968424399962 -25
v -21.0850401269232 102.431540396429 -25
v -3.36437113694646 112.952291368184 -25
v -1.39759274514876 108.465207148184 -25
v -23.5683920368406 96.9818773458055 -25
v -6.85563982895267 115.983692271508 -25
v -5.74500467542741 123.657124744643 -25
v -7.94593259044232 124.453279647938 -25
v -17.6434808078599 119.838300153283 -25
v -21.5132369241209 107.303939834862 -25
v -15.8974798182706 133.860858490005 -25
v -14.103915943254 132.745711036072 -25
v -10.0857010387646 124.427469721663 -25
v -10.4833004838439 122.64460112501 -25
v -12.199752289046 122.634502565185 -25
v -23.7129345923619 102.916753058676 -25
v -20.1086062623999 94.5265072150891 -25
v -17.9028302226142 95.2076215186894 -25
v -14.9754701941056 108.967671936429 -25
v -19.5489997223841 108.400328183453 -25
v -5.36530313364084 106.782851464466 -25
v -18.3719892127696 106.680887818319 -25
v -16.7792140648116 107.761956926982 -25
v -21.6125430263692 104.49794005004 -25
v -13.258006367208 99.8951248799632 -25
v -17.303233346303 97.5179908019843 -25
v -5.16950493235499 101.885433216499 -25
v -7.08146677852313 105.551480021289 -25
v -8.1541770919 107.097217258161 -25
v -15.2322694676896 94.6426183925807 -25
v -9.38224212023946 131.339130190172 -25
v -10.3175192776974 120.578480492002 -25
v -2.47720932171082 92.7795707682172 -25
v -17.3547955444497 104.97305653689 -25
v -5.96055082941164 95.5237182666967 -25
v -6.63739021982207 92.8097919828522 -25
v -7.87602020482952 94.649732952176 -25
v -15.6136915852237 114.79268088805 -25
v -1.34186675108366 96.8555241199847 -25
v -1.27282824523325 130.30363617354 -25
v -18.0472223761989 92.8183277737615 -25
v -22.6356653611962 92.7579218068236 -25
v -15.130570200034 106.275349803593 -25
v -13.855947644026 104.989692905079 -25
v -7.87102449170833 117.430316496565 -25
v -8.56771271944094 109.788598162988 -25
v -13.4159116317812 92.8354055756576 -25
v -13.4275331715201 95.3662208674061 -25
v -21.012681042882 97.3049212291215 -25
v -23.6683044954309 98.3427499794846 -25
v -19.7235304562613 96.8909192069664 -25
v -11.4123440375606 103.867891199938 -25
v -3.51799305626737 110.168980699591 -25
v -17.5967875688757 110.050200227513 -25
v -3.46281766348282 116.085362290398 -25
v -3.38405205489136 133.76191064916 -25
v -1.39542162771363 100.622976381617 -25
v -1.28538445469418 102.758132129436 -25
v -9.79606520373319 133.086500724644 -25
v -18.5199036697619 98.135416956836 -25
v -13.5266186520478 109.259896133006 -25
v -14.6593436163332 126.58709442947 -25
v -9.10271453526567 100.396906074971 -25
v -6.07408524922481 113.485578099645 -25
v -5.1640034253201 111.712488917014 -25
v -3.26610903583741 96.5838599888175 -25
v -3.9986248797016 97.7551865904391 -25
v -8.40154298588709 103.972632774976 -25
v -23.7852196183136 108.902119813817 -25
v -5.57743805955056 135.381557999739 -25
v -13.9085273505145 115.91464222811 -25
v -15.8613649288872 137.869894244838 -25
v -1.3965899841375 127.013683704027 -25
v -14.5963328311249 122.965235476168 -25
v -9.76628339231892 102.884768074129 -25
v -9.7984468941747 105.538779467282 -25
v -16.9918320781904 113.115067402532 -25
v -7.23204583377607 111.155965404284 -25
v -11.2831113423302 139.706971250365 -25
v -21.5790189799584 113.715200848146 -25
v -10.6380768259337 110.852400991828 -25
v -23.6613488608128 115.032974916437 -25
v -5.22358713665368 99.8034985197042 -25
v -19.3358610400546 95.5803775345439 -25
v -1.38192586070012 105.911473764836 -25
v -10.0224483177121 96.163462621335 -25
v -9.2742421998269 98.0693139618634 -25
v -11.8110640072768 97.5075677894165 -25
v -11.0565111644359 98.5733515733908 -25
v -1.3178991410628 124.628691143598 -25
v -13.3445728075985 137.0222991791 -25
v -6.78288411575774 130.100103900468 -25
v -16.4710100080521 127.532352886955 -25
v -8.17162550836422 122.506071080493 -25
v -5.17052849313108 125.694066167387 -25
v -14.2117190578818 129.957293135509 -25
v -23.7064271932421 110.56674810144 -25
v -2.79985008820742 106.170969316013 -25
v -11.3232049841855 115.328434196753 -25
v -11.3716324345661 112.761302611455 -25
v -10.3547460180791 113.729148079573 -25
v -21.4597388608494 115.199988149013 -25
v -23.7126168513318 119.249177050572 -25
v -10.2426060319727 138.633779081928 -25
v -3.66748551091545 135.010383361602 -25
v -18.2802056925338 111.464450385847 -25
v -23.7544906605466 101.03881018557 -25
v -8.83634403143855 114.800495803643 -25
v -4.97829849892076 120.892189036824 -25
v -19.5317693323374 113.52651145184 -25
v -12.506434071896 139.293411839925 -25
v -7.29820434053669 120.14082987329 -25
v -15.862692914006 122.635417484802 -25
v -5.80536492257841 97.2623916714656 -25
v -16.0128279928585 136.601022344665 -25
v -1.22943950668463 92.6687527271434 -25
v -2.90628291479775 124.85777197369 -25
v -14.7182388109848 138.453975329703 -25
v -5.30658469749193 131.235354914284 -25
v -14.6330027138866 93.0754499040839 -25
v -11.1968728100089 125.014887110908 -25
v -2.95251861344605 131.118020316945 -25
v -12.6946831655549 116.969366984324 -25
v -12.6993012122702 94.0711005449101 -25
v -10.3509394361442 94.900589127855 -25
v -9.66715899352605 119.51829900345 -25
v -3.76080470269892 118.7247766323 -25
v -7.37423059497435 108.425502382282 -25
v -19.5299588847072 121.301496298139 -25
v -19.4040643440699 118.898618080578 -25
v -4.03714358126977 92.7347070997035 -25
v -3.61952495613204 95.1186062880771 -25
v -22.1153718115407 96.6938217957671 -25
v -1.3083434851423 109.810556868415 -25
v -17.4996981986942 118.621297655561 -25
v -1.22359903822534 111.47784891452 -25
v -12.8032907803093 107.28622559479 -25
v -21.422557799402 118.597001162628 -25
v -16.4355618823127 128.748047094049 -25
v -14.1572273388061 127.80838950822 -25
v -16.1782048211982 131.373558503432 -25
v -23.8608074253203 92.8116928616493 -25
v -6.53660503001111 122.156646775257 -25
v -13.142429338219 118.740953142731 -25
v -7.96326875662708 95.8953638795651 -25
v -15.6231434156221 103.378640453158 -25
v -19.467241394948 117.21352746409 -25
v -23.864119798498 107.640380044788 -25
v -22.3062019234406 119.709916176611 -25
v -17.2130079140652 96.291006689631 -25
v -23.8727641720836 118.059093528375 -25
v -5.77699034956026 100.8595440106 -25
v -21.646531303515 95.0652935670114 -25
v -21.2481177355863 92.6356613396388 -25
v -7.81089992547219 97.656212581592 -25
v -12.5322217847833 112.562729542774 -25
v -2.88848366740984 128.556196157487 -25
v -6.32692094623923 134.455159798124 -25
v -20.0637355568218 110.132414345135 -25
v -10.6814390021584 106.594955193652 -25
v -16.0724140106253 110.620911017111 -25
v -15.6055339497732 120.578105270872 -25
v -13.8981637894192 120.694651288035 -25
v -14.3146521571698 118.715420424784 -25
v -2.63110467860759 122.607817495081 -25
v -19.7691978448951 115.445751947538 -25
v -17.6660452370852 116.467626172296 -25
v -20.3214298807013 99.9549234196506 -25
v -9.83625330016397 108.486034597098 -25
v -10.8051789898969 92.6928230808555 -25
v -1.07899092940346 119.482188156213 -25
v -9.35639132164798 134.171380174876 -25
v -7.76491860567468 131.555416721095 -25
v -2.70600180559855 120.514169718757 -25
v -21.655870810652 108.461857653068 -25
v -17.2647559122406 108.811483811237 -25
v -16.2736920480178 105.447416497594 -25
v -13.3012509922631 133.972429407476 -25
v -9.38135506631128 92.6595290155549 -25
v -11.49704939618 129.039549260422 -25
v -12.9158891497152 130.889200653638 -25
v -3.11149510767632 100.916879770753 -25
v -12.1943839701147 126.758030985095 -25
v -10.8603504269499 127.517427900857 -25
v -16.8091317088627 92.6180518102447 -25
v -2.25193249082431 132.672363432133 -25
v -1.1395961893349 133.056146065072 -25
v -4.59332347514151 110.619972992729 -25
v -11.2418497042315 108.823948157146 -25
v -15.8118841879613 96.2669814809839 -25
v -2.8997006131133 107.92470801569 -25
v -12.3184247194557 120.899681049186 -25
v -12.8694144534014 101.349484352112 -25
v -13.2308231717005 103.747155676408 -25
v -14.2495757473169 102.381866668817 -25
v -10.1995077281034 125.632172784085 -25
v -6.06081764199986 109.540869419176 -25
v -2.72453241867391 118.29539406226 -25
v -23.9780008143886 94.9362640518205 -25
v -5.59274561789969 133.540453373671 -25
v -11.2566625283021 99.689658476607 -25
v -11.5115859996529 132.635659210143 -25
v -13.1911209940721 132.104847503164 -25
v -11.1881589701197 130.923411110189 -25
v -0.995264661685707 116.530884151488 -25
v -12.2732251709726 95.438705240914 -25
v -1.16024495477062 95.0171669811611 -25
v -19.3879364725156 106.240980561395 -25
v -5.90846763020851 104.315438071547 -25
v -6.89397852302321 127.816312639336 -25
v -14.301076234601 111.365988781963 -25
v -14.1360840941485 113.51495993774 -25
v -15.0391205999923 98.3760332848124 -25
v -19.4711447260588 102.714336947914 -25
v -19.5245753519911 104.533639999732 -25
v -12.5246761913696 137.767026514432 -25
v -9.29403102556975 110.624689001613 -25
v -8.88724422922375 112.467161316985 -25
v -16.3114280070847 112.227978912504 -25
v -5.96142098422439 118.984842414095 -25
v -1.1902658161003 103.972928702037 -25
v -15.0123369767242 100.420945917318 -25
v -18.2585453126757 122.928697190438 -25
v -8.15174471162262 135.570102229205 -25
v -0.985957190494158 134.238708179841 -25
v -4.25928489598601 133.09402447828 -25
v -18.0370084026639 115.393680897582 -25
v -2.53086450245424 94.6166985464217 -25
v -15.0826782027702 131.475639419269 -25
v -13.159366080936 111.607826738045 -25
v -8.62143181326068 126.400030890607 -25
v -9.54284814385492 127.79282414632 -25
v -3.14241621568072 104.214387435569 -25
v -4.26361458185782 121.723174267264 -25
v -1.18980387724267 113.366666237133 -25
v -20.9585216375771 111.746063696799 -25
v -12.282662671716 103.221309022423 -25
v -17.0400080478032 126.460257066494 -25
v -20.624250102701 108.06587887312 -25
v -20.9125011008854 106.39580084924 -25
v -24.0452055831593 99.9240696811051 -25
v -24.0503032732872 113.889925443102 -25
v -15.2477103617664 125.34061767231 -25
v -1.26647149142576 123.549494087179 -25
v -11.8372316035086 101.729766099826 -25
v -3.92690833096804 113.876826275888 -25
v -16.2112223535857 123.646804445603 -25
v -17.7349626222289 123.978897876948 -25
v -16.7585572567257 122.029195187667 -25
v -4.6057186318273 104.713541372932 -25
v -1.03908269017771 101.67502544006 -25
v -20.5110318987557 120.754493130557 -25
v -5.07166262960244 108.440382301755 -25
v -22.7343518659342 111.059390630943 -25
v -6.70877589158434 102.823843195568 -25
v -13.1502803859791 129.848236616341 -25
v -21.8538582381142 100.185076015004 -25
v -22.7670597856142 98.9248893127155 -25
v -21.2339632467051 103.494053176746 -25
v -4.68736313758482 102.834227878437 -25
v -18.5518569116222 99.2363382552418 -25
v -15.3390662629989 118.993033893649 -25
v -22.3227479753131 112.937039070643 -25
v -22.615516704579 114.821152845114 -25
v -19.0915576134196 92.9991699298216 -25
v -9.94220429030599 116.037828616863 -25
v -19.563733589473 112.470123425085 -25
v -3.37142116192684 123.910428964315 -25
v -13.097267417465 114.717167041819 -25
v -6.95604464407982 95.1694803767434 -25
v -7.20861757954618 136.531800167905 -25
v -13.1445828893895 135.009926801431 -25
v -4.75295043290112 128.136956053835 -25
v -23.8142005675242 95.9672812714033 -25
v -19.0899737605395 107.451975390134 -25
v -9.17350408456712 99.1068603206893 -25
v -6.51066711136683 121.091008831792 -25
v -13.6758325960626 98.7184543407045 -25
v -12.8470145526731 97.6565236107708 -25
v -7.53131815307759 126.940227019765 -25
v -4.60943950615949 117.393217288254 -25
v -22.5948587974234 94.6293749617816 -25
v -9.29767471607062 138.213555083937 -25
v -9.34632990778847 136.38194966242 -25
v -7.74878447099228 133.107683469606 -25
v -7.03342494167726 132.319669411545 -25
v -14.4671471559455 107.124469655346 -25
v -13.0342205301442 105.620383182034 -25
v -2.7778411631912 111.704340410997 -25
v -2.44337405413806 113.409735651826 -25
v -18.1941411330376 120.731058898125 -25
v -23.5682781971721 112.95057737504 -25
v -22.7033888908756 117.381657388013 -25
v -5.04655476254322 119.441401022703 -25
v -15.5078284362683 127.169636586744 -25
v -16.1557184314695 106.950979703354 -25
v -12.546483192127 109.548559024749 -25
v -16.0045515226461 108.451614155841 -25
v -1.03098959071192 126.036530661178 -25
v -2.41636273579694 126.747369982905 -25
v -8.18294714296889 92.3573573567114 -25
v -8.06602014855911 119.467490982701 -25
v -8.22374447124654 99.828229496835 -25
v -2.72057075764386 115.341091502786 -25
v -2.77345529156287 116.833953995236 -25
v -17.7900418131126 103.233581596862 -25
v -16.0411901357913 104.305459356116 -25
v -10.1534472578932 134.834990901042 -25
v -22.5074978895196 107.055604181571 -25
v -19.5874634461945 99.2491709094148 -25
v -12.2632483340766 119.248409402637 -25
v -2.74434213548895 134.5635497256 -25
v -18.5360357151491 113.706025106704 -25
v -9.26583890860203 130.334940126597 -25
v -9.72951424954415 129.396936483028 -25
v -1.2146553403835 115.54671503755 -25
v -13.2086700780636 122.649217974723 -25
v -14.3218725473577 123.933408215387 -25
v -12.3481694354192 123.632552663596 -25
v -3.35386209686007 98.5303446281855 -25
v -12.2674751728749 99.6936160273316 -25
v -1.00734770595054 107.488281225166 -25
v -15.4433700346658 92.4609900658274 -25
v -16.1864547178403 94.3377541695408 -25
v -11.7437618039328 133.618373613071 -25
v -4.71048589871511 106.028076218147 -25
v -6.21540318472998 106.065569939764 -25
v -6.29980936012997 136.088873891226 -25
v -18.3976738923149 119.132201266727 -25
v -11.2316143688136 93.5968958049514 -25
v -0.941396001620838 97.8392921215598 -25
v -24.0210328866651 103.973501840898 -25
v -14.4690017852862 128.933649741456 -25
v -10.7189564869456 137.754488066656 -25
v -4.61944983549161 107.450294192946 -25
v -23.9682429736275 105.625863773217 -25
v -17.8398682929079 105.840983251935 -25
v -4.42533020518649 131.768913231818 -25
v -8.78079724033609 102.732874924007 -25
v -15.3928346563531 109.881282828404 -25
v -3.68155345362612 109.186669564233 -25
v -11.6915510377247 117.164820943923 -25
v -5.82223923056618 115.844285139889 -25
v -7.57333054922952 101.768295709091 -25
v -1.72703219534384 129.395653313003 -25
v -10.4381866814852 136.541414214009 -25
v -16.3896986765603 114.116753124417 -25
v -14.9800925300013 114.035004161682 -25
v -14.9977178947349 112.574416571291 -25
v -17.442241158977 125.491884614495 -25
v -19.9748710587096 119.727870517078 -25
v -15.8721820058158 117.044279428747 -25
v -14.3075595469374 116.838764186441 -25
v -14.7615044863356 115.420027556572 -25
v -4.76516749045161 123.487386267574 -25
v -18.8004865119648 101.097460678906 -25
v -22.4830337665751 109.005358719048 -25
v -21.5297175044859 109.759522257054 -25
v -13.1513437282742 127.845855091415 -25
v -0.889523141134079 131.204538098177 -25
v -4.55622438890859 135.536808310525 -25
v -21.4054638650567 98.2356963601615 -25
v -7.47329589732395 93.7614897579746 -25
v -8.77033020940606 94.2606668194746 -25
v -16.7540845183262 98.3370345124098 -25
v -10.2217269498725 102.009973599232 -25
v -0.988686048675927 104.971605540129 -25
v -16.498199222983 132.451115902539 -25
v -17.8438256252985 99.9329468975267 -25
v -8.5364762444263 121.273353641667 -25
v -2.32878981472289 96.895368193283 -25
v -14.9053641722751 136.078470493924 -25
v -16.5678306946774 130.435727366537 -25
v -15.5841476940902 129.232860891749 -25
v -12.4811647701893 129.121909814584 -25
v -5.89575529321237 99.1066166323674 -25
v -7.21661535449639 99.0662492145907 -25
v -6.7644507153025 100.787322505963 -25
v -16.7028793227842 99.6153949636533 -25
v -16.0922387039683 101.460708566484 -25
v -5.57206107756693 112.660496885208 -25
v -5.01926999946622 114.190429339457 -25
v -4.39336088936343 112.302308406778 -25
v -2.41729274603737 98.7898410604787 -25
v -18.1247318867013 109.244829519714 -25
v -13.7817580463592 96.2613300993227 -25
v -17.543603712278 107.174278761084 -25
v -0.854771978372359 120.419716990007 -25
v -14.320112819838 95.0083442934864 -25
v -14.9955819652602 96.8568748705353 -25
v -24.0927426143529 115.964798552267 -25
v -3.64334408642379 120.726794118289 -25
v -3.19504308826795 119.686728898792 -25
v -11.9967784364585 105.558596381322 -25
v -11.8412479321971 107.516592513124 -25
v -14.1274453654215 122.067657857051 -25
v -10.6023547719572 103.354494761864 -25
v -18.4578285475105 110.506364865172 -25
v -0.849689290683162 99.8068281247101 -25
v -7.81855577426727 110.392843644545 -25
v -2.23149512568935 121.733389349432 -25
v -0.939722031243497 121.655028556366 -25
v -11.7764890631765 116.171051810549 -25
v -14.9175862309519 133.251610135795 -25
v -7.2327801515478 134.137089308434 -25
v -4.30296390014023 93.652071007807 -25
v -13.2111599087631 125.852943892226 -25
v -7.11331430410172 113.515472507871 -25
v -1.06880427238647 112.419790287157 -25
v -8.89811748514323 124.441794376271 -25
v -8.05557045449718 123.507358126919 -25
v -9.12219558631294 122.55114103812 -25
v -0.835745387994107 117.460954883246 -25
v -0.903744223121105 118.478024898177 -25
v -1.77991555835129 134.86250579431 -25
v -7.5425057369666 106.376616554798 -25
v -13.7173986003186 139.319130526878 -25
v -10.3928647600353 121.517506448446 -25
v -11.2595468629063 120.572938173892 -25
v -24.1860660828721 101.919191932819 -25
v -5.05107473222447 103.878262215532 -25
v -12.150111469487 114.848302404688 -25
v -19.7353431095132 92.250903528578 -25
v -13.6114868464653 124.559067538323 -25
v -4.91013860352574 97.538646486682 -25
v -8.51602317689896 137.631342808789 -25
v -5.71327676398594 94.5870551767014 -25
v -8.83899561589121 133.379300870669 -25
v -1.04952796139828 132.125619360309 -25
v -8.02510536802888 128.340742504526 -25
v -6.37083135025604 129.261162374288 -25
v -7.64351774025538 129.718326390892 -25
v -6.08685141062382 132.212512555139 -25
v -5.95401807082325 130.549760366044 -25
v -6.99593684497446 124.24210536965 -25
v -5.48910760716778 124.564468433312 -25
v -6.61758458150663 125.886411552568 -25
v -10.101517182115 98.5471389423485 -25
v -17.5907183548005 112.084945523665 -25
v -8.81142479214032 117.715704359542 -25
v -8.96046918080689 107.565505483606 -25
v -0.905194186778753 95.9705151989807 -25
v -16.3948100064536 120.076474091346 -25
v -16.6533733600809 118.259254294993 -25
v -7.80948277071207 104.680752984375 -25
v -9.22377671973844 104.819754203496 -25
v -9.03552703931156 106.053751732947 -25
v -14.1063161870492 137.767750813526 -25
v -4.27198978460884 96.8791475708705 -25
v -16.5023100500276 96.8701145070848 -25
v -3.46953299212469 100.068346487064 -25
v -15.9478108377383 121.441775617655 -25
v -10.4416945640031 123.571091382502 -25
v -4.53055103805571 129.831180823971 -25
v -3.55562665178501 129.826445746323 -25
v -21.7136617355579 116.421010471973 -25
v -20.3870568490463 117.108634127592 -25
v -23.1713813038246 103.647932437646 -25
v -9.81383806670924 112.968129537719 -25
v -9.4552386004295 111.550520755681 -25
v -11.086595874736 111.895684582503 -25
v -9.18807927576253 109.123775811801 -25
v -21.6555578449543 120.350330742833 -25
v -20.5666915390952 118.919452130611 -25
v -0.795131013923802 129.319868171965 -25
v -0.807870294965043 110.628276142037 -25
v -13.7438940534472 119.433066514424 -25
v -7.98820339904751 109.091962722552 -25
v -2.13479305826122 130.723142644262 -25
v -14.9351107816442 101.360174395047 -25
v -16.966330103896 101.222625564408 -25
v -14.5749935073887 105.551488268274 -25
v -5.59160768665059 107.677717949439 -25
v -6.57207360066548 114.252323107294 -25
v -17.5412030781548 121.356922015927 -25
v -19.8269864177866 109.260243841635 -25
v -17.7761013983909 117.40476429984 -25
v -5.48636446526718 117.080419282927 -25
v -0.944790335768971 127.843446590969 -25
v -10.6584776749501 129.441768649913 -25
v -16.1862157832672 125.332829800938 -25
v -11.9094470319614 124.46824024296 -25
v -11.8736445161595 125.904999976627 -25
v -9.46745073021359 132.24163789747 -25
v -19.7412386909572 116.350652782202 -25
v -17.8082354870486 104.162324450354 -25
v -19.1756442487209 122.136542059371 -25
v -22.3701355590054 105.083167349177 -25
v -22.7877378356479 105.882066274708 -25
v -12.1656195437877 113.387117398989 -25
v -11.7411190941121 135.329624558658 -25
v -8.85145248131889 96.0061730291715 -25
v -9.62350158643269 96.9828383429134 -25
v -2.32679429082859 127.673370707704 -25
v -16.1485150085483 102.648003714134 -25
v -22.4339256692265 104.149893574036 -25
v -10.7157001823777 133.09652219374 -25
v -5.46010167032884 96.3553127895802 -25
v -7.82790588213857 96.7706674313847 -25
v -7.09704677272228 116.893909935464 -25
v -24.1661934419253 109.754331477586 -25
v -8.62321694302445 116.854200163527 -25
v -8.04525372761943 115.194299541264 -25
v -8.35997620929505 114.056198181325 -25
v -15.4005487669298 99.6221342839303 -25
v -3.112994176475 107.032852090071 -25
v -7.24676154592792 130.846074060097 -25
v -12.4766470534255 136.890459307406 -25
v -16.3523091836246 134.713925097497 -25
v -6.92527266446574 115.083381669322 -25
v -21.4734573877235 112.611056300558 -25
v -14.1615808492935 100.165950953977 -25
v -22.8776002506093 102.486015911939 -25
v -21.9856326743624 102.316872388974 -25
v -5.25151537603507 128.866538372197 -25
v -14.6282928672171 130.727311067834 -25
v -17.6177057091409 122.29692287792 -25
v -5.02285636332392 115.476731339112 -25
v -18.7726434456345 92.1801701922254 -25
v -20.144140833776 100.825093106338 -25
v -9.24390433477957 103.629411396244 -25
v -9.54971649975622 114.297157440633 -25
v -10.8073368133082 114.476543891791 -25
v -2.23207130688273 100.894805056958 -25
v -24.2197918732098 99.0468814847315 -25
v -3.99349968964364 116.776663368522 -25
v -12.1723754314827 121.761160101244 -25
v -15.5580602407135 138.686952901926 -25
v -2.21789432086915 109.844619174752 -25
v -20.7286002403327 93.8267474159272 -25
v -1.71740532529834 99.6476508117997 -25
v -10.3495568050657 131.156718312753 -25
v -18.9008414414078 97.299546309845 -25
v -7.2202474790902 92.1668658519429 -25
v -20.3642116875707 111.113637334293 -25
v -11.2641190814231 118.642493500757 -25
v -10.470727195146 119.089674093699 -25
v -9.61947223198266 118.632362545908 -25
v -10.3623737170441 117.272877038423 -25
v -3.36944882357543 92.1727513063827 -25
v -14.1526468812804 92.305470492429 -25
v -22.5278333177923 93.7648211313053 -25
v -24.1818347768785 93.6165917621481 -25
v -15.435555424137 95.4856730091602 -25
v -13.6117439742731 101.795825540875 -25
v -16.5160518473917 137.304567206954 -25
v -2.50309137928853 93.6657600657705 -25
v -0.878674919967327 93.4769674439312 -25
v -15.2003469444853 110.740159846313 -25
v -7.19913937244711 125.08205790243 -25
v -1.94103273425744 118.649975138794 -25
v -1.92709900400001 116.990144836447 -25
v -3.85469889860342 128.067977069048 -25
v -11.342921861274 122.876740645394 -25
v -21.5274134069824 95.9813385428944 -25
v -10.1050174922686 92.1736663114209 -25
v -12.9323439459677 117.909713490181 -25
v -14.7549741302346 120.68216257039 -25
v -16.4055984778571 135.817398410937 -25
v -15.2957488109065 134.540078588393 -25
v -14.5445930225657 134.981988334039 -25
v -9.60660897594174 94.4403136542728 -25
v -9.21437492524423 93.4993124278761 -25
v -20.6105650161913 115.296020077703 -25
v -2.58847138764002 131.888992486078 -25
v -12.766769349221 124.395551147216 -25
v -3.10958098908101 110.918179835721 -25
v -6.56757200471069 104.864557364735 -25
v -20.431819699507 98.9688097003563 -25
v -7.76247619584335 134.808568986404 -25
v -18.5966844837582 117.088182344008 -25
v -4.82266814859111 92.3289044767204 -25
v -5.84894160308263 92.3530701340503 -25
v -6.07185410295147 93.4755178692531 -25
v -20.3862336161956 113.605265086051 -25
v -16.6360465131634 133.438455027416 -25
v -10.413265684705 139.509320404667 -25
v -7.75962340309888 111.866679419595 -25
v -6.3091593754811 122.995703791693 -25
v -24.2435584553039 106.831622123283 -25
v -3.73362742061991 124.676130679815 -25
v -21.6829383820713 101.497863924406 -25
v -16.7656647517023 129.571199191392 -25
v -5.78010686856289 118.127634666779 -25
v -6.19974961509868 116.610557923399 -25
v -11.5066900706529 136.141026555658 -25
v -23.1764764698027 109.487910766771 -25
v -19.4956951786831 118.05832386553 -25
v -16.4435470420135 114.961990467688 -25
v -9.95814804348887 107.607125457802 -25
v -13.5254247752342 97.1573271307651 -25
v -12.712598570026 106.424725572224 -25
v -20.6990042178641 104.387329678793 -25
v -1.78053387673513 98.0183923525728 -25
v -15.0774177789458 93.8036713376905 -25
v -10.7880616015437 109.569371821158 -25
v -11.5106412591869 110.782562029414 -25
v -4.24074234244702 115.775677768458 -25
v -21.9672875300942 110.669884367922 -25
v -7.3863192351865 99.8885116789863 -25
v -7.32750884686847 122.455855262834 -25
v -14.6317351542283 124.714929232492 -25
v -6.39550625654503 103.635891665511 -25
v -5.98079600813983 102.38003336268 -25
v -22.5196991415467 100.739424523895 -25
v -9.98843958940127 135.803126810162 -25
v -19.2662764082409 94.7191139715897 -25
v -5.54483985954374 126.519141783046 -25
v -5.58619437291185 127.396611124471 -25
v -9.74714149389398 123.106141235452 -25
v -5.49749602930412 134.368894615103 -25
v -23.3651974283011 101.775620184373 -25
v -16.5632394890931 138.316186760551 -25
v -15.4137628803557 123.355867261837 -25
v -9.51721047656786 120.339853815955 -25
v -9.18867013626046 115.598451093742 -25
v -12.9964454623624 92.1200591305706 -25
v -11.1411086333076 117.806255646834 -25
v -18.8614355755205 108.8640162455 -25
v -17.6977906541175 113.583382034554 -25
v -24.2578064214902 104.808090554477 -25
v -20.2231863856096 102.259594657216 -25
v -11.9469364547307 140.200161656245 -25
v -12.0560849061914 120.081889329523 -25
v -3.55048747749205 115.255681217699 -25
v -7.86834874102681 118.359374133626 -25
v -7.11201417647388 117.892663165715 -25
v -19.5600150178092 93.7026686867407 -25
v -17.2370414324699 115.189781518124 -25
v -8.72204084504855 134.699072538871 -25
v -11.2181355275338 128.261992776359 -25
v -16.0748871529759 124.460578279004 -25
v -11.764688771051 99.0224736920885 -25
v -19.2938388309757 110.461349864468 -25
v -1.94369028778691 120.204635987842 -25
v -5.89872731252214 121.639038253405 -25
v -3.24690407631733 126.577924296485 -25
v -2.86380939340023 125.686141787951 -25
v -4.33538238294291 125.292165088604 -25
v -10.9897010828155 101.640533170623 -25
v -24.1718223568115 97.6216787378204 -25
v -6.58035681791148 119.520069052286 -25
v -21.1270782508835 105.606761459228 -25
v -19.5759034980847 105.351379674434 -25
v -0.806592846213957 106.607695801559 -25
v -6.7639578870677 107.791179956849 -25
v -8.54408740126276 131.226734246564 -25
v -9.65203148320068 117.811879805714 -25
v -18.8090939814496 112.111348695203 -25
v -22.9512284701939 112.417990274584 -25
v -20.9344138273956 94.6336404952811 -25
v -16.9920018243141 100.39321036213 -25
v -12.1794766491493 92.1932334201965 -25
v -16.7631508753905 110.144712270172 -25
v -6.7555736703966 108.96395179797 -25
v -11.3972043683672 134.57481425513 -25
v -16.1797008067573 111.426262435836 -25
v -13.9608047875221 126.169613320943 -25
v -13.8352776399847 134.583648109266 -25
v -23.4617036544652 99.353393430652 -25
v -4.02030891991616 127.273934736915 -25
v -4.4693677313961 126.212220960259 -25
v -13.5020576163778 116.915627909297 -25
v -13.1888986213648 135.817888346973 -25
v -14.161980015765 136.461592762886 -25
v -13.765945436629 103.030007505684 -25
v -14.9649956435154 102.901034245182 -25
v -15.0862974070794 104.055789209768 -25
v -23.4424505727554 120.011544262077 -25
v -7.69796059273557 137.201993462484 -25
v -9.54531587390053 128.60545406039 -25
v -5.48845523432937 136.194966378137 -25
v -7.56967716421584 92.9288052773638 -25
v -18.0818224096629 97.2609249455214 -25
v -3.62189436325859 131.595139386839 -25
v -15.4866148874192 119.783163112341 -25
v -13.6158082298942 110.946767562076 -25
v -1.88617721695245 109.108270625888 -25
v -2.08391383316297 124.93860451473 -25
v -5.12276471654874 130.420416030532 -25
v -10.5932237148821 100.21616297525 -25
v -14.456324679874 132.005119440717 -25
v -8.86682611111872 119.485440786068 -25
v -11.4770537348156 95.3491710153975 -25
v -12.1601243185936 96.2431964153743 -25
v -11.1378117083612 96.9729250656405 -25
v -3.63714469663839 122.233169469113 -25
v -4.5265290453626 122.48700383456 -25
v -2.07771707733848 107.99783624257 -25
v -13.6195579075106 130.500773306732 -25
v -10.6799805659424 95.6603366650412 -25
v -14.5732268323767 117.611553851215 -25
v -13.114851985838 120.847693001621 -25
v -19.7555268730667 120.495742733155 -25
v -7.85272013611789 116.589199506336 -25
v -1.79918230826193 103.409484713314 -25
v -14.6792161883694 108.143138582938 -25
v -14.1007911506009 108.69932285021 -25
v -14.2967127737777 109.474334883379 -25
v -13.6612825451904 107.15597007923 -25
v -13.0296293826853 108.057575827243 -25
v -15.5527528764928 115.6023801996 -25
v -5.10125337695895 95.3092422149005 -25
v -14.312326711329 104.313539194978 -25
v -7.97108489431851 120.681758823671 -25
v -16.5511752851528 116.590172860388 -25
v -2.17469554572271 105.583283879407 -25
v -6.82146601440885 110.405214482718 -25
v -5.47972114514241 110.077260398291 -25
v -6.43629900843122 111.37010599283 -25
v -7.28332189526558 103.386088046339 -25
v -24.4134547875107 118.877731072387 -25
v -4.13409244117394 118.026474528257 -25
v -20.5552078884475 92.1937043957243 -25
v -11.1757885083643 130.092332791309 -25
v -10.8030318717453 94.2566832194817 -25
v -20.1705518640986 111.933613517635 -25
v -10.5852619307952 112.80842797047 -25
v -2.96259243412236 133.066886855086 -25
v -3.37663297821218 103.463648807324 -25
v -17.7167499689642 110.864481517058 -25
v -1.9875030151769 111.681793657739 -25
v -13.3798226974317 133.147881766514 -25
v -5.53045668605988 122.902820914895 -25
v -5.38027244893785 93.8660229245961 -25
v -8.29045744733121 101.407318449165 -25
v -0.948141896184871 94.2601051487699 -25
v -24.2060436343872 112.427486598828 -25
v -4.19817956971719 109.777463190673 -25
v -24.1790641331491 111.283475742872 -25
v -23.2719338608448 92.2448743824367 -25
v -24.2640046028532 96.6133306693182 -25
v -23.3018921565854 116.142444975458 -25
v -20.7855027573422 101.686996203162 -25
v -0.657191144048995 122.412591832274 -25
v -3.26347959758203 92.976302766461 -25
v -7.04021589337417 97.4287274244611 -25
v -5.97992011877099 98.3305037058314 -25
v -16.9526155957573 123.906805037506 -25
v -11.0611520387954 140.509502233875 -25
v -3.07107336017887 101.739823045158 -25
v -2.68878291150116 102.455754463947 -25
v -3.81431390267733 101.41047765392 -25
v -0.843993534037491 109.104117103871 -25
v -2.86403024604772 95.3256776737884 -25
v -12.3137985817152 102.399727929233 -25
v -22.2986447890173 99.5464214192705 -25
v -21.9694577246361 98.8110554790732 -25
v -3.82426171583172 107.476310375275 -25
v -4.41604191742806 108.919707096784 -25
v -11.1500434014041 100.877901309697 -25
v -9.71076703976904 101.422731415089 -25
v -4.14583227380636 98.5333612780701 -25
v -12.6416451002683 100.389624889581 -25
v -7.55650986246602 107.639405437123 -25
v -10.5849351126358 115.590136953 -25
v -7.81141645554462 132.332117238674 -25
v -14.9629703760548 129.71828886964 -25
v -13.3378240845581 100.731379395222 -25
v -17.8099437817558 92.0677150175713 -25
v -21.0764215551767 100.14472267971 -25
v -0.63765374723105 105.670676722397 -25
v -5.76078004741388 120.865990804956 -25
v -18.4502740985673 123.679902213942 -25
v -0.709133050010585 100.97689617678 -25
v -19.0767552112358 98.6701792021863 -25
v -11.9456773044109 93.8952197461327 -25
v -3.93484332389093 105.909053995375 -25
v -2.82765708423234 105.13411034876 -25
v -3.87613575593051 104.464669942721 -25
v -17.791283049389 124.774604494524 -25
v -0.604151356032783 125.384796165664 -25
v -6.4963119770512 118.423924417094 -25
v -19.6737933192786 114.674554642448 -25
v -18.8075170105694 115.416843024792 -25
v -18.164505304564 114.389481619005 -25
v -11.4813744947448 127.056934000804 -25
v -2.32124665333214 103.975377816108 -25
v -20.1481952775993 106.338316843189 -25
v -0.639198195292646 98.823060123135 -25
v -2.14050332370009 114.16091690471 -25
v -7.49035236930723 98.3513663378967 -25
v -2.44278684680688 117.571306704821 -25
v -23.1457479927752 96.3424080616071 -25
v -22.7694053919203 97.2034383165486 -25
v -20.6354692534177 98.0123667057391 -25
v -8.31599771839068 106.33995370099 -25
v -10.6871732180134 104.116337261485 -25
v -1.89471306650972 123.115970711816 -25
v -12.6690977969076 138.532054194587 -25
v -8.32809829039365 125.691780514298 -25
v -8.41105248339942 129.67686753129 -25
v -8.79979450627168 128.198417050195 -25
v -16.5457662602429 93.6649276225824 -25
v -16.8890018273496 94.6347859956397 -25
v -18.0210223394118 93.6508887107774 -25
v -17.882989311602 94.4232619684074 -25
v -17.6936308355864 101.794170972825 -25
v -17.4292754697296 120.586628713622 -25
v -2.43351462207062 135.26591500259 -25
v -12.49353538836 103.958825055346 -25
v -3.96925156390426 94.3681567954872 -25
v -8.59740069419647 97.6685385086025 -25
v -3.63486009670883 112.241013473128 -25
v -1.93331237689655 115.192697049913 -25
v -15.0563145954907 97.6153374005513 -25
v -12.4912410545081 133.788294124781 -25
v -0.758882940548035 114.926418501315 -25
v -0.803210916606875 114.070721782136 -25
v -13.5940732175402 114.142221071463 -25
v -13.5326716737921 113.051690793364 -25
v -11.7435115445277 104.825922795941 -25
v -11.2352053385533 106.010917722642 -25
v -10.3259216464601 104.92935687499 -25
v -13.1874640578499 116.204860749663 -25
v -6.24887857123244 96.2636134495789 -25
v -22.241020569104 114.133451854332 -25
v -11.7493057299139 98.2638399918816 -25
v -24.2994381064246 114.612401528916 -25
v -20.8032651461209 109.971674108602 -25
v -10.5274955656448 105.742380517705 -25
v -16.8681748494759 102.880742152382 -25
v -0.746550321865098 134.992922184944 -25
v -20.6326160177505 103.036645740745 -25
v -18.5295183855801 103.084690288166 -25
v -19.4288833969847 103.783466978722 -25
v -18.7694697293565 104.575257428402 -25
v -15.930659801177 106.176911130746 -25
v -12.4310422301576 114.120609223217 -25
v -3.41217787006558 95.8438430497014 -25
v -18.4253734579949 100.430409566966 -25
v -22.7137215272731 116.622511776583 -25
v -18.9550208652299 101.84649343252 -25
v -8.48311530561369 113.104790982349 -25
v -7.01794540465077 112.721840665049 -25
v -15.9407699132631 118.526825177617 -25
v -18.9846680066856 112.981279622941 -25
v -6.5537682251068 128.531271976848 -25
v -3.04037544353688 99.2187867800235 -25
v -17.510618814262 98.250655001048 -25
v -12.8801348444462 108.873127293448 -25
v -0.742837604696161 124.115271024114 -25
v -16.0082359461723 98.1921207659376 -25
v -9.86790631716415 100.470947815975 -25
v -14.2575617708098 96.9927073210693 -25
v -9.07838919015042 137.104479053642 -25
v -4.98468903009521 134.918863904486 -25
v -4.78263733225061 99.1213774911696 -25
v -4.22128775763294 100.027703069288 -25
v -15.5546930407543 100.93832919095 -25
v -2.93536583586262 123.296574686975 -25
v -24.3277221630401 119.764835799595 -25
v -10.5837541778089 119.853591557195 -25
v -11.0033160715116 138.937241536681 -25
v -14.9047146356781 127.641647185008 -25
v -4.35140170574095 95.2837797940776 -25
v -8.55205774822519 110.535722218705 -25
v -11.8754506354468 109.219950678772 -25
v -21.718768135945 97.5552195623014 -25
v -20.5047823150799 96.6723264644554 -25
v -21.570507212089 114.461701880639 -25
v -21.6607424372706 92.0144348918401 -25
v -16.5623646055862 97.6148736859728 -25
v -12.8161700257294 94.8576850771825 -25
v -7.64004891465014 127.6891975737 -25
v -3.25290650767587 108.579058678049 -25
v -24.3423817123902 116.664448460239 -25
v -0.711998240260404 128.565645321537 -25
v -12.2822353433837 110.859900235014 -25
v -13.6648049929427 110.181811506328 -25
v -11.2931593029862 107.015736096987 -25
v -18.6696096153674 95.2007636429206 -25
v -22.9906865686391 119.422394853973 -25
v -5.61951333486799 108.942742108762 -25
v -23.2199326219481 107.268828338336 -25
v -12.1633276996904 130.90410197972 -25
v -12.2071335012433 132.369430627949 -25
v -11.2793459610251 131.6716860008 -25
v -15.9543089499026 133.103334822651 -25
v -17.2348943741926 127.538349925784 -25
v -21.5712561866062 111.309538333348 -25
v -13.9479897541376 133.618040187619 -25
v -9.99239895674127 106.251360186823 -25
v -16.8127304372366 104.413493170244 -25
v -14.4511688610378 139.156500123242 -25
v -4.34658486829406 119.185527045078 -25
v -24.2744947147164 117.41797840794 -25
v -24.304548372552 113.177488819054 -25
v -1.55442348626751 110.523179860521 -25
v -18.0829341366138 104.848132373792 -25
v -2.87020946422087 119.021354361686 -25
v -6.31437138246915 135.211382584605 -25
v -4.41298230024428 101.873158232592 -25
v -14.3357637191614 121.319229492663 -25
v -11.5090170782554 92.4889379460554 -25
v -14.9681855937379 113.304460336404 -25
v -7.19468063223995 95.900098599674 -25
v -5.9204468056177 125.591699142585 -25
v -5.03129408337618 101.110783607035 -25
v -4.11537320422452 123.854012559059 -25
v -21.9894106767154 118.083294111245 -25
v -20.9385745527177 117.599818374749 -25
v -21.1396504537335 116.87378122634 -25
v -3.9378315189553 102.952842349036 -25
v -18.9289619851653 120.859586950343 -25
v -5.27052852682092 120.178938134676 -25
v -15.4549344327474 105.611014135344 -25
v -23.332681565093 97.6832867219396 -25
v -9.27543036160087 126.073525637348 -25
v -10.3528684069945 126.362677686962 -25
v -9.13744484141146 127.180025168552 -25
v -9.56349013528957 138.888348497965 -25
v -16.8481133142487 128.15171266379 -25
v -12.536984507416 127.421476206615 -25
v -17.1369196145527 105.664338234677 -25
v -10.2819463215184 127.082733593188 -25
v -13.687391355744 115.190914515013 -25
v -10.4862130789334 108.874779827536 -25
v -20.2789900735407 97.3707394896542 -25
v -16.0796293118134 117.769525613967 -25
v -8.70246631584601 136.044552392481 -25
v -1.89648392032597 92.2382018041869 -25
v -21.8792190037387 106.654693405404 -25
v -22.0405013742963 107.826734511977 -25
v -20.8108178618712 107.115828012387 -25
v -17.5316597730604 102.527953801311 -25
v -13.1033506476087 139.709586677404 -25
v -8.26836049693306 102.168962010602 -25
v -2.03235641149539 106.361047143661 -25
v -12.5717728903048 128.355481797901 -25
v -9.27480289694723 116.316578833567 -25
v -12.4477012730883 135.191068273127 -25
v -10.0744410030694 134.119411333742 -25
v -11.6036509106989 108.198742988585 -25
v -6.15118019833042 124.26143496558 -25
v -1.3425156662642 125.366862861234 -25
v -2.01028783433926 102.714638651741 -25
v -13.2362026694752 112.390310858565 -25
v -3.30083664488757 129.149944425849 -25
v -18.3708996046221 119.859434307701 -25
v -16.9521246426521 119.60601840244 -25
v -2.24243517887316 128.885545843891 -25
v -20.4456171082741 95.1650737831369 -25
v -11.9363359001959 137.359663618128 -25
v -2.74812536476411 116.118922683581 -25
v -18.8686375722463 108.140667055938 -25
v -7.8573806826187 113.507475607875 -25
f 130 131 1144
f 956 612 332
f 956 3 4
f 687 1197 250
f 1321 219 1198
f 687 250 612
f 687 612 5
f 927 415 995
f 1161 775 219
f 938 463 8
f 1339 1211 201
f 520 1018 277
f 749 902 324
f 871 926 429
f 1034 324 745
f 1233 572 168
f 1336 653 188
f 993 749 16
f 510 380 667
f 677 1274 1230
f 482 18 19
f 914 19 20
f 1245 869 226
f 655 495 278
f 804 1280 407
f 1280 26 27
f 1300 27 28
f 30 1265 29
f 1286 562 239
f 25 804 1232
f 1232 495 655
f 551 1315 1314
f 1063 667 380
f 764 543 877
f 900 636 322
f 636 661 280
f 37 636 900
f 894 656 1045
f 475 553 161
f 1184 344 661
f 1293 506 651
f 741 1305 264
f 596 820 161
f 1326 42 43
f 781 1292 305
f 1072 1295 214
f 785 974 342
f 528 785 342
f 1026 941 485
f 922 972 342
f 861 1078 228
f 506 552 234
f 237 1357 629
f 989 48 922
f 585 721 191
f 1298 55 56
f 554 45 46
f 1085 138 139
f 600 64 842
f 751 639 185
f 878 67 68
f 928 350 686
f 1281 68 69
f 1169 145 679
f 609 1322 146
f 1185 1255 503
f 1185 72 1255
f 657 1148 412
f 1148 74 75
f 815 75 76
f 815 76 801
f 633 153 707
f 810 1201 220
f 826 79 80
f 525 690 153
f 1221 1222 382
f 1221 82 83
f 822 1135 287
f 1222 648 382
f 1217 702 177
f 879 87 547
f 547 87 1157
f 1168 1059 207
f 1216 500 149
f 969 117 583
f 1058 281 735
f 1350 1155 400
f 780 1120 498
f 1191 646 253
f 471 95 664
f 812 1193 395
f 944 797 284
f 744 1193 99
f 101 452 100
f 797 1007 218
f 1149 819 232
f 107 105 106
f 961 529 335
f 529 446 335
f 107 529 105
f 1138 840 383
f 953 1149 446
f 912 1150 230
f 953 109 110
f 112 985 111
f 1164 614 169
f 1086 947 714
f 449 113 947
f 716 790 149
f 1195 568 149
f 592 583 337
f 583 117 1308
f 460 348 1030
f 1004 692 160
f 954 120 121
f 1207 737 279
f 454 387 598
f 598 123 124
f 567 455 240
f 1127 405 836
f 1275 455 567
f 1144 131 555
f 2 131 1
f 59 60 1153
f 1340 57 58
f 1036 58 59
f 517 696 289
f 1340 1036 524
f 600 63 64
f 978 1088 185
f 1203 524 237
f 1260 1024 483
f 1024 613 571
f 554 781 305
f 684 137 741
f 828 142 143
f 741 264 684
f 1132 599 185
f 725 299 469
f 828 1236 638
f 1236 143 61
f 735 90 1058
f 1025 1018 520
f 584 78 827
f 665 35 542
f 892 69 70
f 763 651 894
f 1283 411 710
f 1107 1318 241
f 1208 1207 387
f 1006 628 260
f 862 1243 165
f 97 812 1178
f 702 416 287
f 753 574 962
f 1291 615 151
f 696 134 135
f 1303 750 447
f 17 18 561
f 1100 578 190
f 1307 809 155
f 762 625 255
f 715 1039 192
f 971 1307 576
f 837 820 321
f 739 434 172
f 268 650 465
f 847 1093 157
f 773 65 66
f 887 158 477
f 618 80 81
f 1247 631 182
f 767 1330 174
f 692 501 160
f 1308 1066 348
f 1071 161 820
f 786 45 554
f 849 1052 162
f 486 70 712
f 1078 785 228
f 941 54 55
f 523 1187 378
f 876 665 312
f 1215 545 232
f 744 99 100
f 932 1173 125
f 670 995 171
f 664 1350 471
f 476 1165 195
f 770 771 588
f 1274 515 164
f 1164 169 658
f 502 217 501
f 1114 1254 197
f 811 224 519
f 10 520 654
f 884 793 293
f 622 834 367
f 1157 88 89
f 473 1087 946
f 598 736 123
f 1224 625 1223
f 1105 577 194
f 908 1080 175
f 711 1110 170
f 1097 538 229
f 592 714 115
f 754 466 233
f 822 84 85
f 1014 824 202
f 1023 866 426
f 818 571 179
f 638 63 600
f 441 309 829
f 643 569 159
f 1343 788 593
f 1345 904 393
f 494 873 630
f 913 1040 213
f 898 870 560
f 548 1354 316
f 1329 597 645
f 929 642 181
f 639 1132 185
f 570 907 199
f 374 675 577
f 1027 731 487
f 1358 718 291
f 341 827 826
f 902 901 324
f 621 688 435
f 1152 660 280
f 534 426 203
f 540 1304 611
f 1255 73 74
f 1259 289 696
f 738 615 251
f 832 1266 211
f 1360 1247 917
f 1033 1189 193
f 1042 640 580
f 765 1105 296
f 1028 1096 539
f 934 488 220
f 1257 261 1094
f 1183 646 196
f 471 94 95
f 1271 1347 197
f 881 150 541
f 659 1038 198
f 648 84 822
f 1051 713 298
f 1281 878 68
f 918 635 200
f 1167 606 169
f 1238 719 201
f 1117 607 366
f 507 824 1014
f 693 623 205
f 895 534 203
f 534 896 246
f 1359 1032 204
f 1134 852 147
f 421 963 848
f 1052 994 162
f 727 1060 206
f 1170 698 699
f 740 829 207
f 886 666 748
f 559 720 1081
f 885 456 271
f 802 461 209
f 954 1030 120
f 1063 676 210
f 1070 574 147
f 1031 949 369
f 1096 715 192
f 991 1248 212
f 794 477 288
f 951 853 1061
f 1126 540 187
f 817 973 214
f 785 528 228
f 1009 215 1331
f 514 935 182
f 1110 432 1111
f 1115 767 451
f 1099 501 217
f 1150 527 230
f 1252 797 733
f 545 641 232
f 1054 1321 418
f 723 674 1179
f 752 934 481
f 1234 1226 573
f 1242 835 221
f 835 682 295
f 909 672 222
f 1035 627 386
f 683 840 223
f 986 985 112
f 1130 680 224
f 589 436 204
f 775 982 1199
f 439 863 563
f 677 495 226
f 1245 706 409
f 1352 868 227
f 453 773 66
f 54 941 1026
f 972 49 50
f 538 1097 1104
f 1066 118 119
f 1216 912 320
f 911 862 165
f 565 791 235
f 838 911 527
f 1335 529 107
f 855 101 102
f 1279 754 233
f 549 86 879
f 746 553 234
f 1326 1293 42
f 1317 196 1133
f 1139 476 195
f 913 419 1108
f 1344 679 406
f 747 517 289
f 990 1153 132
f 943 1041 405
f 678 454 932
f 1082 1286 516
f 1300 1280 27
f 129 455 1275
f 956 4 612
f 764 1107 241
f 888 930 662
f 1187 579 1188
f 580 984 890
f 681 530 243
f 578 412 814
f 664 937 244
f 744 452 1007
f 893 593 1128
f 616 1136 251
f 609 534 246
f 772 553 297
f 1122 601 247
f 466 601 177
f 1256 1219 248
f 957 443 737
f 1199 225 1332
f 1020 1041 430
f 695 612 250
f 968 546 462
f 594 616 408
f 1019 697 191
f 1089 252 675
f 724 949 370
f 1133 646 400
f 1175 1058 91
f 18 482 561
f 652 433 258
f 1090 624 643
f 903 221 513
f 459 1270 813
f 1121 1123 375
f 644 1324 257
f 1251 844 388
f 1338 652 258
f 204 1032 798
f 1049 556 259
f 768 849 162
f 1239 627 260
f 386 933 1147
f 734 614 1046
f 851 689 500
f 691 438 262
f 851 500 217
f 457 607 1117
f 438 691 200
f 1083 684 356
f 983 818 355
f 139 774 1085
f 613 639 334
f 945 151 444
f 846 532 294
f 651 506 267
f 656 475 343
f 1201 810 465
f 1159 658 606
f 1196 341 965
f 801 76 77
f 750 800 270
f 1241 709 456
f 456 700 271
f 1005 550 306
f 436 589 711
f 962 624 216
f 1235 719 273
f 1328 750 270
f 1243 479 274
f 855 452 101
f 738 1069 275
f 841 698 266
f 933 769 276
f 1065 293 792
f 654 520 277
f 1160 670 346
f 1141 705 380
f 676 493 924
f 737 1008 279
f 736 954 121
f 37 1177 636
f 662 526 865
f 1181 172 511
f 735 417 89
f 434 739 282
f 834 673 367
f 487 731 283
f 730 732 428
f 937 944 284
f 1166 838 231
f 632 490 285
f 625 761 174
f 1000 770 482
f 771 168 588
f 416 703 287
f 980 942 466
f 477 795 288
f 1217 416 702
f 697 759 289
f 1325 990 133
f 1299 1126 345
f 806 805 587
f 319 1011 931
f 1218 729 382
f 603 803 292
f 461 799 160
f 1065 884 293
f 883 608 328
f 845 920 505
f 1093 333 867
f 1330 1228 295
f 755 536 370
f 1119 296 1115
f 1076 536 1228
f 669 297 509
f 553 772 161
f 1050 713 1051
f 712 71 1185
f 638 600 299
f 725 518 1213
f 783 825 507
f 824 823 421
f 783 507 301
f 1049 259 522
f 427 831 302
f 1037 724 338
f 975 976 337
f 947 113 114
f 642 304 554
f 996 552 43
f 1292 817 305
f 642 305 1095
f 807 1005 306
f 1284 808 363
f 1205 845 843
f 623 1022 205
f 1033 490 308
f 519 852 1134
f 441 858 309
f 860 859 489
f 875 881 310
f 1059 886 207
f 948 1047 572
f 688 621 258
f 34 665 876
f 33 562 32
f 1348 848 313
f 1075 1050 349
f 1261 789 496
f 1341 752 373
f 575 865 315
f 809 487 730
f 1354 856 316
f 577 557 194
f 977 515 317
f 706 564 239
f 1001 543 318
f 857 548 316
f 998 891 756
f 717 1194 198
f 906 1216 320
f 176 558 450
f 979 321 895
f 896 820 596
f 35 900 542
f 1212 1354 422
f 907 892 486
f 758 453 878
f 13 745 429
f 909 901 437
f 923 887 325
f 916 917 521
f 936 1169 326
f 1344 915 236
f 1010 874 494
f 631 872 182
f 958 1172 328
f 883 1263 793
f 1091 942 547
f 1135 702 287
f 1088 978 535
f 882 773 453
f 728 331 727
f 897 841 266
f 2 3 555
f 240 695 566
f 1093 532 333
f 978 599 330
f 699 179 846
f 532 751 333
f 1140 335 620
f 103 620 102
f 492 237 524
f 1298 941 55
f 777 976 975
f 743 1308 348
f 880 338 557
f 1037 605 832
f 1190 1327 339
f 788 669 245
f 995 1018 340
f 1018 995 670
f 611 964 341
f 965 826 618
f 485 228 528
f 972 922 49
f 1015 656 343
f 1071 475 161
f 38 1184 661
f 660 1045 189
f 997 345 694
f 694 345 1126
f 1161 1160 346
f 723 581 276
f 987 1138 347
f 985 544 110
f 1180 743 348
f 1030 119 120
f 1074 1050 1075
f 1313 358 768
f 333 868 867
f 1022 1021 205
f 587 814 351
f 1048 801 584
f 1070 632 352
f 624 762 255
f 1074 353 686
f 1021 1311 850
f 999 759 354
f 721 1019 191
f 1346 585 472
f 698 818 179
f 1334 697 356
f 136 839 135
f 626 691 357
f 1258 799 292
f 1101 768 358
f 1100 1264 578
f 1288 722 359
f 16 749 15
f 1057 628 360
f 672 927 222
f 1271 710 361
f 494 874 327
f 700 1110 362
f 271 1005 701
f 1347 602 363
f 1003 582 854
f 1068 1287 364
f 207 886 434
f 649 924 365
f 1250 726 308
f 608 1080 366
f 607 457 144
f 1124 1016 668
f 1306 1156 167
f 1013 716 368
f 791 757 235
f 950 951 369
f 853 458 915
f 724 370 557
f 816 512 295
f 461 160 619
f 538 499 176
f 488 195 779
f 1164 1094 614
f 668 757 373
f 858 481 309
f 1249 675 374
f 1105 766 296
f 1068 150 610
f 601 478 177
f 445 178 1028
f 715 525 377
f 1039 715 377
f 997 633 345
f 988 164 523
f 640 242 580
f 580 1119 379
f 760 761 285
f 21 1141 1143
f 1143 510 20
f 667 1294 1012
f 1047 811 311
f 81 729 618
f 703 648 287
f 1269 1215 383
f 347 819 544
f 1246 1211 769
f 793 908 175
f 1240 899 385
f 1239 1238 627
f 1147 1035 386
f 769 1211 394
f 563 173 431
f 1173 124 125
f 686 1022 388
f 844 1251 307
f 421 1204 963
f 850 693 205
f 527 1150 390
f 789 790 314
f 1225 807 391
f 573 1003 180
f 991 631 392
f 1248 821 477
f 354 1069 904
f 1077 685 396
f 1211 884 394
f 1244 782 674
f 1193 744 395
f 797 218 733
f 591 1072 685
f 1077 1078 504
f 666 1163 397
f 919 1342 511
f 864 1252 398
f 496 789 314
f 673 1306 440
f 1156 1154 595
f 1182 253 646
f 399 1155 1154
f 646 1183 401
f 1120 1342 498
f 1084 728 402
f 843 845 307
f 1011 1038 403
f 795 659 288
f 778 792 404
f 1219 1258 803
f 1127 567 405
f 1064 566 1356
f 952 1061 406
f 1029 521 326
f 869 1245 409
f 239 564 516
f 617 1289 408
f 1291 408 615
f 870 1316 1315
f 183 551 877
f 569 1224 410
f 835 295 512
f 1283 1090 411
f 361 1282 1010
f 578 1202 412
f 815 1148 75
f 1322 1323 413
f 645 597 184
f 904 163 999
f 759 747 289
f 1237 1035 415
f 222 927 926
f 659 198 416
f 288 416 796
f 233 1091 1102
f 735 89 90
f 7 1054 1145
f 1197 1198 546
f 916 1108 419
f 756 891 319
f 992 1348 420
f 1137 768 1101
f 823 1204 421
f 963 850 313
f 1212 422 704
f 241 742 543
f 722 1337 423
f 1336 423 653
f 989 922 424
f 1292 424 817
f 616 1095 425
f 1295 1072 591
f 866 203 426
f 300 426 823
f 825 178 427
f 967 940 428
f 605 155 940
f 302 967 427
f 12 13 429
f 833 520 11
f 1041 943 430
f 1285 249 431
f 497 249 1285
f 238 1210 1209
f 711 272 432
f 1111 1114 362
f 572 311 889
f 168 433 652
f 748 172 434
f 207 434 740
f 1303 152 750
f 800 204 436
f 435 204 800
f 800 436 709
f 1056 1006 437
f 909 871 324
f 925 1172 438
f 734 169 614
f 1253 778 439
f 563 603 173
f 1017 673 440
f 565 496 314
f 981 858 441
f 1200 180 442
f 854 310 442
f 180 1200 860
f 957 802 443
f 1008 209 533
f 727 945 444
f 1060 266 586
f 831 178 445
f 950 369 949
f 108 109 1335
f 960 1149 232
f 1303 447 899
f 720 590 208
f 1310 448 683
f 840 1116 383
f 776 223 449
f 113 986 112
f 777 176 450
f 303 450 776
f 193 1002 760
f 761 767 174
f 784 1007 452
f 274 855 620
f 758 227 453
f 67 453 66
f 1209 387 454
f 678 836 405
f 129 1144 455
f 955 455 332
f 709 170 456
f 885 271 457
f 1081 208 1117
f 144 457 701
f 377 1040 1039
f 1029 679 1344
f 582 215 875
f 813 256 491
f 537 348 460
f 209 1008 443
f 802 292 461
f 209 1277 537
f 1272 775 462
f 1087 563 249
f 1073 463 938
f 8 1054 7
f 1332 225 464
f 166 464 497
f 1214 465 650
f 810 220 488
f 1163 1142 754
f 233 466 942
f 798 467 589
f 1067 147 574
f 939 718 468
f 1038 717 198
f 725 469 518
f 265 639 613
f 96 97 1178
f 937 284 595
f 93 94 634
f 1350 244 1155
f 910 1346 472
f 151 897 444
f 674 148 473
f 225 946 464
f 1112 474 1111
f 1111 1254 1114
f 1268 553 475
f 267 475 656
f 689 261 476
f 368 476 1139
f 887 477 821
f 212 477 794
f 1123 212 478
f 375 601 1122
f 1269 165 1243
f 274 784 452
f 838 1166 480
f 479 480 218
f 1124 373 481
f 309 481 859
f 770 254 482
f 1000 914 510
f 1305 741 483
f 1260 774 518
f 767 296 484
f 1330 295 682
f 53 54 1026
f 52 959 51
f 907 486 713
f 712 70 71
f 660 1027 526
f 809 730 155
f 779 268 488
f 752 481 373
f 1227 1234 489
f 859 860 309
f 852 308 490
f 285 490 760
f 1270 256 813
f 1123 491 212
f 1267 237 492
f 1153 1036 59
f 676 1230 493
f 365 493 988
f 1009 361 494
f 873 631 256
f 24 25 1232
f 278 495 677
f 1262 1261 496
f 1312 565 440
f 464 249 497
f 166 497 1356
f 1342 1058 498
f 253 780 634
f 905 176 499
f 217 499 1099
f 689 149 500
f 217 500 906
f 692 1231 501
f 160 501 1098
f 614 261 502
f 1231 502 501
f 1092 1349 503
f 1202 657 412
f 1357 921 629
f 336 504 861
f 920 294 505
f 307 505 844
f 1326 552 506
f 267 708 475
f 825 300 507
f 301 1014 556
f 1021 1075 508
f 1311 508 849
f 1171 509 746
f 669 594 245
f 667 286 510
f 1143 20 21
f 604 281 919
f 1182 1120 253
f 936 221 512
f 145 512 816
f 874 159 513
f 872 514 182
f 513 221 514
f 1131 872 327
f 977 164 515
f 317 515 869
f 1265 1082 516
f 1125 564 28
f 990 1325 517
f 237 747 1357
f 140 141 518
f 265 518 469
f 1062 852 519
f 1047 311 572
f 1025 520 833
f 11 520 10
f 935 326 521
f 917 916 325
f 1319 1176 522
f 522 647 805
f 680 365 523
f 1250 523 726
f 1203 830 524
f 492 524 1036
f 1118 301 525
f 1055 525 153
f 662 280 526
f 315 526 487
f 1151 231 527
f 1229 911 448
f 959 485 528
f 51 972 50
f 1335 446 529
f 105 961 104
f 994 349 530
f 243 1092 503
f 228 485 531
f 336 1298 830
f 846 334 532
f 294 847 505
f 209 460 533
f 736 121 122
f 895 321 534
f 426 609 146
f 868 333 535
f 227 535 882
f 970 370 536
f 1076 484 766
f 619 229 1277
f 209 537 460
f 1104 499 538
f 1129 337 743
f 1266 539 950
f 951 1096 192
f 1299 806 540
f 187 1196 718
f 813 150 881
f 310 1168 442
f 34 35 665
f 1318 322 704
f 1001 183 543
f 318 742 548
f 819 1149 544
f 985 110 111
f 1243 1158 545
f 1269 383 1116
f 1198 1272 546
f 250 968 566
f 942 1302 547
f 1157 87 88
f 742 422 548
f 318 548 890
f 1302 549 879
f 86 549 85
f 1113 1114 550
f 306 550 808
f 562 312 551
f 1314 1315 409
f 787 234 552
f 787 996 304
f 746 297 553
f 1268 475 708
f 44 45 786
f 304 929 1171
f 131 2 555
f 455 555 332
f 690 301 556
f 1137 992 420
f 880 557 577
f 970 557 370
f 905 320 558
f 1310 1229 448
f 1235 273 908
f 1080 1081 366
f 870 183 560
f 984 318 890
f 482 254 561
f 17 993 16
f 1082 32 562
f 239 562 551
f 1087 439 563
f 249 563 431
f 706 407 564
f 516 564 1125
f 167 496 1312
f 440 565 235
f 943 240 1064
f 968 250 546
f 127 128 1127
f 405 567 943
f 558 320 912
f 1195 149 790
f 1351 1224 569
f 159 569 513
f 1355 907 570
f 1352 570 966
f 637 264 983
f 179 571 613
f 1233 381 572
f 889 1032 433
f 1226 1284 573
f 1234 573 1296
f 1134 147 1067
f 272 753 432
f 856 186 575
f 252 971 576
f 880 252 576
f 338 1106 605
f 675 252 577
f 374 577 1105
f 1264 1202 578
f 814 815 351
f 1187 977 579
f 242 898 560
f 890 154 580
f 1188 640 378
f 1174 933 581
f 982 723 225
f 1331 363 602
f 1003 854 180
f 116 117 969
f 337 1129 975
f 964 584 827
f 78 584 77
f 897 472 841
f 1043 585 191
f 444 266 1060
f 206 920 845
f 805 190 587
f 269 587 1048
f 1337 254 588
f 423 652 1338
f 1067 272 589
f 467 798 811
f 1297 590 720
f 1320 1241 456
f 1295 591 1136
f 1220 591 393
f 115 116 592
f 976 592 337
f 1044 339 593
f 184 893 728
f 1103 181 594
f 1289 594 408
f 1154 937 595
f 167 864 1262
f 1190 246 596
f 1327 161 772
f 1323 246 1329
f 184 1044 593
f 1173 454 598
f 123 736 122
f 842 599 600
f 299 1132 469
f 599 299 600
f 599 842 330
f 375 478 601
f 247 601 1142
f 1347 1271 602
f 363 1331 582
f 863 248 603
f 173 957 737
f 1162 604 919
f 1102 1091 417
f 940 302 605
f 1106 338 576
f 608 263 958
f 1172 1167 438
f 1079 366 607
f 1214 1225 465
f 883 175 608
f 263 608 1079
f 1323 1322 609
f 534 609 426
f 1121 375 610
f 1287 247 666
f 1304 964 611
f 540 611 187
f 4 5 612
f 332 612 695
f 1024 265 613
f 179 613 846
f 1094 261 614
f 169 734 1167
f 1290 251 615
f 151 910 472
f 594 181 616
f 408 616 1290
f 1128 245 617
f 331 617 945
f 826 80 618
f 291 1218 717
f 1098 1097 619
f 1277 229 537
f 641 274 620
f 335 1140 961
f 1192 258 621
f 152 621 435
f 740 282 981
f 156 622 1016
f 843 307 1278
f 693 850 389
f 962 352 624
f 216 1090 1283
f 1309 761 625
f 1224 1223 410
f 918 200 626
f 404 626 1256
f 1237 627 1035
f 386 627 1246
f 1057 152 628
f 360 628 1006
f 504 336 629
f 921 999 163
f 215 494 630
f 215 630 459
f 873 327 631
f 256 631 991
f 762 352 632
f 490 632 852
f 1055 153 633
f 1186 213 1040
f 94 471 634
f 93 780 92
f 792 293 918
f 200 635 925
f 36 37 900
f 930 280 662
f 1043 637 983
f 264 637 684
f 62 63 638
f 1236 828 143
f 265 469 639
f 334 639 751
f 1189 378 640
f 193 1042 1002
f 960 232 641
f 335 641 620
f 1095 181 642
f 305 642 554
f 624 255 643
f 411 643 1282
f 1204 1322 644
f 389 644 693
f 1324 413 645
f 1206 1084 402
f 1133 196 646
f 400 646 1191
f 522 259 647
f 522 805 290
f 83 84 1222
f 1194 703 198
f 1294 210 649
f 948 1130 224
f 263 607 650
f 1159 268 658
f 40 41 651
f 763 894 344
f 588 168 652
f 588 652 423
f 1056 188 653
f 360 1192 1057
f 9 10 654
f 1073 671 463
f 23 24 655
f 1301 1141 22
f 894 267 656
f 189 656 1015
f 1255 74 657
f 503 657 243
f 650 268 1159
f 606 658 169
f 795 403 659
f 288 659 416
f 1152 1045 660
f 280 660 526
f 763 344 1184
f 1177 661 636
f 636 280 930
f 865 526 315
f 1181 401 663
f 282 663 622
f 1178 470 664
f 96 664 95
f 33 34 876
f 312 665 764
f 610 247 1287
f 886 748 434
f 1012 286 667
f 210 667 1063
f 1017 235 668
f 1016 1124 156
f 1103 594 669
f 788 245 593
f 671 277 1160
f 346 1174 581
f 654 277 1073
f 463 671 1321
f 1006 260 672
f 437 672 909
f 834 196 673
f 367 673 1017
f 782 148 674
f 276 674 723
f 971 252 1089
f 316 1249 857
f 705 278 676
f 924 493 365
f 1230 278 677
f 515 677 226
f 1209 454 678
f 238 678 1041
f 952 406 679
f 145 1169 512
f 649 365 1130
f 224 1062 519
f 994 530 681
f 358 1264 1100
f 1223 1330 682
f 1242 221 903
f 450 558 683
f 450 683 223
f 136 137 1083
f 356 684 637
f 974 396 1072
f 591 685 393
f 1074 686 966
f 350 928 867
f 1145 418 687
f 6 687 5
f 204 435 688
f 433 688 258
f 716 149 689
f 261 689 851
f 525 301 690
f 1176 1049 522
f 626 200 691
f 357 691 692
f 691 262 692
f 357 692 1004
f 1278 623 693
f 257 693 644
f 997 694 891
f 319 939 1011
f 955 332 695
f 566 695 250
f 1325 134 696
f 1259 356 697
f 637 191 1334
f 356 1259 839
f 841 355 698
f 1170 699 586
f 698 179 699
f 586 699 294
f 456 170 700
f 271 700 1113
f 457 271 701
f 144 701 807
f 466 177 980
f 329 1135 1302
f 382 648 1194
f 198 703 416
f 542 322 1318
f 241 704 1353
f 655 278 705
f 1301 22 23
f 1146 407 1245
f 409 706 1314
f 522 290 1319
f 633 707 345
f 506 234 708
f 506 708 267
f 436 170 709
f 270 1241 590
f 1282 361 710
f 1254 1271 197
f 589 272 711
f 436 711 170
f 298 486 712
f 1349 1185 503
f 1050 199 713
f 298 713 486
f 592 303 714
f 115 714 114
f 1118 525 715
f 376 1096 1028
f 476 368 716
f 476 716 689
f 1358 291 717
f 1038 659 403
f 939 187 718
f 1196 611 341
f 1297 273 899
f 385 719 1238
f 447 590 1297
f 273 720 559
f 1069 354 721
f 1346 721 585
f 561 254 1288
f 359 722 902
f 346 581 982
f 1179 674 473
f 1037 211 724
f 338 724 557
f 638 299 828
f 1213 518 141
f 1189 1033 726
f 378 726 523
f 893 331 728
f 728 727 1205
f 645 184 1084
f 402 728 1205
f 81 1221 729
f 618 729 291
f 487 283 730
f 155 730 940
f 1027 189 731
f 283 731 837
f 730 283 732
f 428 732 967
f 1166 398 733
f 480 733 218
f 262 438 734
f 1046 614 502
f 1102 417 735
f 281 1058 1342
f 279 533 736
f 279 736 598
f 1208 173 737
f 1208 737 1207
f 1220 393 738
f 615 738 910
f 663 282 739
f 1181 739 172
f 981 441 740
f 282 740 434
f 1085 483 741
f 138 741 137
f 1353 422 742
f 543 742 318
f 337 583 743
f 1180 348 537
f 1007 395 744
f 452 744 100
f 749 324 1034
f 14 745 13
f 509 297 746
f 1171 787 304
f 1267 517 747
f 414 747 759
f 1162 172 748
f 397 748 666
f 993 359 749
f 15 1034 14
f 152 435 750
f 447 750 1328
f 532 334 751
f 333 1088 535
f 195 488 752
f 195 1341 1139
f 272 574 753
f 432 753 1112
f 1142 466 754
f 397 1279 604
f 295 536 816
f 145 1031 952
f 923 419 756
f 158 931 795
f 791 368 757
f 235 757 668
f 1352 227 1355
f 323 1281 892
f 999 414 759
f 354 759 1019
f 1002 451 760
f 193 760 490
f 760 451 761
f 285 1309 762
f 632 285 762
f 352 762 624
f 40 651 763
f 40 763 39
f 877 312 764
f 543 764 241
f 1333 374 765
f 1119 1115 379
f 484 296 766
f 1228 536 295
f 1115 296 767
f 451 767 761
f 1137 420 768
f 358 1313 681
f 933 386 769
f 1244 394 782
f 1000 286 770
f 254 770 588
f 1012 381 771
f 286 771 770
f 596 161 1327
f 1343 297 788
f 64 65 842
f 330 773 882
f 140 518 774
f 140 774 139
f 1272 219 775
f 1199 982 225
f 450 223 776
f 303 1086 714
f 450 303 777
f 176 777 975
f 1253 148 778
f 439 1276 863
f 658 268 1053
f 1165 779 195
f 93 634 780
f 92 780 1175
f 46 47 781
f 46 781 554
f 792 148 782
f 394 1244 769
f 1028 178 783
f 376 783 1118
f 479 218 784
f 479 784 274
f 973 342 974
f 396 785 1078
f 996 44 786
f 304 786 554
f 746 234 787
f 304 996 786
f 297 669 788
f 297 1343 772
f 1151 390 789
f 231 789 1261
f 789 390 790
f 314 790 1013
f 1013 368 791
f 314 791 565
f 778 148 792
f 404 792 918
f 884 384 793
f 1263 883 635
f 478 212 794
f 478 794 796
f 931 403 795
f 158 795 477
f 794 288 796
f 478 796 177
f 944 395 797
f 284 797 1252
f 1032 311 798
f 204 798 589
f 1258 1004 799
f 292 799 461
f 750 435 800
f 270 800 709
f 1048 351 801
f 584 801 77
f 957 292 802
f 443 802 209
f 626 357 1219
f 248 803 603
f 25 26 804
f 495 1146 226
f 647 190 805
f 290 805 806
f 1299 290 806
f 269 806 587
f 1225 144 807
f 391 807 1226
f 550 197 808
f 1284 363 573
f 315 487 809
f 1307 155 576
f 268 465 810
f 268 810 488
f 798 311 811
f 467 811 1134
f 97 98 812
f 470 944 937
f 881 459 813
f 150 813 1121
f 190 578 814
f 190 814 587
f 814 412 815
f 351 815 801
f 755 145 816
f 755 816 536
f 1095 305 817
f 425 817 1295
f 264 571 818
f 355 818 698
f 1215 232 819
f 383 819 1138
f 837 343 820
f 321 820 896
f 917 325 1360
f 1248 477 212
f 287 648 822
f 549 822 85
f 426 146 823
f 300 823 824
f 507 300 824
f 202 824 848
f 1023 300 825
f 178 825 783
f 827 79 826
f 341 826 965
f 78 79 827
f 584 964 269
f 1213 142 828
f 725 828 299
f 740 441 829
f 207 829 1168
f 1203 336 830
f 57 830 56
f 427 178 831
f 302 831 832
f 831 445 832
f 302 832 605
f 12 429 833
f 12 833 11
f 663 196 834
f 663 834 622
f 410 682 1242
f 221 835 512
f 126 127 836
f 126 836 932
f 1015 343 837
f 283 979 732
f 527 231 838
f 838 862 911
f 1083 356 839
f 135 839 696
f 683 448 840
f 223 840 987
f 585 355 841
f 585 841 472
f 773 330 842
f 773 842 65
f 1206 402 843
f 257 1278 693
f 928 388 844
f 157 844 505
f 1205 206 845
f 307 845 505
f 613 334 846
f 699 846 294
f 294 532 847
f 505 847 157
f 824 421 848
f 202 1348 992
f 1348 313 849
f 420 849 768
f 963 389 850
f 1311 1021 508
f 502 261 851
f 502 851 217
f 1062 308 852
f 147 852 632
f 1039 458 853
f 192 853 951
f 582 310 854
f 180 854 442
f 274 452 855
f 620 855 102
f 1212 186 856
f 316 1089 675
f 890 548 857
f 154 1333 765
f 156 481 858
f 156 858 981
f 1227 489 859
f 220 859 934
f 829 309 1200
f 180 860 1296
f 531 336 861
f 531 861 228
f 480 479 862
f 480 862 838
f 1276 248 863
f 563 863 603
f 595 284 864
f 595 864 167
f 186 662 865
f 186 865 575
f 967 203 866
f 427 1023 825
f 928 157 867
f 868 535 227
f 350 867 868
f 1352 1355 570
f 515 226 869
f 317 869 1316
f 1315 183 870
f 317 870 898
f 745 324 871
f 745 871 429
f 513 514 1131
f 327 872 631
f 494 327 873
f 630 873 256
f 1010 159 874
f 327 874 1131
f 215 459 875
f 582 875 310
f 562 33 876
f 562 876 312
f 551 312 877
f 183 877 543
f 453 67 878
f 758 878 323
f 86 87 879
f 549 1302 1135
f 576 338 880
f 252 880 577
f 875 459 881
f 310 881 541
f 535 330 882
f 227 882 453
f 793 175 883
f 635 883 328
f 1211 384 884
f 394 1065 782
f 1320 456 885
f 208 885 1117
f 364 666 886
f 364 886 1059
f 756 158 923
f 325 887 821
f 662 186 888
f 322 888 704
f 168 572 889
f 168 889 433
f 857 154 890
f 318 984 560
f 998 213 891
f 319 891 694
f 907 323 892
f 486 892 70
f 617 331 1128
f 593 893 184
f 651 267 894
f 1045 656 189
f 837 321 979
f 732 895 203
f 534 321 896
f 246 896 596
f 151 472 897
f 444 897 266
f 579 317 898
f 579 898 242
f 719 385 899
f 719 899 273
f 35 36 900
f 542 900 322
f 1056 437 901
f 902 749 359
f 188 901 902
f 188 902 1336
f 569 410 903
f 569 903 513
f 1345 163 904
f 1069 721 275
f 906 320 905
f 176 905 558
f 499 217 906
f 499 906 905
f 1355 323 907
f 199 907 713
f 273 559 908
f 384 908 793
f 324 901 909
f 871 909 222
f 738 275 910
f 615 910 151
f 230 527 1229
f 448 911 1116
f 1216 568 912
f 558 912 1310
f 915 458 1108
f 419 913 998
f 20 510 914
f 19 914 482
f 1108 236 915
f 853 915 406
f 923 325 916
f 236 916 1029
f 935 521 917
f 182 917 1247
f 293 635 918
f 404 918 626
f 397 604 1162
f 172 919 511
f 586 294 920
f 586 920 206
f 504 629 921
f 504 921 1077
f 48 49 922
f 424 922 973
f 158 887 923
f 419 923 916
f 210 676 924
f 210 924 649
f 635 328 925
f 200 925 438
f 871 222 926
f 429 1025 833
f 672 415 927
f 926 927 340
f 844 157 928
f 388 928 686
f 304 642 929
f 509 929 1103
f 322 636 930
f 322 930 888
f 756 319 931
f 756 931 158
f 836 678 932
f 126 932 125
f 1174 171 933
f 581 933 276
f 752 488 934
f 481 934 859
f 936 326 935
f 182 935 917
f 514 221 936
f 514 936 935
f 664 470 937
f 244 937 1154
f 9 654 938
f 9 938 8
f 694 187 939
f 694 939 319
f 967 302 940
f 428 940 730
f 531 485 941
f 531 941 1298
f 980 329 942
f 1091 1157 417
f 1064 430 943
f 240 943 567
f 812 395 944
f 812 944 470
f 1291 151 945
f 331 945 727
f 225 473 946
f 464 946 249
f 776 449 1086
f 714 947 114
f 381 649 948
f 381 948 572
f 724 211 949
f 370 1031 755
f 1028 539 1266
f 211 950 949
f 950 539 951
f 1061 853 406
f 1031 369 952
f 145 952 679
f 110 544 953
f 109 953 446
f 533 460 954
f 533 954 736
f 240 455 955
f 240 955 695
f 555 3 956
f 555 956 332
f 603 292 957
f 603 957 173
f 263 606 958
f 608 958 328
f 1026 485 959
f 51 959 528
f 335 446 960
f 335 960 641
f 105 529 961
f 104 961 103
f 1070 352 962
f 753 962 216
f 1204 389 963
f 848 963 313
f 1304 269 964
f 341 964 827
f 291 718 965
f 291 965 618
f 570 199 966
f 350 966 686
f 866 427 967
f 203 967 732
f 166 566 968
f 166 968 1273
f 592 116 969
f 592 969 583
f 194 557 970
f 194 970 1076
f 575 315 971
f 575 971 1089
f 528 342 972
f 528 972 51
f 922 342 973
f 424 973 817
f 785 396 974
f 973 974 214
f 538 176 975
f 538 975 1129
f 303 592 976
f 303 976 777
f 1187 164 977
f 579 977 317
f 185 599 978
f 535 978 330
f 283 837 979
f 732 979 895
f 702 329 980
f 702 980 177
f 622 156 981
f 622 981 282
f 581 723 982
f 346 982 775
f 264 818 983
f 637 1043 191
f 242 560 984
f 242 984 580
f 347 544 985
f 347 985 986
f 987 347 986
f 449 986 113
f 449 223 987
f 449 987 986
f 493 164 988
f 365 988 523
f 47 48 989
f 47 989 781
f 132 133 990
f 492 990 1267
f 491 256 991
f 491 991 212
f 1014 202 992
f 556 1137 259
f 1288 359 993
f 561 993 17
f 1052 349 994
f 162 994 1313
f 1147 171 995
f 927 995 340
f 43 44 996
f 552 996 787
f 1055 633 1186
f 213 997 891
f 913 213 998
f 419 998 756
f 921 414 999
f 904 999 354
f 510 286 1000
f 914 1000 482
f 560 183 1001
f 560 1001 318
f 1115 451 1002
f 1042 193 640
f 363 582 1003
f 363 1003 573
f 1219 357 1258
f 799 1004 160
f 1113 550 1005
f 701 1005 807
f 1056 360 1006
f 437 1006 672
f 797 395 1007
f 218 1007 784
f 737 443 1008
f 279 1008 533
f 494 215 1009
f 361 1009 1271
f 1282 159 1010
f 361 1010 494
f 939 468 1011
f 931 1011 403
f 771 286 1012
f 381 1294 649
f 790 716 1013
f 314 1013 791
f 301 507 1014
f 556 1014 992
f 731 189 1015
f 731 1015 837
f 367 668 1016
f 367 1016 622
f 668 367 1017
f 235 1017 440
f 1025 340 1018
f 277 1018 670
f 759 697 1019
f 354 1019 721
f 1210 238 1285
f 497 1020 1356
f 1022 353 1021
f 205 1021 850
f 686 353 1022
f 388 1022 623
f 426 300 1023
f 866 1023 427
f 1260 265 1024
f 483 1024 1305
f 926 340 1025
f 926 1025 429
f 52 53 1026
f 52 1026 959
f 660 189 1027
f 526 1027 487
f 783 376 1028
f 445 1028 1266
f 326 679 1029
f 521 1029 916
f 1066 119 1030
f 460 1030 954
f 370 949 1031
f 755 1031 145
f 889 311 1032
f 433 1359 688
f 308 726 1033
f 490 1033 193
f 15 749 1034
f 14 1034 745
f 260 627 1237
f 1147 933 171
f 1340 58 1036
f 492 1036 1153
f 832 211 1037
f 605 1037 338
f 468 717 1038
f 468 1038 1011
f 853 192 1039
f 1186 997 213
f 458 1039 1040
f 458 1040 913
f 678 405 1041
f 238 1041 1020
f 379 1002 1042
f 379 1042 580
f 355 585 1043
f 355 1043 983
f 597 339 1044
f 597 1044 184
f 344 894 1045
f 344 1045 1152
f 262 734 1046
f 262 1231 692
f 224 811 1047
f 224 1047 948
f 587 351 1048
f 269 1048 584
f 690 556 1049
f 690 1049 1176
f 1074 199 1050
f 349 1050 1051
f 530 349 1051
f 530 1051 1092
f 1075 349 1052
f 508 1052 849
f 779 372 1053
f 779 1053 268
f 8 463 1054
f 7 1145 6
f 377 525 1055
f 377 1055 1186
f 901 188 1056
f 360 1056 1192
f 621 152 1057
f 621 1057 1192
f 1175 498 1058
f 91 1058 90
f 1068 364 1059
f 1168 829 442
f 727 444 1060
f 206 1060 586
f 369 951 1061
f 369 1061 952
f 1250 308 1062
f 680 1062 224
f 705 676 1063
f 705 1063 380
f 1356 430 1064
f 566 1064 240
f 394 884 1065
f 782 1065 792
f 117 118 1308
f 348 1066 1030
f 589 467 1067
f 272 1067 574
f 541 150 1068
f 541 1068 1059
f 393 904 1069
f 393 1069 738
f 147 632 1070
f 574 1070 962
f 343 475 1071
f 343 1071 820
f 396 685 1072
f 974 1072 214
f 277 671 1073
f 654 1073 938
f 1075 353 1074
f 199 1074 966
f 1021 353 1075
f 508 1075 1052
f 970 536 1076
f 194 1076 766
f 1345 685 1077
f 163 1077 921
f 1077 396 1078
f 504 1078 861
f 608 366 1079
f 263 1079 607
f 908 559 1080
f 175 1080 608
f 720 208 1081
f 559 1081 1080
f 31 32 1082
f 31 1082 1265
f 137 684 1083
f 136 1083 839
f 184 728 1084
f 645 1084 1206
f 741 138 1085
f 483 1085 774
f 449 947 1086
f 776 1086 303
f 1253 439 1087
f 946 1087 249
f 751 185 1088
f 751 1088 333
f 856 575 1089
f 856 1089 316
f 216 624 1090
f 411 1090 643
f 233 942 1091
f 233 1102 604
f 1051 298 1092
f 530 1092 243
f 847 532 1093
f 157 1093 867
f 476 261 1257
f 372 1094 1164
f 616 181 1095
f 425 1095 817
f 376 715 1096
f 539 1096 951
f 1098 371 1097
f 619 1097 229
f 1099 371 1098
f 160 1098 619
f 1098 501 1099
f 371 1099 499
f 1101 358 1100
f 647 1100 190
f 647 259 1101
f 647 1101 1100
f 281 604 1102
f 281 1102 735
f 929 181 1103
f 509 1103 669
f 371 499 1104
f 371 1104 1097
f 765 374 1105
f 766 1105 194
f 155 605 1106
f 155 1106 576
f 665 542 1107
f 665 1107 764
f 916 236 1108
f 913 1108 458
f 634 471 1109
f 634 1191 253
f 711 432 1110
f 170 1110 700
f 1283 474 1112
f 1110 1111 362
f 753 216 1112
f 432 1112 1111
f 700 362 1113
f 271 1113 1005
f 1113 362 1114
f 550 1114 197
f 765 296 1119
f 379 1115 1002
f 911 165 1116
f 448 1116 840
f 885 457 1117
f 1081 1117 366
f 783 301 1118
f 376 1118 715
f 154 765 1119
f 154 1119 580
f 401 511 1182
f 253 1120 780
f 813 491 1121
f 150 1121 610
f 610 375 1122
f 610 1122 247
f 1121 491 1123
f 375 1123 478
f 481 156 1124
f 373 1124 668
f 1265 516 1125
f 29 1125 28
f 1299 540 1126
f 694 1126 187
f 1275 567 1127
f 127 1127 836
f 593 245 1128
f 893 1128 331
f 229 538 1129
f 229 1129 743
f 365 680 1130
f 649 1130 948
f 514 872 1131
f 513 1131 874
f 299 599 1132
f 469 1132 639
f 673 196 1317
f 1317 1133 1155
f 811 519 1134
f 467 1134 1067
f 329 702 1135
f 549 1135 822
f 616 425 1136
f 251 1136 1220
f 556 992 1137
f 259 1137 1101
f 987 840 1138
f 347 1138 819
f 757 368 1139
f 757 1341 373
f 103 961 1140
f 103 1140 620
f 655 705 1301
f 22 1141 21
f 601 466 1142
f 247 1142 1163
f 380 510 1143
f 380 1143 1141
f 129 130 1144
f 455 1144 555
f 1054 418 1145
f 6 1145 687
f 804 407 1146
f 804 1146 495
f 415 1035 1147
f 415 1147 995
f 657 74 1148
f 412 1148 815
f 953 544 1149
f 446 1149 960
f 1195 390 1150
f 568 1150 912
f 527 390 1151
f 231 1151 789
f 661 344 1152
f 661 1152 280
f 990 492 1153
f 132 1153 60
f 1155 244 1154
f 1156 595 167
f 664 244 1350
f 400 1155 1133
f 399 1154 1156
f 1306 1312 440
f 1091 547 1157
f 417 1157 89
f 641 545 1158
f 641 1158 274
f 263 650 1159
f 263 1159 606
f 277 670 1160
f 1161 346 775
f 671 1160 1161
f 671 1161 219
f 748 397 1162
f 172 1162 919
f 666 247 1163
f 397 1163 754
f 1053 372 1164
f 1053 1164 658
f 372 779 1165
f 372 1165 1257
f 733 480 1166
f 398 1166 1261
f 1172 606 1167
f 438 1167 734
f 541 1059 1168
f 541 1168 310
f 936 512 1169
f 326 1169 679
f 266 698 1170
f 266 1170 586
f 746 787 1171
f 509 1171 929
f 958 606 1172
f 328 1172 925
f 598 124 1173
f 454 1173 932
f 670 171 1174
f 670 1174 346
f 780 498 1175
f 92 1175 91
f 153 690 1176
f 153 1176 1319
f 38 661 1177
f 38 1177 37
f 812 470 1178
f 96 1178 664
f 225 723 1179
f 225 1179 473
f 229 743 1180
f 229 1180 537
f 663 739 1181
f 401 1181 511
f 511 1120 1182
f 401 1182 646
f 663 401 1183
f 663 1183 196
f 39 763 1184
f 39 1184 38
f 71 72 1185
f 712 1185 1349
f 633 997 1186
f 377 1186 1040
f 523 164 1187
f 378 1187 1188
f 242 640 1188
f 242 1188 579
f 640 193 1189
f 378 1189 726
f 597 246 1190
f 597 1190 339
f 1109 400 1191
f 1109 1191 634
f 1338 258 1192
f 653 1192 1056
f 98 99 1193
f 98 1193 812
f 648 703 1194
f 382 1194 1218
f 1150 568 1195
f 390 1195 790
f 187 611 1196
f 718 1196 965
f 687 418 1197
f 250 1197 546
f 671 219 1321
f 418 1198 1197
f 462 775 1199
f 462 1332 1273
f 309 860 1200
f 829 1200 442
f 1227 220 1201
f 391 1201 1225
f 243 657 1202
f 243 1202 1264
f 629 336 1203
f 629 1203 237
f 823 146 1204
f 389 1204 644
f 727 206 1205
f 402 1205 843
f 1324 645 1206
f 257 1206 843
f 598 387 1207
f 598 1207 279
f 431 173 1208
f 431 1208 1210
f 1210 387 1209
f 238 1209 678
f 1208 387 1210
f 431 1210 1285
f 1235 384 1339
f 201 1211 1246
f 888 186 1212
f 888 1212 704
f 828 725 1213
f 142 1213 141
f 607 144 1214
f 607 1214 650
f 1269 545 1215
f 383 1215 819
f 149 568 1216
f 500 1216 906
f 796 416 1217
f 796 1217 177
f 291 729 1218
f 717 1218 1194
f 1256 626 1219
f 248 1219 803
f 1136 591 1220
f 251 1220 738
f 81 82 1221
f 729 1221 382
f 84 648 1222
f 83 1222 1221
f 625 174 1223
f 410 1223 682
f 255 625 1224
f 255 1224 1351
f 1214 144 1225
f 465 1225 1201
f 807 306 1226
f 1296 860 489
f 1201 391 1227
f 220 1227 859
f 484 1076 1228
f 484 1228 1330
f 527 911 1229
f 230 1229 1310
f 676 278 1230
f 1274 677 515
f 1046 502 1231
f 1046 1231 262
f 804 495 1232
f 24 1232 655
f 771 381 1233
f 771 1233 168
f 391 1226 1234
f 391 1234 1227
f 1339 719 1235
f 384 1235 908
f 62 638 1236
f 62 1236 61
f 672 260 1237
f 672 1237 415
f 1239 385 1238
f 627 1238 201
f 1240 385 1239
f 628 1239 260
f 628 152 1240
f 628 1240 1239
f 270 709 1241
f 590 1320 208
f 682 835 1242
f 410 1242 903
f 274 1158 1243
f 479 1243 862
f 276 769 1244
f 276 1244 674
f 407 706 1245
f 1146 1245 226
f 627 201 1246
f 386 1246 769
f 392 631 1247
f 392 1360 821
f 392 821 1248
f 392 1248 991
f 316 675 1249
f 857 1249 1333
f 680 523 1250
f 680 1250 1062
f 623 307 1251
f 623 1251 388
f 864 284 1252
f 398 1252 733
f 473 148 1253
f 473 1253 1087
f 474 710 1254
f 474 1254 1111
f 72 73 1255
f 503 1255 657
f 778 404 1256
f 778 1256 1276
f 1165 476 1257
f 372 1257 1094
f 357 1004 1258
f 803 1258 292
f 696 839 1259
f 289 1259 697
f 518 265 1260
f 774 1260 483
f 1166 231 1261
f 398 1261 1262
f 864 398 1262
f 167 1262 496
f 293 793 1263
f 293 1263 635
f 681 243 1264
f 681 1264 358
f 30 31 1265
f 29 1265 1125
f 832 445 1266
f 211 1266 950
f 747 237 1267
f 517 1267 990
f 234 553 1268
f 234 1268 708
f 1243 545 1269
f 165 1269 1116
f 630 256 1270
f 630 1270 459
f 1254 710 1271
f 602 1271 1009
f 1198 219 1272
f 546 1272 462
f 968 462 1273
f 166 1273 464
f 493 1230 1274
f 493 1274 164
f 128 129 1275
f 128 1275 1127
f 1256 248 1276
f 778 1276 439
f 461 619 1277
f 461 1277 209
f 307 623 1278
f 843 1278 257
f 397 754 1279
f 604 1279 233
f 804 26 1280
f 407 1300 564
f 323 878 1281
f 892 1281 69
f 643 159 1282
f 411 1282 710
f 1112 216 1283
f 474 1283 710
f 306 808 1284
f 306 1284 1226
f 1020 497 1285
f 1020 1285 238
f 1082 562 1286
f 516 1286 239
f 1068 610 1287
f 364 1287 666
f 254 722 1288
f 561 1288 993
f 245 594 1289
f 245 1289 617
f 616 251 1290
f 408 1290 615
f 617 408 1291
f 617 1291 945
f 989 424 1292
f 989 1292 781
f 41 42 1293
f 41 1293 651
f 667 210 1294
f 1012 1294 381
f 817 214 1295
f 425 1295 1136
f 573 180 1296
f 1234 1296 489
f 899 447 1297
f 273 1297 720
f 336 531 1298
f 830 1298 56
f 707 290 1299
f 707 1299 345
f 407 1280 1300
f 564 1300 28
f 705 1141 1301
f 655 1301 23
f 942 329 1302
f 547 1302 879
f 1240 152 1303
f 1240 1303 899
f 806 269 1304
f 806 1304 540
f 571 264 1305
f 571 1305 1024
f 399 1156 1306
f 399 1306 673
f 315 809 1307
f 315 1307 971
f 118 1066 1308
f 583 1308 743
f 285 761 1309
f 762 1309 625
f 912 230 1310
f 558 1310 683
f 313 850 1311
f 313 1311 849
f 496 565 1312
f 167 1312 1306
f 994 681 1313
f 162 1313 768
f 239 551 1314
f 239 1314 706
f 551 183 1315
f 1316 870 317
f 409 1315 1316
f 409 1316 869
f 399 673 1317
f 399 1317 1155
f 1107 542 1318
f 241 1318 704
f 707 153 1319
f 707 1319 290
f 590 1241 1320
f 208 1320 885
f 1054 463 1321
f 418 1321 1198
f 1204 146 1322
f 644 1322 413
f 1329 413 1323
f 246 1323 609
f 644 413 1324
f 257 1324 1206
f 133 134 1325
f 517 1325 696
f 506 1293 1326
f 552 1326 43
f 1190 596 1327
f 339 1327 1343
f 590 447 1328
f 590 1328 270
f 645 413 1329
f 597 1329 246
f 767 484 1330
f 174 1330 1223
f 215 582 1331
f 1009 1331 602
f 462 1199 1332
f 1273 1332 464
f 1249 374 1333
f 857 1333 154
f 191 697 1334
f 637 1334 356
f 109 446 1335
f 108 1335 107
f 722 423 1336
f 722 1336 902
f 722 254 1337
f 423 1337 588
f 653 423 1338
f 653 1338 1192
f 201 719 1339
f 1211 1339 384
f 830 57 1340
f 830 1340 524
f 195 752 1341
f 1139 1341 757
f 919 281 1342
f 511 1342 1120
f 1327 772 1343
f 339 1343 593
f 236 1029 1344
f 915 1344 406
f 1077 163 1345
f 685 1345 393
f 275 721 1346
f 275 1346 910
f 808 197 1347
f 808 1347 363
f 202 848 1348
f 420 1348 849
f 298 712 1349
f 298 1349 1092
f 1109 471 1350
f 1109 1350 400
f 643 255 1351
f 643 1351 569
f 350 868 1352
f 350 1352 966
f 704 422 1353
f 241 1353 742
f 1212 856 1354
f 422 1354 548
f 758 323 1355
f 758 1355 227
f 1020 430 1356
f 166 1356 566
f 414 921 1357
f 414 1357 747
f 468 718 1358
f 468 1358 717
f 433 1032 1359
f 688 1359 204
f 392 1247 1360
f 821 1360 325
